<?xml version="1.0" encoding="UTF-8" standalone="no"?>
<svg
   xmlns:dc="http://purl.org/dc/elements/1.1/"
   xmlns:cc="http://creativecommons.org/ns#"
   xmlns:rdf="http://www.w3.org/1999/02/22-rdf-syntax-ns#"
   xmlns:svg="http://www.w3.org/2000/svg"
   xmlns="http://www.w3.org/2000/svg"
   xmlns:sodipodi="http://sodipodi.sourceforge.net/DTD/sodipodi-0.dtd"
   xmlns:inkscape="http://www.inkscape.org/namespaces/inkscape"
   inkscape:version="1.0 (4035a4f, 2020-05-01)"
   sodipodi:docname="container_vs_os.svg"
   version="1.1"
   viewBox="0 0 1540 612"
   height="612"
   width="1540"
   data-name="Layer 1"
   id="Layer_1">
  <metadata
     id="metadata343">
    <rdf:RDF>
      <cc:Work
         rdf:about="">
        <dc:format>image/svg+xml</dc:format>
        <dc:type
           rdf:resource="http://purl.org/dc/dcmitype/StillImage" />
        <dc:title></dc:title>
        <dc:subject>
          <rdf:Bag>
            <rdf:li>do180</rdf:li>
            <rdf:li>kubernetes</rdf:li>
            <rdf:li>networking</rdf:li>
            <rdf:li>architecture</rdf:li>
            <rdf:li>query</rdf:li>
            <rdf:li>container</rdf:li>
            <rdf:li>mono</rdf:li>
            <rdf:li>micro</rdf:li>
          </rdf:Bag>
        </dc:subject>
      </cc:Work>
    </rdf:RDF>
  </metadata>
  <sodipodi:namedview
     inkscape:current-layer="Layer_1"
     inkscape:window-maximized="0"
     inkscape:window-y="25"
     inkscape:window-x="0"
     inkscape:cy="306"
     inkscape:cx="770"
     inkscape:zoom="0.32532468"
     showgrid="false"
     id="namedview341"
     inkscape:window-height="480"
     inkscape:window-width="987"
     inkscape:pageshadow="2"
     inkscape:pageopacity="0"
     guidetolerance="10"
     gridtolerance="10"
     objecttolerance="10"
     borderopacity="1"
     bordercolor="#666666"
     pagecolor="#ffffff" />
  <defs
     id="defs12">
    <style
       id="style10">
      .cls-1 {
        fill: #e6e6e6;
      }

      .cls-2, .cls-5 {
        fill: #fff;
      }

      .cls-3 {
        fill: #bebebe;
      }

      .cls-4 {
        fill: #dcdcdc;
      }

      .cls-5, .cls-8 {
        stroke: #3f9c35;
      }

      .cls-5, .cls-7, .cls-8 {
        stroke-miterlimit: 10;
        stroke-width: 3px;
      }

      .cls-6 {
        fill: #4c4c4c;
      }

      .cls-7, .cls-8 {
        fill: none;
      }

      .cls-7 {
        stroke: #4c4c4c;
      }

      .cls-9 {
        fill: #3f9c35;
      }
    </style>
  </defs>
  <rect
     id="rect14"
     height="578"
     width="711"
     y="16"
     x="21"
     class="cls-1" />
  <rect
     id="rect16"
     height="578"
     width="715"
     y="16"
     x="805"
     class="cls-1" />
  <rect
     id="rect18"
     height="152"
     width="627"
     y="280"
     x="64"
     class="cls-2" />
  <rect
     id="rect20"
     height="210"
     width="308"
     y="141"
     x="849"
     class="cls-2" />
  <rect
     id="rect22"
     height="210"
     width="308"
     y="141"
     x="1168"
     class="cls-2" />
  <rect
     id="rect24"
     height="74"
     width="627"
     y="360"
     x="849"
     class="cls-2" />
  <rect
     id="rect26"
     height="74"
     width="627"
     y="443"
     x="64"
     class="cls-3" />
  <rect
     id="rect28"
     height="60.5"
     width="143.25"
     y="234.5"
     x="931.375"
     class="cls-4" />
  <rect
     id="rect30"
     height="60.5"
     width="143.25"
     y="165.5"
     x="931.375"
     class="cls-5" />
  <rect
     id="rect32"
     height="60.5"
     width="143.25"
     y="234.5"
     x="1250.375"
     class="cls-4" />
  <rect
     id="rect34"
     height="60.5"
     width="143.25"
     y="165.5"
     x="1250.375"
     class="cls-5" />
  <rect
     id="rect36"
     height="74"
     width="627"
     y="443"
     x="849"
     class="cls-3" />
  <g
     id="g64">
    <path
       id="path38"
       d="M291.492,552.5V568.23h-3.92V552.5h-5.629v-3.864H297.12V552.5Z"
       class="cls-6" />
    <path
       id="path40"
       d="M306.473,558.039a3.334,3.334,0,0,0-2.241-.952c-1.511,0-2.492.643-2.492,3.192v7.951h-3.863v-14.7h3.863v.981a4.069,4.069,0,0,1,3.025-1.289,3.755,3.755,0,0,1,2.715,1.036Z"
       class="cls-6" />
    <path
       id="path42"
       d="M317.255,568.23v-.979a4.691,4.691,0,0,1-3.3,1.288c-2.744,0-5.488-1.68-5.488-5.236,0-3.248,2.633-4.871,5.965-4.871a6.079,6.079,0,0,1,2.827.588v-.729a1.86,1.86,0,0,0-2.1-1.876,7.258,7.258,0,0,0-4.032.98l-1.483-2.688a9.885,9.885,0,0,1,5.515-1.484c3.556,0,5.964,1.847,5.964,5.152v9.855Zm0-6.16a4.478,4.478,0,0,0-2.688-.615c-1.456,0-2.24.672-2.24,1.848,0,1.036.588,1.961,2.24,1.961a3.162,3.162,0,0,0,2.688-1.345Z"
       class="cls-6" />
    <path
       id="path44"
       d="M332.8,568.23v-.923a4.53,4.53,0,0,1-3.107,1.232c-3.137,0-5.712-2.352-5.712-7.84,0-4.4,2.071-7.476,5.712-7.476a4.655,4.655,0,0,1,3.107,1.148v-4.62l3.864-1.933V568.23Zm0-10.107a3.074,3.074,0,0,0-2.6-1.26c-1.484,0-2.295,1.287-2.295,3.752,0,3.024,1.007,4.283,2.519,4.283a2.706,2.706,0,0,0,2.38-1.231Z"
       class="cls-6" />
    <path
       id="path46"
       d="M342.539,552.327a2.213,2.213,0,1,1,2.212-2.212A2.236,2.236,0,0,1,342.539,552.327Zm-1.932,15.9v-14.7h3.864v14.7Z"
       class="cls-6" />
    <path
       id="path48"
       d="M356.567,567.643a5.152,5.152,0,0,1-3,.9c-2.38,0-3.92-1.848-3.92-4.424v-6.944h-2.463v-3.64h2.463v-3.78l3.864-1.933v5.713h3.528v3.64h-3.528v5.908c0,1.4.5,1.764,1.428,1.764.7,0,1.232-.308,2.184-1.12Z"
       class="cls-6" />
    <path
       id="path50"
       d="M362.811,552.327a2.213,2.213,0,1,1,2.211-2.212A2.235,2.235,0,0,1,362.811,552.327Zm-1.932,15.9v-14.7h3.863v14.7Z"
       class="cls-6" />
    <path
       id="path52"
       d="M374.515,568.539c-3.836,0-6.636-3.137-6.636-7.644s2.8-7.672,6.636-7.672,6.664,3.164,6.664,7.672S378.351,568.539,374.515,568.539Zm0-11.592c-1.848,0-2.716,1.68-2.716,3.948s.868,3.919,2.716,3.919,2.744-1.875,2.744-3.919C377.259,558.654,376.362,556.947,374.515,556.947Z"
       class="cls-6" />
    <path
       id="path54"
       d="M393.051,568.23v-7.951c0-2.633-.9-3.416-2.492-3.416s-2.521.783-2.521,3.332v8.035h-3.863v-14.7h3.863v.981a4.815,4.815,0,0,1,3.444-1.289c3.752,0,5.432,2.576,5.432,6.72v8.287Z"
       class="cls-6" />
    <path
       id="path56"
       d="M408.618,568.23v-.979a4.691,4.691,0,0,1-3.3,1.288c-2.744,0-5.488-1.68-5.488-5.236,0-3.248,2.632-4.871,5.964-4.871a6.084,6.084,0,0,1,2.828.588v-.729a1.86,1.86,0,0,0-2.1-1.876,7.255,7.255,0,0,0-4.033.98L401,554.707a9.889,9.889,0,0,1,5.517-1.484c3.555,0,5.963,1.847,5.963,5.152v9.855Zm0-6.16a4.478,4.478,0,0,0-2.688-.615c-1.455,0-2.24.672-2.24,1.848,0,1.036.588,1.961,2.24,1.961a3.162,3.162,0,0,0,2.688-1.345Z"
       class="cls-6" />
    <path
       id="path58"
       d="M416.234,568.23V549.751l3.865-1.933V568.23Z"
       class="cls-6" />
    <path
       id="path60"
       d="M440.23,568.539c-5.348,0-8.512-4.144-8.512-10.107s3.164-10.109,8.512-10.109,8.512,4.144,8.512,10.109S445.578,568.539,440.23,568.539Zm0-16.324c-3.164,0-4.48,2.717-4.48,6.217s1.316,6.214,4.48,6.214,4.48-2.714,4.48-6.214S443.4,552.215,440.23,552.215Z"
       class="cls-6" />
    <path
       id="path62"
       d="M458.993,568.539a9.084,9.084,0,0,1-7.616-3.557l2.828-2.519a6.35,6.35,0,0,0,5.012,2.24c2.324,0,3.416-.644,3.416-2.128,0-1.261-.672-1.82-4.368-2.66-3.613-.84-6.132-1.988-6.132-5.853,0-3.555,3.136-5.739,7-5.739a9.367,9.367,0,0,1,7.139,3.079l-2.828,2.744a5.976,5.976,0,0,0-4.451-2.015c-2.1,0-2.8.9-2.8,1.764,0,1.232.841,1.625,3.949,2.352s6.551,1.792,6.551,6.048C466.692,566.02,464.341,568.539,458.993,568.539Z"
       class="cls-6" />
  </g>
  <g
     id="g82">
    <path
       id="path66"
       d="M336.809,489.2v-7.536H329.08V489.2h-2.52V472.4h2.52v6.793h7.729V472.4h2.52v16.8Z"
       class="cls-6" />
    <path
       id="path68"
       d="M350.561,489.2v-1.248a4.963,4.963,0,0,1-3.457,1.513,4.065,4.065,0,0,1-4.369-4.249c0-2.808,2.161-4.08,5.017-4.08a6.962,6.962,0,0,1,2.809.48v-.935c0-1.369-.841-2.137-2.377-2.137a6.359,6.359,0,0,0-3.288.792l-.96-1.872a7.81,7.81,0,0,1,4.32-1.129c2.808,0,4.728,1.369,4.728,4.225v8.64Zm0-5.376a6.229,6.229,0,0,0-2.881-.551c-1.584,0-2.592.719-2.592,1.872,0,1.248.792,2.087,2.424,2.087a3.962,3.962,0,0,0,3.049-1.608Z"
       class="cls-6" />
    <path
       id="path70"
       d="M363.376,479.213a3.692,3.692,0,0,0-1.9-.456c-1.559,0-2.471,1.1-2.471,3.24v7.2h-2.473V476.6h2.473v1.2a3.494,3.494,0,0,1,2.88-1.465,3.618,3.618,0,0,1,2.136.529Z"
       class="cls-6" />
    <path
       id="path72"
       d="M373.478,489.2V488a4.8,4.8,0,0,1-3.289,1.464c-2.711,0-4.848-1.968-4.848-6.769,0-4.32,2.352-6.361,4.969-6.361a4.474,4.474,0,0,1,3.168,1.441v-4.8l2.448-1.273v17.5Zm.024-8.927a4.033,4.033,0,0,0-2.952-1.657c-1.777,0-2.737,1.344-2.737,4.008,0,3.168,1.008,4.561,2.833,4.561a3.872,3.872,0,0,0,2.856-1.609Z"
       class="cls-6" />
    <path
       id="path74"
       d="M391.07,489.2h-2.112l-1.7-6.359c-.264-.961-.528-2.089-.648-2.69-.12.6-.384,1.753-.648,2.713l-1.68,6.336h-2.112l-3.457-12.6h2.448l1.489,6.12c.24.961.5,2.16.624,2.761.144-.624.432-1.777.7-2.761l1.68-6.12h1.992l1.7,6.144c.264.984.528,2.113.673,2.737.143-.624.383-1.8.624-2.761l1.488-6.12h2.448Z"
       class="cls-6" />
    <path
       id="path76"
       d="M403.744,489.2v-1.248a4.961,4.961,0,0,1-3.457,1.513,4.065,4.065,0,0,1-4.368-4.249c0-2.808,2.16-4.08,5.017-4.08a6.957,6.957,0,0,1,2.808.48v-.935c0-1.369-.841-2.137-2.377-2.137a6.359,6.359,0,0,0-3.288.792l-.96-1.872a7.813,7.813,0,0,1,4.32-1.129c2.809,0,4.729,1.369,4.729,4.225v8.64Zm0-5.376a6.226,6.226,0,0,0-2.881-.551c-1.584,0-2.592.719-2.592,1.872,0,1.248.792,2.087,2.424,2.087a3.959,3.959,0,0,0,3.049-1.608Z"
       class="cls-6" />
    <path
       id="path78"
       d="M416.56,479.213a3.7,3.7,0,0,0-1.9-.456c-1.559,0-2.472,1.1-2.472,3.24v7.2h-2.472V476.6h2.472v1.2a3.5,3.5,0,0,1,2.88-1.465,3.624,3.624,0,0,1,2.137.529Z"
       class="cls-6" />
    <path
       id="path80"
       d="M429.307,483.773h-8.329c.263,2.424,1.631,3.456,3.168,3.456a4.415,4.415,0,0,0,2.736-1.007l1.465,1.584A5.867,5.867,0,0,1,424,489.462c-2.952,0-5.448-2.376-5.448-6.553,0-4.272,2.256-6.577,5.52-6.577,3.576,0,5.3,2.9,5.3,6.313C429.378,483.1,429.33,483.51,429.307,483.773Zm-5.4-5.209c-1.656,0-2.665,1.153-2.881,3.168h5.857C426.762,480.005,425.946,478.564,423.906,478.564Z"
       class="cls-6" />
  </g>
  <g
     id="g100">
    <path
       id="path84"
       d="M1121.809,489.2v-7.536h-7.729V489.2h-2.52V472.4h2.52v6.793h7.729V472.4h2.52v16.8Z"
       class="cls-6" />
    <path
       id="path86"
       d="M1135.561,489.2v-1.248a4.963,4.963,0,0,1-3.457,1.513,4.065,4.065,0,0,1-4.369-4.249c0-2.808,2.161-4.08,5.017-4.08a6.962,6.962,0,0,1,2.809.48v-.935c0-1.369-.841-2.137-2.377-2.137a6.359,6.359,0,0,0-3.288.792l-.96-1.872a7.81,7.81,0,0,1,4.32-1.129c2.808,0,4.728,1.369,4.728,4.225v8.64Zm0-5.376a6.229,6.229,0,0,0-2.881-.551c-1.584,0-2.592.719-2.592,1.872,0,1.248.792,2.087,2.424,2.087a3.962,3.962,0,0,0,3.049-1.608Z"
       class="cls-6" />
    <path
       id="path88"
       d="M1148.376,479.213a3.692,3.692,0,0,0-1.9-.456c-1.559,0-2.471,1.1-2.471,3.24v7.2h-2.473V476.6h2.473v1.2a3.494,3.494,0,0,1,2.88-1.465,3.618,3.618,0,0,1,2.136.529Z"
       class="cls-6" />
    <path
       id="path90"
       d="M1158.478,489.2V488a4.8,4.8,0,0,1-3.289,1.464c-2.711,0-4.848-1.968-4.848-6.769,0-4.32,2.352-6.361,4.969-6.361a4.474,4.474,0,0,1,3.168,1.441v-4.8l2.448-1.273v17.5Zm.024-8.927a4.033,4.033,0,0,0-2.952-1.657c-1.777,0-2.737,1.344-2.737,4.008,0,3.168,1.008,4.561,2.833,4.561a3.872,3.872,0,0,0,2.856-1.609Z"
       class="cls-6" />
    <path
       id="path92"
       d="M1176.07,489.2h-2.112l-1.7-6.359c-.264-.961-.528-2.089-.648-2.69-.12.6-.384,1.753-.648,2.713l-1.68,6.336h-2.112l-3.457-12.6h2.448l1.489,6.12c.24.961.5,2.16.624,2.761.144-.624.432-1.777.7-2.761l1.68-6.12h1.992l1.7,6.144c.264.984.528,2.113.673,2.737.143-.624.383-1.8.624-2.761l1.488-6.12h2.448Z"
       class="cls-6" />
    <path
       id="path94"
       d="M1188.744,489.2v-1.248a4.961,4.961,0,0,1-3.457,1.513,4.065,4.065,0,0,1-4.368-4.249c0-2.808,2.16-4.08,5.017-4.08a6.957,6.957,0,0,1,2.808.48v-.935c0-1.369-.841-2.137-2.377-2.137a6.359,6.359,0,0,0-3.288.792l-.96-1.872a7.813,7.813,0,0,1,4.32-1.129c2.809,0,4.729,1.369,4.729,4.225v8.64Zm0-5.376a6.226,6.226,0,0,0-2.881-.551c-1.584,0-2.592.719-2.592,1.872,0,1.248.792,2.087,2.424,2.087a3.959,3.959,0,0,0,3.049-1.608Z"
       class="cls-6" />
    <path
       id="path96"
       d="M1201.56,479.213a3.7,3.7,0,0,0-1.9-.456c-1.559,0-2.472,1.1-2.472,3.24v7.2h-2.472V476.6h2.472v1.2a3.5,3.5,0,0,1,2.88-1.465,3.624,3.624,0,0,1,2.137.529Z"
       class="cls-6" />
    <path
       id="path98"
       d="M1214.307,483.773h-8.329c.263,2.424,1.631,3.456,3.168,3.456a4.415,4.415,0,0,0,2.736-1.007l1.465,1.584a5.867,5.867,0,0,1-4.345,1.656c-2.952,0-5.448-2.376-5.448-6.553,0-4.272,2.256-6.577,5.52-6.577,3.576,0,5.3,2.9,5.3,6.313C1214.378,483.1,1214.33,483.51,1214.307,483.773Zm-5.4-5.209c-1.656,0-2.665,1.153-2.881,3.168h5.857C1211.762,480.005,1210.946,478.564,1208.906,478.564Z"
       class="cls-6" />
  </g>
  <g
     id="g114">
    <path
       id="path102"
       d="M1129.86,406.2v-7.536h-7.728V406.2h-2.521V389.4h2.521v6.793h7.728V389.4h2.52v16.8Z"
       class="cls-6" />
    <path
       id="path104"
       d="M1141.331,406.462c-3.168,0-5.544-2.616-5.544-6.553,0-4.128,2.448-6.577,5.616-6.577,3.216,0,5.617,2.568,5.617,6.506C1147.02,404.014,1144.571,406.462,1141.331,406.462Zm-.023-10.776c-1.872,0-3.025,1.655-3.025,4.152,0,2.76,1.272,4.271,3.145,4.271s3.095-1.9,3.095-4.2C1144.523,397.341,1143.3,395.686,1141.308,395.686Z"
       class="cls-6" />
    <path
       id="path106"
       d="M1153.906,406.462a8.61,8.61,0,0,1-4.824-1.608l1.128-1.873a6.624,6.624,0,0,0,3.673,1.248c1.559,0,2.3-.5,2.3-1.391,0-.961-1.1-1.416-2.928-2.113-2.712-1.056-3.7-1.967-3.7-3.959,0-2.257,1.777-3.434,4.3-3.434a7.5,7.5,0,0,1,4.273,1.393l-1.08,1.9a5.483,5.483,0,0,0-3.264-1.08c-1.2,0-1.728.48-1.728,1.152,0,.623.431,1.08,2.328,1.825,2.808,1.08,4.248,1.847,4.248,4.223C1158.635,405.525,1156.379,406.462,1153.906,406.462Z"
       class="cls-6" />
    <path
       id="path108"
       d="M1167.587,405.886a5.025,5.025,0,0,1-2.425.576c-1.752,0-2.832-1.08-2.832-3.337v-7.271h-1.8V393.6h1.8V390l2.425-1.3v4.9h3.12v2.257h-3.12v6.839c0,1.176.384,1.512,1.3,1.512a3.959,3.959,0,0,0,1.824-.5Z"
       class="cls-6" />
    <path
       id="path110"
       d="M1184.387,406.462c-4.345,0-7.105-3.577-7.105-8.665s2.76-8.664,7.105-8.664c4.368,0,7.129,3.576,7.129,8.664S1188.755,406.462,1184.387,406.462Zm0-14.81c-2.929,0-4.536,2.377-4.536,6.145s1.607,6.144,4.536,6.144c2.952,0,4.56-2.376,4.56-6.144S1187.339,391.652,1184.387,391.652Z"
       class="cls-6" />
    <path
       id="path112"
       d="M1199.772,406.462a7.778,7.778,0,0,1-5.976-2.712l1.8-1.752a6.14,6.14,0,0,0,4.368,1.992c2.352,0,3.48-.816,3.48-2.449,0-1.3-.984-1.943-3.793-2.783-3.551-1.057-5.256-1.946-5.256-4.946,0-2.9,2.449-4.679,5.544-4.679a7.535,7.535,0,0,1,5.5,2.279l-1.777,1.8a5.089,5.089,0,0,0-3.912-1.609c-1.969,0-2.809.96-2.809,2.089,0,1.176.769,1.752,3.672,2.616,3.313,1.007,5.377,2.064,5.377,5.064C1205.989,404.4,1204.069,406.462,1199.772,406.462Z"
       class="cls-6" />
  </g>
  <g
     id="g128">
    <path
       id="path116"
       d="M344.86,404.2v-7.536h-7.728V404.2h-2.521V387.4h2.521v6.793h7.728V387.4h2.521v16.8Z"
       class="cls-6" />
    <path
       id="path118"
       d="M356.332,404.462c-3.169,0-5.545-2.616-5.545-6.553,0-4.128,2.448-6.577,5.617-6.577,3.216,0,5.617,2.568,5.617,6.506C362.021,402.014,359.572,404.462,356.332,404.462Zm-.024-10.776c-1.872,0-3.025,1.655-3.025,4.152,0,2.76,1.273,4.271,3.145,4.271s3.1-1.9,3.1-4.2C359.524,395.341,358.3,393.686,356.308,393.686Z"
       class="cls-6" />
    <path
       id="path120"
       d="M368.907,404.462a8.607,8.607,0,0,1-4.824-1.608l1.128-1.873a6.618,6.618,0,0,0,3.672,1.248c1.56,0,2.305-.5,2.305-1.391,0-.961-1.1-1.416-2.929-2.113-2.712-1.056-3.7-1.967-3.7-3.959,0-2.257,1.777-3.434,4.3-3.434a7.5,7.5,0,0,1,4.273,1.393l-1.08,1.9a5.484,5.484,0,0,0-3.265-1.08c-1.2,0-1.728.48-1.728,1.152,0,.623.432,1.08,2.329,1.825,2.807,1.08,4.248,1.847,4.248,4.223C373.636,403.525,371.38,404.462,368.907,404.462Z"
       class="cls-6" />
    <path
       id="path122"
       d="M382.587,403.886a5.018,5.018,0,0,1-2.424.576c-1.752,0-2.832-1.08-2.832-3.337v-7.271h-1.8V391.6h1.8V388l2.424-1.3v4.9h3.12v2.257h-3.12v6.839c0,1.176.384,1.512,1.3,1.512a3.955,3.955,0,0,0,1.824-.5Z"
       class="cls-6" />
    <path
       id="path124"
       d="M399.387,404.462c-4.344,0-7.105-3.577-7.105-8.665s2.761-8.664,7.105-8.664c4.369,0,7.129,3.576,7.129,8.664S403.756,404.462,399.387,404.462Zm0-14.81c-2.928,0-4.536,2.377-4.536,6.145s1.608,6.144,4.536,6.144c2.953,0,4.56-2.376,4.56-6.144S402.34,389.652,399.387,389.652Z"
       class="cls-6" />
    <path
       id="path126"
       d="M414.773,404.462a7.778,7.778,0,0,1-5.976-2.712L410.6,400a6.14,6.14,0,0,0,4.368,1.992c2.352,0,3.48-.816,3.48-2.449,0-1.3-.983-1.943-3.792-2.783-3.552-1.057-5.257-1.946-5.257-4.946,0-2.9,2.449-4.679,5.545-4.679a7.533,7.533,0,0,1,5.5,2.279l-1.777,1.8a5.088,5.088,0,0,0-3.912-1.609c-1.968,0-2.808.96-2.808,2.089,0,1.176.768,1.752,3.672,2.616,3.313,1.007,5.377,2.064,5.377,5.064C420.99,402.4,419.069,404.462,414.773,404.462Z"
       class="cls-6" />
  </g>
  <g
     id="g138">
    <path
       id="path130"
       d="M982.266,204.947l-1.416-3.984h-6.721l-1.393,3.984H970.12l6.049-16.8h2.664l6.121,16.8Zm-3.529-10.1c-.408-1.2-1.08-3.144-1.272-3.864-.192.72-.792,2.64-1.224,3.888l-1.345,3.84h5.185Z"
       class="cls-6" />
    <path
       id="path132"
       d="M993.521,205.212a4.474,4.474,0,0,1-3.168-1.441v4.538L987.9,209.58V192.347h2.449v1.2a4.8,4.8,0,0,1,3.288-1.465c2.713,0,4.848,1.969,4.848,6.77C998.489,203.172,996.137,205.212,993.521,205.212Zm-.336-10.849a3.869,3.869,0,0,0-2.856,1.608v5.3a4.033,4.033,0,0,0,2.952,1.657c1.776,0,2.737-1.344,2.737-4.008C996.018,195.755,995.009,194.363,993.185,194.363Z"
       class="cls-6" />
    <path
       id="path134"
       d="M1007.2,205.212a4.478,4.478,0,0,1-3.168-1.441v4.538l-2.448,1.271V192.347h2.448v1.2a4.8,4.8,0,0,1,3.288-1.465c2.713,0,4.849,1.969,4.849,6.77C1012.169,203.172,1009.816,205.212,1007.2,205.212Zm-.336-10.849a3.866,3.866,0,0,0-2.855,1.608v5.3a4.033,4.033,0,0,0,2.952,1.657c1.775,0,2.736-1.344,2.736-4.008C1009.7,195.755,1008.688,194.363,1006.864,194.363Z"
       class="cls-6" />
    <path
       id="path136"
       d="M1033.192,204.947l-1.416-3.984h-6.72l-1.392,3.984h-2.616l6.049-16.8h2.664l6.12,16.8Zm-3.528-10.1c-.407-1.2-1.08-3.144-1.271-3.864-.193.72-.792,2.64-1.225,3.888l-1.344,3.84h5.185Z"
       class="cls-6" />
  </g>
  <g
     id="g148">
    <path
       id="path140"
       d="M1301.709,204.947l-1.416-3.984h-6.721l-1.391,3.984h-2.617l6.049-16.8h2.664l6.12,16.8Zm-3.528-10.1c-.408-1.2-1.08-3.144-1.272-3.864-.192.72-.792,2.64-1.224,3.888l-1.344,3.84h5.184Z"
       class="cls-6" />
    <path
       id="path142"
       d="M1312.965,205.212a4.471,4.471,0,0,1-3.168-1.441v4.538l-2.448,1.271V192.347h2.448v1.2a4.8,4.8,0,0,1,3.288-1.465c2.712,0,4.849,1.969,4.849,6.77C1317.934,203.172,1315.581,205.212,1312.965,205.212Zm-.336-10.849a3.873,3.873,0,0,0-2.857,1.608v5.3a4.035,4.035,0,0,0,2.953,1.657c1.776,0,2.736-1.344,2.736-4.008C1315.461,195.755,1314.453,194.363,1312.629,194.363Z"
       class="cls-6" />
    <path
       id="path144"
       d="M1326.645,205.212a4.471,4.471,0,0,1-3.168-1.441v4.538l-2.449,1.271V192.347h2.449v1.2a4.8,4.8,0,0,1,3.288-1.465c2.712,0,4.848,1.969,4.848,6.77C1331.613,203.172,1329.261,205.212,1326.645,205.212Zm-.336-10.849a3.873,3.873,0,0,0-2.857,1.608v5.3a4.033,4.033,0,0,0,2.952,1.657c1.777,0,2.737-1.344,2.737-4.008C1329.141,195.755,1328.133,194.363,1326.309,194.363Z"
       class="cls-6" />
    <path
       id="path146"
       d="M1348.221,204.947h-6.673v-16.8h6.912c2.929,0,4.825,1.537,4.825,4.369a3.548,3.548,0,0,1-2.137,3.36,3.867,3.867,0,0,1,2.832,3.912C1353.98,203.2,1351.893,204.947,1348.221,204.947Zm.216-14.5h-4.513V194.8h4.513a2.07,2.07,0,0,0,2.328-2.137A2.044,2.044,0,0,0,1348.437,190.451Zm.047,6.624h-4.56v5.569h4.488c2.233,0,3.049-1.128,3.049-2.785A2.643,2.643,0,0,0,1348.484,197.075Z"
       class="cls-6" />
  </g>
  <g
     id="g158">
    <path
       id="path150"
       d="M982.133,273.947v-16.8h2.52v14.33h8.377v2.471Z"
       class="cls-6" />
    <path
       id="path152"
       d="M997.421,259.715a1.6,1.6,0,1,1,1.584-1.584A1.6,1.6,0,0,1,997.421,259.715Zm-1.248,14.232v-12.6h2.473v12.6Z"
       class="cls-6" />
    <path
       id="path154"
       d="M1008.029,274.212a4.474,4.474,0,0,1-3.168-1.441v1.176h-2.448V257.723l2.448-1.273v6.1a4.8,4.8,0,0,1,3.288-1.465c2.712,0,4.849,1.969,4.849,6.77C1013,272.172,1010.646,274.212,1008.029,274.212Zm-.336-10.849a3.871,3.871,0,0,0-2.856,1.608v5.3a4.033,4.033,0,0,0,2.952,1.657c1.776,0,2.736-1.344,2.736-4.008C1010.525,264.755,1009.518,263.363,1007.693,263.363Z"
       class="cls-6" />
    <path
       id="path156"
       d="M1019.979,274.212a8.61,8.61,0,0,1-4.824-1.608l1.128-1.873a6.618,6.618,0,0,0,3.672,1.248c1.561,0,2.3-.5,2.3-1.391,0-.961-1.105-1.416-2.929-2.113-2.712-1.056-3.7-1.967-3.7-3.959,0-2.257,1.776-3.434,4.3-3.434a7.5,7.5,0,0,1,4.272,1.393l-1.08,1.9a5.482,5.482,0,0,0-3.265-1.08c-1.2,0-1.728.48-1.728,1.152,0,.623.432,1.08,2.329,1.825,2.808,1.08,4.248,1.847,4.248,4.223C1024.708,273.275,1022.452,274.212,1019.979,274.212Z"
       class="cls-6" />
  </g>
  <g
     id="g168">
    <path
       id="path160"
       d="M1301.133,273.947v-16.8h2.52v14.33h8.377v2.471Z"
       class="cls-6" />
    <path
       id="path162"
       d="M1316.421,259.715a1.6,1.6,0,1,1,1.584-1.584A1.6,1.6,0,0,1,1316.421,259.715Zm-1.248,14.232v-12.6h2.473v12.6Z"
       class="cls-6" />
    <path
       id="path164"
       d="M1327.029,274.212a4.474,4.474,0,0,1-3.168-1.441v1.176h-2.448V257.723l2.448-1.273v6.1a4.8,4.8,0,0,1,3.288-1.465c2.712,0,4.849,1.969,4.849,6.77C1332,272.172,1329.646,274.212,1327.029,274.212Zm-.336-10.849a3.871,3.871,0,0,0-2.856,1.608v5.3a4.033,4.033,0,0,0,2.952,1.657c1.776,0,2.736-1.344,2.736-4.008C1329.525,264.755,1328.518,263.363,1326.693,263.363Z"
       class="cls-6" />
    <path
       id="path166"
       d="M1338.979,274.212a8.61,8.61,0,0,1-4.824-1.608l1.128-1.873a6.618,6.618,0,0,0,3.672,1.248c1.561,0,2.305-.5,2.305-1.391,0-.961-1.105-1.416-2.929-2.113-2.712-1.056-3.7-1.967-3.7-3.959,0-2.257,1.776-3.434,4.3-3.434a7.5,7.5,0,0,1,4.272,1.393l-1.08,1.9a5.482,5.482,0,0,0-3.265-1.08c-1.2,0-1.728.48-1.728,1.152,0,.623.432,1.08,2.329,1.825,2.808,1.08,4.248,1.847,4.248,4.223C1343.708,273.275,1341.452,274.212,1338.979,274.212Z"
       class="cls-6" />
  </g>
  <rect
     id="rect170"
     height="60.5"
     width="143.25"
     y="290.5"
     x="76"
     class="cls-4" />
  <rect
     id="rect172"
     height="60.5"
     width="143.25"
     y="290.5"
     x="229.25"
     class="cls-4" />
  <rect
     id="rect174"
     height="60.5"
     width="143.25"
     y="290.5"
     x="382.5"
     class="cls-4" />
  <rect
     id="rect176"
     height="60.5"
     width="143.25"
     y="290.5"
     x="535.75"
     class="cls-4" />
  <g
     id="g188">
    <path
       id="path178"
       d="M114.975,329.947v-16.8h2.52v14.33h8.376v2.471Z"
       class="cls-6" />
    <path
       id="path180"
       d="M130.263,315.715a1.6,1.6,0,1,1,1.584-1.584A1.6,1.6,0,0,1,130.263,315.715Zm-1.248,14.232v-12.6h2.471v12.6Z"
       class="cls-6" />
    <path
       id="path182"
       d="M140.87,330.212a4.476,4.476,0,0,1-3.168-1.441v1.176h-2.448V313.723l2.448-1.273v6.1a4.8,4.8,0,0,1,3.288-1.465c2.713,0,4.849,1.969,4.849,6.77C145.839,328.172,143.486,330.212,140.87,330.212Zm-.336-10.849a3.866,3.866,0,0,0-2.855,1.608v5.3a4.031,4.031,0,0,0,2.952,1.657c1.775,0,2.736-1.344,2.736-4.008C143.367,320.755,142.358,319.363,140.534,319.363Z"
       class="cls-6" />
    <path
       id="path184"
       d="M152.82,330.212A8.612,8.612,0,0,1,148,328.6l1.128-1.873a6.624,6.624,0,0,0,3.673,1.248c1.559,0,2.3-.5,2.3-1.391,0-.961-1.1-1.416-2.928-2.113-2.712-1.056-3.7-1.967-3.7-3.959,0-2.257,1.776-3.434,4.295-3.434a7.5,7.5,0,0,1,4.273,1.393l-1.08,1.9a5.483,5.483,0,0,0-3.264-1.08c-1.2,0-1.728.48-1.728,1.152,0,.623.431,1.08,2.328,1.825,2.808,1.08,4.248,1.847,4.248,4.223C157.549,329.275,155.293,330.212,152.82,330.212Z"
       class="cls-6" />
    <path
       id="path186"
       d="M178.645,329.947l-1.416-3.984h-6.721l-1.392,3.984H166.5l6.049-16.8h2.664l6.12,16.8Zm-3.529-10.1c-.407-1.2-1.08-3.144-1.271-3.864-.193.72-.792,2.64-1.225,3.888l-1.344,3.84h5.185Z"
       class="cls-6" />
  </g>
  <g
     id="g200">
    <path
       id="path190"
       d="M268.418,329.947v-16.8h2.52v14.33h8.377v2.471Z"
       class="cls-6" />
    <path
       id="path192"
       d="M283.706,315.715a1.6,1.6,0,1,1,1.584-1.584A1.6,1.6,0,0,1,283.706,315.715Zm-1.248,14.232v-12.6h2.473v12.6Z"
       class="cls-6" />
    <path
       id="path194"
       d="M294.314,330.212a4.474,4.474,0,0,1-3.168-1.441v1.176H288.7V313.723l2.448-1.273v6.1a4.8,4.8,0,0,1,3.289-1.465c2.711,0,4.848,1.969,4.848,6.77C299.283,328.172,296.931,330.212,294.314,330.212Zm-.335-10.849a3.873,3.873,0,0,0-2.857,1.608v5.3a4.033,4.033,0,0,0,2.952,1.657c1.777,0,2.737-1.344,2.737-4.008C296.811,320.755,295.8,319.363,293.979,319.363Z"
       class="cls-6" />
    <path
       id="path196"
       d="M306.265,330.212a8.613,8.613,0,0,1-4.825-1.608l1.128-1.873a6.618,6.618,0,0,0,3.672,1.248c1.561,0,2.305-.5,2.305-1.391,0-.961-1.105-1.416-2.929-2.113-2.712-1.056-3.7-1.967-3.7-3.959,0-2.257,1.776-3.434,4.3-3.434a7.5,7.5,0,0,1,4.272,1.393l-1.08,1.9a5.481,5.481,0,0,0-3.264-1.08c-1.2,0-1.729.48-1.729,1.152,0,.623.433,1.08,2.329,1.825,2.808,1.08,4.248,1.847,4.248,4.223C310.993,329.275,308.737,330.212,306.265,330.212Z"
       class="cls-6" />
    <path
       id="path198"
       d="M327.673,329.947H321v-16.8h6.912c2.929,0,4.825,1.537,4.825,4.369a3.549,3.549,0,0,1-2.136,3.36,3.868,3.868,0,0,1,2.832,3.912C333.433,328.2,331.345,329.947,327.673,329.947Zm.216-14.5h-4.513V319.8h4.513a2.07,2.07,0,0,0,2.328-2.137A2.044,2.044,0,0,0,327.889,315.451Zm.048,6.624h-4.561v5.569h4.488c2.233,0,3.049-1.128,3.049-2.785A2.642,2.642,0,0,0,327.937,322.075Z"
       class="cls-6" />
  </g>
  <g
     id="g210">
    <path
       id="path202"
       d="M433.758,329.947v-16.8h2.52v14.33h8.377v2.471Z"
       class="cls-6" />
    <path
       id="path204"
       d="M449.046,315.715a1.6,1.6,0,1,1,1.584-1.584A1.6,1.6,0,0,1,449.046,315.715ZM447.8,329.947v-12.6h2.473v12.6Z"
       class="cls-6" />
    <path
       id="path206"
       d="M459.654,330.212a4.474,4.474,0,0,1-3.168-1.441v1.176h-2.448V313.723l2.448-1.273v6.1a4.8,4.8,0,0,1,3.288-1.465c2.712,0,4.849,1.969,4.849,6.77C464.623,328.172,462.271,330.212,459.654,330.212Zm-.336-10.849a3.871,3.871,0,0,0-2.856,1.608v5.3a4.033,4.033,0,0,0,2.952,1.657c1.776,0,2.736-1.344,2.736-4.008C462.15,320.755,461.143,319.363,459.318,319.363Z"
       class="cls-6" />
    <path
       id="path208"
       d="M471.6,330.212a8.61,8.61,0,0,1-4.824-1.608l1.128-1.873a6.618,6.618,0,0,0,3.672,1.248c1.561,0,2.305-.5,2.305-1.391,0-.961-1.105-1.416-2.929-2.113-2.712-1.056-3.7-1.967-3.7-3.959,0-2.257,1.776-3.434,4.3-3.434a7.5,7.5,0,0,1,4.272,1.393l-1.08,1.9a5.482,5.482,0,0,0-3.265-1.08c-1.2,0-1.728.48-1.728,1.152,0,.623.432,1.08,2.329,1.825,2.808,1.08,4.248,1.847,4.248,4.223C476.333,329.275,474.077,330.212,471.6,330.212Z"
       class="cls-6" />
  </g>
  <g
     id="g220">
    <path
       id="path212"
       d="M589.758,329.947v-16.8h2.52v14.33h8.377v2.471Z"
       class="cls-6" />
    <path
       id="path214"
       d="M605.046,315.715a1.6,1.6,0,1,1,1.584-1.584A1.6,1.6,0,0,1,605.046,315.715ZM603.8,329.947v-12.6h2.473v12.6Z"
       class="cls-6" />
    <path
       id="path216"
       d="M615.654,330.212a4.474,4.474,0,0,1-3.168-1.441v1.176h-2.448V313.723l2.448-1.273v6.1a4.8,4.8,0,0,1,3.288-1.465c2.712,0,4.849,1.969,4.849,6.77C620.623,328.172,618.271,330.212,615.654,330.212Zm-.336-10.849a3.871,3.871,0,0,0-2.856,1.608v5.3a4.033,4.033,0,0,0,2.952,1.657c1.776,0,2.736-1.344,2.736-4.008C618.15,320.755,617.143,319.363,615.318,319.363Z"
       class="cls-6" />
    <path
       id="path218"
       d="M627.6,330.212a8.61,8.61,0,0,1-4.824-1.608l1.128-1.873a6.618,6.618,0,0,0,3.672,1.248c1.561,0,2.3-.5,2.3-1.391,0-.961-1.105-1.416-2.929-2.113-2.712-1.056-3.7-1.967-3.7-3.959,0-2.257,1.776-3.434,4.3-3.434a7.5,7.5,0,0,1,4.272,1.393l-1.08,1.9a5.482,5.482,0,0,0-3.265-1.08c-1.2,0-1.728.48-1.728,1.152,0,.623.432,1.08,2.329,1.825,2.808,1.08,4.248,1.847,4.248,4.223C632.333,329.275,630.077,330.212,627.6,330.212Z"
       class="cls-6" />
  </g>
  <g
     id="g242">
    <path
       id="path222"
       d="M1101.621,554.343a3.721,3.721,0,0,0-3.584-2.128c-2.939,0-4.619,2.576-4.619,6.217,0,3.527,1.708,6.214,4.647,6.214,1.764,0,2.8-.755,3.836-2.492l3.3,1.961a7.487,7.487,0,0,1-7.252,4.424c-5.123,0-8.567-3.92-8.567-10.107,0-5.965,3.584-10.109,8.708-10.109a7.394,7.394,0,0,1,7.168,4.34Z"
       class="cls-6" />
    <path
       id="path224"
       d="M1113.829,568.539c-3.836,0-6.636-3.137-6.636-7.644s2.8-7.672,6.636-7.672,6.664,3.164,6.664,7.672S1117.665,568.539,1113.829,568.539Zm0-11.592c-1.848,0-2.716,1.68-2.716,3.948s.868,3.919,2.716,3.919,2.744-1.875,2.744-3.919C1116.573,558.654,1115.678,556.947,1113.829,556.947Z"
       class="cls-6" />
    <path
       id="path226"
       d="M1132.365,568.23v-7.951c0-2.633-.895-3.416-2.492-3.416s-2.519.783-2.519,3.332v8.035h-3.865v-14.7h3.865v.981a4.812,4.812,0,0,1,3.444-1.289c3.752,0,5.431,2.576,5.431,6.72v8.287Z"
       class="cls-6" />
    <path
       id="path228"
       d="M1147.909,567.643a5.152,5.152,0,0,1-3,.9c-2.38,0-3.92-1.848-3.92-4.424v-6.944h-2.464v-3.64h2.464v-3.78l3.863-1.933v5.713h3.529v3.64h-3.529v5.908c0,1.4.5,1.764,1.429,1.764.7,0,1.232-.308,2.184-1.12Z"
       class="cls-6" />
    <path
       id="path230"
       d="M1159.755,568.23v-.979a4.691,4.691,0,0,1-3.3,1.288c-2.744,0-5.488-1.68-5.488-5.236,0-3.248,2.633-4.871,5.965-4.871a6.079,6.079,0,0,1,2.827.588v-.729a1.86,1.86,0,0,0-2.1-1.876,7.258,7.258,0,0,0-4.032.98l-1.483-2.688a9.885,9.885,0,0,1,5.515-1.484c3.556,0,5.964,1.847,5.964,5.152v9.855Zm0-6.16a4.478,4.478,0,0,0-2.688-.615c-1.456,0-2.24.672-2.24,1.848,0,1.036.588,1.961,2.24,1.961a3.162,3.162,0,0,0,2.688-1.345Z"
       class="cls-6" />
    <path
       id="path232"
       d="M1169.3,552.327a2.213,2.213,0,1,1,2.213-2.212A2.236,2.236,0,0,1,1169.3,552.327Zm-1.932,15.9v-14.7h3.864v14.7Z"
       class="cls-6" />
    <path
       id="path234"
       d="M1184,568.23v-7.951c0-2.633-.9-3.416-2.492-3.416s-2.52.783-2.52,3.332v8.035h-3.864v-14.7h3.864v.981a4.816,4.816,0,0,1,3.445-1.289c3.752,0,5.431,2.576,5.431,6.72v8.287Z"
       class="cls-6" />
    <path
       id="path236"
       d="M1203.407,562.127h-8.792a2.827,2.827,0,0,0,3.025,2.771,3.277,3.277,0,0,0,2.519-1.035l2.744,2.3a6.856,6.856,0,0,1-5.263,2.38c-4.229,0-6.916-3-6.916-7.644,0-4.508,2.827-7.672,6.551-7.672,3.92,0,6.188,3.472,6.188,7.672A11.807,11.807,0,0,1,1203.407,562.127Zm-6.328-5.544c-1.4,0-2.267,1.147-2.408,2.632h5.04A2.607,2.607,0,0,0,1197.079,556.583Z"
       class="cls-6" />
    <path
       id="path238"
       d="M1215.14,558.039a3.334,3.334,0,0,0-2.241-.952c-1.511,0-2.492.643-2.492,3.192v7.951h-3.864v-14.7h3.864v.981a4.067,4.067,0,0,1,3.025-1.289,3.755,3.755,0,0,1,2.715,1.036Z"
       class="cls-6" />
    <path
       id="path240"
       d="M1223.567,568.539a11.545,11.545,0,0,1-6.16-1.708l1.288-2.94a10.26,10.26,0,0,0,5.1,1.343c1.512,0,1.96-.363,1.96-1.119,0-.672-.532-1.008-2.156-1.484-3.528-1.065-5.8-1.932-5.8-5.04,0-3.052,2.436-4.368,5.881-4.368a11.727,11.727,0,0,1,5.431,1.427l-1.232,3.053a9.526,9.526,0,0,0-4.284-1.176c-1.568,0-1.988.308-1.988.952,0,.617.449.869,3.052,1.708,2.632.868,4.9,1.82,4.9,4.76C1229.56,567.335,1226.871,568.539,1223.567,568.539Z"
       class="cls-6" />
  </g>
  <g
     id="g262">
    <path
       id="path244"
       d="M957.314,334.5c-4.343,0-7.1-3.577-7.1-8.665s2.761-8.664,7.1-8.664a6.024,6.024,0,0,1,5.713,3.144L960.8,321.7a3.639,3.639,0,0,0-3.481-2.015c-2.927,0-4.511,2.376-4.511,6.144s1.584,6.145,4.511,6.145a4,4,0,0,0,3.7-2.088l2.089,1.392A6.4,6.4,0,0,1,957.314,334.5Z"
       class="cls-6" />
    <path
       id="path246"
       d="M970.826,334.5c-3.168,0-5.544-2.616-5.544-6.553,0-4.128,2.448-6.577,5.616-6.577,3.216,0,5.617,2.569,5.617,6.506C976.515,332.047,974.066,334.5,970.826,334.5Zm-.023-10.776c-1.872,0-3.025,1.655-3.025,4.152,0,2.76,1.272,4.272,3.145,4.272s3.1-1.9,3.1-4.2C974.019,325.374,972.8,323.719,970.8,323.719Z"
       class="cls-6" />
    <path
       id="path248"
       d="M987.219,334.23V327.1c0-2.544-.961-3.457-2.593-3.457-1.656,0-2.592,1.176-2.592,3.216v7.368h-2.472v-12.6h2.472v1.2a3.859,3.859,0,0,1,3.168-1.465c2.929,0,4.488,1.921,4.488,5.641v7.224Z"
       class="cls-6" />
    <path
       id="path250"
       d="M999.148,333.919a5.01,5.01,0,0,1-2.423.576c-1.752,0-2.832-1.08-2.832-3.337v-7.271h-1.8V321.63h1.8v-3.6l2.423-1.3v4.9h3.121v2.257h-3.121v6.84c0,1.175.384,1.511,1.3,1.511a3.96,3.96,0,0,0,1.825-.5Z"
       class="cls-6" />
    <path
       id="path252"
       d="M1009.663,334.23v-1.248a4.955,4.955,0,0,1-3.456,1.513,4.065,4.065,0,0,1-4.368-4.249c0-2.808,2.16-4.08,5.016-4.08a6.954,6.954,0,0,1,2.808.48v-.935c0-1.369-.84-2.137-2.376-2.137a6.356,6.356,0,0,0-3.288.792l-.96-1.872a7.813,7.813,0,0,1,4.32-1.129c2.808,0,4.729,1.369,4.729,4.225v8.64Zm0-5.376a6.237,6.237,0,0,0-2.88-.551c-1.584,0-2.593.719-2.593,1.872,0,1.248.792,2.088,2.425,2.088a3.958,3.958,0,0,0,3.048-1.609Z"
       class="cls-6" />
    <path
       id="path254"
       d="M1017.007,320a1.6,1.6,0,1,1,1.584-1.584A1.6,1.6,0,0,1,1017.007,320Zm-1.248,14.232v-12.6h2.471v12.6Z"
       class="cls-6" />
    <path
       id="path256"
       d="M1029.655,334.23V327.1c0-2.544-.961-3.457-2.593-3.457-1.656,0-2.591,1.176-2.591,3.216v7.368H1022v-12.6h2.473v1.2a3.859,3.859,0,0,1,3.168-1.465c2.928,0,4.488,1.921,4.488,5.641v7.224Z"
       class="cls-6" />
    <path
       id="path258"
       d="M1045.831,328.807H1037.5c.264,2.423,1.632,3.456,3.168,3.456a4.416,4.416,0,0,0,2.736-1.008l1.464,1.584a5.858,5.858,0,0,1-4.345,1.656c-2.952,0-5.448-2.376-5.448-6.553,0-4.272,2.257-6.577,5.521-6.577,3.576,0,5.3,2.9,5.3,6.313C1045.9,328.135,1045.855,328.543,1045.831,328.807Zm-5.4-5.209c-1.657,0-2.664,1.152-2.88,3.168h5.856C1043.287,325.038,1042.471,323.6,1040.431,323.6Z"
       class="cls-6" />
    <path
       id="path260"
       d="M1055.814,324.246a3.691,3.691,0,0,0-1.9-.456c-1.56,0-2.472,1.1-2.472,3.24v7.2h-2.472v-12.6h2.472v1.2a3.494,3.494,0,0,1,2.88-1.465,3.623,3.623,0,0,1,2.137.53Z"
       class="cls-6" />
  </g>
  <g
     id="g282">
    <path
       id="path264"
       d="M1276.314,334.5c-4.343,0-7.1-3.577-7.1-8.665s2.761-8.664,7.1-8.664a6.024,6.024,0,0,1,5.713,3.144L1279.8,321.7a3.639,3.639,0,0,0-3.481-2.015c-2.927,0-4.511,2.376-4.511,6.144s1.584,6.145,4.511,6.145a4,4,0,0,0,3.7-2.088l2.089,1.392A6.4,6.4,0,0,1,1276.314,334.5Z"
       class="cls-6" />
    <path
       id="path266"
       d="M1289.826,334.5c-3.168,0-5.544-2.616-5.544-6.553,0-4.128,2.448-6.577,5.616-6.577,3.216,0,5.617,2.569,5.617,6.506C1295.515,332.047,1293.066,334.5,1289.826,334.5Zm-.023-10.776c-1.872,0-3.025,1.655-3.025,4.152,0,2.76,1.272,4.272,3.145,4.272s3.1-1.9,3.1-4.2C1293.019,325.374,1291.8,323.719,1289.8,323.719Z"
       class="cls-6" />
    <path
       id="path268"
       d="M1306.219,334.23V327.1c0-2.544-.961-3.457-2.593-3.457-1.656,0-2.592,1.176-2.592,3.216v7.368h-2.472v-12.6h2.472v1.2a3.859,3.859,0,0,1,3.168-1.465c2.929,0,4.488,1.921,4.488,5.641v7.224Z"
       class="cls-6" />
    <path
       id="path270"
       d="M1318.148,333.919a5.01,5.01,0,0,1-2.423.576c-1.752,0-2.832-1.08-2.832-3.337v-7.271h-1.8V321.63h1.8v-3.6l2.423-1.3v4.9h3.121v2.257h-3.121v6.84c0,1.175.384,1.511,1.3,1.511a3.96,3.96,0,0,0,1.825-.5Z"
       class="cls-6" />
    <path
       id="path272"
       d="M1328.663,334.23v-1.248a4.955,4.955,0,0,1-3.456,1.513,4.065,4.065,0,0,1-4.368-4.249c0-2.808,2.16-4.08,5.016-4.08a6.954,6.954,0,0,1,2.808.48v-.935c0-1.369-.84-2.137-2.376-2.137a6.356,6.356,0,0,0-3.288.792l-.96-1.872a7.813,7.813,0,0,1,4.32-1.129c2.808,0,4.729,1.369,4.729,4.225v8.64Zm0-5.376a6.237,6.237,0,0,0-2.88-.551c-1.584,0-2.593.719-2.593,1.872,0,1.248.792,2.088,2.425,2.088a3.958,3.958,0,0,0,3.048-1.609Z"
       class="cls-6" />
    <path
       id="path274"
       d="M1336.007,320a1.6,1.6,0,1,1,1.584-1.584A1.6,1.6,0,0,1,1336.007,320Zm-1.248,14.232v-12.6h2.471v12.6Z"
       class="cls-6" />
    <path
       id="path276"
       d="M1348.655,334.23V327.1c0-2.544-.961-3.457-2.593-3.457-1.656,0-2.591,1.176-2.591,3.216v7.368H1341v-12.6h2.473v1.2a3.859,3.859,0,0,1,3.168-1.465c2.928,0,4.488,1.921,4.488,5.641v7.224Z"
       class="cls-6" />
    <path
       id="path278"
       d="M1364.831,328.807H1356.5c.264,2.423,1.632,3.456,3.168,3.456a4.416,4.416,0,0,0,2.736-1.008l1.464,1.584a5.858,5.858,0,0,1-4.345,1.656c-2.952,0-5.448-2.376-5.448-6.553,0-4.272,2.257-6.577,5.521-6.577,3.576,0,5.3,2.9,5.3,6.313C1364.9,328.135,1364.855,328.543,1364.831,328.807Zm-5.4-5.209c-1.657,0-2.664,1.152-2.88,3.168h5.856C1362.287,325.038,1361.471,323.6,1359.431,323.6Z"
       class="cls-6" />
    <path
       id="path280"
       d="M1374.814,324.246a3.691,3.691,0,0,0-1.9-.456c-1.56,0-2.472,1.1-2.472,3.24v7.2h-2.472v-12.6h2.472v1.2a3.494,3.494,0,0,1,2.88-1.465,3.623,3.623,0,0,1,2.137.53Z"
       class="cls-6" />
  </g>
  <g
     id="g288">
    <polyline
       id="polyline284"
       points="316 280 316 90 1294 90 1294 126.874"
       class="cls-7" />
    <polygon
       id="polygon286"
       points="1284.277 124.029 1294 140.868 1303.723 124.029 1284.277 124.029"
       class="cls-6" />
  </g>
  <g
     id="g294">
    <polyline
       id="polyline290"
       points="301 200 301 74 1321.448 74 1321.885 127.25"
       class="cls-8" />
    <polygon
       id="polygon292"
       points="1312.139 124.485 1322 141.243 1331.585 124.325 1312.139 124.485"
       class="cls-9" />
  </g>
  <rect
     id="rect296"
     height="60.5"
     width="143.25"
     y="200"
     x="229.25"
     class="cls-5" />
  <g
     id="g306">
    <path
       id="path298"
       d="M280.584,241.447l-1.416-3.984h-6.721l-1.391,3.984h-2.617l6.049-16.8h2.664l6.12,16.8Zm-3.528-10.1c-.408-1.2-1.08-3.144-1.272-3.864-.192.72-.792,2.64-1.224,3.888l-1.344,3.84H278.4Z"
       class="cls-6" />
    <path
       id="path300"
       d="M291.84,241.712a4.471,4.471,0,0,1-3.168-1.441v4.538l-2.448,1.271V228.847h2.448v1.2a4.8,4.8,0,0,1,3.288-1.465c2.712,0,4.849,1.969,4.849,6.77C296.809,239.672,294.456,241.712,291.84,241.712Zm-.336-10.849a3.873,3.873,0,0,0-2.857,1.608v5.3a4.035,4.035,0,0,0,2.953,1.657c1.776,0,2.736-1.344,2.736-4.008C294.336,232.255,293.328,230.863,291.5,230.863Z"
       class="cls-6" />
    <path
       id="path302"
       d="M305.52,241.712a4.471,4.471,0,0,1-3.168-1.441v4.538L299.9,246.08V228.847h2.449v1.2a4.8,4.8,0,0,1,3.288-1.465c2.712,0,4.848,1.969,4.848,6.77C310.488,239.672,308.136,241.712,305.52,241.712Zm-.336-10.849a3.873,3.873,0,0,0-2.857,1.608v5.3a4.033,4.033,0,0,0,2.952,1.657c1.777,0,2.737-1.344,2.737-4.008C308.016,232.255,307.008,230.863,305.184,230.863Z"
       class="cls-6" />
    <path
       id="path304"
       d="M327.1,241.447h-6.673v-16.8h6.912c2.929,0,4.825,1.537,4.825,4.369a3.548,3.548,0,0,1-2.137,3.36,3.867,3.867,0,0,1,2.832,3.912C332.855,239.7,330.768,241.447,327.1,241.447Zm.216-14.5H322.8V231.3h4.513a2.07,2.07,0,0,0,2.328-2.137A2.044,2.044,0,0,0,327.312,226.951Zm.047,6.624H322.8v5.569h4.488c2.233,0,3.049-1.128,3.049-2.785A2.643,2.643,0,0,0,327.359,233.575Z"
       class="cls-6" />
  </g>
  <rect
     id="rect308"
     height="9"
     width="10"
     y="69"
     x="995"
     class="cls-1" />
  <rect
     id="rect310"
     height="9"
     width="10"
     y="86"
     x="995"
     class="cls-1" />
  <rect
     id="rect312"
     height="9"
     width="10"
     y="69"
     x="1024"
     class="cls-1" />
  <rect
     id="rect314"
     height="9"
     width="10"
     y="86"
     x="1024"
     class="cls-1" />
  <g
     id="g320">
    <polyline
       id="polyline316"
       points="149 200 149 53 1000.002 53 1000.388 125.457"
       class="cls-8" />
    <polygon
       id="polygon318"
       points="990.65 122.664 1000.463 139.45 1010.096 122.56 990.65 122.664"
       class="cls-9" />
  </g>
  <g
     id="g326">
    <polyline
       id="polyline322"
       points="134 291 134 38 1028.518 38 1028.518 125.795"
       class="cls-7" />
    <polygon
       id="polygon324"
       points="1018.795 122.95 1028.518 139.789 1038.242 122.95 1018.795 122.95"
       class="cls-6" />
  </g>
  <rect
     id="rect328"
     height="60.5"
     width="143.25"
     y="200"
     x="76"
     class="cls-5" />
  <g
     id="g338">
    <path
       id="path330"
       d="M126.891,241.447l-1.416-3.984h-6.721l-1.392,3.984h-2.616l6.049-16.8h2.664l6.12,16.8Zm-3.529-10.1c-.407-1.2-1.08-3.144-1.271-3.864-.193.72-.792,2.64-1.225,3.888l-1.344,3.84h5.185Z"
       class="cls-6" />
    <path
       id="path332"
       d="M138.146,241.712a4.47,4.47,0,0,1-3.167-1.441v4.538l-2.449,1.271V228.847h2.449v1.2a4.8,4.8,0,0,1,3.288-1.465c2.712,0,4.848,1.969,4.848,6.77C143.115,239.672,140.763,241.712,138.146,241.712Zm-.335-10.849a3.873,3.873,0,0,0-2.857,1.608v5.3a4.033,4.033,0,0,0,2.952,1.657c1.777,0,2.737-1.344,2.737-4.008C140.643,232.255,139.635,230.863,137.811,230.863Z"
       class="cls-6" />
    <path
       id="path334"
       d="M151.826,241.712a4.474,4.474,0,0,1-3.168-1.441v4.538l-2.448,1.271V228.847h2.448v1.2a4.8,4.8,0,0,1,3.288-1.465c2.712,0,4.849,1.969,4.849,6.77C156.795,239.672,154.442,241.712,151.826,241.712Zm-.336-10.849a3.869,3.869,0,0,0-2.856,1.608v5.3a4.033,4.033,0,0,0,2.952,1.657c1.776,0,2.736-1.344,2.736-4.008C154.322,232.255,153.314,230.863,151.49,230.863Z"
       class="cls-6" />
    <path
       id="path336"
       d="M177.818,241.447l-1.416-3.984h-6.72l-1.393,3.984h-2.616l6.049-16.8h2.664l6.121,16.8Zm-3.528-10.1c-.408-1.2-1.08-3.144-1.272-3.864-.192.72-.792,2.64-1.224,3.888l-1.345,3.84h5.185Z"
       class="cls-6" />
  </g>
</svg>
