<?xml version="1.0" encoding="UTF-8" standalone="no"?>
<!-- Created with Inkscape (http://www.inkscape.org/) -->

<svg
   xmlns:dc="http://purl.org/dc/elements/1.1/"
   xmlns:cc="http://creativecommons.org/ns#"
   xmlns:rdf="http://www.w3.org/1999/02/22-rdf-syntax-ns#"
   xmlns:svg="http://www.w3.org/2000/svg"
   xmlns="http://www.w3.org/2000/svg"
   xmlns:sodipodi="http://sodipodi.sourceforge.net/DTD/sodipodi-0.dtd"
   xmlns:inkscape="http://www.inkscape.org/namespaces/inkscape"
   version="1.1"
   id="svg2"
   xml:space="preserve"
   width="1268.1573"
   height="767.96802"
   viewBox="0 0 1268.1573 767.96802"
   sodipodi:docname="Diagram 6.3.svg"
   inkscape:version="0.92.2 5c3e80d, 2017-08-06"><metadata
     id="metadata8"><rdf:RDF><cc:Work
         rdf:about=""><dc:format>image/svg+xml</dc:format><dc:type
           rdf:resource="http://purl.org/dc/dcmitype/StillImage" /><dc:title></dc:title><dc:subject><rdf:Bag><rdf:li>DC</rdf:li><rdf:li>Kubernetes</rdf:li></rdf:Bag></dc:subject></cc:Work></rdf:RDF></metadata><defs
     id="defs6"><clipPath
       clipPathUnits="userSpaceOnUse"
       id="clipPath38"><path
         d="M 0,575.976 H 951.118 V 0 H 0 Z"
         id="path36"
         inkscape:connector-curvature="0" /></clipPath></defs><sodipodi:namedview
     pagecolor="#ffffff"
     bordercolor="#666666"
     borderopacity="1"
     objecttolerance="10"
     gridtolerance="10"
     guidetolerance="10"
     inkscape:pageopacity="0"
     inkscape:pageshadow="2"
     inkscape:window-width="640"
     inkscape:window-height="480"
     id="namedview4"
     showgrid="false"
     inkscape:zoom="0.27835663"
     inkscape:cx="634.07867"
     inkscape:cy="383.98401"
     inkscape:window-x="0"
     inkscape:window-y="0"
     inkscape:window-maximized="0"
     inkscape:current-layer="g10" /><g
     id="g10"
     inkscape:groupmode="layer"
     inkscape:label="Diagram 6.3"
     transform="matrix(1.3333333,0,0,-1.3333333,0,767.968)"><path
       d="M 650.005,19.065 H 237.253 v 257 h 412.752 z"
       style="fill:#e6e6e6;fill-opacity:1;fill-rule:nonzero;stroke:none"
       id="path12"
       inkscape:connector-curvature="0" /><path
       d="M 650.005,303.065 H 237.253 v 257 h 412.752 z"
       style="fill:#e6e6e6;fill-opacity:1;fill-rule:nonzero;stroke:none"
       id="path14"
       inkscape:connector-curvature="0" /><path
       d="m 174.744,19.065 h -156 v 541 h 156 z"
       style="fill:#3f9c35;fill-opacity:1;fill-rule:nonzero;stroke:none"
       id="path16"
       inkscape:connector-curvature="0" /><path
       d="m 931.434,19.065 h -156 v 541 h 156 z"
       style="fill:#e6e6e6;fill-opacity:1;fill-rule:nonzero;stroke:none"
       id="path18"
       inkscape:connector-curvature="0" /><path
       d="m 299.753,512.565 h 187 v -90 h -187 z"
       style="fill:#ffffff;fill-opacity:1;fill-rule:nonzero;stroke:none"
       id="path20"
       inkscape:connector-curvature="0" /><path
       d="m 487.253,513.065 h -188 v -91 h 188 z m -1,-90 h -186 v 89 h 186 z"
       style="fill:#b4b4b4;fill-opacity:1;fill-rule:nonzero;stroke:none"
       id="path22"
       inkscape:connector-curvature="0" /><path
       d="m 299.753,410.565 h 187 v -90 h -187 z"
       style="fill:#ffffff;fill-opacity:1;fill-rule:nonzero;stroke:none"
       id="path24"
       inkscape:connector-curvature="0" /><path
       d="m 487.253,411.065 h -188 v -91 h 188 z m -1,-90 h -186 v 89 h 186 z"
       style="fill:#b4b4b4;fill-opacity:1;fill-rule:nonzero;stroke:none"
       id="path26"
       inkscape:connector-curvature="0" /><path
       d="m 521.47,179.065 h 128.535 v -91 H 521.47 Z"
       style="fill:#3f9c35;fill-opacity:1;fill-rule:nonzero;stroke:none"
       id="path28"
       inkscape:connector-curvature="0" /><path
       d="m 521.47,462.065 h 128.535 v -91 H 521.47 Z"
       style="fill:#3f9c35;fill-opacity:1;fill-rule:nonzero;stroke:none"
       id="path30"
       inkscape:connector-curvature="0" /><g
       id="g32"><g
         id="g34"
         clip-path="url(#clipPath38)"><g
           id="g40"
           transform="translate(377.0453,473.0173)"><path
             d="M 0,0 H -3.76 V -4.821 H 0 c 1.602,0 2.4,0.92 2.4,2.421 C 2.4,-0.86 1.461,0 0,0 m -0.1,-6.801 h -3.66 v -5.221 H -5.82 V 1.98 h 5.861 c 2.58,0 4.5,-1.48 4.5,-4.38 0,-2.881 -1.92,-4.401 -4.641,-4.401"
             style="fill:#4c4c4c;fill-opacity:1;fill-rule:nonzero;stroke:none"
             id="path42"
             inkscape:connector-curvature="0" /></g><g
           id="g44"
           transform="translate(387.6849,469.7566)"><path
             d="m 0,0 c -1.56,0 -2.521,-1.38 -2.521,-3.46 0,-2.301 1.061,-3.561 2.622,-3.561 1.56,0 2.58,1.58 2.58,3.5 C 2.681,-1.38 1.661,0 0,0 m 0.021,-8.982 c -2.641,0 -4.622,2.181 -4.622,5.461 0,3.441 2.04,5.481 4.681,5.481 2.681,0 4.681,-2.14 4.681,-5.42 0,-3.481 -2.04,-5.522 -4.74,-5.522"
             style="fill:#4c4c4c;fill-opacity:1;fill-rule:nonzero;stroke:none"
             id="path46"
             inkscape:connector-curvature="0" /></g><g
           id="g48"
           transform="translate(401.3255,468.4363)"><path
             d="m 0,0 c -0.46,0.62 -1.421,1.38 -2.46,1.38 -1.48,0 -2.281,-1.12 -2.281,-3.34 0,-2.641 0.84,-3.801 2.36,-3.801 0.981,0 1.841,0.66 2.381,1.34 z m -0.021,-7.441 v 1 c -0.759,-0.7 -1.64,-1.221 -2.74,-1.221 -2.26,0 -4.041,1.641 -4.041,5.642 0,3.601 1.961,5.301 4.141,5.301 1.06,0 2.06,-0.56 2.64,-1.2 v 4.001 l 2.042,1.06 V -7.441 Z"
             style="fill:#4c4c4c;fill-opacity:1;fill-rule:nonzero;stroke:none"
             id="path50"
             inkscape:connector-curvature="0" /></g><g
           id="g52"
           transform="translate(413.1244,460.9949)"><path
             d="m 0,0 v 10.722 h -2.481 v 1.461 c 1.441,0.1 2.621,0.58 2.88,1.82 H 2.101 V 0 Z"
             style="fill:#4c4c4c;fill-opacity:1;fill-rule:nonzero;stroke:none"
             id="path54"
             inkscape:connector-curvature="0" /></g><g
           id="g56"
           transform="translate(374.1351,371.0173)"><path
             d="M 0,0 H -3.76 V -4.821 H 0 c 1.602,0 2.4,0.92 2.4,2.421 C 2.4,-0.86 1.461,0 0,0 m -0.1,-6.801 h -3.66 v -5.221 H -5.82 V 1.98 h 5.861 c 2.58,0 4.5,-1.48 4.5,-4.38 0,-2.881 -1.92,-4.401 -4.641,-4.401"
             style="fill:#4c4c4c;fill-opacity:1;fill-rule:nonzero;stroke:none"
             id="path58"
             inkscape:connector-curvature="0" /></g><g
           id="g60"
           transform="translate(384.7747,367.7566)"><path
             d="m 0,0 c -1.56,0 -2.521,-1.38 -2.521,-3.46 0,-2.301 1.061,-3.561 2.622,-3.561 1.56,0 2.58,1.58 2.58,3.5 C 2.681,-1.38 1.661,0 0,0 m 0.021,-8.982 c -2.641,0 -4.622,2.181 -4.622,5.461 0,3.441 2.04,5.481 4.681,5.481 2.681,0 4.681,-2.14 4.681,-5.42 0,-3.481 -2.04,-5.522 -4.74,-5.522"
             style="fill:#4c4c4c;fill-opacity:1;fill-rule:nonzero;stroke:none"
             id="path62"
             inkscape:connector-curvature="0" /></g><g
           id="g64"
           transform="translate(398.4154,366.4363)"><path
             d="m 0,0 c -0.46,0.62 -1.421,1.38 -2.46,1.38 -1.48,0 -2.281,-1.12 -2.281,-3.34 0,-2.641 0.84,-3.801 2.36,-3.801 0.981,0 1.841,0.66 2.381,1.34 z m -0.021,-7.441 v 1 c -0.759,-0.7 -1.64,-1.221 -2.74,-1.221 -2.26,0 -4.041,1.641 -4.041,5.642 0,3.601 1.961,5.301 4.141,5.301 1.06,0 2.06,-0.56 2.64,-1.2 v 4.001 l 2.042,1.06 V -7.441 Z"
             style="fill:#4c4c4c;fill-opacity:1;fill-rule:nonzero;stroke:none"
             id="path66"
             inkscape:connector-curvature="0" /></g><g
           id="g68"
           transform="translate(408.3128,358.9949)"><path
             d="m 0,0 c 0.141,4.101 2.621,5.921 5.382,7.562 1.9,1.12 2.38,1.74 2.38,2.72 0,1.12 -0.76,1.841 -2.68,1.841 -1.181,0 -2.48,-0.54 -3.381,-1.401 l -1.34,1.601 c 1.26,1.18 3.04,1.9 4.781,1.9 2.901,0 4.76,-1.24 4.76,-3.821 0,-2.16 -1.059,-3.08 -3.519,-4.541 C 3.701,4.281 2.941,3.381 2.621,2.041 h 7.422 V 0 Z"
             style="fill:#4c4c4c;fill-opacity:1;fill-rule:nonzero;stroke:none"
             id="path70"
             inkscape:connector-curvature="0" /></g><path
           d="m 299.753,229.565 h 187 v -90 h -187 z"
           style="fill:#ffffff;fill-opacity:1;fill-rule:nonzero;stroke:none"
           id="path72"
           inkscape:connector-curvature="0" /><path
           d="m 487.253,230.065 h -188 v -91 h 188 z m -1,-90 h -186 v 89 h 186 z"
           style="fill:#b4b4b4;fill-opacity:1;fill-rule:nonzero;stroke:none"
           id="path74"
           inkscape:connector-curvature="0" /><path
           d="m 299.753,127.565 h 187 v -90 h -187 z"
           style="fill:#ffffff;fill-opacity:1;fill-rule:nonzero;stroke:none"
           id="path76"
           inkscape:connector-curvature="0" /><path
           d="m 487.253,128.065 h -188 v -91 h 188 z m -1,-90 h -186 v 89 h 186 z"
           style="fill:#b4b4b4;fill-opacity:1;fill-rule:nonzero;stroke:none"
           id="path78"
           inkscape:connector-curvature="0" /><g
           id="g80"
           transform="translate(374.346,190.0173)"><path
             d="M 0,0 H -3.761 V -4.82 H 0 c 1.601,0 2.4,0.92 2.4,2.42 C 2.4,-0.859 1.461,0 0,0 m -0.1,-6.801 h -3.661 v -5.221 h -2.06 V 1.98 H 0.04 c 2.581,0 4.501,-1.48 4.501,-4.38 0,-2.881 -1.92,-4.401 -4.641,-4.401"
             style="fill:#4c4c4c;fill-opacity:1;fill-rule:nonzero;stroke:none"
             id="path82"
             inkscape:connector-curvature="0" /></g><g
           id="g84"
           transform="translate(384.9847,186.7566)"><path
             d="m 0,0 c -1.56,0 -2.52,-1.38 -2.52,-3.46 0,-2.301 1.06,-3.561 2.621,-3.561 1.56,0 2.581,1.581 2.581,3.5 C 2.682,-1.38 1.661,0 0,0 m 0.021,-8.981 c -2.641,0 -4.622,2.18 -4.622,5.46 0,3.441 2.04,5.482 4.681,5.482 2.682,0 4.682,-2.141 4.682,-5.421 0,-3.481 -2.041,-5.521 -4.741,-5.521"
             style="fill:#4c4c4c;fill-opacity:1;fill-rule:nonzero;stroke:none"
             id="path86"
             inkscape:connector-curvature="0" /></g><g
           id="g88"
           transform="translate(398.6253,185.4363)"><path
             d="m 0,0 c -0.46,0.62 -1.42,1.381 -2.46,1.381 -1.48,0 -2.28,-1.12 -2.28,-3.341 0,-2.641 0.84,-3.801 2.359,-3.801 0.981,0 1.842,0.66 2.381,1.34 z m -0.02,-7.441 v 1 c -0.759,-0.7 -1.64,-1.22 -2.74,-1.22 -2.261,0 -4.041,1.64 -4.041,5.641 0,3.601 1.96,5.301 4.141,5.301 1.06,0 2.06,-0.56 2.64,-1.2 v 4.001 l 2.041,1.06 V -7.441 Z"
             style="fill:#4c4c4c;fill-opacity:1;fill-rule:nonzero;stroke:none"
             id="path90"
             inkscape:connector-curvature="0" /></g><g
           id="g92"
           transform="translate(413.1449,177.7751)"><path
             d="M 0,0 C -1.98,0 -4.061,0.88 -5.041,2.32 L -3.44,3.681 C -2.58,2.601 -1.26,2.08 0,2.08 c 2.24,0 3.061,0.86 3.061,2.301 0,1.44 -1.081,2.1 -2.541,2.1 h -1.3 v 2.04 H 0.5 c 1.301,0 1.98,0.861 1.98,1.921 0,0.8 -0.58,1.92 -2.64,1.92 -1.1,0 -1.981,-0.479 -2.76,-1.299 l -1.56,1.48 c 1.179,1.22 2.599,1.9 4.36,1.9 2.641,0 4.781,-1.36 4.781,-3.8 0,-1.681 -0.74,-2.521 -1.7,-3.061 C 4.281,7.201 5.241,6.121 5.241,4.381 5.241,1.521 3.281,0 0,0"
             style="fill:#4c4c4c;fill-opacity:1;fill-rule:nonzero;stroke:none"
             id="path94"
             inkscape:connector-curvature="0" /></g><g
           id="g96"
           transform="translate(373.7953,88.0173)"><path
             d="M 0,0 H -3.76 V -4.82 H 0 c 1.602,0 2.4,0.92 2.4,2.42 C 2.4,-0.859 1.461,0 0,0 m -0.1,-6.801 h -3.66 v -5.221 H -5.82 V 1.98 h 5.861 c 2.58,0 4.5,-1.48 4.5,-4.38 0,-2.881 -1.92,-4.401 -4.641,-4.401"
             style="fill:#4c4c4c;fill-opacity:1;fill-rule:nonzero;stroke:none"
             id="path98"
             inkscape:connector-curvature="0" /></g><g
           id="g100"
           transform="translate(384.4349,84.7566)"><path
             d="m 0,0 c -1.56,0 -2.521,-1.38 -2.521,-3.46 0,-2.301 1.061,-3.561 2.622,-3.561 1.56,0 2.58,1.581 2.58,3.5 C 2.681,-1.38 1.661,0 0,0 m 0.021,-8.981 c -2.641,0 -4.622,2.18 -4.622,5.46 0,3.441 2.04,5.482 4.681,5.482 2.681,0 4.681,-2.141 4.681,-5.421 0,-3.481 -2.04,-5.521 -4.74,-5.521"
             style="fill:#4c4c4c;fill-opacity:1;fill-rule:nonzero;stroke:none"
             id="path102"
             inkscape:connector-curvature="0" /></g><g
           id="g104"
           transform="translate(398.0755,83.4363)"><path
             d="m 0,0 c -0.46,0.62 -1.421,1.381 -2.46,1.381 -1.48,0 -2.281,-1.12 -2.281,-3.341 0,-2.641 0.84,-3.801 2.36,-3.801 0.981,0 1.841,0.66 2.381,1.34 z m -0.021,-7.441 v 1 c -0.759,-0.7 -1.64,-1.22 -2.74,-1.22 -2.26,0 -4.041,1.64 -4.041,5.641 0,3.601 1.961,5.301 4.141,5.301 1.06,0 2.06,-0.56 2.64,-1.2 v 4.001 l 2.042,1.06 V -7.441 Z"
             style="fill:#4c4c4c;fill-opacity:1;fill-rule:nonzero;stroke:none"
             id="path106"
             inkscape:connector-curvature="0" /></g><g
           id="g108"
           transform="translate(414.2152,85.9773)"><path
             d="m 0,0 -2.701,-3.44 c -0.42,-0.54 -1.02,-1.241 -1.32,-1.561 0.48,0 1.541,0.02 2.26,0.02 H 1.2 V -0.9 c 0,0.8 0.06,2.041 0.06,2.56 C 1,1.3 0.46,0.58 0,0 m 3.24,-6.842 v -3.14 H 1.2 v 3.081 h -7.581 v 2 L 0.84,4.021 h 2.4 v -9.002 h 1.862 v -1.861 z"
             style="fill:#4c4c4c;fill-opacity:1;fill-rule:nonzero;stroke:none"
             id="path110"
             inkscape:connector-curvature="0" /></g><g
           id="g112"
           transform="translate(368.9662,530.9524)"><path
             d="m 0,0 -5.142,7.642 c -0.339,0.52 -0.798,1.22 -0.979,1.58 0,-0.52 0.04,-2.281 0.04,-3.061 V 0 h -2.761 v 14.003 h 2.681 L -1.2,6.602 c 0.34,-0.52 0.801,-1.221 0.98,-1.581 0,0.52 -0.04,2.281 -0.04,3.061 v 5.921 H 2.501 V 0 Z"
             style="fill:#4c4c4c;fill-opacity:1;fill-rule:nonzero;stroke:none"
             id="path114"
             inkscape:connector-curvature="0" /></g><g
           id="g116"
           transform="translate(380.4056,542.3948)"><path
             d="m 0,0 c -2.261,0 -3.2,-1.94 -3.2,-4.441 0,-2.5 0.939,-4.441 3.2,-4.441 2.261,0 3.2,1.941 3.2,4.441 C 3.2,-1.94 2.261,0 0,0 m 0,-11.663 c -3.821,0 -6.081,2.961 -6.081,7.222 0,4.261 2.26,7.222 6.081,7.222 3.821,0 6.081,-2.961 6.081,-7.222 0,-4.261 -2.26,-7.222 -6.081,-7.222"
             style="fill:#4c4c4c;fill-opacity:1;fill-rule:nonzero;stroke:none"
             id="path118"
             inkscape:connector-curvature="0" /></g><g
           id="g120"
           transform="translate(393.6253,542.2346)"><path
             d="m 0,0 h -1.48 v -8.562 h 1.38 c 2.94,0 4.281,1.721 4.281,4.281 C 4.181,-1.42 2.961,0 0,0 M -0.1,-11.282 H -4.281 V 2.721 H 0.1 c 4.001,0 6.961,-1.881 6.961,-7.002 0,-4.921 -3.561,-7.001 -7.161,-7.001"
             style="fill:#4c4c4c;fill-opacity:1;fill-rule:nonzero;stroke:none"
             id="path122"
             inkscape:connector-curvature="0" /></g><g
           id="g124"
           transform="translate(403.4837,530.9524)"><path
             d="M 0,0 V 14.003 H 9.722 V 11.262 H 2.801 v -2.42 h 4.02 V 6.121 h -4.02 v -3.38 h 7.221 l 0,-2.741 z"
             style="fill:#4c4c4c;fill-opacity:1;fill-rule:nonzero;stroke:none"
             id="path126"
             inkscape:connector-curvature="0" /></g><g
           id="g128"
           transform="translate(423.6644,530.9524)"><path
             d="m 0,0 v 10.122 h -2.4 v 2.061 c 1.559,0.08 2.58,0.66 2.859,1.82 H 2.78 L 2.78,0 Z"
             style="fill:#4c4c4c;fill-opacity:1;fill-rule:nonzero;stroke:none"
             id="path130"
             inkscape:connector-curvature="0" /></g><g
           id="g132"
           transform="translate(836.6448,282.9949)"><path
             d="M 0,0 V 5.882 H -5.742 V 0 h -2.801 v 14.003 h 2.801 V 8.643 H 0 v 5.36 H 2.8 L 2.8,0 Z"
             style="fill:#4c4c4c;fill-opacity:1;fill-rule:nonzero;stroke:none"
             id="path134"
             inkscape:connector-curvature="0" /></g><g
           id="g136"
           transform="translate(848.3831,294.4373)"><path
             d="m 0,0 c -2.26,0 -3.2,-1.94 -3.2,-4.44 0,-2.501 0.94,-4.442 3.2,-4.442 2.261,0 3.201,1.941 3.201,4.442 C 3.201,-1.94 2.261,0 0,0 m 0,-11.662 c -3.82,0 -6.081,2.961 -6.081,7.222 0,4.26 2.261,7.221 6.081,7.221 3.821,0 6.082,-2.961 6.082,-7.221 0,-4.261 -2.261,-7.222 -6.082,-7.222"
             style="fill:#4c4c4c;fill-opacity:1;fill-rule:nonzero;stroke:none"
             id="path138"
             inkscape:connector-curvature="0" /></g><g
           id="g140"
           transform="translate(861.7855,282.7751)"><path
             d="m 0,0 c -2.341,0 -4.381,0.98 -5.441,2.54 l 2.02,1.801 C -2.44,3.2 -1.18,2.74 0.16,2.74 c 1.66,0 2.441,0.46 2.441,1.521 0,0.9 -0.481,1.301 -3.121,1.9 -2.581,0.601 -4.381,1.421 -4.381,4.181 0,2.541 2.241,4.101 5.001,4.101 2.18,0 3.781,-0.82 5.101,-2.201 l -2.02,-1.96 C 2.28,11.202 1.28,11.723 0,11.723 c -1.5,0 -2,-0.641 -2,-1.261 0,-0.88 0.6,-1.16 2.82,-1.68 C 3.041,8.262 5.501,7.502 5.501,4.461 5.501,1.801 3.82,0 0,0"
             style="fill:#4c4c4c;fill-opacity:1;fill-rule:nonzero;stroke:none"
             id="path142"
             inkscape:connector-curvature="0" /></g><g
           id="g144"
           transform="translate(875.6478,294.2371)"><path
             d="M 0,0 V -11.242 H -2.801 V 0 h -4.02 V 2.761 H 4.021 L 4.021,0 Z"
             style="fill:#4c4c4c;fill-opacity:1;fill-rule:nonzero;stroke:none"
             id="path146"
             inkscape:connector-curvature="0" /></g><g
           id="g148"
           transform="translate(551.8167,421.9949)"><path
             d="m 0,0 -5.582,8.782 c -0.34,0.52 -0.819,1.36 -1.039,1.72 0,-0.52 0.019,-2.46 0.019,-3.24 V 0 h -2.041 v 14.003 h 2.141 L -1.18,5.461 c 0.36,-0.58 0.959,-1.62 1.16,-1.98 0,0.52 -0.02,2.52 -0.02,3.3 v 7.222 H 2 L 2,0 Z"
             style="fill:#ffffff;fill-opacity:1;fill-rule:nonzero;stroke:none"
             id="path150"
             inkscape:connector-curvature="0" /></g><g
           id="g152"
           transform="translate(561.2552,430.7566)"><path
             d="m 0,0 c -1.56,0 -2.521,-1.38 -2.521,-3.46 0,-2.301 1.061,-3.561 2.622,-3.561 1.56,0 2.58,1.58 2.58,3.5 C 2.681,-1.38 1.661,0 0,0 m 0.021,-8.982 c -2.641,0 -4.622,2.181 -4.622,5.461 0,3.441 2.04,5.481 4.681,5.481 2.681,0 4.681,-2.14 4.681,-5.42 0,-3.481 -2.04,-5.522 -4.74,-5.522"
             style="fill:#ffffff;fill-opacity:1;fill-rule:nonzero;stroke:none"
             id="path154"
             inkscape:connector-curvature="0" /></g><g
           id="g156"
           transform="translate(574.8958,429.4363)"><path
             d="m 0,0 c -0.46,0.62 -1.421,1.38 -2.46,1.38 -1.48,0 -2.281,-1.12 -2.281,-3.34 0,-2.641 0.84,-3.801 2.36,-3.801 0.981,0 1.841,0.66 2.381,1.34 z m -0.021,-7.441 v 1 c -0.759,-0.7 -1.64,-1.221 -2.74,-1.221 -2.26,0 -4.041,1.641 -4.041,5.642 0,3.601 1.961,5.301 4.141,5.301 1.06,0 2.06,-0.56 2.64,-1.2 v 4.001 l 2.042,1.06 V -7.441 Z"
             style="fill:#ffffff;fill-opacity:1;fill-rule:nonzero;stroke:none"
             id="path158"
             inkscape:connector-curvature="0" /></g><g
           id="g160"
           transform="translate(583.9144,430.8567)"><path
             d="M 0,0 C -1.379,0 -2.22,-0.96 -2.4,-2.641 H 2.481 C 2.381,-1.2 1.701,0 0,0 m 4.502,-4.341 h -6.941 c 0.219,-2.02 1.359,-2.881 2.64,-2.881 0.88,0 1.58,0.321 2.28,0.841 l 1.22,-1.321 c -0.92,-0.88 -2.019,-1.38 -3.621,-1.38 -2.46,0 -4.541,1.98 -4.541,5.461 0,3.561 1.881,5.481 4.602,5.481 2.98,0 4.421,-2.42 4.421,-5.261 0,-0.38 -0.041,-0.72 -0.06,-0.94"
             style="fill:#ffffff;fill-opacity:1;fill-rule:nonzero;stroke:none"
             id="path162"
             inkscape:connector-curvature="0" /></g><g
           id="g164"
           transform="translate(602.555,434.0173)"><path
             d="M 0,0 H -3.761 V -4.821 H 0 c 1.601,0 2.4,0.92 2.4,2.421 C 2.4,-0.86 1.461,0 0,0 m -0.1,-6.801 h -3.661 v -5.221 h -2.06 V 1.98 H 0.04 c 2.581,0 4.501,-1.48 4.501,-4.38 0,-2.881 -1.92,-4.401 -4.641,-4.401"
             style="fill:#ffffff;fill-opacity:1;fill-rule:nonzero;stroke:none"
             id="path166"
             inkscape:connector-curvature="0" /></g><g
           id="g168"
           transform="translate(613.1937,430.7566)"><path
             d="m 0,0 c -1.56,0 -2.52,-1.38 -2.52,-3.46 0,-2.301 1.061,-3.561 2.621,-3.561 1.56,0 2.581,1.58 2.581,3.5 C 2.682,-1.38 1.661,0 0,0 m 0.021,-8.982 c -2.641,0 -4.622,2.181 -4.622,5.461 0,3.441 2.04,5.481 4.681,5.481 2.682,0 4.682,-2.14 4.682,-5.42 0,-3.481 -2.041,-5.522 -4.741,-5.522"
             style="fill:#ffffff;fill-opacity:1;fill-rule:nonzero;stroke:none"
             id="path170"
             inkscape:connector-curvature="0" /></g><g
           id="g172"
           transform="translate(626.1937,430.3167)"><path
             d="m 0,0 c -0.439,0.24 -0.9,0.38 -1.58,0.38 -1.301,0 -2.061,-0.92 -2.061,-2.7 v -6.002 h -2.06 V 2.181 h 2.06 V 1.18 C -3.16,1.88 -2.28,2.4 -1.24,2.4 -0.4,2.4 0.121,2.24 0.541,1.96 Z"
             style="fill:#ffffff;fill-opacity:1;fill-rule:nonzero;stroke:none"
             id="path174"
             inkscape:connector-curvature="0" /></g><g
           id="g176"
           transform="translate(634.0745,422.2551)"><path
             d="m 0,0 c -0.5,-0.28 -1.2,-0.48 -2.021,-0.48 -1.459,0 -2.36,0.9 -2.36,2.78 v 6.062 h -1.5 v 1.88 h 1.5 v 3.001 l 2.02,1.08 V 10.242 H 0.24 V 8.362 H -2.361 V 2.66 c 0,-0.98 0.32,-1.26 1.081,-1.26 0.54,0 1.139,0.2 1.52,0.42 z"
             style="fill:#ffffff;fill-opacity:1;fill-rule:nonzero;stroke:none"
             id="path178"
             inkscape:connector-curvature="0" /></g><g
           id="g180"
           transform="translate(590.3118,397.7747)"><path
             d="m 0,0 c -1.98,0 -4.061,0.88 -5.041,2.321 l 1.601,1.36 c 0.859,-1.08 2.179,-1.6 3.44,-1.6 2.241,0 3.062,0.86 3.062,2.3 0,1.44 -1.082,2.1 -2.541,2.1 H -0.78 v 2.041 h 1.281 c 1.299,0 1.979,0.86 1.979,1.92 0,0.801 -0.58,1.921 -2.639,1.921 -1.102,0 -1.981,-0.48 -2.762,-1.3 l -1.56,1.48 c 1.18,1.22 2.601,1.9 4.361,1.9 2.641,0 4.781,-1.36 4.781,-3.8 0,-1.681 -0.74,-2.521 -1.7,-3.061 1.32,-0.38 2.28,-1.46 2.28,-3.201 C 5.241,1.521 3.28,0 0,0"
             style="fill:#ffffff;fill-opacity:1;fill-rule:nonzero;stroke:none"
             id="path182"
             inkscape:connector-curvature="0" /></g><g
           id="g184"
           transform="translate(602.2542,397.7747)"><path
             d="m 0,0 c -1.98,0 -4.061,0.88 -5.041,2.321 l 1.6,1.36 c 0.86,-1.08 2.18,-1.6 3.441,-1.6 2.24,0 3.061,0.86 3.061,2.3 0,1.44 -1.081,2.1 -2.541,2.1 H -0.781 V 8.522 H 0.5 c 1.3,0 1.98,0.86 1.98,1.92 0,0.801 -0.58,1.921 -2.64,1.921 -1.101,0 -1.981,-0.48 -2.761,-1.3 l -1.56,1.48 c 1.18,1.22 2.6,1.9 4.36,1.9 2.641,0 4.781,-1.36 4.781,-3.8 C 4.66,8.962 3.92,8.122 2.961,7.582 4.281,7.202 5.24,6.122 5.24,4.381 5.24,1.521 3.28,0 0,0"
             style="fill:#ffffff;fill-opacity:1;fill-rule:nonzero;stroke:none"
             id="path186"
             inkscape:connector-curvature="0" /></g><g
           id="g188"
           transform="translate(615.2757,410.1775)"><path
             d="m 0,0 c -2.441,0 -3.381,-2.221 -3.381,-5.161 0,-2.941 0.98,-5.201 3.42,-5.201 2.461,0 3.381,2.22 3.381,5.161 C 3.42,-2.26 2.46,0 0,0 m 0,-12.403 c -3.621,0 -5.502,2.961 -5.502,7.202 0,4.241 1.92,7.242 5.541,7.242 3.621,0 5.502,-2.961 5.502,-7.202 0,-4.241 -1.921,-7.242 -5.541,-7.242"
             style="fill:#ffffff;fill-opacity:1;fill-rule:nonzero;stroke:none"
             id="path190"
             inkscape:connector-curvature="0" /></g><g
           id="g192"
           transform="translate(624.7737,397.9949)"><path
             d="m 0,0 v 10.722 h -2.48 v 1.461 c 1.44,0.1 2.621,0.58 2.88,1.82 H 2.101 V 0 Z"
             style="fill:#ffffff;fill-opacity:1;fill-rule:nonzero;stroke:none"
             id="path194"
             inkscape:connector-curvature="0" /></g><g
           id="g196"
           transform="translate(631.6136,397.9949)"><path
             d="m 0,0 v 10.722 h -2.48 v 1.461 c 1.44,0.1 2.621,0.58 2.88,1.82 H 2.101 V 0 Z"
             style="fill:#ffffff;fill-opacity:1;fill-rule:nonzero;stroke:none"
             id="path198"
             inkscape:connector-curvature="0" /></g><g
           id="g200"
           transform="translate(58.4076,282.7751)"><path
             d="m 0,0 c -2.04,0 -3.801,0.88 -4.981,2.261 l 1.5,1.46 c 0.941,-1.021 2.32,-1.66 3.64,-1.66 1.961,0 2.902,0.679 2.902,2.04 0,1.08 -0.821,1.62 -3.162,2.32 -2.961,0.881 -4.38,1.621 -4.38,4.121 0,2.421 2.041,3.901 4.621,3.901 1.9,0 3.34,-0.7 4.581,-1.9 l -1.48,-1.501 c -0.881,0.9 -1.881,1.341 -3.262,1.341 -1.64,0 -2.339,-0.801 -2.339,-1.74 0,-0.981 0.639,-1.461 3.06,-2.181 C 3.46,7.621 5.181,6.741 5.181,4.241 5.181,1.721 3.581,0 0,0"
             style="fill:#ffffff;fill-opacity:1;fill-rule:nonzero;stroke:none"
             id="path202"
             inkscape:connector-curvature="0" /></g><g
           id="g204"
           transform="translate(70.1869,291.8572)"><path
             d="M 0,0 C -1.38,0 -2.22,-0.96 -2.4,-2.641 H 2.481 C 2.381,-1.2 1.7,0 0,0 M 4.501,-4.341 H -2.44 c 0.22,-2.02 1.36,-2.881 2.64,-2.881 0.881,0 1.58,0.321 2.281,0.84 l 1.22,-1.32 c -0.921,-0.88 -2.02,-1.38 -3.621,-1.38 -2.46,0 -4.541,1.98 -4.541,5.461 0,3.56 1.88,5.481 4.601,5.481 2.981,0 4.422,-2.421 4.422,-5.261 0,-0.38 -0.041,-0.72 -0.061,-0.94"
             style="fill:#ffffff;fill-opacity:1;fill-rule:nonzero;stroke:none"
             id="path206"
             inkscape:connector-curvature="0" /></g><g
           id="g208"
           transform="translate(83.0072,291.3171)"><path
             d="m 0,0 c -0.44,0.24 -0.9,0.38 -1.581,0.38 -1.3,0 -2.061,-0.92 -2.061,-2.7 V -8.322 H -5.701 V 2.181 h 2.059 V 1.18 c 0.481,0.7 1.362,1.22 2.402,1.22 0.84,0 1.36,-0.16 1.78,-0.44 z"
             style="fill:#ffffff;fill-opacity:1;fill-rule:nonzero;stroke:none"
             id="path210"
             inkscape:connector-curvature="0" /></g><g
           id="g212"
           transform="translate(90.6273,282.9949)"><path
             d="m 0,0 h -2.061 l -3.761,10.503 h 2.161 l 1.88,-5.701 c 0.34,-1.021 0.64,-2.001 0.78,-2.581 0.12,0.58 0.4,1.56 0.72,2.581 L 1.52,10.503 H 3.7 Z"
             style="fill:#ffffff;fill-opacity:1;fill-rule:nonzero;stroke:none"
             id="path214"
             inkscape:connector-curvature="0" /></g><path
           d="m 96.606,293.498 h 2.061 v -10.503 h -2.061 z m 1.04,1.359 c -0.74,0 -1.341,0.601 -1.341,1.32 0,0.741 0.601,1.341 1.341,1.341 0.72,0 1.32,-0.6 1.32,-1.341 0,-0.719 -0.6,-1.32 -1.32,-1.32"
           style="fill:#ffffff;fill-opacity:1;fill-rule:nonzero;stroke:none"
           id="path216"
           inkscape:connector-curvature="0" /><g
           id="g218"
           transform="translate(108.4066,290.4763)"><path
             d="m 0,0 c -0.859,0.881 -1.62,1.28 -2.561,1.28 -1.5,0 -2.46,-1.34 -2.46,-3.48 0,-2.061 0.88,-3.541 2.521,-3.541 0.98,0 1.561,0.44 2.381,1.301 L 1.2,-5.741 c -0.819,-1.04 -1.86,-1.96 -3.761,-1.96 -2.56,0 -4.541,2.16 -4.541,5.441 0,3.481 2.041,5.501 4.602,5.501 1.54,0 2.74,-0.62 3.721,-1.78 z"
             style="fill:#ffffff;fill-opacity:1;fill-rule:nonzero;stroke:none"
             id="path220"
             inkscape:connector-curvature="0" /></g><g
           id="g222"
           transform="translate(115.8636,291.8572)"><path
             d="M 0,0 C -1.379,0 -2.22,-0.96 -2.4,-2.641 H 2.481 C 2.381,-1.2 1.701,0 0,0 m 4.502,-4.341 h -6.941 c 0.219,-2.02 1.359,-2.881 2.64,-2.881 0.88,0 1.58,0.321 2.28,0.84 l 1.22,-1.32 c -0.92,-0.88 -2.019,-1.38 -3.621,-1.38 -2.46,0 -4.541,1.98 -4.541,5.461 0,3.56 1.881,5.481 4.602,5.481 2.98,0 4.421,-2.421 4.421,-5.261 0,-0.38 -0.041,-0.72 -0.06,-0.94"
             style="fill:#ffffff;fill-opacity:1;fill-rule:nonzero;stroke:none"
             id="path224"
             inkscape:connector-curvature="0" /></g><g
           id="g226"
           transform="translate(134.9847,291.4167)"><path
             d="m 0,0 c -0.34,1 -0.9,2.621 -1.061,3.221 -0.16,-0.6 -0.66,-2.2 -1.019,-3.241 L -3.201,-3.221 H 1.12 Z m 2.94,-8.422 -1.18,3.321 h -5.602 l -1.16,-3.321 h -2.18 L -2.141,5.581 H 0.08 L 5.181,-8.422 Z"
             style="fill:#ffffff;fill-opacity:1;fill-rule:nonzero;stroke:none"
             id="path228"
             inkscape:connector-curvature="0" /></g><g
           id="g230"
           transform="translate(551.8167,138.9949)"><path
             d="m 0,0 -5.582,8.782 c -0.34,0.52 -0.819,1.361 -1.039,1.721 0,-0.521 0.019,-2.461 0.019,-3.241 V 0 h -2.041 v 14.003 h 2.141 L -1.18,5.461 c 0.36,-0.58 0.959,-1.62 1.16,-1.98 0,0.52 -0.02,2.521 -0.02,3.3 v 7.222 H 2 L 2,0 Z"
             style="fill:#ffffff;fill-opacity:1;fill-rule:nonzero;stroke:none"
             id="path232"
             inkscape:connector-curvature="0" /></g><g
           id="g234"
           transform="translate(561.2552,147.7566)"><path
             d="m 0,0 c -1.56,0 -2.521,-1.38 -2.521,-3.46 0,-2.301 1.061,-3.561 2.622,-3.561 1.56,0 2.58,1.581 2.58,3.5 C 2.681,-1.38 1.661,0 0,0 m 0.021,-8.981 c -2.641,0 -4.622,2.18 -4.622,5.46 0,3.441 2.04,5.482 4.681,5.482 2.681,0 4.681,-2.141 4.681,-5.421 0,-3.481 -2.04,-5.521 -4.74,-5.521"
             style="fill:#ffffff;fill-opacity:1;fill-rule:nonzero;stroke:none"
             id="path236"
             inkscape:connector-curvature="0" /></g><g
           id="g238"
           transform="translate(574.8958,146.4363)"><path
             d="m 0,0 c -0.46,0.62 -1.421,1.381 -2.46,1.381 -1.48,0 -2.281,-1.12 -2.281,-3.341 0,-2.641 0.84,-3.801 2.36,-3.801 0.981,0 1.841,0.66 2.381,1.34 z m -0.021,-7.441 v 1 c -0.759,-0.7 -1.64,-1.22 -2.74,-1.22 -2.26,0 -4.041,1.64 -4.041,5.641 0,3.601 1.961,5.301 4.141,5.301 1.06,0 2.06,-0.56 2.64,-1.2 v 4.001 l 2.042,1.06 V -7.441 Z"
             style="fill:#ffffff;fill-opacity:1;fill-rule:nonzero;stroke:none"
             id="path240"
             inkscape:connector-curvature="0" /></g><g
           id="g242"
           transform="translate(583.9144,147.8572)"><path
             d="M 0,0 C -1.379,0 -2.22,-0.96 -2.4,-2.641 H 2.481 C 2.381,-1.2 1.701,0 0,0 m 4.502,-4.341 h -6.941 c 0.219,-2.02 1.359,-2.881 2.64,-2.881 0.88,0 1.58,0.321 2.28,0.84 l 1.22,-1.32 c -0.92,-0.88 -2.019,-1.38 -3.621,-1.38 -2.46,0 -4.541,1.98 -4.541,5.461 0,3.56 1.881,5.481 4.602,5.481 2.98,0 4.421,-2.421 4.421,-5.261 0,-0.38 -0.041,-0.72 -0.06,-0.94"
             style="fill:#ffffff;fill-opacity:1;fill-rule:nonzero;stroke:none"
             id="path244"
             inkscape:connector-curvature="0" /></g><g
           id="g246"
           transform="translate(602.555,151.0173)"><path
             d="M 0,0 H -3.761 V -4.82 H 0 c 1.601,0 2.4,0.92 2.4,2.42 C 2.4,-0.859 1.461,0 0,0 m -0.1,-6.801 h -3.661 v -5.221 h -2.06 V 1.98 H 0.04 c 2.581,0 4.501,-1.48 4.501,-4.38 0,-2.881 -1.92,-4.401 -4.641,-4.401"
             style="fill:#ffffff;fill-opacity:1;fill-rule:nonzero;stroke:none"
             id="path248"
             inkscape:connector-curvature="0" /></g><g
           id="g250"
           transform="translate(613.1937,147.7566)"><path
             d="m 0,0 c -1.56,0 -2.52,-1.38 -2.52,-3.46 0,-2.301 1.061,-3.561 2.621,-3.561 1.56,0 2.581,1.581 2.581,3.5 C 2.682,-1.38 1.661,0 0,0 m 0.021,-8.981 c -2.641,0 -4.622,2.18 -4.622,5.46 0,3.441 2.04,5.482 4.681,5.482 2.682,0 4.682,-2.141 4.682,-5.421 0,-3.481 -2.041,-5.521 -4.741,-5.521"
             style="fill:#ffffff;fill-opacity:1;fill-rule:nonzero;stroke:none"
             id="path252"
             inkscape:connector-curvature="0" /></g><g
           id="g254"
           transform="translate(626.1937,147.3171)"><path
             d="m 0,0 c -0.439,0.24 -0.9,0.38 -1.58,0.38 -1.301,0 -2.061,-0.92 -2.061,-2.7 v -6.002 h -2.06 V 2.181 h 2.06 V 1.18 C -3.16,1.88 -2.28,2.4 -1.24,2.4 -0.4,2.4 0.121,2.24 0.541,1.96 Z"
             style="fill:#ffffff;fill-opacity:1;fill-rule:nonzero;stroke:none"
             id="path256"
             inkscape:connector-curvature="0" /></g><g
           id="g258"
           transform="translate(634.0745,139.2556)"><path
             d="m 0,0 c -0.5,-0.28 -1.2,-0.48 -2.021,-0.48 -1.459,0 -2.36,0.9 -2.36,2.78 v 6.061 h -1.5 v 1.881 h 1.5 v 3 l 2.02,1.08 v -4.08 H 0.24 V 8.361 H -2.361 V 2.66 c 0,-0.98 0.32,-1.261 1.081,-1.261 0.54,0 1.139,0.201 1.52,0.421 z"
             style="fill:#ffffff;fill-opacity:1;fill-rule:nonzero;stroke:none"
             id="path260"
             inkscape:connector-curvature="0" /></g><g
           id="g262"
           transform="translate(590.3118,114.7751)"><path
             d="M 0,0 C -1.98,0 -4.061,0.88 -5.041,2.32 L -3.44,3.681 C -2.581,2.601 -1.261,2.08 0,2.08 c 2.241,0 3.062,0.86 3.062,2.301 0,1.44 -1.082,2.1 -2.541,2.1 H -0.78 v 2.04 h 1.281 c 1.299,0 1.979,0.861 1.979,1.921 0,0.8 -0.58,1.92 -2.639,1.92 -1.102,0 -1.981,-0.479 -2.762,-1.299 l -1.56,1.48 c 1.18,1.22 2.601,1.9 4.361,1.9 2.641,0 4.781,-1.36 4.781,-3.8 0,-1.681 -0.74,-2.521 -1.7,-3.061 C 4.281,7.201 5.241,6.121 5.241,4.381 5.241,1.521 3.28,0 0,0"
             style="fill:#ffffff;fill-opacity:1;fill-rule:nonzero;stroke:none"
             id="path264"
             inkscape:connector-curvature="0" /></g><g
           id="g266"
           transform="translate(602.2542,114.7751)"><path
             d="m 0,0 c -1.98,0 -4.061,0.88 -5.041,2.32 l 1.6,1.361 C -2.581,2.601 -1.261,2.08 0,2.08 c 2.24,0 3.061,0.86 3.061,2.301 0,1.44 -1.081,2.1 -2.541,2.1 h -1.301 v 2.04 H 0.5 c 1.3,0 1.98,0.861 1.98,1.921 0,0.8 -0.58,1.92 -2.64,1.92 -1.101,0 -1.981,-0.479 -2.761,-1.299 l -1.56,1.48 c 1.18,1.22 2.6,1.9 4.36,1.9 2.641,0 4.781,-1.36 4.781,-3.8 C 4.66,8.962 3.92,8.122 2.961,7.582 4.281,7.201 5.24,6.121 5.24,4.381 5.24,1.521 3.28,0 0,0"
             style="fill:#ffffff;fill-opacity:1;fill-rule:nonzero;stroke:none"
             id="path268"
             inkscape:connector-curvature="0" /></g><g
           id="g270"
           transform="translate(615.2757,127.1775)"><path
             d="m 0,0 c -2.441,0 -3.381,-2.221 -3.381,-5.161 0,-2.941 0.98,-5.201 3.42,-5.201 2.461,0 3.381,2.22 3.381,5.161 C 3.42,-2.26 2.46,0 0,0 m 0,-12.402 c -3.621,0 -5.502,2.961 -5.502,7.201 0,4.241 1.92,7.242 5.541,7.242 3.621,0 5.502,-2.961 5.502,-7.202 0,-4.24 -1.921,-7.241 -5.541,-7.241"
             style="fill:#ffffff;fill-opacity:1;fill-rule:nonzero;stroke:none"
             id="path272"
             inkscape:connector-curvature="0" /></g><g
           id="g274"
           transform="translate(624.7737,114.9949)"><path
             d="m 0,0 v 10.723 h -2.48 v 1.46 c 1.44,0.1 2.621,0.58 2.88,1.82 H 2.101 V 0 Z"
             style="fill:#ffffff;fill-opacity:1;fill-rule:nonzero;stroke:none"
             id="path276"
             inkscape:connector-curvature="0" /></g><g
           id="g278"
           transform="translate(631.6136,114.9949)"><path
             d="m 0,0 v 10.723 h -2.48 v 1.46 c 1.44,0.1 2.621,0.58 2.88,1.82 H 2.101 V 0 Z"
             style="fill:#ffffff;fill-opacity:1;fill-rule:nonzero;stroke:none"
             id="path280"
             inkscape:connector-curvature="0" /></g><g
           id="g282"
           transform="translate(365.9867,249.9519)"><path
             d="m 0,0 -5.142,7.642 c -0.339,0.52 -0.799,1.22 -0.979,1.581 0,-0.521 0.039,-2.282 0.039,-3.062 V 0 h -2.76 v 14.003 h 2.68 l 4.961,-7.401 c 0.341,-0.52 0.801,-1.22 0.98,-1.581 0,0.52 -0.039,2.281 -0.039,3.061 v 5.921 H 2.5 L 2.5,0 Z"
             style="fill:#4c4c4c;fill-opacity:1;fill-rule:nonzero;stroke:none"
             id="path284"
             inkscape:connector-curvature="0" /></g><g
           id="g286"
           transform="translate(377.4261,261.3943)"><path
             d="m 0,0 c -2.262,0 -3.201,-1.94 -3.201,-4.44 0,-2.501 0.939,-4.442 3.201,-4.442 2.26,0 3.2,1.941 3.2,4.442 C 3.2,-1.94 2.26,0 0,0 m 0,-11.662 c -3.821,0 -6.082,2.961 -6.082,7.222 0,4.26 2.261,7.221 6.082,7.221 3.82,0 6.08,-2.961 6.08,-7.221 0,-4.261 -2.26,-7.222 -6.08,-7.222"
             style="fill:#4c4c4c;fill-opacity:1;fill-rule:nonzero;stroke:none"
             id="path288"
             inkscape:connector-curvature="0" /></g><g
           id="g290"
           transform="translate(390.6449,261.2341)"><path
             d="m 0,0 h -1.48 v -8.562 h 1.38 c 2.941,0 4.282,1.721 4.282,4.282 C 4.182,-1.42 2.961,0 0,0 M -0.1,-11.282 H -4.281 V 2.721 H 0.1 c 4.002,0 6.962,-1.88 6.962,-7.001 0,-4.921 -3.561,-7.002 -7.162,-7.002"
             style="fill:#4c4c4c;fill-opacity:1;fill-rule:nonzero;stroke:none"
             id="path292"
             inkscape:connector-curvature="0" /></g><g
           id="g294"
           transform="translate(400.5042,249.9519)"><path
             d="m 0,0 v 14.003 h 9.722 v -2.74 H 2.801 V 8.842 h 4.02 V 6.121 h -4.02 v -3.38 h 7.22 l 0,-2.741 z"
             style="fill:#4c4c4c;fill-opacity:1;fill-rule:nonzero;stroke:none"
             id="path296"
             inkscape:connector-curvature="0" /></g><g
           id="g298"
           transform="translate(418.764,249.9519)"><path
             d="m 0,0 c 0.08,4.802 3.02,6.882 6.441,8.382 1.2,0.52 1.58,1.08 1.58,1.681 0,0.719 -0.621,1.419 -2.3,1.419 -1.66,0 -3,-0.74 -3.981,-1.679 l -1.801,2.099 c 1.481,1.501 3.461,2.322 5.682,2.322 3.32,0 5.201,-1.341 5.201,-4.022 0,-2.26 -1.22,-3.24 -3.601,-4.341 C 4.74,4.722 3.78,3.781 3.521,2.701 h 7.441 V 0 Z"
             style="fill:#4c4c4c;fill-opacity:1;fill-rule:nonzero;stroke:none"
             id="path300"
             inkscape:connector-curvature="0" /></g><path
           d="M 775.024,415.565 H 659.335 v 2 h 115.689 z"
           style="fill:#3f9c35;fill-opacity:1;fill-rule:nonzero;stroke:none"
           id="path302"
           inkscape:connector-curvature="0" /><g
           id="g304"
           transform="translate(661.2308,423.0476)"><path
             d="M 0,0 -11.226,-6.482 0,-12.965 Z"
             style="fill:#3f9c35;fill-opacity:1;fill-rule:nonzero;stroke:none"
             id="path306"
             inkscape:connector-curvature="0" /></g><path
           d="M 290.434,466.565 H 174.745 v 2 h 115.689 z"
           style="fill:#3f9c35;fill-opacity:1;fill-rule:nonzero;stroke:none"
           id="path308"
           inkscape:connector-curvature="0" /><g
           id="g310"
           transform="translate(288.5374,474.0476)"><path
             d="M 0,0 11.226,-6.482 0,-12.965 Z"
             style="fill:#3f9c35;fill-opacity:1;fill-rule:nonzero;stroke:none"
             id="path312"
             inkscape:connector-curvature="0" /></g><path
           d="M 290.434,364.565 H 174.745 v 2 h 115.689 z"
           style="fill:#3f9c35;fill-opacity:1;fill-rule:nonzero;stroke:none"
           id="path314"
           inkscape:connector-curvature="0" /><g
           id="g316"
           transform="translate(288.5374,372.0476)"><path
             d="M 0,0 11.226,-6.482 0,-12.965 Z"
             style="fill:#3f9c35;fill-opacity:1;fill-rule:nonzero;stroke:none"
             id="path318"
             inkscape:connector-curvature="0" /></g><path
           d="M 290.434,183.565 H 174.745 v 2 h 115.689 z"
           style="fill:#3f9c35;fill-opacity:1;fill-rule:nonzero;stroke:none"
           id="path320"
           inkscape:connector-curvature="0" /><g
           id="g322"
           transform="translate(288.5374,191.0476)"><path
             d="M 0,0 11.226,-6.482 0,-12.965 Z"
             style="fill:#3f9c35;fill-opacity:1;fill-rule:nonzero;stroke:none"
             id="path324"
             inkscape:connector-curvature="0" /></g><path
           d="M 290.434,81.565 H 174.745 v 2 h 115.689 z"
           style="fill:#3f9c35;fill-opacity:1;fill-rule:nonzero;stroke:none"
           id="path326"
           inkscape:connector-curvature="0" /><g
           id="g328"
           transform="translate(288.5374,89.0476)"><path
             d="M 0,0 11.226,-6.482 0,-12.965 Z"
             style="fill:#3f9c35;fill-opacity:1;fill-rule:nonzero;stroke:none"
             id="path330"
             inkscape:connector-curvature="0" /></g><path
           d="M 775.024,132.565 H 659.335 v 2 h 115.689 z"
           style="fill:#3f9c35;fill-opacity:1;fill-rule:nonzero;stroke:none"
           id="path332"
           inkscape:connector-curvature="0" /><g
           id="g334"
           transform="translate(661.2308,140.0476)"><path
             d="M 0,0 -11.226,-6.482 0,-12.965 Z"
             style="fill:#3f9c35;fill-opacity:1;fill-rule:nonzero;stroke:none"
             id="path336"
             inkscape:connector-curvature="0" /></g></g></g></g></svg>