<?xml version="1.0" encoding="UTF-8" standalone="no"?>
<svg
   xmlns:dc="http://purl.org/dc/elements/1.1/"
   xmlns:cc="http://creativecommons.org/ns#"
   xmlns:rdf="http://www.w3.org/1999/02/22-rdf-syntax-ns#"
   xmlns:svg="http://www.w3.org/2000/svg"
   xmlns="http://www.w3.org/2000/svg"
   xmlns:sodipodi="http://sodipodi.sourceforge.net/DTD/sodipodi-0.dtd"
   xmlns:inkscape="http://www.inkscape.org/namespaces/inkscape"
   inkscape:version="1.0 (4035a4f, 2020-05-01)"
   sodipodi:docname="kubernetes-networking-1_docker-networking-1.svg"
   version="1.1"
   viewBox="0 0 595.276 477.328"
   height="477.328"
   width="595.276"
   data-name="Layer 1"
   id="Layer_1">
  <metadata
     id="metadata257">
    <rdf:RDF>
      <cc:Work
         rdf:about="">
        <dc:format>image/svg+xml</dc:format>
        <dc:type
           rdf:resource="http://purl.org/dc/dcmitype/StillImage" />
        <dc:title></dc:title>
        <dc:subject>
          <rdf:Bag>
            <rdf:li>do180</rdf:li>
            <rdf:li>chapter6</rdf:li>
            <rdf:li>networking</rdf:li>
          </rdf:Bag>
        </dc:subject>
      </cc:Work>
    </rdf:RDF>
  </metadata>
  <sodipodi:namedview
     inkscape:current-layer="Layer_1"
     inkscape:window-maximized="0"
     inkscape:window-y="25"
     inkscape:window-x="0"
     inkscape:cy="238.664"
     inkscape:cx="297.638"
     inkscape:zoom="0.8416264"
     showgrid="false"
     id="namedview255"
     inkscape:window-height="480"
     inkscape:window-width="987"
     inkscape:pageshadow="2"
     inkscape:pageopacity="0"
     guidetolerance="10"
     gridtolerance="10"
     objecttolerance="10"
     borderopacity="1"
     bordercolor="#666666"
     pagecolor="#ffffff" />
  <defs
     id="defs12">
    <style
       id="style10">
      .cls-1 {
        fill: #e6e6e6;
      }

      .cls-2, .cls-5 {
        fill: none;
        stroke-miterlimit: 10;
      }

      .cls-2 {
        stroke: #3f9c35;
        stroke-width: 2px;
      }

      .cls-3 {
        fill: #fff;
      }

      .cls-4 {
        fill: #b4b4b4;
      }

      .cls-5 {
        stroke: #c00;
      }

      .cls-6 {
        fill: #c00;
      }

      .cls-7 {
        fill: #3f9c35;
      }
    </style>
  </defs>
  <rect
     id="rect14"
     height="147.734"
     width="298.337"
     y="248.96"
     x="159.977"
     class="cls-1" />
  <g
     id="g26">
    <path
       id="path16"
       d="M289.782,262.6l4.043,5.512-.039-5.512h2.106v9.1h-1.977L289.743,266l.039,5.694h-2.107v-9.1Z" />
    <path
       id="path18"
       d="M300.923,264.884a3.471,3.471,0,1,1-3.5,3.471A3.415,3.415,0,0,1,300.923,264.884Zm1.456,3.471a1.47,1.47,0,1,0-2.9,0,1.467,1.467,0,1,0,2.9,0Z" />
    <path
       id="path20"
       d="M310.477,270.825a2.529,2.529,0,0,1-1.976.91,3.2,3.2,0,0,1-2.964-3.406,3.234,3.234,0,0,1,3.12-3.38,2.352,2.352,0,0,1,1.8.806V262.4l2.105-.325v9.62h-2.08Zm-1.274-.832a1.634,1.634,0,0,0,1.249-.533V267.2a1.711,1.711,0,0,0-1.249-.52,1.659,1.659,0,0,0,0,3.315Z" />
    <path
       id="path22"
       d="M317.432,271.826a3.468,3.468,0,0,1-3.535-3.471,3.365,3.365,0,0,1,3.38-3.484,3.3,3.3,0,0,1,3.3,3.562v.455h-4.615a1.611,1.611,0,0,0,1.573,1.261,1.662,1.662,0,0,0,1.327-.559l1.39,1.157A3.907,3.907,0,0,1,317.432,271.826Zm-1.469-4.134h2.665a1.4,1.4,0,0,0-1.365-1.183A1.332,1.332,0,0,0,315.963,267.692Z" />
    <path
       id="path24"
       d="M324.53,270.266l3.847-3.809a1.7,1.7,0,0,0,.612-1.209c0-.585-.573-1.027-1.339-1.027a3.135,3.135,0,0,0-2.3,1.118l-1.118-1.365a4.993,4.993,0,0,1,3.484-1.5c1.937,0,3.224,1.053,3.224,2.639a3.18,3.18,0,0,1-1.183,2.353l-2.627,2.535,3.94-.013v1.7H324.53Z" />
  </g>
  <line
     id="line28"
     y2="305.25"
     x2="188.606"
     y1="305.25"
     x1="235.734"
     class="cls-2" />
  <g
     id="g34">
    <rect
       id="rect30"
       height="41.333"
       width="145.822"
       y="284.584"
       x="236.234"
       class="cls-3" />
    <path
       id="path32"
       d="M381.557,285.084v40.333H236.734V285.084H381.557m1-1H235.734v42.333H382.557V284.084Z"
       class="cls-4" />
  </g>
  <g
     id="g40">
    <rect
       id="rect36"
       height="41.333"
       width="145.822"
       y="338.505"
       x="236.234"
       class="cls-3" />
    <path
       id="path38"
       d="M381.557,339.005v40.333H236.734V339.005H381.557m1-1H235.734v42.333H382.557V338.005Z"
       class="cls-4" />
  </g>
  <g
     id="g50">
    <path
       id="path42"
       d="M292.718,299.751h4.069a2.823,2.823,0,1,1,0,5.629h-2.508v3.471h-1.561Zm1.561,1.313v3.042h2.261a1.531,1.531,0,1,0,.013-3.042Z" />
    <path
       id="path44"
       d="M303.989,302.234a3.375,3.375,0,1,1-3.276,3.367A3.252,3.252,0,0,1,303.989,302.234Zm1.82,3.38a1.841,1.841,0,1,0-3.64,0,1.838,1.838,0,1,0,3.64,0Z" />
    <path
       id="path46"
       d="M313.48,307.98a2.508,2.508,0,0,1-2,.936,3.332,3.332,0,0,1,.091-6.63,2.481,2.481,0,0,1,1.9.858v-3.588l1.47-.247v9.542H313.48Zm-1.561-.3a1.948,1.948,0,0,0,1.547-.715v-2.743a2.019,2.019,0,0,0-1.547-.7,2.085,2.085,0,0,0,0,4.16Z" />
    <path
       id="path48"
       d="M322.566,308.981a4.573,4.573,0,0,1-3.367-1.365l.962-.9a2.983,2.983,0,0,0,2.392,1.014c1.17,0,1.976-.611,1.976-1.508a1.436,1.436,0,0,0-1.612-1.365h-1.131v-1.183H322.8a1.319,1.319,0,0,0,1.444-1.365,1.572,1.572,0,0,0-1.73-1.443,2.812,2.812,0,0,0-2.262,1.079l-.962-.9a4.409,4.409,0,0,1,3.276-1.443c1.807,0,3.107,1.079,3.107,2.548a2.187,2.187,0,0,1-1.768,2.08,2.254,2.254,0,0,1,2.054,2.08C325.959,307.863,324.542,308.981,322.566,308.981Z" />
  </g>
  <g
     id="g60">
    <path
       id="path52"
       d="M292.434,353.672H296.5a2.823,2.823,0,1,1,0,5.63h-2.509v3.471h-1.56Zm1.56,1.314v3.042h2.262a1.531,1.531,0,1,0,.013-3.042Z" />
    <path
       id="path54"
       d="M303.7,356.156a3.375,3.375,0,1,1-3.275,3.367A3.252,3.252,0,0,1,303.7,356.156Zm1.821,3.38a1.841,1.841,0,1,0-3.64,0,1.838,1.838,0,1,0,3.64,0Z" />
    <path
       id="path56"
       d="M313.2,361.9a2.508,2.508,0,0,1-2,.936,3.332,3.332,0,0,1,.091-6.63,2.483,2.483,0,0,1,1.9.858v-3.588l1.47-.247v9.542H313.2Zm-1.561-.3a1.949,1.949,0,0,0,1.547-.715v-2.743a2.02,2.02,0,0,0-1.547-.7,2.085,2.085,0,0,0,0,4.16Z" />
    <path
       id="path58"
       d="M325.311,359.3h1.17v1.222h-1.17v2.249h-1.417v-2.249h-4.888v-1.157l4.693-5.695h1.612Zm-1.417,0v-4.108l-3.367,4.108Z" />
  </g>
  <g
     id="g158">
    <g
       id="g96">
      <path
         id="path62"
         d="M75.213,438.581l4.745,6.6-.026-6.6H81.4v9.1H80.01L75.135,440.9l.026,6.786H73.692v-9.1Z" />
      <path
         id="path64"
         d="M86.418,447.811a3.31,3.31,0,0,1-3.314-3.38,3.208,3.208,0,0,1,3.172-3.367,3.126,3.126,0,0,1,3.081,3.355v.363H84.546a1.99,1.99,0,0,0,1.95,1.781,2.113,2.113,0,0,0,1.547-.611l.963.9A3.767,3.767,0,0,1,86.418,447.811Zm-1.845-3.926h3.393a1.783,1.783,0,0,0-1.7-1.625A1.75,1.75,0,0,0,84.573,443.885Z" />
      <path
         id="path66"
         d="M91.462,442.338H90.15v-1.17h1.312v-1.794l1.47-.312v2.106h1.819v1.17H92.932v3.3c0,.637.246.884.909.884a2.7,2.7,0,0,0,.885-.156V447.6a4.624,4.624,0,0,1-1.262.183c-1.312,0-2-.625-2-1.821Z" />
      <path
         id="path68"
         d="M97.312,447.681l-1.755-6.513h1.4l1.144,4.6,1.34-4.6h1.248l1.339,4.615,1.13-4.615h1.378l-1.754,6.513h-1.417l-1.314-4.589-1.312,4.589Z" />
      <path
         id="path70"
         d="M108.6,441.064a3.375,3.375,0,1,1-3.275,3.367A3.252,3.252,0,0,1,108.6,441.064Zm1.82,3.38a1.841,1.841,0,1,0-3.639,0,1.837,1.837,0,1,0,3.639,0Z" />
      <path
         id="path72"
         d="M113.394,441.168h1.469v1.417a1.931,1.931,0,0,1,1.794-1.534,1.741,1.741,0,0,1,.637.13v1.287a2.071,2.071,0,0,0-.806-.156,1.787,1.787,0,0,0-1.625,1.079v4.29h-1.469Z" />
      <path
         id="path74"
         d="M118.5,438.386l1.469-.247v5.811l2.7-2.782h1.677l-2.977,3.016,3.16,3.5H122.65l-2.679-3v3H118.5Z" />
      <path
         id="path76"
         d="M128.46,441.168H129.9v.936a2.451,2.451,0,0,1,2.027-.988,3.126,3.126,0,0,1,2.951,3.315,3.157,3.157,0,0,1-3.054,3.316,2.436,2.436,0,0,1-1.9-.846v3.536H128.46Zm1.469,1.911V445.8a2,2,0,0,0,1.561.715,2.085,2.085,0,0,0,0-4.16A1.914,1.914,0,0,0,129.929,443.079Z" />
      <path
         id="path78"
         d="M136.143,445.809c0-1.17.949-1.911,2.483-1.911a4.025,4.025,0,0,1,1.755.4v-.715c0-.858-.494-1.3-1.5-1.3a4.5,4.5,0,0,0-1.9.508l-.52-1.067a6.253,6.253,0,0,1,2.7-.663c1.69,0,2.665.858,2.665,2.366v4.251h-1.456v-.663a2.72,2.72,0,0,1-1.937.768A2.054,2.054,0,0,1,136.143,445.809Zm2.7.949a2.323,2.323,0,0,0,1.534-.533v-1.066a3.37,3.37,0,0,0-1.508-.312c-.832,0-1.352.364-1.352.936C137.521,446.381,138.041,446.758,138.847,446.758Z" />
      <path
         id="path80"
         d="M148.272,445.8l.884.884a3.389,3.389,0,0,1-2.548,1.131,3.368,3.368,0,0,1,0-6.734,3.508,3.508,0,0,1,2.6,1.092l-.91.949a2.151,2.151,0,0,0-1.637-.767,2.089,2.089,0,0,0,.039,4.16A2,2,0,0,0,148.272,445.8Z" />
      <path
         id="path82"
         d="M150.416,438.386l1.469-.247v5.811l2.7-2.782h1.677l-2.977,3.016,3.16,3.5h-1.885l-2.679-3v3h-1.469Z" />
      <path
         id="path84"
         d="M160.036,447.811a3.31,3.31,0,0,1-3.314-3.38,3.207,3.207,0,0,1,3.172-3.367,3.126,3.126,0,0,1,3.081,3.355v.363h-4.811a1.991,1.991,0,0,0,1.951,1.781,2.112,2.112,0,0,0,1.546-.611l.963.9A3.769,3.769,0,0,1,160.036,447.811Zm-1.845-3.926h3.393a1.784,1.784,0,0,0-1.7-1.625A1.75,1.75,0,0,0,158.191,443.885Z" />
      <path
         id="path86"
         d="M165.08,442.338h-1.312v-1.17h1.312v-1.794l1.47-.312v2.106h1.819v1.17H166.55v3.3c0,.637.247.884.909.884a2.7,2.7,0,0,0,.885-.156V447.6a4.624,4.624,0,0,1-1.262.183c-1.312,0-2-.625-2-1.821Z" />
      <path
         id="path88"
         d="M173.465,441.168v-1.157a2,2,0,0,1,2.249-2.184,3.506,3.506,0,0,1,.976.13v1.248a3.006,3.006,0,0,0-.78-.1c-.676,0-.976.3-.976.936v1.131h1.756v1.17h-1.756v5.343h-1.469v-5.343h-1.4v-1.17Z" />
      <path
         id="path90"
         d="M179.393,447.681h-1.469v-9.295l1.469-.247Z" />
      <path
         id="path92"
         d="M184.177,441.064a3.375,3.375,0,1,1-3.275,3.367A3.252,3.252,0,0,1,184.177,441.064Zm1.82,3.38a1.841,1.841,0,1,0-3.639,0,1.837,1.837,0,1,0,3.639,0Z" />
      <path
         id="path94"
         d="M189.988,447.681l-1.755-6.513h1.4l1.144,4.6,1.339-4.6h1.249l1.338,4.615,1.131-4.615h1.378l-1.755,6.513h-1.417l-1.313-4.589-1.313,4.589Z" />
    </g>
    <g
       id="g104">
      <line
         id="line98"
         y2="443.688"
         x2="38.153"
         y1="443.688"
         x1="57.847"
         class="cls-5" />
      <polygon
         id="polygon100"
         points="56.753 439.948 63.229 443.688 56.753 447.428 56.753 439.948"
         class="cls-6" />
      <polygon
         id="polygon102"
         points="39.248 439.948 32.771 443.688 39.248 447.428 39.248 439.948"
         class="cls-6" />
    </g>
    <g
       id="g154">
      <path
         id="path106"
         d="M279.883,438.581h1.677l2.8,7.527,2.821-7.527h1.612l-3.562,9.1h-1.807Z" />
      <path
         id="path108"
         d="M289.594,438.945a.917.917,0,0,1,1.833,0,.917.917,0,0,1-1.833,0Zm1.65,8.736h-1.468v-6.513h1.468Z" />
      <path
         id="path110"
         d="M293.052,441.168h1.469v1.417a1.931,1.931,0,0,1,1.794-1.534,1.751,1.751,0,0,1,.638.13v1.287a2.08,2.08,0,0,0-.807-.156,1.787,1.787,0,0,0-1.625,1.079v4.29h-1.469Z" />
      <path
         id="path112"
         d="M299.044,442.338h-1.312v-1.17h1.312v-1.794l1.47-.312v2.106h1.819v1.17h-1.819v3.3c0,.637.246.884.909.884a2.7,2.7,0,0,0,.885-.156V447.6a4.624,4.624,0,0,1-1.262.183c-1.312,0-2-.625-2-1.821Z" />
      <path
         id="path114"
         d="M305.05,445.043a1.4,1.4,0,0,0,1.431,1.559,1.644,1.644,0,0,0,1.43-.806v-4.628h1.468v6.513h-1.468V446.6a2.383,2.383,0,0,1-2.081,1.184,2.185,2.185,0,0,1-2.249-2.327v-4.291h1.469Z" />
      <path
         id="path116"
         d="M310.862,445.809c0-1.17.949-1.911,2.483-1.911a4.028,4.028,0,0,1,1.755.4v-.715c0-.858-.494-1.3-1.5-1.3a4.5,4.5,0,0,0-1.9.508l-.519-1.067a6.25,6.25,0,0,1,2.7-.663c1.689,0,2.665.858,2.665,2.366v4.251H315.1v-.663a2.721,2.721,0,0,1-1.938.768A2.054,2.054,0,0,1,310.862,445.809Zm2.7.949a2.323,2.323,0,0,0,1.534-.533v-1.066a3.373,3.373,0,0,0-1.508-.312c-.832,0-1.352.364-1.352.936C312.24,446.381,312.76,446.758,313.566,446.758Z" />
      <path
         id="path118"
         d="M319.805,447.681h-1.469v-9.295l1.469-.247Z" />
      <path
         id="path120"
         d="M327.514,441.064a3.375,3.375,0,1,1-3.275,3.367A3.252,3.252,0,0,1,327.514,441.064Zm1.82,3.38a1.841,1.841,0,1,0-3.639,0,1.837,1.837,0,1,0,3.639,0Z" />
      <path
         id="path122"
         d="M332.311,441.168h1.469v1.417a1.931,1.931,0,0,1,1.794-1.534,1.741,1.741,0,0,1,.637.13v1.287a2.071,2.071,0,0,0-.806-.156,1.787,1.787,0,0,0-1.625,1.079v4.29h-1.469Z" />
      <path
         id="path124"
         d="M340.345,441.168h1.443v.936a2.454,2.454,0,0,1,2.028-.988,3.126,3.126,0,0,1,2.951,3.315,3.157,3.157,0,0,1-3.055,3.316,2.436,2.436,0,0,1-1.9-.846v3.536h-1.469Zm1.469,1.911V445.8a1.994,1.994,0,0,0,1.56.715,2.085,2.085,0,0,0,0-4.16A1.912,1.912,0,0,0,341.814,443.079Z" />
      <path
         id="path126"
         d="M348.287,438.386l1.469-.247v4.095a2.365,2.365,0,0,1,2.068-1.17,2.192,2.192,0,0,1,2.249,2.327v4.29H352.6v-3.874a1.4,1.4,0,0,0-1.431-1.56,1.671,1.671,0,0,0-1.417.78v4.654h-1.469Z" />
      <path
         id="path128"
         d="M357.388,447.72l-2.457-6.552h1.638L358.22,446l1.82-4.836h1.6l-3.094,7.58a2.2,2.2,0,0,1-2.314,1.715,3.161,3.161,0,0,1-.741-.09v-1.262a5.46,5.46,0,0,0,.572.053,1.039,1.039,0,0,0,1.053-.755Z" />
      <path
         id="path130"
         d="M362.808,445.939a3.759,3.759,0,0,0,2.094.741c.779,0,1.312-.351,1.312-.871,0-.4-.272-.624-.9-.741l-1.157-.194c-1.261-.235-1.885-.82-1.885-1.8,0-1.222,1-2.015,2.521-2.015a4.586,4.586,0,0,1,2.562.78l-.69.962a3.557,3.557,0,0,0-1.963-.624c-.675,0-1.118.286-1.118.767,0,.416.235.6.923.715l1.145.208c1.3.247,1.923.845,1.923,1.82a2.386,2.386,0,0,1-2.652,2.119,4.364,4.364,0,0,1-2.808-.884Z" />
      <path
         id="path132"
         d="M368.748,438.945a.917.917,0,0,1,1.834,0,.917.917,0,0,1-1.834,0Zm1.652,8.736h-1.469v-6.513H370.4Z" />
      <path
         id="path134"
         d="M376.862,445.8l.883.884a3.385,3.385,0,0,1-2.547,1.131,3.368,3.368,0,0,1,0-6.734,3.508,3.508,0,0,1,2.6,1.092l-.91.949a2.153,2.153,0,0,0-1.638-.767,2.089,2.089,0,0,0,.039,4.16A2,2,0,0,0,376.862,445.8Z" />
      <path
         id="path136"
         d="M378.681,445.809c0-1.17.949-1.911,2.483-1.911a4.025,4.025,0,0,1,1.755.4v-.715c0-.858-.494-1.3-1.5-1.3a4.5,4.5,0,0,0-1.9.508l-.52-1.067a6.253,6.253,0,0,1,2.7-.663c1.691,0,2.665.858,2.665,2.366v4.251h-1.456v-.663a2.72,2.72,0,0,1-1.937.768A2.055,2.055,0,0,1,378.681,445.809Zm2.7.949a2.323,2.323,0,0,0,1.534-.533v-1.066a3.368,3.368,0,0,0-1.508-.312c-.832,0-1.352.364-1.352.936C380.059,446.381,380.579,446.758,381.385,446.758Z" />
      <path
         id="path138"
         d="M387.625,447.681h-1.468v-9.295l1.468-.247Z" />
      <path
         id="path140"
         d="M392.357,441.168h1.469v1.066a2.364,2.364,0,0,1,2.067-1.17,2.192,2.192,0,0,1,2.249,2.327v4.29h-1.469v-3.874a1.4,1.4,0,0,0-1.43-1.56,1.67,1.67,0,0,0-1.417.78v4.654h-1.469Z" />
      <path
         id="path142"
         d="M402.939,447.811a3.311,3.311,0,0,1-3.315-3.38,3.208,3.208,0,0,1,3.172-3.367,3.126,3.126,0,0,1,3.081,3.355v.363h-4.81a1.989,1.989,0,0,0,1.95,1.781,2.114,2.114,0,0,0,1.547-.611l.963.9A3.771,3.771,0,0,1,402.939,447.811Zm-1.846-3.926h3.394a1.784,1.784,0,0,0-1.7-1.625A1.75,1.75,0,0,0,401.093,443.885Z" />
      <path
         id="path144"
         d="M407.983,442.338H406.67v-1.17h1.313v-1.794l1.47-.312v2.106h1.819v1.17h-1.819v3.3c0,.637.247.884.909.884a2.7,2.7,0,0,0,.884-.156V447.6a4.622,4.622,0,0,1-1.261.183c-1.313,0-2-.625-2-1.821Z" />
      <path
         id="path146"
         d="M413.832,447.681l-1.754-6.513h1.4l1.143,4.6,1.34-4.6h1.248l1.339,4.615,1.131-4.615h1.378l-1.755,6.513h-1.417l-1.313-4.589-1.313,4.589Z" />
      <path
         id="path148"
         d="M425.117,441.064a3.375,3.375,0,1,1-3.276,3.367A3.252,3.252,0,0,1,425.117,441.064Zm1.82,3.38a1.841,1.841,0,1,0-3.64,0,1.838,1.838,0,1,0,3.64,0Z" />
      <path
         id="path150"
         d="M429.913,441.168h1.469v1.417a1.933,1.933,0,0,1,1.794-1.534,1.751,1.751,0,0,1,.638.13v1.287a2.076,2.076,0,0,0-.807-.156,1.787,1.787,0,0,0-1.625,1.079v4.29h-1.469Z" />
      <path
         id="path152"
         d="M435.023,438.386l1.469-.247v5.811l2.7-2.782h1.677l-2.977,3.016,3.159,3.5H439.17l-2.678-3v3h-1.469Z" />
    </g>
    <line
       id="line156"
       y2="443.688"
       x2="239.976"
       y1="443.688"
       x1="270.434"
       class="cls-2" />
  </g>
  <rect
     id="rect160"
     height="147.734"
     width="298.337"
     y="86.869"
     x="159.977"
     class="cls-1" />
  <g
     id="g172">
    <path
       id="path162"
       d="M291.16,100.5l4.043,5.513-.04-5.513h2.107v9.1h-1.977l-4.173-5.694.04,5.694h-2.107v-9.1Z" />
    <path
       id="path164"
       d="M302.3,102.793a3.471,3.471,0,1,1-3.5,3.471A3.415,3.415,0,0,1,302.3,102.793Zm1.456,3.471a1.47,1.47,0,1,0-2.9,0,1.467,1.467,0,1,0,2.9,0Z" />
    <path
       id="path166"
       d="M311.855,108.734a2.531,2.531,0,0,1-1.976.91,3.2,3.2,0,0,1-2.965-3.406,3.235,3.235,0,0,1,3.122-3.38,2.348,2.348,0,0,1,1.793.806V100.31l2.106-.325v9.62h-2.08Zm-1.274-.832a1.63,1.63,0,0,0,1.248-.533v-2.262a1.708,1.708,0,0,0-1.248-.52,1.659,1.659,0,0,0,0,3.315Z" />
    <path
       id="path168"
       d="M318.811,109.735a3.469,3.469,0,0,1-3.537-3.471,3.366,3.366,0,0,1,3.381-3.484,3.3,3.3,0,0,1,3.3,3.562v.455h-4.615a1.61,1.61,0,0,0,1.573,1.261,1.662,1.662,0,0,0,1.327-.559l1.39,1.157A3.907,3.907,0,0,1,318.811,109.735Zm-1.47-4.134h2.665a1.4,1.4,0,0,0-1.365-1.183A1.333,1.333,0,0,0,317.341,105.6Z" />
    <path
       id="path170"
       d="M329.456,109.605h-2v-7.02l-1.793.741v-1.768L328.2,100.5h1.26Z" />
  </g>
  <g
     id="g206">
    <path
       id="path174"
       d="M125.582,25.176h1.561v4.16l3.952-4.16h1.9l-4.316,4.381,4.484,4.719H131.1L127.143,30v4.277h-1.561Z"
       class="cls-7" />
    <path
       id="path176"
       d="M135.215,31.637a1.4,1.4,0,0,0,1.431,1.56,1.643,1.643,0,0,0,1.43-.806V27.763h1.468v6.513h-1.468V33.2A2.384,2.384,0,0,1,136,34.38a2.185,2.185,0,0,1-2.249-2.327v-4.29h1.469Z"
       class="cls-7" />
    <path
       id="path178"
       d="M144.719,34.341a2.419,2.419,0,0,1-1.924-.91v.845h-1.443v-9.3l1.469-.247v3.9a2.535,2.535,0,0,1,2-.923,3.126,3.126,0,0,1,2.951,3.315A3.157,3.157,0,0,1,144.719,34.341Zm-1.9-4.667v2.717a2,2,0,0,0,1.56.716,2.086,2.086,0,0,0,0-4.161A1.912,1.912,0,0,0,142.821,29.674Z"
       class="cls-7" />
    <path
       id="path180"
       d="M152.349,34.406a3.31,3.31,0,0,1-3.314-3.38,3.207,3.207,0,0,1,3.171-3.367,3.126,3.126,0,0,1,3.081,3.354v.364h-4.81a1.989,1.989,0,0,0,1.95,1.781,2.11,2.11,0,0,0,1.547-.611l.963.9A3.769,3.769,0,0,1,152.349,34.406ZM150.5,30.481H153.9a1.784,1.784,0,0,0-1.7-1.626A1.751,1.751,0,0,0,150.5,30.481Z"
       class="cls-7" />
    <path
       id="path182"
       d="M156.783,27.763h1.468V29.18a1.933,1.933,0,0,1,1.794-1.534,1.751,1.751,0,0,1,.638.13v1.287a2.073,2.073,0,0,0-.807-.156,1.789,1.789,0,0,0-1.625,1.079v4.29h-1.468Z"
       class="cls-7" />
    <path
       id="path184"
       d="M161.891,27.763h1.469v1.066a2.364,2.364,0,0,1,2.067-1.17,2.192,2.192,0,0,1,2.249,2.327v4.29h-1.469V30.4a1.4,1.4,0,0,0-1.43-1.56,1.67,1.67,0,0,0-1.417.78v4.654h-1.469Z"
       class="cls-7" />
    <path
       id="path186"
       d="M172.473,34.406a3.31,3.31,0,0,1-3.314-3.38,3.208,3.208,0,0,1,3.171-3.367,3.126,3.126,0,0,1,3.081,3.354v.364H170.6a1.989,1.989,0,0,0,1.95,1.781,2.11,2.11,0,0,0,1.547-.611l.963.9A3.767,3.767,0,0,1,172.473,34.406Zm-1.846-3.925h3.394a1.783,1.783,0,0,0-1.7-1.626A1.751,1.751,0,0,0,170.627,30.481Z"
       class="cls-7" />
    <path
       id="path188"
       d="M177.517,28.933H176.2v-1.17h1.313V25.969l1.47-.312v2.106h1.819v1.17h-1.819v3.3c0,.637.246.884.909.884a2.7,2.7,0,0,0,.885-.156V34.2a4.622,4.622,0,0,1-1.262.182c-1.313,0-2-.624-2-1.819Z"
       class="cls-7" />
    <path
       id="path190"
       d="M185.018,34.406a3.311,3.311,0,0,1-3.315-3.38,3.208,3.208,0,0,1,3.172-3.367,3.126,3.126,0,0,1,3.081,3.354v.364h-4.81a1.989,1.989,0,0,0,1.95,1.781,2.11,2.11,0,0,0,1.547-.611l.963.9A3.767,3.767,0,0,1,185.018,34.406Zm-1.846-3.925h3.394a1.783,1.783,0,0,0-1.7-1.626A1.751,1.751,0,0,0,183.172,30.481Z"
       class="cls-7" />
    <path
       id="path192"
       d="M189.619,32.534a3.759,3.759,0,0,0,2.094.741c.78,0,1.313-.351,1.313-.871,0-.4-.273-.624-.9-.741l-1.157-.2c-1.261-.234-1.885-.819-1.885-1.794,0-1.222,1-2.015,2.522-2.015a4.583,4.583,0,0,1,2.561.78l-.689.962a3.56,3.56,0,0,0-1.963-.624c-.676,0-1.118.286-1.118.767,0,.416.234.6.923.715l1.144.208c1.3.247,1.924.846,1.924,1.82a2.386,2.386,0,0,1-2.652,2.119,4.373,4.373,0,0,1-2.808-.883Z"
       class="cls-7" />
    <path
       id="path194"
       d="M198.849,25.176h4.069a2.823,2.823,0,1,1,0,5.629H200.41v3.471h-1.561Zm1.561,1.313v3.042h2.261a1.531,1.531,0,1,0,.013-3.042Z"
       class="cls-7" />
    <path
       id="path196"
       d="M210.12,27.659a3.375,3.375,0,1,1-3.275,3.367A3.252,3.252,0,0,1,210.12,27.659Zm1.821,3.38a1.841,1.841,0,1,0-3.64,0,1.838,1.838,0,1,0,3.64,0Z"
       class="cls-7" />
    <path
       id="path198"
       d="M219.611,33.405a2.508,2.508,0,0,1-2,.936,3.125,3.125,0,0,1-2.951-3.315,3.154,3.154,0,0,1,3.042-3.315,2.483,2.483,0,0,1,1.9.858V24.981l1.47-.247v9.542h-1.456Zm-1.561-.3a1.95,1.95,0,0,0,1.547-.716V29.648a2.02,2.02,0,0,0-1.547-.7,2.086,2.086,0,0,0,0,4.161Z"
       class="cls-7" />
    <path
       id="path200"
       d="M226.058,31.794a4.556,4.556,0,0,0,3.055,1.325c1.209,0,2.041-.611,2.041-1.443,0-.741-.442-1.079-1.651-1.3l-1.677-.286c-1.574-.286-2.34-1.066-2.34-2.314,0-1.638,1.313-2.73,3.354-2.73a6.077,6.077,0,0,1,3.653,1.183L231.7,27.4a4.721,4.721,0,0,0-2.913-1.053c-1.091,0-1.806.546-1.806,1.287,0,.65.4.988,1.4,1.144l1.611.286c1.834.312,2.692,1.118,2.692,2.5,0,1.664-1.482,2.847-3.653,2.847a5.733,5.733,0,0,1-3.822-1.468Z"
       class="cls-7" />
    <path
       id="path202"
       d="M234.274,25.176H237.6a4.55,4.55,0,1,1,0,9.1h-3.328Zm1.56,1.352v6.4h1.807a3.008,3.008,0,0,0,2.912-3.185,3.032,3.032,0,0,0-2.912-3.211Z"
       class="cls-7" />
    <path
       id="path204"
       d="M245.441,25.176l4.745,6.6-.026-6.6h1.469v9.1h-1.391l-4.875-6.786.026,6.786h-1.47v-9.1Z"
       class="cls-7" />
  </g>
  <line
     id="line208"
     y2="143.159"
     x2="188.606"
     y1="143.159"
     x1="235.734"
     class="cls-2" />
  <line
     id="line210"
     y2="197.081"
     x2="188.606"
     y1="197.081"
     x1="235.734"
     class="cls-2" />
  <polyline
     id="polyline212"
     points="235.734 359.172 188.606 359.172 188.606 44.851"
     class="cls-2" />
  <g
     id="g218">
    <rect
       id="rect214"
       height="41.333"
       width="145.822"
       y="122.493"
       x="236.234"
       class="cls-3" />
    <path
       id="path216"
       d="M381.557,122.993v40.333H236.734V122.993H381.557m1-1H235.734v42.333H382.557V121.993Z"
       class="cls-4" />
  </g>
  <g
     id="g224">
    <rect
       id="rect220"
       height="41.333"
       width="145.822"
       y="176.414"
       x="236.234"
       class="cls-3" />
    <path
       id="path222"
       d="M381.557,176.914v40.333H236.734V176.914H381.557m1-1H235.734v42.333H382.557V175.914Z"
       class="cls-4" />
  </g>
  <g
     id="g234">
    <path
       id="path226"
       d="M294.441,137.659h4.069a2.823,2.823,0,1,1,0,5.63H296v3.471h-1.56Zm1.56,1.314v3.042h2.262a1.531,1.531,0,1,0,.013-3.042Z" />
    <path
       id="path228"
       d="M305.711,140.143a3.375,3.375,0,1,1-3.275,3.367A3.253,3.253,0,0,1,305.711,140.143Zm1.821,3.38a1.841,1.841,0,1,0-3.64,0,1.838,1.838,0,1,0,3.64,0Z" />
    <path
       id="path230"
       d="M315.2,145.889a2.509,2.509,0,0,1-2,.936,3.333,3.333,0,0,1,.09-6.631,2.483,2.483,0,0,1,1.9.859v-3.589l1.47-.247v9.543H315.2Zm-1.561-.3a1.949,1.949,0,0,0,1.547-.715v-2.743a2.02,2.02,0,0,0-1.547-.7,2.085,2.085,0,0,0,0,4.16Z" />
    <path
       id="path232"
       d="M324,146.76h-1.417v-7.618l-1.611.7v-1.261l2.132-.924h.9Z" />
  </g>
  <g
     id="g244">
    <path
       id="path236"
       d="M292.96,191.581h4.07a2.823,2.823,0,1,1,0,5.63h-2.509v3.471H292.96Zm1.561,1.314v3.042h2.262a1.531,1.531,0,1,0,.012-3.042Z" />
    <path
       id="path238"
       d="M304.231,194.065a3.375,3.375,0,1,1-3.276,3.367A3.252,3.252,0,0,1,304.231,194.065Zm1.82,3.379a1.841,1.841,0,1,0-3.64,0,1.838,1.838,0,1,0,3.64,0Z" />
    <path
       id="path240"
       d="M313.722,199.811a2.508,2.508,0,0,1-2,.936,3.333,3.333,0,0,1,.091-6.631,2.482,2.482,0,0,1,1.9.859v-3.588l1.47-.247v9.542h-1.456Zm-1.561-.3a1.946,1.946,0,0,0,1.547-.715v-2.743a2.016,2.016,0,0,0-1.547-.7,2.085,2.085,0,0,0,0,4.16Z" />
    <path
       id="path242"
       d="M319.675,199.654l3.732-3.9a2.441,2.441,0,0,0,.883-1.717,1.484,1.484,0,0,0-1.664-1.339,3.283,3.283,0,0,0-2.353,1.118l-.806-.974a4.6,4.6,0,0,1,3.2-1.379c1.782,0,3,1.015,3,2.483a3.475,3.475,0,0,1-1.3,2.535l-2.913,3,4.381-.025v1.222h-6.162Z" />
  </g>
  <g
     id="g252">
    <polyline
       id="polyline246"
       points="387.938 143.16 419.424 143.16 419.424 305.251 387.938 305.251"
       class="cls-5" />
    <polygon
       id="polygon248"
       points="389.033 146.9 382.557 143.16 389.033 139.42 389.033 146.9"
       class="cls-6" />
    <polygon
       id="polygon250"
       points="389.033 301.512 382.557 305.251 389.033 308.991 389.033 301.512"
       class="cls-6" />
  </g>
</svg>
