<?xml version="1.0" encoding="UTF-8" standalone="no"?>
<svg
   xmlns:dc="http://purl.org/dc/elements/1.1/"
   xmlns:cc="http://creativecommons.org/ns#"
   xmlns:rdf="http://www.w3.org/1999/02/22-rdf-syntax-ns#"
   xmlns:svg="http://www.w3.org/2000/svg"
   xmlns="http://www.w3.org/2000/svg"
   xmlns:sodipodi="http://sodipodi.sourceforge.net/DTD/sodipodi-0.dtd"
   xmlns:inkscape="http://www.inkscape.org/namespaces/inkscape"
   inkscape:version="1.0 (4035a4f, 2020-05-01)"
   sodipodi:docname="docker_networking-2_docker-networking-2.svg"
   version="1.1"
   viewBox="0 0 595.276 610.291"
   height="610.291"
   width="595.276"
   data-name="Layer 1"
   id="Layer_1">
  <metadata
     id="metadata469">
    <rdf:RDF>
      <cc:Work
         rdf:about="">
        <dc:format>image/svg+xml</dc:format>
        <dc:type
           rdf:resource="http://purl.org/dc/dcmitype/StillImage" />
        <dc:title></dc:title>
        <dc:subject>
          <rdf:Bag>
            <rdf:li>do180</rdf:li>
            <rdf:li>kubernetes</rdf:li>
            <rdf:li>networking</rdf:li>
            <rdf:li>architecture</rdf:li>
            <rdf:li>query</rdf:li>
            <rdf:li>container</rdf:li>
            <rdf:li>mono</rdf:li>
            <rdf:li>micro</rdf:li>
          </rdf:Bag>
        </dc:subject>
      </cc:Work>
    </rdf:RDF>
  </metadata>
  <sodipodi:namedview
     inkscape:current-layer="Layer_1"
     inkscape:window-maximized="0"
     inkscape:window-y="25"
     inkscape:window-x="0"
     inkscape:cy="305.14551"
     inkscape:cx="297.638"
     inkscape:zoom="0.8416264"
     showgrid="false"
     id="namedview467"
     inkscape:window-height="480"
     inkscape:window-width="987"
     inkscape:pageshadow="2"
     inkscape:pageopacity="0"
     guidetolerance="10"
     gridtolerance="10"
     objecttolerance="10"
     borderopacity="1"
     bordercolor="#666666"
     pagecolor="#ffffff" />
  <defs
     id="defs12">
    <style
       id="style10">
      .cls-1 {
        fill: #e6e6e6;
      }

      .cls-2, .cls-4 {
        fill: none;
        stroke-miterlimit: 10;
      }

      .cls-2 {
        stroke: #c00;
      }

      .cls-3 {
        fill: #c00;
      }

      .cls-4 {
        stroke: #3f9c35;
        stroke-width: 2px;
      }

      .cls-5 {
        fill: #fff;
      }

      .cls-6 {
        fill: #646464;
      }

      .cls-7 {
        fill: #b4b4b4;
      }

      .cls-8 {
        fill: #3f9c35;
      }
    </style>
  </defs>
  <rect
     id="rect14"
     height="211.253"
     width="298.337"
     y="80.263"
     x="208.487"
     class="cls-1" />
  <g
     id="g110">
    <g
       id="g50">
      <path
         id="path16"
         d="M75.213,572.494l4.745,6.6-.026-6.6H81.4v9.1H80.01l-4.875-6.786.026,6.786H73.692v-9.1Z" />
      <path
         id="path18"
         d="M86.418,581.724a3.31,3.31,0,0,1-3.314-3.38,3.208,3.208,0,0,1,3.172-3.367,3.126,3.126,0,0,1,3.081,3.355v.363H84.546a1.99,1.99,0,0,0,1.95,1.781,2.113,2.113,0,0,0,1.547-.611l.963.9A3.767,3.767,0,0,1,86.418,581.724ZM84.573,577.8h3.393a1.783,1.783,0,0,0-1.7-1.625A1.75,1.75,0,0,0,84.573,577.8Z" />
      <path
         id="path20"
         d="M91.462,576.252H90.15v-1.171h1.312v-1.794l1.47-.312v2.106h1.819v1.171H92.932v3.3c0,.637.246.884.909.884a2.7,2.7,0,0,0,.885-.156v1.235a4.624,4.624,0,0,1-1.262.183c-1.312,0-2-.625-2-1.821Z" />
      <path
         id="path22"
         d="M97.312,581.594l-1.755-6.513h1.4l1.144,4.6,1.34-4.6h1.248l1.339,4.615,1.13-4.615h1.378l-1.754,6.513h-1.417l-1.314-4.589-1.312,4.589Z" />
      <path
         id="path24"
         d="M108.6,574.977a3.375,3.375,0,1,1-3.275,3.367A3.252,3.252,0,0,1,108.6,574.977Zm1.82,3.38a1.841,1.841,0,1,0-3.639,0,1.837,1.837,0,1,0,3.639,0Z" />
      <path
         id="path26"
         d="M113.394,575.081h1.469V576.5a1.931,1.931,0,0,1,1.794-1.534,1.741,1.741,0,0,1,.637.13v1.287a2.071,2.071,0,0,0-.806-.156,1.787,1.787,0,0,0-1.625,1.079v4.29h-1.469Z" />
      <path
         id="path28"
         d="M118.5,572.3l1.469-.247v5.811l2.7-2.782h1.677l-2.977,3.016,3.16,3.5H122.65l-2.679-3v3H118.5Z" />
      <path
         id="path30"
         d="M128.46,575.081H129.9v.936a2.451,2.451,0,0,1,2.027-.988,3.126,3.126,0,0,1,2.951,3.315,3.157,3.157,0,0,1-3.054,3.316,2.436,2.436,0,0,1-1.9-.846v3.536H128.46Zm1.469,1.911v2.718a2,2,0,0,0,1.561.714,2.085,2.085,0,0,0,0-4.16A1.914,1.914,0,0,0,129.929,576.992Z" />
      <path
         id="path32"
         d="M136.143,579.722c0-1.17.949-1.911,2.483-1.911a4.025,4.025,0,0,1,1.755.4V577.5c0-.859-.494-1.3-1.5-1.3a4.5,4.5,0,0,0-1.9.508l-.52-1.067a6.253,6.253,0,0,1,2.7-.663c1.69,0,2.665.859,2.665,2.366v4.251h-1.456v-.663a2.72,2.72,0,0,1-1.937.768A2.054,2.054,0,0,1,136.143,579.722Zm2.7.949a2.323,2.323,0,0,0,1.534-.533v-1.066a3.37,3.37,0,0,0-1.508-.312c-.832,0-1.352.365-1.352.936C137.521,580.294,138.041,580.671,138.847,580.671Z" />
      <path
         id="path34"
         d="M148.272,579.71l.884.883a3.389,3.389,0,0,1-2.548,1.131,3.368,3.368,0,0,1,0-6.734,3.508,3.508,0,0,1,2.6,1.092l-.91.949a2.151,2.151,0,0,0-1.637-.767,2.089,2.089,0,0,0,.039,4.16A2,2,0,0,0,148.272,579.71Z" />
      <path
         id="path36"
         d="M150.416,572.3l1.469-.247v5.811l2.7-2.782h1.677l-2.977,3.016,3.16,3.5h-1.885l-2.679-3v3h-1.469Z" />
      <path
         id="path38"
         d="M160.036,581.724a3.31,3.31,0,0,1-3.314-3.38,3.207,3.207,0,0,1,3.172-3.367,3.126,3.126,0,0,1,3.081,3.355v.363h-4.811a1.991,1.991,0,0,0,1.951,1.781,2.112,2.112,0,0,0,1.546-.611l.963.9A3.769,3.769,0,0,1,160.036,581.724Zm-1.845-3.926h3.393a1.784,1.784,0,0,0-1.7-1.625A1.75,1.75,0,0,0,158.191,577.8Z" />
      <path
         id="path40"
         d="M165.08,576.252h-1.312v-1.171h1.312v-1.794l1.47-.312v2.106h1.819v1.171H166.55v3.3c0,.637.247.884.909.884a2.7,2.7,0,0,0,.885-.156v1.235a4.624,4.624,0,0,1-1.262.183c-1.312,0-2-.625-2-1.821Z" />
      <path
         id="path42"
         d="M173.465,575.081v-1.157a2,2,0,0,1,2.249-2.184,3.543,3.543,0,0,1,.976.13v1.248a3.006,3.006,0,0,0-.78-.1c-.676,0-.976.3-.976.936v1.131h1.756v1.171h-1.756v5.342h-1.469v-5.342h-1.4v-1.171Z" />
      <path
         id="path44"
         d="M179.393,581.594h-1.469v-9.3l1.469-.247Z" />
      <path
         id="path46"
         d="M184.177,574.977a3.375,3.375,0,1,1-3.275,3.367A3.252,3.252,0,0,1,184.177,574.977Zm1.82,3.38a1.841,1.841,0,1,0-3.639,0,1.837,1.837,0,1,0,3.639,0Z" />
      <path
         id="path48"
         d="M189.988,581.594l-1.755-6.513h1.4l1.144,4.6,1.339-4.6h1.249l1.338,4.615,1.131-4.615h1.378l-1.755,6.513h-1.417l-1.313-4.589-1.313,4.589Z" />
    </g>
    <g
       id="g56">
      <line
         id="line52"
         y2="577.601"
         x2="32.771"
         y1="577.601"
         x1="57.847"
         class="cls-2" />
      <polygon
         id="polygon54"
         points="56.753 573.861 63.229 577.601 56.753 581.34 56.753 573.861"
         class="cls-3" />
    </g>
    <g
       id="g106">
      <path
         id="path58"
         d="M279.883,572.494h1.677l2.8,7.527,2.821-7.527h1.612l-3.562,9.1h-1.807Z" />
      <path
         id="path60"
         d="M289.594,572.858a.917.917,0,0,1,1.833,0,.917.917,0,0,1-1.833,0Zm1.65,8.736h-1.468v-6.513h1.468Z" />
      <path
         id="path62"
         d="M293.052,575.081h1.469V576.5a1.931,1.931,0,0,1,1.794-1.534,1.751,1.751,0,0,1,.638.13v1.287a2.08,2.08,0,0,0-.807-.156,1.787,1.787,0,0,0-1.625,1.079v4.29h-1.469Z" />
      <path
         id="path64"
         d="M299.044,576.252h-1.312v-1.171h1.312v-1.794l1.47-.312v2.106h1.819v1.171h-1.819v3.3c0,.637.246.884.909.884a2.7,2.7,0,0,0,.885-.156v1.235a4.624,4.624,0,0,1-1.262.183c-1.312,0-2-.625-2-1.821Z" />
      <path
         id="path66"
         d="M305.05,578.956a1.4,1.4,0,0,0,1.431,1.559,1.645,1.645,0,0,0,1.43-.8v-4.629h1.468v6.513h-1.468v-1.079a2.383,2.383,0,0,1-2.081,1.184,2.185,2.185,0,0,1-2.249-2.327v-4.291h1.469Z" />
      <path
         id="path68"
         d="M310.862,579.722c0-1.17.949-1.911,2.483-1.911a4.028,4.028,0,0,1,1.755.4V577.5c0-.859-.494-1.3-1.5-1.3a4.5,4.5,0,0,0-1.9.508l-.519-1.067a6.25,6.25,0,0,1,2.7-.663c1.689,0,2.665.859,2.665,2.366v4.251H315.1v-.663a2.721,2.721,0,0,1-1.938.768A2.054,2.054,0,0,1,310.862,579.722Zm2.7.949a2.323,2.323,0,0,0,1.534-.533v-1.066a3.373,3.373,0,0,0-1.508-.312c-.832,0-1.352.365-1.352.936C312.24,580.294,312.76,580.671,313.566,580.671Z" />
      <path
         id="path70"
         d="M319.805,581.594h-1.469v-9.3l1.469-.247Z" />
      <path
         id="path72"
         d="M327.514,574.977a3.375,3.375,0,1,1-3.275,3.367A3.252,3.252,0,0,1,327.514,574.977Zm1.82,3.38a1.841,1.841,0,1,0-3.639,0,1.837,1.837,0,1,0,3.639,0Z" />
      <path
         id="path74"
         d="M332.311,575.081h1.469V576.5a1.931,1.931,0,0,1,1.794-1.534,1.741,1.741,0,0,1,.637.13v1.287a2.071,2.071,0,0,0-.806-.156,1.787,1.787,0,0,0-1.625,1.079v4.29h-1.469Z" />
      <path
         id="path76"
         d="M340.345,575.081h1.443v.936a2.454,2.454,0,0,1,2.028-.988,3.126,3.126,0,0,1,2.951,3.315,3.157,3.157,0,0,1-3.055,3.316,2.436,2.436,0,0,1-1.9-.846v3.536h-1.469Zm1.469,1.911v2.718a2,2,0,0,0,1.56.714,2.085,2.085,0,0,0,0-4.16A1.912,1.912,0,0,0,341.814,576.992Z" />
      <path
         id="path78"
         d="M348.287,572.3l1.469-.247v4.1a2.365,2.365,0,0,1,2.068-1.17,2.192,2.192,0,0,1,2.249,2.327v4.29H352.6V577.72a1.4,1.4,0,0,0-1.431-1.56,1.671,1.671,0,0,0-1.417.78v4.654h-1.469Z" />
      <path
         id="path80"
         d="M357.388,581.633l-2.457-6.552h1.638l1.651,4.837,1.82-4.837h1.6l-3.094,7.58a2.2,2.2,0,0,1-2.314,1.716,3.165,3.165,0,0,1-.741-.091v-1.262a5.46,5.46,0,0,0,.572.053,1.039,1.039,0,0,0,1.053-.755Z" />
      <path
         id="path82"
         d="M362.808,579.852a3.759,3.759,0,0,0,2.094.741c.779,0,1.312-.351,1.312-.871,0-.4-.272-.624-.9-.741l-1.157-.194c-1.261-.235-1.885-.82-1.885-1.8,0-1.222,1-2.015,2.521-2.015a4.586,4.586,0,0,1,2.562.78l-.69.962a3.565,3.565,0,0,0-1.963-.624c-.675,0-1.118.286-1.118.767,0,.416.235.6.923.715l1.145.208c1.3.247,1.923.845,1.923,1.82a2.386,2.386,0,0,1-2.652,2.119,4.364,4.364,0,0,1-2.808-.884Z" />
      <path
         id="path84"
         d="M368.748,572.858a.917.917,0,0,1,1.834,0,.917.917,0,0,1-1.834,0Zm1.652,8.736h-1.469v-6.513H370.4Z" />
      <path
         id="path86"
         d="M376.862,579.71l.883.883a3.385,3.385,0,0,1-2.547,1.131,3.368,3.368,0,0,1,0-6.734,3.508,3.508,0,0,1,2.6,1.092l-.91.949a2.153,2.153,0,0,0-1.638-.767,2.089,2.089,0,0,0,.039,4.16A2.007,2.007,0,0,0,376.862,579.71Z" />
      <path
         id="path88"
         d="M378.681,579.722c0-1.17.949-1.911,2.483-1.911a4.025,4.025,0,0,1,1.755.4V577.5c0-.859-.494-1.3-1.5-1.3a4.5,4.5,0,0,0-1.9.508l-.52-1.067a6.253,6.253,0,0,1,2.7-.663c1.691,0,2.665.859,2.665,2.366v4.251h-1.456v-.663a2.72,2.72,0,0,1-1.937.768A2.055,2.055,0,0,1,378.681,579.722Zm2.7.949a2.323,2.323,0,0,0,1.534-.533v-1.066a3.368,3.368,0,0,0-1.508-.312c-.832,0-1.352.365-1.352.936C380.059,580.294,380.579,580.671,381.385,580.671Z" />
      <path
         id="path90"
         d="M387.625,581.594h-1.468v-9.3l1.468-.247Z" />
      <path
         id="path92"
         d="M392.357,575.081h1.469v1.066a2.364,2.364,0,0,1,2.067-1.17,2.192,2.192,0,0,1,2.249,2.327v4.29h-1.469V577.72a1.4,1.4,0,0,0-1.43-1.56,1.67,1.67,0,0,0-1.417.78v4.654h-1.469Z" />
      <path
         id="path94"
         d="M402.939,581.724a3.311,3.311,0,0,1-3.315-3.38,3.208,3.208,0,0,1,3.172-3.367,3.126,3.126,0,0,1,3.081,3.355v.363h-4.81a1.989,1.989,0,0,0,1.95,1.781,2.114,2.114,0,0,0,1.547-.611l.963.9A3.771,3.771,0,0,1,402.939,581.724Zm-1.846-3.926h3.394a1.784,1.784,0,0,0-1.7-1.625A1.75,1.75,0,0,0,401.093,577.8Z" />
      <path
         id="path96"
         d="M407.983,576.252H406.67v-1.171h1.313v-1.794l1.47-.312v2.106h1.819v1.171h-1.819v3.3c0,.637.247.884.909.884a2.7,2.7,0,0,0,.884-.156v1.235a4.622,4.622,0,0,1-1.261.183c-1.313,0-2-.625-2-1.821Z" />
      <path
         id="path98"
         d="M413.832,581.594l-1.754-6.513h1.4l1.143,4.6,1.34-4.6h1.248l1.339,4.615,1.131-4.615h1.378l-1.755,6.513h-1.417l-1.313-4.589-1.313,4.589Z" />
      <path
         id="path100"
         d="M425.117,574.977a3.375,3.375,0,1,1-3.276,3.367A3.252,3.252,0,0,1,425.117,574.977Zm1.82,3.38a1.841,1.841,0,1,0-3.64,0,1.838,1.838,0,1,0,3.64,0Z" />
      <path
         id="path102"
         d="M429.913,575.081h1.469V576.5a1.933,1.933,0,0,1,1.794-1.534,1.751,1.751,0,0,1,.638.13v1.287a2.076,2.076,0,0,0-.807-.156,1.787,1.787,0,0,0-1.625,1.079v4.29h-1.469Z" />
      <path
         id="path104"
         d="M435.023,572.3l1.469-.247v5.811l2.7-2.782h1.677L437.9,578.1l3.159,3.5H439.17l-2.678-3v3h-1.469Z" />
    </g>
    <line
       id="line108"
       y2="577.601"
       x2="239.976"
       y1="577.601"
       x1="270.434"
       class="cls-4" />
  </g>
  <g
     id="g116">
    <rect
       id="rect112"
       height="41.333"
       width="145.822"
       y="121.738"
       x="284.744"
       class="cls-5" />
    <path
       id="path114"
       d="M430.066,122.238v40.333H285.244V122.238H430.066m1-1H284.244v42.333H431.066V121.238Z"
       class="cls-6" />
  </g>
  <g
     id="g134">
    <path
       id="path118"
       d="M332.357,145.052a4.551,4.551,0,0,0,3.054,1.326c1.209,0,2.042-.611,2.042-1.443,0-.741-.442-1.079-1.651-1.3l-1.678-.286c-1.573-.286-2.339-1.066-2.339-2.314,0-1.638,1.313-2.73,3.354-2.73a6.072,6.072,0,0,1,3.652,1.183l-.793,1.17a4.716,4.716,0,0,0-2.912-1.053c-1.092,0-1.806.546-1.806,1.287,0,.65.4.988,1.4,1.144l1.611.286c1.834.312,2.692,1.118,2.692,2.5,0,1.664-1.482,2.847-3.654,2.847a5.729,5.729,0,0,1-3.821-1.469Z" />
    <path
       id="path120"
       d="M343.536,147.665a3.31,3.31,0,0,1-3.314-3.38,3.207,3.207,0,0,1,3.172-3.367,3.126,3.126,0,0,1,3.081,3.354v.364h-4.811a1.991,1.991,0,0,0,1.951,1.781,2.112,2.112,0,0,0,1.546-.611l.963.9A3.769,3.769,0,0,1,343.536,147.665Zm-1.845-3.926h3.393a1.784,1.784,0,0,0-1.7-1.625A1.75,1.75,0,0,0,341.691,143.739Z" />
    <path
       id="path122"
       d="M347.969,141.022h1.469v1.417a1.931,1.931,0,0,1,1.794-1.534,1.741,1.741,0,0,1,.637.13v1.287a2.071,2.071,0,0,0-.806-.156,1.787,1.787,0,0,0-1.625,1.079v4.29h-1.469Z" />
    <path
       id="path124"
       d="M352.506,141.022h1.6l1.806,4.758,1.808-4.758h1.547l-2.678,6.513h-1.417Z" />
    <path
       id="path126"
       d="M360.137,138.8a.917.917,0,0,1,1.834,0,.917.917,0,0,1-1.834,0Zm1.651,8.736H360.32v-6.513h1.468Z" />
    <path
       id="path128"
       d="M368.249,145.65l.884.884a3.388,3.388,0,0,1-2.548,1.131,3.368,3.368,0,0,1,0-6.734,3.508,3.508,0,0,1,2.6,1.092l-.91.949a2.153,2.153,0,0,0-1.638-.767,2.089,2.089,0,0,0,.039,4.16A2,2,0,0,0,368.249,145.65Z" />
    <path
       id="path130"
       d="M373.215,147.665a3.31,3.31,0,0,1-3.314-3.38,3.208,3.208,0,0,1,3.172-3.367,3.126,3.126,0,0,1,3.081,3.354v.364h-4.811a1.99,1.99,0,0,0,1.95,1.781,2.113,2.113,0,0,0,1.547-.611l.963.9A3.767,3.767,0,0,1,373.215,147.665Zm-1.846-3.926h3.394a1.783,1.783,0,0,0-1.7-1.625A1.75,1.75,0,0,0,371.369,143.739Z" />
    <path
       id="path132"
       d="M383.172,147.535h-1.417v-7.618l-1.611.7v-1.261l2.132-.923h.9Z" />
  </g>
  <g
     id="g140">
    <rect
       id="rect136"
       height="41.333"
       width="145.822"
       y="175.961"
       x="284.744"
       class="cls-5" />
    <path
       id="path138"
       d="M430.066,176.461v40.333H285.244V176.461H430.066m1-1H284.244v42.333H431.066V175.461Z"
       class="cls-7" />
  </g>
  <g
     id="g150">
    <path
       id="path142"
       d="M342.952,192.658h4.069a2.823,2.823,0,1,1,0,5.629h-2.509v3.471h-1.56Zm1.56,1.313v3.042h2.262a1.531,1.531,0,1,0,.012-3.042Z" />
    <path
       id="path144"
       d="M354.222,195.141a3.375,3.375,0,1,1-3.275,3.367A3.252,3.252,0,0,1,354.222,195.141Zm1.82,3.38a1.841,1.841,0,1,0-3.639,0,1.837,1.837,0,1,0,3.639,0Z" />
    <path
       id="path146"
       d="M363.713,200.887a2.506,2.506,0,0,1-2,.936,3.332,3.332,0,0,1,.091-6.63,2.485,2.485,0,0,1,1.9.858v-3.588l1.469-.247v9.542h-1.456Zm-1.56-.3a1.949,1.949,0,0,0,1.547-.715V197.13a2.02,2.02,0,0,0-1.547-.7,2.085,2.085,0,0,0,0,4.16Z" />
    <path
       id="path148"
       d="M372.513,201.758H371.1V194.14l-1.611.7v-1.261l2.132-.923h.9Z" />
  </g>
  <g
     id="g156">
    <rect
       id="rect152"
       height="41.333"
       width="145.822"
       y="230.184"
       x="284.744"
       class="cls-5" />
    <path
       id="path154"
       d="M430.066,230.684v40.333H285.244V230.684H430.066m1-1H284.244v42.333H431.066V229.684Z"
       class="cls-7" />
  </g>
  <g
     id="g166">
    <path
       id="path158"
       d="M341.47,246.881h4.069a2.823,2.823,0,1,1,0,5.629h-2.508v3.471H341.47Zm1.561,1.313v3.042h2.261a1.531,1.531,0,1,0,.013-3.042Z" />
    <path
       id="path160"
       d="M352.741,249.364a3.375,3.375,0,1,1-3.276,3.367A3.252,3.252,0,0,1,352.741,249.364Zm1.82,3.38a1.841,1.841,0,1,0-3.64,0,1.838,1.838,0,1,0,3.64,0Z" />
    <path
       id="path162"
       d="M362.232,255.11a2.508,2.508,0,0,1-2,.936,3.332,3.332,0,0,1,.091-6.63,2.481,2.481,0,0,1,1.9.858v-3.588l1.47-.247v9.542h-1.456Zm-1.561-.3a1.949,1.949,0,0,0,1.547-.715v-2.743a2.019,2.019,0,0,0-1.547-.7,2.085,2.085,0,0,0,0,4.16Z" />
    <path
       id="path164"
       d="M368.185,254.954l3.731-3.9a2.437,2.437,0,0,0,.884-1.716A1.484,1.484,0,0,0,371.136,248a3.279,3.279,0,0,0-2.353,1.118l-.806-.975a4.606,4.606,0,0,1,3.2-1.378c1.781,0,3,1.014,3,2.483a3.473,3.473,0,0,1-1.3,2.535l-2.912,3,4.381-.026v1.222h-6.162Z" />
  </g>
  <g
     id="g178">
    <path
       id="path168"
       d="M339.669,93.9l4.043,5.513-.039-5.513h2.107V103H343.8l-4.173-5.694.039,5.694h-2.106V93.9Z" />
    <path
       id="path170"
       d="M350.811,96.187a3.471,3.471,0,1,1-3.5,3.471A3.415,3.415,0,0,1,350.811,96.187Zm1.456,3.471a1.47,1.47,0,1,0-2.9,0,1.467,1.467,0,1,0,2.9,0Z" />
    <path
       id="path172"
       d="M360.365,102.128a2.531,2.531,0,0,1-1.976.91,3.2,3.2,0,0,1-2.965-3.406,3.235,3.235,0,0,1,3.121-3.38,2.35,2.35,0,0,1,1.794.806V93.7l2.106-.325V103h-2.08Zm-1.274-.832a1.63,1.63,0,0,0,1.248-.533V98.5a1.708,1.708,0,0,0-1.248-.52,1.659,1.659,0,0,0,0,3.315Z" />
    <path
       id="path174"
       d="M367.321,103.129a3.469,3.469,0,0,1-3.537-3.471,3.366,3.366,0,0,1,3.38-3.484,3.3,3.3,0,0,1,3.3,3.562v.455h-4.615a1.61,1.61,0,0,0,1.573,1.261,1.658,1.658,0,0,0,1.326-.559l1.391,1.157A3.907,3.907,0,0,1,367.321,103.129ZM365.851,99h2.665a1.4,1.4,0,0,0-1.365-1.183A1.333,1.333,0,0,0,365.851,99Z" />
    <path
       id="path176"
       d="M377.966,103h-2v-7.02l-1.794.741V94.952l2.535-1.054h1.261Z" />
  </g>
  <rect
     id="rect180"
     height="211.253"
     width="298.337"
     y="317.787"
     x="208.487"
     class="cls-1" />
  <g
     id="g186">
    <rect
       id="rect182"
       height="41.333"
       width="145.822"
       y="359.263"
       x="284.744"
       class="cls-5" />
    <path
       id="path184"
       d="M430.066,359.763V400.1H285.244V359.763H430.066m1-1H284.244V401.1H431.066V358.763Z"
       class="cls-7" />
  </g>
  <g
     id="g196">
    <path
       id="path188"
       d="M341.229,375.959H345.3a2.823,2.823,0,1,1,0,5.63h-2.509v3.471h-1.56Zm1.56,1.314v3.042h2.262a1.531,1.531,0,1,0,.013-3.042Z" />
    <path
       id="path190"
       d="M352.5,378.442a3.375,3.375,0,1,1-3.275,3.368A3.253,3.253,0,0,1,352.5,378.442Zm1.821,3.38a1.841,1.841,0,1,0-3.64,0,1.838,1.838,0,1,0,3.64,0Z" />
    <path
       id="path192"
       d="M361.991,384.189a2.511,2.511,0,0,1-2,.936,3.333,3.333,0,0,1,.09-6.631,2.486,2.486,0,0,1,1.9.859v-3.588l1.47-.247v9.542h-1.456Zm-1.561-.3a1.949,1.949,0,0,0,1.547-.715v-2.743a2.017,2.017,0,0,0-1.547-.7,2.085,2.085,0,0,0,0,4.16Z" />
    <path
       id="path194"
       d="M371.077,385.19a4.577,4.577,0,0,1-3.368-1.366l.962-.9a2.985,2.985,0,0,0,2.393,1.013c1.17,0,1.975-.611,1.975-1.507a1.437,1.437,0,0,0-1.611-1.366H370.3v-1.182h1.014a1.318,1.318,0,0,0,1.443-1.365,1.571,1.571,0,0,0-1.729-1.444,2.812,2.812,0,0,0-2.262,1.079l-.962-.9a4.409,4.409,0,0,1,3.276-1.443c1.807,0,3.107,1.08,3.107,2.548a2.187,2.187,0,0,1-1.769,2.08,2.254,2.254,0,0,1,2.055,2.08C374.47,384.071,373.053,385.19,371.077,385.19Z" />
  </g>
  <g
     id="g260">
    <path
       id="path198"
       d="M35.939,290.763h7.644v1.352H40.554v7.748h-1.56v-7.748H35.939Z" />
    <path
       id="path200"
       d="M44.83,290.568l1.469-.247v4.095a2.364,2.364,0,0,1,2.068-1.17,2.192,2.192,0,0,1,2.249,2.327v4.29H49.147v-3.874a1.4,1.4,0,0,0-1.431-1.56,1.671,1.671,0,0,0-1.417.78v4.654H44.83Z" />
    <path
       id="path202"
       d="M55.412,299.993a3.31,3.31,0,0,1-3.314-3.38,3.208,3.208,0,0,1,3.172-3.367,3.126,3.126,0,0,1,3.081,3.354v.364H53.54a1.991,1.991,0,0,0,1.951,1.781,2.112,2.112,0,0,0,1.546-.611l.963.9A3.767,3.767,0,0,1,55.412,299.993Zm-1.845-3.926H56.96a1.783,1.783,0,0,0-1.7-1.625A1.75,1.75,0,0,0,53.567,296.067Z" />
    <path
       id="path204"
       d="M62.873,298.121a3.759,3.759,0,0,0,2.094.741c.779,0,1.313-.351,1.313-.871,0-.4-.273-.624-.9-.741l-1.157-.195c-1.261-.234-1.885-.819-1.885-1.794,0-1.222,1-2.015,2.522-2.015a4.583,4.583,0,0,1,2.561.78l-.689.962a3.56,3.56,0,0,0-1.963-.624c-.676,0-1.118.286-1.118.767,0,.416.234.6.923.715l1.144.208c1.3.247,1.924.845,1.924,1.82a2.386,2.386,0,0,1-2.652,2.119,4.368,4.368,0,0,1-2.808-.884Z" />
    <path
       id="path206"
       d="M68.737,297.991c0-1.17.949-1.911,2.483-1.911a4.028,4.028,0,0,1,1.755.4v-.715c0-.858-.494-1.3-1.495-1.3a4.514,4.514,0,0,0-1.9.507l-.519-1.066a6.25,6.25,0,0,1,2.7-.663c1.689,0,2.665.858,2.665,2.366v4.251H72.975V299.2a2.72,2.72,0,0,1-1.938.767A2.053,2.053,0,0,1,68.737,297.991Zm2.7.949a2.323,2.323,0,0,0,1.534-.533v-1.066a3.373,3.373,0,0,0-1.508-.312c-.832,0-1.352.364-1.352.936C70.115,298.563,70.635,298.94,71.441,298.94Z" />
    <path
       id="path208"
       d="M76.212,293.35h1.469v1.04a2.222,2.222,0,0,1,1.938-1.144,2.046,2.046,0,0,1,1.911,1.261,2.4,2.4,0,0,1,2.158-1.261,2.158,2.158,0,0,1,2.132,2.366v4.251H84.35v-3.939a1.318,1.318,0,0,0-1.313-1.5,1.553,1.553,0,0,0-1.313.767,4.147,4.147,0,0,1,.026.416v4.251H80.282v-3.939a1.319,1.319,0,0,0-1.314-1.5,1.513,1.513,0,0,0-1.287.741v4.693H76.212Z" />
    <path
       id="path210"
       d="M90.616,299.993a3.311,3.311,0,0,1-3.315-3.38,3.208,3.208,0,0,1,3.172-3.367,3.126,3.126,0,0,1,3.081,3.354v.364h-4.81a1.989,1.989,0,0,0,1.95,1.781,2.116,2.116,0,0,0,1.547-.611l.962.9A3.765,3.765,0,0,1,90.616,299.993Zm-1.846-3.926h3.393a1.783,1.783,0,0,0-1.7-1.625A1.75,1.75,0,0,0,88.77,296.067Z" />
    <path
       id="path212"
       d="M98.078,298.121a3.754,3.754,0,0,0,2.093.741c.78,0,1.313-.351,1.313-.871,0-.4-.273-.624-.9-.741l-1.157-.195c-1.261-.234-1.885-.819-1.885-1.794,0-1.222,1-2.015,2.522-2.015a4.583,4.583,0,0,1,2.561.78l-.689.962a3.56,3.56,0,0,0-1.963-.624c-.676,0-1.118.286-1.118.767,0,.416.234.6.923.715l1.144.208c1.3.247,1.924.845,1.924,1.82a2.386,2.386,0,0,1-2.652,2.119,4.37,4.37,0,0,1-2.808-.884Z" />
    <path
       id="path214"
       d="M107.281,299.993a3.311,3.311,0,0,1-3.315-3.38,3.207,3.207,0,0,1,3.172-3.367,3.126,3.126,0,0,1,3.081,3.354v.364h-4.81a1.989,1.989,0,0,0,1.95,1.781,2.116,2.116,0,0,0,1.547-.611l.963.9A3.771,3.771,0,0,1,107.281,299.993Zm-1.846-3.926h3.393a1.783,1.783,0,0,0-1.7-1.625A1.75,1.75,0,0,0,105.435,296.067Z" />
    <path
       id="path216"
       d="M111.714,293.35h1.469v1.417a1.933,1.933,0,0,1,1.794-1.534,1.751,1.751,0,0,1,.638.13v1.287a2.08,2.08,0,0,0-.807-.156,1.787,1.787,0,0,0-1.625,1.079v4.29h-1.469Z" />
    <path
       id="path218"
       d="M116.25,293.35h1.6l1.807,4.758,1.807-4.758h1.547l-2.678,6.513h-1.417Z" />
    <path
       id="path220"
       d="M123.881,291.127a.917.917,0,0,1,1.834,0,.917.917,0,0,1-1.834,0Zm1.652,8.736h-1.469V293.35h1.469Z" />
    <path
       id="path222"
       d="M131.994,297.978l.884.884a3.384,3.384,0,0,1-2.548,1.131,3.368,3.368,0,0,1,0-6.734,3.508,3.508,0,0,1,2.6,1.092l-.91.949a2.153,2.153,0,0,0-1.638-.767,2.089,2.089,0,0,0,.039,4.16A2,2,0,0,0,131.994,297.978Z" />
    <path
       id="path224"
       d="M136.959,299.993a3.31,3.31,0,0,1-3.314-3.38,3.208,3.208,0,0,1,3.172-3.367A3.126,3.126,0,0,1,139.9,296.6v.364h-4.811a1.99,1.99,0,0,0,1.95,1.781,2.113,2.113,0,0,0,1.547-.611l.963.9A3.767,3.767,0,0,1,136.959,299.993Zm-1.845-3.926h3.393a1.783,1.783,0,0,0-1.7-1.625A1.75,1.75,0,0,0,135.114,296.067Z" />
    <path
       id="path226"
       d="M141.562,298.121a3.759,3.759,0,0,0,2.094.741c.779,0,1.312-.351,1.312-.871,0-.4-.272-.624-.9-.741l-1.158-.195c-1.26-.234-1.884-.819-1.884-1.794,0-1.222,1-2.015,2.521-2.015a4.586,4.586,0,0,1,2.562.78l-.69.962a3.56,3.56,0,0,0-1.963-.624c-.675,0-1.118.286-1.118.767,0,.416.235.6.923.715l1.145.208c1.3.247,1.923.845,1.923,1.82a2.386,2.386,0,0,1-2.652,2.119,4.37,4.37,0,0,1-2.808-.884Z" />
    <path
       id="path228"
       d="M153.625,299.993a3.31,3.31,0,0,1-3.314-3.38,3.208,3.208,0,0,1,3.172-3.367,3.126,3.126,0,0,1,3.081,3.354v.364h-4.811a1.991,1.991,0,0,0,1.95,1.781,2.113,2.113,0,0,0,1.547-.611l.963.9A3.767,3.767,0,0,1,153.625,299.993Zm-1.845-3.926h3.393a1.783,1.783,0,0,0-1.7-1.625A1.75,1.75,0,0,0,151.78,296.067Z" />
    <path
       id="path230"
       d="M159.319,296.548l-2.379-3.2h1.717l1.52,2.145,1.522-2.145h1.637L161,296.509l2.522,3.354h-1.729l-1.638-2.3-1.638,2.3h-1.638Z" />
    <path
       id="path232"
       d="M164.389,291.127a.917.917,0,0,1,1.834,0,.917.917,0,0,1-1.834,0Zm1.651,8.736h-1.468V293.35h1.468Z" />
    <path
       id="path234"
       d="M167.952,298.121a3.754,3.754,0,0,0,2.093.741c.78,0,1.313-.351,1.313-.871,0-.4-.273-.624-.9-.741l-1.157-.195c-1.261-.234-1.885-.819-1.885-1.794,0-1.222,1-2.015,2.522-2.015a4.583,4.583,0,0,1,2.561.78l-.689.962a3.56,3.56,0,0,0-1.963-.624c-.676,0-1.118.286-1.118.767,0,.416.234.6.923.715l1.144.208c1.3.247,1.924.845,1.924,1.82a2.386,2.386,0,0,1-2.652,2.119,4.37,4.37,0,0,1-2.808-.884Z" />
    <path
       id="path236"
       d="M174.75,294.52h-1.312v-1.17h1.312v-1.794l1.47-.312v2.106h1.819v1.17H176.22v3.3c0,.638.247.884.909.884a2.677,2.677,0,0,0,.885-.156v1.235a4.622,4.622,0,0,1-1.262.182c-1.312,0-2-.624-2-1.82Z" />
    <path
       id="path238"
       d="M179.56,298.121a3.759,3.759,0,0,0,2.094.741c.779,0,1.312-.351,1.312-.871,0-.4-.272-.624-.9-.741l-1.158-.195c-1.26-.234-1.884-.819-1.884-1.794,0-1.222,1-2.015,2.521-2.015a4.586,4.586,0,0,1,2.562.78l-.69.962a3.56,3.56,0,0,0-1.963-.624c-.675,0-1.118.286-1.118.767,0,.416.235.6.923.715l1.145.208c1.3.247,1.923.845,1.923,1.82a2.386,2.386,0,0,1-2.652,2.119,4.37,4.37,0,0,1-2.808-.884Z" />
    <path
       id="path240"
       d="M77.2,306.727a.917.917,0,0,1,1.834,0,.917.917,0,0,1-1.834,0Zm1.651,8.736H77.382V308.95h1.469Z" />
    <path
       id="path242"
       d="M80.659,308.95h1.468v1.066a2.365,2.365,0,0,1,2.068-1.17,2.192,2.192,0,0,1,2.249,2.327v4.29H84.975v-3.874a1.4,1.4,0,0,0-1.431-1.56,1.671,1.671,0,0,0-1.417.78v4.654H80.659Z" />
    <path
       id="path244"
       d="M90.824,313.591c0-1.17.949-1.911,2.483-1.911a4.016,4.016,0,0,1,1.755.4v-.716c0-.858-.494-1.3-1.5-1.3a4.51,4.51,0,0,0-1.9.507l-.519-1.066a6.25,6.25,0,0,1,2.7-.663c1.69,0,2.665.858,2.665,2.366v4.251H95.062V314.8a2.716,2.716,0,0,1-1.938.767A2.053,2.053,0,0,1,90.824,313.591Zm2.7.95a2.32,2.32,0,0,0,1.534-.534v-1.066a3.373,3.373,0,0,0-1.508-.312c-.832,0-1.352.364-1.352.936C92.2,314.164,92.722,314.541,93.528,314.541Z" />
    <path
       id="path246"
       d="M99.768,315.463H98.3v-9.3l1.469-.247Z" />
    <path
       id="path248"
       d="M103.043,315.463h-1.468v-9.3l1.468-.247Z" />
    <path
       id="path250"
       d="M107.776,308.95h1.468v1.066a2.366,2.366,0,0,1,2.068-1.17,2.192,2.192,0,0,1,2.249,2.327v4.29h-1.469v-3.874a1.4,1.4,0,0,0-1.431-1.56,1.672,1.672,0,0,0-1.417.78v4.654h-1.468Z" />
    <path
       id="path252"
       d="M118.318,308.846a3.375,3.375,0,1,1-3.276,3.367A3.252,3.252,0,0,1,118.318,308.846Zm1.82,3.38a1.841,1.841,0,1,0-3.64,0,1.838,1.838,0,1,0,3.64,0Z" />
    <path
       id="path254"
       d="M127.808,314.592a2.508,2.508,0,0,1-2,.936,3.332,3.332,0,0,1,.091-6.63,2.481,2.481,0,0,1,1.9.858v-3.588l1.47-.247v9.542h-1.456Zm-1.561-.3a1.949,1.949,0,0,0,1.547-.716v-2.742a2.016,2.016,0,0,0-1.547-.7,2.086,2.086,0,0,0,0,4.161Z" />
    <path
       id="path256"
       d="M134.1,315.593a3.31,3.31,0,0,1-3.314-3.38,3.208,3.208,0,0,1,3.171-3.367,3.126,3.126,0,0,1,3.081,3.354v.365h-4.81a1.989,1.989,0,0,0,1.95,1.78,2.11,2.11,0,0,0,1.547-.611l.963.9A3.767,3.767,0,0,1,134.1,315.593Zm-1.846-3.925h3.394a1.783,1.783,0,0,0-1.7-1.626A1.751,1.751,0,0,0,132.254,311.668Z" />
    <path
       id="path258"
       d="M138.7,313.721a3.754,3.754,0,0,0,2.093.741c.78,0,1.313-.351,1.313-.871,0-.4-.273-.624-.9-.741l-1.157-.2c-1.261-.234-1.885-.819-1.885-1.794,0-1.222,1-2.015,2.522-2.015a4.583,4.583,0,0,1,2.561.78l-.689.962a3.56,3.56,0,0,0-1.963-.624c-.676,0-1.118.286-1.118.767,0,.416.234.6.923.715l1.144.208c1.3.247,1.924.846,1.924,1.82a2.386,2.386,0,0,1-2.652,2.119,4.375,4.375,0,0,1-2.808-.883Z" />
  </g>
  <g
     id="g266">
    <rect
       id="rect262"
       height="41.333"
       width="145.822"
       y="413.485"
       x="284.744"
       class="cls-5" />
    <path
       id="path264"
       d="M430.066,413.985v40.334H285.244V413.985H430.066m1-1H284.244v42.334H431.066V412.985Z"
       class="cls-7" />
  </g>
  <g
     id="g276">
    <path
       id="path268"
       d="M340.944,430.182h4.069a2.823,2.823,0,1,1,0,5.63H342.5v3.47h-1.56Zm1.56,1.313v3.042h2.262a1.531,1.531,0,1,0,.013-3.042Z" />
    <path
       id="path270"
       d="M352.214,432.665a3.375,3.375,0,1,1-3.275,3.367A3.253,3.253,0,0,1,352.214,432.665Zm1.821,3.38a1.841,1.841,0,1,0-3.64,0,1.838,1.838,0,1,0,3.64,0Z" />
    <path
       id="path272"
       d="M361.705,438.411a2.507,2.507,0,0,1-2,.937,3.333,3.333,0,0,1,.091-6.631,2.485,2.485,0,0,1,1.9.858v-3.588l1.469-.247v9.542h-1.456Zm-1.56-.3a1.951,1.951,0,0,0,1.547-.714v-2.744a2.02,2.02,0,0,0-1.547-.7,2.085,2.085,0,0,0,0,4.16Z" />
    <path
       id="path274"
       d="M373.821,435.812h1.17v1.221h-1.17v2.249H372.4v-2.249h-4.888v-1.157l4.692-5.694h1.613Zm-1.417,0V431.7l-3.368,4.109Z" />
  </g>
  <g
     id="g282">
    <rect
       id="rect278"
       height="41.333"
       width="145.822"
       y="467.709"
       x="284.744"
       class="cls-5" />
    <path
       id="path280"
       d="M430.066,468.208v40.333H285.244V468.208H430.066m1-1H284.244v42.333H431.066V467.208Z"
       class="cls-6" />
  </g>
  <g
     id="g300">
    <path
       id="path284"
       d="M332.357,491.022a4.551,4.551,0,0,0,3.054,1.326c1.209,0,2.042-.61,2.042-1.442,0-.741-.442-1.079-1.651-1.3l-1.678-.286c-1.573-.286-2.339-1.066-2.339-2.314,0-1.638,1.313-2.73,3.354-2.73a6.066,6.066,0,0,1,3.652,1.184L338,486.628a4.716,4.716,0,0,0-2.912-1.053c-1.092,0-1.806.546-1.806,1.287,0,.65.4.988,1.4,1.144l1.611.287c1.834.311,2.692,1.118,2.692,2.5,0,1.664-1.482,2.846-3.654,2.846a5.733,5.733,0,0,1-3.821-1.468Z" />
    <path
       id="path286"
       d="M343.536,493.635a3.31,3.31,0,0,1-3.314-3.38,3.207,3.207,0,0,1,3.172-3.367,3.126,3.126,0,0,1,3.081,3.355v.363h-4.811a1.991,1.991,0,0,0,1.951,1.781,2.108,2.108,0,0,0,1.546-.611l.963.9A3.769,3.769,0,0,1,343.536,493.635Zm-1.845-3.925h3.393a1.784,1.784,0,0,0-1.7-1.625A1.749,1.749,0,0,0,341.691,489.71Z" />
    <path
       id="path288"
       d="M347.969,486.992h1.469v1.418a1.93,1.93,0,0,1,1.794-1.534,1.74,1.74,0,0,1,.637.129v1.288a2.054,2.054,0,0,0-.806-.157,1.789,1.789,0,0,0-1.625,1.079v4.29h-1.469Z" />
    <path
       id="path290"
       d="M352.506,486.992h1.6l1.806,4.759,1.808-4.759h1.547l-2.678,6.513h-1.417Z" />
    <path
       id="path292"
       d="M360.137,484.769a.917.917,0,0,1,1.834,0,.917.917,0,0,1-1.834,0Zm1.651,8.736H360.32v-6.513h1.468Z" />
    <path
       id="path294"
       d="M368.249,491.621l.884.883a3.384,3.384,0,0,1-2.548,1.131,3.368,3.368,0,0,1,0-6.734,3.509,3.509,0,0,1,2.6,1.093l-.91.948a2.153,2.153,0,0,0-1.638-.767,2.09,2.09,0,0,0,.039,4.161A2,2,0,0,0,368.249,491.621Z" />
    <path
       id="path296"
       d="M373.215,493.635a3.31,3.31,0,0,1-3.314-3.38,3.208,3.208,0,0,1,3.172-3.367,3.126,3.126,0,0,1,3.081,3.355v.363h-4.811a1.99,1.99,0,0,0,1.95,1.781,2.109,2.109,0,0,0,1.547-.611l.963.9A3.767,3.767,0,0,1,373.215,493.635Zm-1.846-3.925h3.394a1.783,1.783,0,0,0-1.7-1.625A1.75,1.75,0,0,0,371.369,489.71Z" />
    <path
       id="path298"
       d="M383.172,493.505h-1.417v-7.618l-1.611.7v-1.261l2.132-.923h.9Z" />
  </g>
  <g
     id="g312">
    <path
       id="path302"
       d="M338.291,331.423l4.043,5.513-.039-5.513H344.4v9.1h-1.977l-4.173-5.694.039,5.694h-2.106v-9.1Z" />
    <path
       id="path304"
       d="M349.433,333.711a3.471,3.471,0,1,1-3.5,3.471A3.415,3.415,0,0,1,349.433,333.711Zm1.456,3.471a1.47,1.47,0,1,0-2.9,0,1.467,1.467,0,1,0,2.9,0Z" />
    <path
       id="path306"
       d="M358.987,339.652a2.532,2.532,0,0,1-1.976.911,3.2,3.2,0,0,1-2.964-3.407,3.235,3.235,0,0,1,3.119-3.38,2.349,2.349,0,0,1,1.8.806v-3.354l2.106-.325v9.62h-2.08Zm-1.274-.832a1.63,1.63,0,0,0,1.248-.533v-2.262a1.711,1.711,0,0,0-1.248-.52,1.659,1.659,0,0,0,0,3.315Z" />
    <path
       id="path308"
       d="M365.942,340.653a3.468,3.468,0,0,1-3.535-3.471,3.365,3.365,0,0,1,3.379-3.484,3.3,3.3,0,0,1,3.3,3.562v.455h-4.615a1.611,1.611,0,0,0,1.573,1.262,1.661,1.661,0,0,0,1.326-.559l1.391,1.156A3.907,3.907,0,0,1,365.942,340.653Zm-1.469-4.133h2.665a1.4,1.4,0,0,0-1.365-1.184A1.332,1.332,0,0,0,364.473,336.52Z" />
    <path
       id="path310"
       d="M373.039,339.093l3.848-3.809a1.7,1.7,0,0,0,.611-1.209c0-.585-.572-1.027-1.338-1.027a3.135,3.135,0,0,0-2.3,1.118l-1.118-1.365a4.993,4.993,0,0,1,3.484-1.5c1.936,0,3.224,1.053,3.224,2.639a3.184,3.184,0,0,1-1.183,2.353l-2.627,2.536,3.939-.014v1.7h-6.539Z" />
  </g>
  <g
     id="g346">
    <path
       id="path314"
       d="M174.092,38.221h1.561v4.16l3.952-4.16h1.9L177.187,42.6l4.484,4.719h-2.066l-3.952-4.277v4.277h-1.561Z"
       class="cls-8" />
    <path
       id="path316"
       d="M183.725,44.682a1.4,1.4,0,0,0,1.431,1.56,1.641,1.641,0,0,0,1.429-.806V40.808h1.469v6.513h-1.469V46.242a2.381,2.381,0,0,1-2.08,1.183,2.185,2.185,0,0,1-2.249-2.327v-4.29h1.469Z"
       class="cls-8" />
    <path
       id="path318"
       d="M193.229,47.386a2.418,2.418,0,0,1-1.924-.91v.845h-1.443V38.026l1.468-.247v3.9a2.538,2.538,0,0,1,2-.923,3.332,3.332,0,0,1-.1,6.63Zm-1.9-4.667v2.717a2,2,0,0,0,1.561.715,2.085,2.085,0,0,0,0-4.16A1.915,1.915,0,0,0,191.33,42.719Z"
       class="cls-8" />
    <path
       id="path320"
       d="M200.859,47.451a3.311,3.311,0,0,1-3.315-3.38,3.208,3.208,0,0,1,3.172-3.367,3.126,3.126,0,0,1,3.081,3.354v.364h-4.81a1.989,1.989,0,0,0,1.95,1.781,2.116,2.116,0,0,0,1.547-.611l.963.9A3.771,3.771,0,0,1,200.859,47.451Zm-1.846-3.926h3.394a1.784,1.784,0,0,0-1.7-1.625A1.75,1.75,0,0,0,199.013,43.525Z"
       class="cls-8" />
    <path
       id="path322"
       d="M205.292,40.808h1.469v1.417a1.933,1.933,0,0,1,1.794-1.534,1.751,1.751,0,0,1,.638.13v1.287a2.076,2.076,0,0,0-.807-.156,1.787,1.787,0,0,0-1.625,1.079v4.29h-1.469Z"
       class="cls-8" />
    <path
       id="path324"
       d="M210.4,40.808h1.468v1.066a2.366,2.366,0,0,1,2.068-1.17,2.192,2.192,0,0,1,2.249,2.327v4.29h-1.469V43.447a1.4,1.4,0,0,0-1.431-1.56,1.672,1.672,0,0,0-1.417.78v4.654H210.4Z"
       class="cls-8" />
    <path
       id="path326"
       d="M220.983,47.451a3.311,3.311,0,0,1-3.315-3.38A3.208,3.208,0,0,1,220.84,40.7a3.126,3.126,0,0,1,3.081,3.354v.364h-4.81a1.989,1.989,0,0,0,1.95,1.781,2.116,2.116,0,0,0,1.547-.611l.963.9A3.769,3.769,0,0,1,220.983,47.451Zm-1.846-3.926h3.394a1.783,1.783,0,0,0-1.7-1.625A1.75,1.75,0,0,0,219.137,43.525Z"
       class="cls-8" />
    <path
       id="path328"
       d="M226.027,41.978h-1.313v-1.17h1.313V39.014L227.5,38.7v2.106h1.82v1.17H227.5v3.3c0,.637.247.884.91.884a2.7,2.7,0,0,0,.884-.156v1.235a4.621,4.621,0,0,1-1.261.182c-1.313,0-2-.624-2-1.819Z"
       class="cls-8" />
    <path
       id="path330"
       d="M233.528,47.451a3.311,3.311,0,0,1-3.315-3.38,3.208,3.208,0,0,1,3.172-3.367,3.126,3.126,0,0,1,3.081,3.354v.364h-4.81a1.989,1.989,0,0,0,1.95,1.781,2.116,2.116,0,0,0,1.547-.611l.963.9A3.769,3.769,0,0,1,233.528,47.451Zm-1.846-3.926h3.394a1.783,1.783,0,0,0-1.7-1.625A1.75,1.75,0,0,0,231.682,43.525Z"
       class="cls-8" />
    <path
       id="path332"
       d="M238.129,45.579a3.759,3.759,0,0,0,2.094.741c.779,0,1.313-.351,1.313-.871,0-.4-.273-.624-.9-.741l-1.157-.2c-1.261-.234-1.885-.819-1.885-1.794,0-1.222,1-2.015,2.522-2.015a4.583,4.583,0,0,1,2.561.78l-.689.962a3.56,3.56,0,0,0-1.963-.624c-.676,0-1.118.286-1.118.767,0,.416.234.6.922.715l1.145.208c1.3.247,1.924.845,1.924,1.82a2.387,2.387,0,0,1-2.653,2.119,4.367,4.367,0,0,1-2.807-.884Z"
       class="cls-8" />
    <path
       id="path334"
       d="M247.359,38.221h4.069a2.823,2.823,0,1,1,0,5.629h-2.509v3.471h-1.56Zm1.56,1.313v3.042h2.262a1.531,1.531,0,1,0,.013-3.042Z"
       class="cls-8" />
    <path
       id="path336"
       d="M258.63,40.7a3.375,3.375,0,1,1-3.275,3.367A3.253,3.253,0,0,1,258.63,40.7Zm1.821,3.38a1.841,1.841,0,1,0-3.64,0,1.838,1.838,0,1,0,3.64,0Z"
       class="cls-8" />
    <path
       id="path338"
       d="M268.12,46.45a2.506,2.506,0,0,1-2,.936,3.332,3.332,0,0,1,.09-6.63,2.485,2.485,0,0,1,1.9.858V38.026l1.47-.247v9.542H268.12Zm-1.56-.3a1.949,1.949,0,0,0,1.547-.715V42.693a2.02,2.02,0,0,0-1.547-.7,2.085,2.085,0,0,0,0,4.16Z"
       class="cls-8" />
    <path
       id="path340"
       d="M274.568,44.838a4.551,4.551,0,0,0,3.054,1.326c1.209,0,2.041-.611,2.041-1.443,0-.741-.441-1.079-1.65-1.3l-1.678-.286c-1.573-.286-2.34-1.066-2.34-2.314,0-1.638,1.314-2.73,3.355-2.73A6.072,6.072,0,0,1,281,39.274l-.793,1.17a4.716,4.716,0,0,0-2.912-1.053c-1.092,0-1.806.546-1.806,1.287,0,.65.4.988,1.4,1.144l1.611.286c1.834.312,2.692,1.118,2.692,2.5,0,1.664-1.482,2.847-3.654,2.847a5.729,5.729,0,0,1-3.821-1.469Z"
       class="cls-8" />
    <path
       id="path342"
       d="M282.784,38.221h3.328a4.55,4.55,0,1,1,0,9.1h-3.328Zm1.56,1.352v6.4h1.807a3.212,3.212,0,0,0,0-6.4Z"
       class="cls-8" />
    <path
       id="path344"
       d="M293.951,38.221l4.745,6.6-.027-6.6h1.47v9.1h-1.392l-4.875-6.786.027,6.786h-1.47v-9.1Z"
       class="cls-8" />
  </g>
  <line
     id="line348"
     y2="142.405"
     x2="237.116"
     y1="142.405"
     x1="284.244"
     class="cls-4" />
  <line
     id="line350"
     y2="196.627"
     x2="237.116"
     y1="196.627"
     x1="284.244"
     class="cls-4" />
  <line
     id="line352"
     y2="250.85"
     x2="237.116"
     y1="250.85"
     x1="284.244"
     class="cls-4" />
  <line
     id="line354"
     y2="379.929"
     x2="237.116"
     y1="379.929"
     x1="284.244"
     class="cls-4" />
  <line
     id="line356"
     y2="434.152"
     x2="237.116"
     y1="434.152"
     x1="284.244"
     class="cls-4" />
  <polyline
     id="polyline358"
     points="284.244 488.375 237.116 488.375 237.116 57.896"
     class="cls-4" />
  <g
     id="g400">
    <path
       id="path360"
       d="M404.511,38.221h1.561v4.16l3.952-4.16h1.9L407.606,42.6l4.484,4.719h-2.066l-3.952-4.277v4.277h-1.561Z"
       class="cls-8" />
    <path
       id="path362"
       d="M414.144,44.682a1.4,1.4,0,0,0,1.431,1.56A1.641,1.641,0,0,0,417,45.436V40.808h1.469v6.513H417V46.242a2.381,2.381,0,0,1-2.08,1.183,2.185,2.185,0,0,1-2.249-2.327v-4.29h1.469Z"
       class="cls-8" />
    <path
       id="path364"
       d="M423.648,47.386a2.418,2.418,0,0,1-1.924-.91v.845h-1.443V38.026l1.468-.247v3.9a2.537,2.537,0,0,1,2-.923,3.332,3.332,0,0,1-.1,6.63Zm-1.9-4.667v2.717a2,2,0,0,0,1.561.715,2.085,2.085,0,0,0,0-4.16A1.915,1.915,0,0,0,421.749,42.719Z"
       class="cls-8" />
    <path
       id="path366"
       d="M431.278,47.451a3.311,3.311,0,0,1-3.315-3.38,3.208,3.208,0,0,1,3.172-3.367,3.126,3.126,0,0,1,3.081,3.354v.364h-4.81a1.989,1.989,0,0,0,1.95,1.781,2.116,2.116,0,0,0,1.547-.611l.963.9A3.769,3.769,0,0,1,431.278,47.451Zm-1.846-3.926h3.394a1.783,1.783,0,0,0-1.7-1.625A1.75,1.75,0,0,0,429.432,43.525Z"
       class="cls-8" />
    <path
       id="path368"
       d="M435.711,40.808h1.469v1.417a1.933,1.933,0,0,1,1.794-1.534,1.751,1.751,0,0,1,.638.13v1.287a2.08,2.08,0,0,0-.807-.156,1.787,1.787,0,0,0-1.625,1.079v4.29h-1.469Z"
       class="cls-8" />
    <path
       id="path370"
       d="M440.82,40.808h1.468v1.066a2.366,2.366,0,0,1,2.068-1.17,2.192,2.192,0,0,1,2.249,2.327v4.29h-1.469V43.447a1.4,1.4,0,0,0-1.431-1.56,1.671,1.671,0,0,0-1.417.78v4.654H440.82Z"
       class="cls-8" />
    <path
       id="path372"
       d="M451.4,47.451a3.311,3.311,0,0,1-3.315-3.38,3.208,3.208,0,0,1,3.172-3.367,3.126,3.126,0,0,1,3.081,3.354v.364h-4.81a1.989,1.989,0,0,0,1.95,1.781,2.116,2.116,0,0,0,1.547-.611l.963.9A3.771,3.771,0,0,1,451.4,47.451Zm-1.846-3.926h3.394a1.784,1.784,0,0,0-1.7-1.625A1.75,1.75,0,0,0,449.556,43.525Z"
       class="cls-8" />
    <path
       id="path374"
       d="M456.446,41.978h-1.313v-1.17h1.313V39.014l1.469-.312v2.106h1.82v1.17h-1.82v3.3c0,.637.247.884.91.884a2.7,2.7,0,0,0,.884-.156v1.235a4.621,4.621,0,0,1-1.261.182c-1.313,0-2-.624-2-1.819Z"
       class="cls-8" />
    <path
       id="path376"
       d="M463.947,47.451a3.311,3.311,0,0,1-3.315-3.38A3.207,3.207,0,0,1,463.8,40.7a3.126,3.126,0,0,1,3.081,3.354v.364h-4.81a1.989,1.989,0,0,0,1.95,1.781,2.116,2.116,0,0,0,1.547-.611l.963.9A3.771,3.771,0,0,1,463.947,47.451ZM462.1,43.525h3.393a1.783,1.783,0,0,0-1.7-1.625A1.75,1.75,0,0,0,462.1,43.525Z"
       class="cls-8" />
    <path
       id="path378"
       d="M468.548,45.579a3.759,3.759,0,0,0,2.094.741c.779,0,1.312-.351,1.312-.871,0-.4-.272-.624-.9-.741l-1.157-.2c-1.261-.234-1.885-.819-1.885-1.794,0-1.222,1-2.015,2.521-2.015a4.584,4.584,0,0,1,2.562.78l-.689.962a3.56,3.56,0,0,0-1.963-.624c-.676,0-1.119.286-1.119.767,0,.416.235.6.923.715l1.145.208c1.3.247,1.924.845,1.924,1.82a2.387,2.387,0,0,1-2.653,2.119,4.365,4.365,0,0,1-2.807-.884Z"
       class="cls-8" />
    <path
       id="path380"
       d="M477.843,44.838a4.553,4.553,0,0,0,3.055,1.326c1.209,0,2.041-.611,2.041-1.443,0-.741-.442-1.079-1.651-1.3l-1.677-.286c-1.574-.286-2.34-1.066-2.34-2.314,0-1.638,1.313-2.73,3.354-2.73a6.073,6.073,0,0,1,3.653,1.183l-.793,1.17a4.719,4.719,0,0,0-2.912-1.053c-1.092,0-1.807.546-1.807,1.287,0,.65.4.988,1.4,1.144l1.612.286c1.834.312,2.691,1.118,2.691,2.5,0,1.664-1.481,2.847-3.653,2.847A5.731,5.731,0,0,1,477,45.982Z"
       class="cls-8" />
    <path
       id="path382"
       d="M489.023,47.451a3.311,3.311,0,0,1-3.315-3.38A3.208,3.208,0,0,1,488.88,40.7a3.126,3.126,0,0,1,3.081,3.354v.364h-4.81A1.989,1.989,0,0,0,489.1,46.2a2.114,2.114,0,0,0,1.547-.611l.963.9A3.771,3.771,0,0,1,489.023,47.451Zm-1.846-3.926h3.394a1.784,1.784,0,0,0-1.7-1.625A1.75,1.75,0,0,0,487.177,43.525Z"
       class="cls-8" />
    <path
       id="path384"
       d="M493.456,40.808h1.469v1.417a1.933,1.933,0,0,1,1.794-1.534,1.751,1.751,0,0,1,.638.13v1.287a2.076,2.076,0,0,0-.807-.156,1.787,1.787,0,0,0-1.625,1.079v4.29h-1.469Z"
       class="cls-8" />
    <path
       id="path386"
       d="M497.993,40.808h1.6l1.807,4.758,1.807-4.758h1.547l-2.677,6.513h-1.417Z"
       class="cls-8" />
    <path
       id="path388"
       d="M505.623,38.585a.917.917,0,0,1,1.834,0,.917.917,0,0,1-1.834,0Zm1.652,8.736h-1.469V40.808h1.469Z"
       class="cls-8" />
    <path
       id="path390"
       d="M513.736,45.436l.883.884a3.382,3.382,0,0,1-2.547,1.131,3.368,3.368,0,0,1,0-6.734,3.508,3.508,0,0,1,2.6,1.092l-.91.949a2.153,2.153,0,0,0-1.638-.767,2.089,2.089,0,0,0,.039,4.16A2,2,0,0,0,513.736,45.436Z"
       class="cls-8" />
    <path
       id="path392"
       d="M518.7,47.451a3.311,3.311,0,0,1-3.315-3.38,3.208,3.208,0,0,1,3.172-3.367,3.126,3.126,0,0,1,3.081,3.354v.364h-4.811A1.991,1.991,0,0,0,518.78,46.2a2.116,2.116,0,0,0,1.547-.611l.962.9A3.766,3.766,0,0,1,518.7,47.451Zm-1.846-3.926h3.393a1.783,1.783,0,0,0-1.7-1.625A1.75,1.75,0,0,0,516.856,43.525Z"
       class="cls-8" />
    <path
       id="path394"
       d="M526.307,44.838a4.553,4.553,0,0,0,3.055,1.326c1.209,0,2.041-.611,2.041-1.443,0-.741-.442-1.079-1.651-1.3l-1.677-.286c-1.573-.286-2.34-1.066-2.34-2.314,0-1.638,1.313-2.73,3.354-2.73a6.084,6.084,0,0,1,3.654,1.183l-.794,1.17a4.721,4.721,0,0,0-2.913-1.053c-1.091,0-1.806.546-1.806,1.287,0,.65.4.988,1.4,1.144l1.612.286c1.833.312,2.691,1.118,2.691,2.5,0,1.664-1.482,2.847-3.653,2.847a5.736,5.736,0,0,1-3.823-1.469Z"
       class="cls-8" />
    <path
       id="path396"
       d="M534.522,38.221h3.328a4.55,4.55,0,1,1,0,9.1h-3.328Zm1.56,1.352v6.4h1.807a3.212,3.212,0,0,0,0-6.4Z"
       class="cls-8" />
    <path
       id="path398"
       d="M545.69,38.221l4.745,6.6-.026-6.6h1.469v9.1h-1.391l-4.875-6.786.026,6.786h-1.47v-9.1Z"
       class="cls-8" />
  </g>
  <line
     id="line402"
     y2="142.405"
     x2="431.066"
     y1="142.405"
     x1="478.194"
     class="cls-4" />
  <line
     id="line404"
     y2="196.627"
     x2="431.066"
     y1="196.627"
     x1="478.194"
     class="cls-4" />
  <line
     id="line406"
     y2="250.85"
     x2="431.066"
     y1="250.85"
     x1="478.194"
     class="cls-4" />
  <line
     id="line408"
     y2="379.929"
     x2="431.066"
     y1="379.929"
     x1="478.194"
     class="cls-4" />
  <line
     id="line410"
     y2="434.152"
     x2="431.066"
     y1="434.152"
     x1="478.194"
     class="cls-4" />
  <polyline
     id="polyline412"
     points="431.066 488.375 478.194 488.375 478.194 57.896"
     class="cls-4" />
  <g
     id="g418">
    <polyline
       id="polyline414"
       points="284.244 444.031 261.05 444.031 261.05 477.691 278.862 477.691"
       class="cls-2" />
    <polygon
       id="polygon416"
       points="277.767 481.431 284.244 477.691 277.767 473.951 277.767 481.431"
       class="cls-3" />
  </g>
  <rect
     id="rect420"
     height="8.385"
     width="6.792"
     y="193.374"
     x="257.73"
     class="cls-1" />
  <g
     id="g426">
    <polyline
       id="polyline422"
       points="284.244 239.824 261.05 239.824 261.05 154.074 278.862 154.074"
       class="cls-2" />
    <polygon
       id="polygon424"
       points="277.767 157.814 284.244 154.074 277.767 150.335 277.767 157.814"
       class="cls-3" />
  </g>
  <g
     id="g432">
    <polyline
       id="polyline428"
       points="431.066 154.073 465.14 154.073 465.14 185.888 436.448 185.888"
       class="cls-2" />
    <polygon
       id="polygon430"
       points="437.542 182.148 431.066 185.888 437.542 189.628 437.542 182.148"
       class="cls-3" />
  </g>
  <g
     id="g440">
    <polyline
       id="polyline434"
       points="436.449 208.667 452.553 208.667 452.553 391.059 436.449 391.059"
       class="cls-2" />
    <polygon
       id="polygon436"
       points="437.543 212.407 431.066 208.667 437.543 204.927 437.543 212.407"
       class="cls-3" />
    <polygon
       id="polygon438"
       points="437.543 387.319 431.066 391.059 437.543 394.798 437.543 387.319"
       class="cls-3" />
  </g>
  <rect
     id="rect442"
     height="7.875"
     width="7.875"
     y="363.683"
     x="448.103"
     class="cls-1" />
  <rect
     id="rect444"
     height="7.188"
     width="5.332"
     y="247.091"
     x="449.693"
     class="cls-1" />
  <rect
     id="rect446"
     height="7.188"
     width="6.358"
     y="247.091"
     x="461.961"
     class="cls-1" />
  <rect
     id="rect448"
     height="7.188"
     width="6.358"
     y="193.034"
     x="461.961"
     class="cls-1" />
  <g
     id="g454">
    <polyline
       id="polyline450"
       points="431.066 154.08 465.14 154.08 465.14 367.526 436.449 367.526"
       class="cls-2" />
    <polygon
       id="polygon452"
       points="437.543 363.786 431.066 367.526 437.543 371.265 437.543 363.786"
       class="cls-3" />
  </g>
  <rect
     id="rect456"
     height="7.188"
     width="5.332"
     y="363.926"
     x="449.693"
     class="cls-1" />
  <rect
     id="rect458"
     height="7.188"
     width="5.332"
     y="430.558"
     x="449.693"
     class="cls-1" />
  <g
     id="g464">
    <polyline
       id="polyline460"
       points="436.449 208.668 452.553 208.668 452.553 477.692 431.066 477.692"
       class="cls-2" />
    <polygon
       id="polygon462"
       points="437.543 212.408 431.066 208.668 437.543 204.928 437.543 212.408"
       class="cls-3" />
  </g>
</svg>
