<?xml version="1.0" encoding="UTF-8" standalone="no"?>
<svg
   xmlns:dc="http://purl.org/dc/elements/1.1/"
   xmlns:cc="http://creativecommons.org/ns#"
   xmlns:rdf="http://www.w3.org/1999/02/22-rdf-syntax-ns#"
   xmlns:svg="http://www.w3.org/2000/svg"
   xmlns="http://www.w3.org/2000/svg"
   xmlns:sodipodi="http://sodipodi.sourceforge.net/DTD/sodipodi-0.dtd"
   xmlns:inkscape="http://www.inkscape.org/namespaces/inkscape"
   inkscape:version="1.0 (4035a4f, 2020-05-01)"
   sodipodi:docname="openshift-networking-1_docker-networking-1.svg"
   version="1.1"
   viewBox="0 0 595.276 610.291"
   height="610.291"
   width="595.276"
   data-name="Layer 1"
   id="Layer_1">
  <metadata
     id="metadata593">
    <rdf:RDF>
      <cc:Work
         rdf:about="">
        <dc:format>image/svg+xml</dc:format>
        <dc:type
           rdf:resource="http://purl.org/dc/dcmitype/StillImage" />
        <dc:title></dc:title>
        <dc:subject>
          <rdf:Bag>
            <rdf:li>do180</rdf:li>
            <rdf:li>chapter6</rdf:li>
            <rdf:li>networking</rdf:li>
          </rdf:Bag>
        </dc:subject>
      </cc:Work>
    </rdf:RDF>
  </metadata>
  <sodipodi:namedview
     inkscape:current-layer="Layer_1"
     inkscape:window-maximized="0"
     inkscape:window-y="25"
     inkscape:window-x="0"
     inkscape:cy="305.14551"
     inkscape:cx="297.638"
     inkscape:zoom="0.8416264"
     showgrid="false"
     id="namedview591"
     inkscape:window-height="480"
     inkscape:window-width="987"
     inkscape:pageshadow="2"
     inkscape:pageopacity="0"
     guidetolerance="10"
     gridtolerance="10"
     objecttolerance="10"
     borderopacity="1"
     bordercolor="#666666"
     pagecolor="#ffffff" />
  <defs
     id="defs12">
    <style
       id="style10">
      .cls-1, .cls-3 {
        fill: none;
        stroke-miterlimit: 10;
      }

      .cls-1 {
        stroke: #3f9c35;
        stroke-width: 2px;
      }

      .cls-2 {
        fill: #e6e6e6;
      }

      .cls-3 {
        stroke: #c00;
      }

      .cls-4 {
        fill: #c00;
      }

      .cls-5 {
        fill: #fff;
      }

      .cls-6 {
        fill: #646464;
      }

      .cls-7 {
        fill: #b4b4b4;
      }

      .cls-8 {
        fill: #3f9c35;
      }
    </style>
  </defs>
  <line
     id="line14"
     y2="261.624"
     x2="254.169"
     y1="261.624"
     x1="135.842"
     class="cls-1" />
  <rect
     id="rect16"
     height="95.198"
     width="298.337"
     y="80.263"
     x="254.169"
     class="cls-2" />
  <rect
     id="rect18"
     height="108.445"
     width="111.821"
     y="207.401"
     x="24.069"
     class="cls-2" />
  <g
     id="g114">
    <g
       id="g54">
      <path
         id="path20"
         d="M75.213,572.494l4.745,6.6-.026-6.6H81.4v9.1H80.01l-4.875-6.786.026,6.786H73.692v-9.1Z" />
      <path
         id="path22"
         d="M86.418,581.724a3.31,3.31,0,0,1-3.314-3.38,3.208,3.208,0,0,1,3.172-3.367,3.126,3.126,0,0,1,3.081,3.355v.363H84.546a1.99,1.99,0,0,0,1.95,1.781,2.113,2.113,0,0,0,1.547-.611l.963.9A3.767,3.767,0,0,1,86.418,581.724ZM84.573,577.8h3.393a1.783,1.783,0,0,0-1.7-1.625A1.75,1.75,0,0,0,84.573,577.8Z" />
      <path
         id="path24"
         d="M91.462,576.252H90.15v-1.171h1.312v-1.794l1.47-.312v2.106h1.819v1.171H92.932v3.3c0,.637.246.884.909.884a2.7,2.7,0,0,0,.885-.156v1.235a4.624,4.624,0,0,1-1.262.183c-1.312,0-2-.625-2-1.821Z" />
      <path
         id="path26"
         d="M97.312,581.594l-1.755-6.513h1.4l1.144,4.6,1.34-4.6h1.248l1.339,4.615,1.13-4.615h1.378l-1.754,6.513h-1.417l-1.314-4.589-1.312,4.589Z" />
      <path
         id="path28"
         d="M108.6,574.977a3.375,3.375,0,1,1-3.275,3.367A3.252,3.252,0,0,1,108.6,574.977Zm1.82,3.38a1.841,1.841,0,1,0-3.639,0,1.837,1.837,0,1,0,3.639,0Z" />
      <path
         id="path30"
         d="M113.394,575.081h1.469V576.5a1.931,1.931,0,0,1,1.794-1.534,1.741,1.741,0,0,1,.637.13v1.287a2.071,2.071,0,0,0-.806-.156,1.787,1.787,0,0,0-1.625,1.079v4.29h-1.469Z" />
      <path
         id="path32"
         d="M118.5,572.3l1.469-.247v5.811l2.7-2.782h1.677l-2.977,3.016,3.16,3.5H122.65l-2.679-3v3H118.5Z" />
      <path
         id="path34"
         d="M128.46,575.081H129.9v.936a2.451,2.451,0,0,1,2.027-.988,3.126,3.126,0,0,1,2.951,3.315,3.157,3.157,0,0,1-3.054,3.316,2.436,2.436,0,0,1-1.9-.846v3.536H128.46Zm1.469,1.911v2.718a2,2,0,0,0,1.561.714,2.085,2.085,0,0,0,0-4.16A1.914,1.914,0,0,0,129.929,576.992Z" />
      <path
         id="path36"
         d="M136.143,579.722c0-1.17.949-1.911,2.483-1.911a4.025,4.025,0,0,1,1.755.4V577.5c0-.859-.494-1.3-1.5-1.3a4.5,4.5,0,0,0-1.9.508l-.52-1.067a6.253,6.253,0,0,1,2.7-.663c1.69,0,2.665.859,2.665,2.366v4.251h-1.456v-.663a2.72,2.72,0,0,1-1.937.768A2.054,2.054,0,0,1,136.143,579.722Zm2.7.949a2.323,2.323,0,0,0,1.534-.533v-1.066a3.37,3.37,0,0,0-1.508-.312c-.832,0-1.352.365-1.352.936C137.521,580.294,138.041,580.671,138.847,580.671Z" />
      <path
         id="path38"
         d="M148.272,579.71l.884.883a3.389,3.389,0,0,1-2.548,1.131,3.368,3.368,0,0,1,0-6.734,3.508,3.508,0,0,1,2.6,1.092l-.91.949a2.151,2.151,0,0,0-1.637-.767,2.089,2.089,0,0,0,.039,4.16A2,2,0,0,0,148.272,579.71Z" />
      <path
         id="path40"
         d="M150.416,572.3l1.469-.247v5.811l2.7-2.782h1.677l-2.977,3.016,3.16,3.5h-1.885l-2.679-3v3h-1.469Z" />
      <path
         id="path42"
         d="M160.036,581.724a3.31,3.31,0,0,1-3.314-3.38,3.207,3.207,0,0,1,3.172-3.367,3.126,3.126,0,0,1,3.081,3.355v.363h-4.811a1.991,1.991,0,0,0,1.951,1.781,2.112,2.112,0,0,0,1.546-.611l.963.9A3.769,3.769,0,0,1,160.036,581.724Zm-1.845-3.926h3.393a1.784,1.784,0,0,0-1.7-1.625A1.75,1.75,0,0,0,158.191,577.8Z" />
      <path
         id="path44"
         d="M165.08,576.252h-1.312v-1.171h1.312v-1.794l1.47-.312v2.106h1.819v1.171H166.55v3.3c0,.637.247.884.909.884a2.7,2.7,0,0,0,.885-.156v1.235a4.624,4.624,0,0,1-1.262.183c-1.312,0-2-.625-2-1.821Z" />
      <path
         id="path46"
         d="M173.465,575.081v-1.157a2,2,0,0,1,2.249-2.184,3.543,3.543,0,0,1,.976.13v1.248a3.006,3.006,0,0,0-.78-.1c-.676,0-.976.3-.976.936v1.131h1.756v1.171h-1.756v5.342h-1.469v-5.342h-1.4v-1.171Z" />
      <path
         id="path48"
         d="M179.393,581.594h-1.469v-9.3l1.469-.247Z" />
      <path
         id="path50"
         d="M184.177,574.977a3.375,3.375,0,1,1-3.275,3.367A3.252,3.252,0,0,1,184.177,574.977Zm1.82,3.38a1.841,1.841,0,1,0-3.639,0,1.837,1.837,0,1,0,3.639,0Z" />
      <path
         id="path52"
         d="M189.988,581.594l-1.755-6.513h1.4l1.144,4.6,1.339-4.6h1.249l1.338,4.615,1.131-4.615h1.378l-1.755,6.513h-1.417l-1.313-4.589-1.313,4.589Z" />
    </g>
    <g
       id="g60">
      <line
         id="line56"
         y2="577.601"
         x2="32.771"
         y1="577.601"
         x1="57.847"
         class="cls-3" />
      <polygon
         id="polygon58"
         points="56.753 573.861 63.229 577.601 56.753 581.34 56.753 573.861"
         class="cls-4" />
    </g>
    <g
       id="g110">
      <path
         id="path62"
         d="M279.883,572.494h1.677l2.8,7.527,2.821-7.527h1.612l-3.562,9.1h-1.807Z" />
      <path
         id="path64"
         d="M289.594,572.858a.917.917,0,0,1,1.833,0,.917.917,0,0,1-1.833,0Zm1.65,8.736h-1.468v-6.513h1.468Z" />
      <path
         id="path66"
         d="M293.052,575.081h1.469V576.5a1.931,1.931,0,0,1,1.794-1.534,1.751,1.751,0,0,1,.638.13v1.287a2.08,2.08,0,0,0-.807-.156,1.787,1.787,0,0,0-1.625,1.079v4.29h-1.469Z" />
      <path
         id="path68"
         d="M299.044,576.252h-1.312v-1.171h1.312v-1.794l1.47-.312v2.106h1.819v1.171h-1.819v3.3c0,.637.246.884.909.884a2.7,2.7,0,0,0,.885-.156v1.235a4.624,4.624,0,0,1-1.262.183c-1.312,0-2-.625-2-1.821Z" />
      <path
         id="path70"
         d="M305.05,578.956a1.4,1.4,0,0,0,1.431,1.559,1.645,1.645,0,0,0,1.43-.8v-4.629h1.468v6.513h-1.468v-1.079a2.383,2.383,0,0,1-2.081,1.184,2.185,2.185,0,0,1-2.249-2.327v-4.291h1.469Z" />
      <path
         id="path72"
         d="M310.862,579.722c0-1.17.949-1.911,2.483-1.911a4.028,4.028,0,0,1,1.755.4V577.5c0-.859-.494-1.3-1.5-1.3a4.5,4.5,0,0,0-1.9.508l-.519-1.067a6.25,6.25,0,0,1,2.7-.663c1.689,0,2.665.859,2.665,2.366v4.251H315.1v-.663a2.721,2.721,0,0,1-1.938.768A2.054,2.054,0,0,1,310.862,579.722Zm2.7.949a2.323,2.323,0,0,0,1.534-.533v-1.066a3.373,3.373,0,0,0-1.508-.312c-.832,0-1.352.365-1.352.936C312.24,580.294,312.76,580.671,313.566,580.671Z" />
      <path
         id="path74"
         d="M319.805,581.594h-1.469v-9.3l1.469-.247Z" />
      <path
         id="path76"
         d="M327.514,574.977a3.375,3.375,0,1,1-3.275,3.367A3.252,3.252,0,0,1,327.514,574.977Zm1.82,3.38a1.841,1.841,0,1,0-3.639,0,1.837,1.837,0,1,0,3.639,0Z" />
      <path
         id="path78"
         d="M332.311,575.081h1.469V576.5a1.931,1.931,0,0,1,1.794-1.534,1.741,1.741,0,0,1,.637.13v1.287a2.071,2.071,0,0,0-.806-.156,1.787,1.787,0,0,0-1.625,1.079v4.29h-1.469Z" />
      <path
         id="path80"
         d="M340.345,575.081h1.443v.936a2.454,2.454,0,0,1,2.028-.988,3.126,3.126,0,0,1,2.951,3.315,3.157,3.157,0,0,1-3.055,3.316,2.436,2.436,0,0,1-1.9-.846v3.536h-1.469Zm1.469,1.911v2.718a2,2,0,0,0,1.56.714,2.085,2.085,0,0,0,0-4.16A1.912,1.912,0,0,0,341.814,576.992Z" />
      <path
         id="path82"
         d="M348.287,572.3l1.469-.247v4.1a2.365,2.365,0,0,1,2.068-1.17,2.192,2.192,0,0,1,2.249,2.327v4.29H352.6V577.72a1.4,1.4,0,0,0-1.431-1.56,1.671,1.671,0,0,0-1.417.78v4.654h-1.469Z" />
      <path
         id="path84"
         d="M357.388,581.633l-2.457-6.552h1.638l1.651,4.837,1.82-4.837h1.6l-3.094,7.58a2.2,2.2,0,0,1-2.314,1.716,3.165,3.165,0,0,1-.741-.091v-1.262a5.46,5.46,0,0,0,.572.053,1.039,1.039,0,0,0,1.053-.755Z" />
      <path
         id="path86"
         d="M362.808,579.852a3.759,3.759,0,0,0,2.094.741c.779,0,1.312-.351,1.312-.871,0-.4-.272-.624-.9-.741l-1.157-.194c-1.261-.235-1.885-.82-1.885-1.8,0-1.222,1-2.015,2.521-2.015a4.586,4.586,0,0,1,2.562.78l-.69.962a3.565,3.565,0,0,0-1.963-.624c-.675,0-1.118.286-1.118.767,0,.416.235.6.923.715l1.145.208c1.3.247,1.923.845,1.923,1.82a2.386,2.386,0,0,1-2.652,2.119,4.364,4.364,0,0,1-2.808-.884Z" />
      <path
         id="path88"
         d="M368.748,572.858a.917.917,0,0,1,1.834,0,.917.917,0,0,1-1.834,0Zm1.652,8.736h-1.469v-6.513H370.4Z" />
      <path
         id="path90"
         d="M376.862,579.71l.883.883a3.385,3.385,0,0,1-2.547,1.131,3.368,3.368,0,0,1,0-6.734,3.508,3.508,0,0,1,2.6,1.092l-.91.949a2.153,2.153,0,0,0-1.638-.767,2.089,2.089,0,0,0,.039,4.16A2.007,2.007,0,0,0,376.862,579.71Z" />
      <path
         id="path92"
         d="M378.681,579.722c0-1.17.949-1.911,2.483-1.911a4.025,4.025,0,0,1,1.755.4V577.5c0-.859-.494-1.3-1.5-1.3a4.5,4.5,0,0,0-1.9.508l-.52-1.067a6.253,6.253,0,0,1,2.7-.663c1.691,0,2.665.859,2.665,2.366v4.251h-1.456v-.663a2.72,2.72,0,0,1-1.937.768A2.055,2.055,0,0,1,378.681,579.722Zm2.7.949a2.323,2.323,0,0,0,1.534-.533v-1.066a3.368,3.368,0,0,0-1.508-.312c-.832,0-1.352.365-1.352.936C380.059,580.294,380.579,580.671,381.385,580.671Z" />
      <path
         id="path94"
         d="M387.625,581.594h-1.468v-9.3l1.468-.247Z" />
      <path
         id="path96"
         d="M392.357,575.081h1.469v1.066a2.364,2.364,0,0,1,2.067-1.17,2.192,2.192,0,0,1,2.249,2.327v4.29h-1.469V577.72a1.4,1.4,0,0,0-1.43-1.56,1.67,1.67,0,0,0-1.417.78v4.654h-1.469Z" />
      <path
         id="path98"
         d="M402.939,581.724a3.311,3.311,0,0,1-3.315-3.38,3.208,3.208,0,0,1,3.172-3.367,3.126,3.126,0,0,1,3.081,3.355v.363h-4.81a1.989,1.989,0,0,0,1.95,1.781,2.114,2.114,0,0,0,1.547-.611l.963.9A3.771,3.771,0,0,1,402.939,581.724Zm-1.846-3.926h3.394a1.784,1.784,0,0,0-1.7-1.625A1.75,1.75,0,0,0,401.093,577.8Z" />
      <path
         id="path100"
         d="M407.983,576.252H406.67v-1.171h1.313v-1.794l1.47-.312v2.106h1.819v1.171h-1.819v3.3c0,.637.247.884.909.884a2.7,2.7,0,0,0,.884-.156v1.235a4.622,4.622,0,0,1-1.261.183c-1.313,0-2-.625-2-1.821Z" />
      <path
         id="path102"
         d="M413.832,581.594l-1.754-6.513h1.4l1.143,4.6,1.34-4.6h1.248l1.339,4.615,1.131-4.615h1.378l-1.755,6.513h-1.417l-1.313-4.589-1.313,4.589Z" />
      <path
         id="path104"
         d="M425.117,574.977a3.375,3.375,0,1,1-3.276,3.367A3.252,3.252,0,0,1,425.117,574.977Zm1.82,3.38a1.841,1.841,0,1,0-3.64,0,1.838,1.838,0,1,0,3.64,0Z" />
      <path
         id="path106"
         d="M429.913,575.081h1.469V576.5a1.933,1.933,0,0,1,1.794-1.534,1.751,1.751,0,0,1,.638.13v1.287a2.076,2.076,0,0,0-.807-.156,1.787,1.787,0,0,0-1.625,1.079v4.29h-1.469Z" />
      <path
         id="path108"
         d="M435.023,572.3l1.469-.247v5.811l2.7-2.782h1.677L437.9,578.1l3.159,3.5H439.17l-2.678-3v3h-1.469Z" />
    </g>
    <line
       id="line112"
       y2="577.601"
       x2="239.976"
       y1="577.601"
       x1="270.434"
       class="cls-1" />
  </g>
  <g
     id="g120">
    <rect
       id="rect116"
       height="41.333"
       width="145.822"
       y="114.738"
       x="330.426"
       class="cls-5" />
    <path
       id="path118"
       d="M475.748,115.238v40.333H330.926V115.238H475.748m1-1H329.926v42.333H476.748V114.238Z"
       class="cls-6" />
  </g>
  <g
     id="g152">
    <path
       id="path122"
       d="M368.119,122.105h4.421a2.954,2.954,0,0,1,3.211,2.9,2.737,2.737,0,0,1-1.69,2.548l1.911,3.654h-2.5l-1.651-3.342h-1.469v3.342h-2.237Zm2.237,1.846v2.158h1.976a1.082,1.082,0,1,0,0-2.158Z" />
    <path
       id="path124"
       d="M379.937,124.393a3.472,3.472,0,1,1-3.5,3.471A3.415,3.415,0,0,1,379.937,124.393Zm1.456,3.471a1.47,1.47,0,1,0-2.9,0,1.467,1.467,0,1,0,2.9,0Z" />
    <path
       id="path126"
       d="M386.839,128.411a1.117,1.117,0,0,0,1.118,1.248,1.357,1.357,0,0,0,1.119-.559v-4.6h2.1v6.708h-2.1v-1.092a2.477,2.477,0,0,1-2.12,1.2,2.169,2.169,0,0,1-2.223-2.288V124.5h2.106Z" />
    <path
       id="path128"
       d="M393.7,126.123h-1.3V124.5h1.3v-1.86l2.107-.428V124.5H397.6v1.625H395.81v2.6c0,.6.233.8.884.8a2.816,2.816,0,0,0,.857-.143v1.7a5.812,5.812,0,0,1-1.442.208c-1.586,0-2.406-.728-2.406-2.157Z" />
    <path
       id="path130"
       d="M402.01,131.336a3.469,3.469,0,0,1-3.535-3.472,3.365,3.365,0,0,1,3.38-3.484,3.3,3.3,0,0,1,3.3,3.562v.456h-4.616a1.612,1.612,0,0,0,1.574,1.261,1.664,1.664,0,0,0,1.326-.559l1.39,1.156A3.908,3.908,0,0,1,402.01,131.336Zm-1.469-4.134h2.665a1.4,1.4,0,0,0-1.365-1.183A1.332,1.332,0,0,0,400.541,127.2Z" />
    <path
       id="path132"
       d="M406.47,124.5h2.106v1.521c.429-1.119,1.027-1.652,1.82-1.652a1.437,1.437,0,0,1,.7.169v1.807a2.307,2.307,0,0,0-.988-.208,1.854,1.854,0,0,0-1.534.832v4.239H406.47Z" />
    <path
       id="path134"
       d="M415.2,122.105h4.447a2.974,2.974,0,1,1,0,5.929h-2.21v3.172H415.2Zm2.237,1.846v2.3h1.807c.91,0,1.352-.494,1.352-1.157s-.442-1.144-1.339-1.144Z" />
    <path
       id="path136"
       d="M427.114,124.393a3.472,3.472,0,1,1-3.5,3.471A3.414,3.414,0,0,1,427.114,124.393Zm1.456,3.471a1.471,1.471,0,1,0-2.9,0,1.467,1.467,0,1,0,2.9,0Z" />
    <path
       id="path138"
       d="M436.667,130.335a2.527,2.527,0,0,1-1.975.91,3.2,3.2,0,0,1-2.965-3.407,3.235,3.235,0,0,1,3.121-3.379,2.349,2.349,0,0,1,1.794.8V121.91l2.105-.324v9.62h-2.08Zm-1.273-.833a1.63,1.63,0,0,0,1.248-.533v-2.261a1.709,1.709,0,0,0-1.248-.52,1.658,1.658,0,0,0,0,3.314Z" />
    <path
       id="path140"
       d="M385.585,140.293h1.469v1.417a1.934,1.934,0,0,1,1.794-1.535,1.772,1.772,0,0,1,.638.13v1.287a2.076,2.076,0,0,0-.807-.155,1.786,1.786,0,0,0-1.625,1.079v4.29h-1.469Z" />
    <path
       id="path142"
       d="M393.359,140.189a3.375,3.375,0,1,1-3.276,3.367A3.252,3.252,0,0,1,393.359,140.189Zm1.82,3.379a1.841,1.841,0,1,0-3.64,0,1.838,1.838,0,1,0,3.64,0Z" />
    <path
       id="path144"
       d="M399.586,144.167a1.4,1.4,0,0,0,1.431,1.56,1.642,1.642,0,0,0,1.43-.807v-4.627h1.468v6.513h-1.468v-1.079a2.383,2.383,0,0,1-2.08,1.183,2.184,2.184,0,0,1-2.249-2.327v-4.29h1.468Z" />
    <path
       id="path146"
       d="M406.528,141.462h-1.313v-1.169h1.313V138.5l1.469-.312v2.106h1.82v1.169H408v3.3c0,.637.247.883.91.883a2.694,2.694,0,0,0,.884-.155v1.235a4.621,4.621,0,0,1-1.261.182c-1.313,0-2-.624-2-1.821Z" />
    <path
       id="path148"
       d="M414.029,146.936a3.311,3.311,0,0,1-3.315-3.38,3.207,3.207,0,0,1,3.172-3.367,3.126,3.126,0,0,1,3.081,3.354v.364h-4.81a1.989,1.989,0,0,0,1.95,1.781,2.116,2.116,0,0,0,1.547-.611l.963.9A3.771,3.771,0,0,1,414.029,146.936Zm-1.846-3.927h3.394a1.785,1.785,0,0,0-1.7-1.625A1.75,1.75,0,0,0,412.183,143.009Z" />
    <path
       id="path150"
       d="M421.062,146.806h-1.417v-7.618l-1.611.7v-1.261l2.131-.922h.9Z" />
  </g>
  <g
     id="g164">
    <path
       id="path154"
       d="M383.741,93.9l4.043,5.513-.04-5.513h2.107V103h-1.977L383.7,97.305l.039,5.694h-2.107V93.9Z" />
    <path
       id="path156"
       d="M394.882,96.187a3.471,3.471,0,1,1-3.5,3.471A3.415,3.415,0,0,1,394.882,96.187Zm1.456,3.471a1.47,1.47,0,1,0-2.9,0,1.467,1.467,0,1,0,2.9,0Z" />
    <path
       id="path158"
       d="M404.436,102.128a2.531,2.531,0,0,1-1.976.91,3.2,3.2,0,0,1-2.965-3.406,3.235,3.235,0,0,1,3.122-3.38,2.351,2.351,0,0,1,1.794.806V93.7l2.105-.325V103h-2.08Zm-1.274-.832a1.634,1.634,0,0,0,1.249-.533V98.5a1.711,1.711,0,0,0-1.249-.52,1.659,1.659,0,0,0,0,3.315Z" />
    <path
       id="path160"
       d="M411.392,103.129a3.469,3.469,0,0,1-3.537-3.471,3.366,3.366,0,0,1,3.381-3.484,3.3,3.3,0,0,1,3.3,3.562v.455h-4.615a1.611,1.611,0,0,0,1.573,1.261,1.662,1.662,0,0,0,1.327-.559l1.39,1.157A3.907,3.907,0,0,1,411.392,103.129ZM409.922,99h2.665a1.4,1.4,0,0,0-1.365-1.183A1.333,1.333,0,0,0,409.922,99Z" />
    <path
       id="path162"
       d="M421.8,103.129a4.753,4.753,0,0,1-3.589-1.469l1.353-1.248a2.579,2.579,0,0,0,2.21.962c.988,0,1.637-.442,1.637-1.118,0-.572-.467-.936-1.195-.936h-1.17V97.669h.962c.74,0,1.183-.377,1.183-1.014s-.612-1.118-1.43-1.118a2.534,2.534,0,0,0-2.119,1.04l-1.365-1.235a4.778,4.778,0,0,1,3.562-1.586c1.988,0,3.367,1.079,3.367,2.626a2.2,2.2,0,0,1-1.716,2.08,2.11,2.11,0,0,1,1.95,1.963C425.444,102,423.923,103.129,421.8,103.129Z" />
  </g>
  <rect
     id="rect166"
     height="147.734"
     width="298.337"
     y="187.757"
     x="254.169"
     class="cls-2" />
  <g
     id="g178">
    <path
       id="path168"
       d="M385.352,201.393l4.043,5.513-.039-5.513h2.106v9.1h-1.976l-4.173-5.695.039,5.695h-2.107v-9.1Z" />
    <path
       id="path170"
       d="M396.494,203.681a3.472,3.472,0,1,1-3.5,3.471A3.415,3.415,0,0,1,396.494,203.681Zm1.456,3.471a1.47,1.47,0,1,0-2.9,0,1.467,1.467,0,1,0,2.9,0Z" />
    <path
       id="path172"
       d="M406.047,209.623a2.527,2.527,0,0,1-1.975.91,3.2,3.2,0,0,1-2.965-3.406,3.235,3.235,0,0,1,3.121-3.38,2.349,2.349,0,0,1,1.794.8V201.2l2.105-.324v9.62h-2.08Zm-1.273-.832a1.631,1.631,0,0,0,1.248-.534V206a1.709,1.709,0,0,0-1.248-.52,1.659,1.659,0,0,0,0,3.315Z" />
    <path
       id="path174"
       d="M413,210.624a3.47,3.47,0,0,1-3.537-3.472,3.366,3.366,0,0,1,3.381-3.483,3.3,3.3,0,0,1,3.3,3.562v.455h-4.615a1.609,1.609,0,0,0,1.573,1.261,1.661,1.661,0,0,0,1.326-.559l1.391,1.156A3.906,3.906,0,0,1,413,210.624Zm-1.469-4.134H414.2a1.4,1.4,0,0,0-1.366-1.183A1.332,1.332,0,0,0,411.534,206.49Z" />
    <path
       id="path176"
       d="M423.649,210.494h-2v-7.021l-1.794.741v-1.768l2.535-1.053h1.261Z" />
  </g>
  <g
     id="g188">
    <path
       id="path180"
       d="M65.647,256.014h2.236v3.536h3.679v-3.536H73.8v9.1H71.562v-3.6H67.883v3.6H65.647Z" />
    <path
       id="path182"
       d="M78.7,258.3a3.472,3.472,0,1,1-3.5,3.471A3.414,3.414,0,0,1,78.7,258.3Zm1.456,3.471a1.47,1.47,0,1,0-2.9,0,1.467,1.467,0,1,0,2.9,0Z" />
    <path
       id="path184"
       d="M83.925,263.022a4.344,4.344,0,0,0,2.158.676c.6,0,.962-.208.962-.546,0-.26-.2-.4-.624-.482l-1.287-.233c-1.3-.247-1.976-.91-1.976-1.95,0-1.379,1.053-2.2,2.808-2.2a5.383,5.383,0,0,1,2.73.767l-.962,1.339a3.785,3.785,0,0,0-1.924-.572c-.507,0-.806.169-.806.468,0,.273.169.39.689.481l1.261.233c1.326.247,2.028.924,2.015,1.938.013,1.313-1.235,2.3-2.886,2.3A5.483,5.483,0,0,1,83,264.426Z" />
    <path
       id="path186"
       d="M90.945,260.032h-1.3v-1.625h1.3v-1.86l2.106-.428v2.288h1.794v1.625H93.051v2.6c0,.6.234.806.884.806a2.793,2.793,0,0,0,.857-.144V265a5.845,5.845,0,0,1-1.442.208c-1.586,0-2.405-.728-2.405-2.158Z" />
  </g>
  <rect
     id="rect190"
     height="205.366"
     width="298.337"
     y="349.674"
     x="254.169"
     class="cls-2" />
  <g
     id="g196">
    <rect
       id="rect192"
       height="41.333"
       width="145.822"
       y="385.263"
       x="330.426"
       class="cls-5" />
    <path
       id="path194"
       d="M475.748,385.763V426.1H330.926V385.763H475.748m1-1H329.926V427.1H476.748V384.763Z"
       class="cls-7" />
  </g>
  <g
     id="g206">
    <path
       id="path198"
       d="M387.153,401.959h4.069a2.823,2.823,0,1,1,0,5.63h-2.509v3.471h-1.56Zm1.56,1.314v3.042h2.262a1.531,1.531,0,1,0,.013-3.042Z" />
    <path
       id="path200"
       d="M398.423,404.442a3.375,3.375,0,1,1-3.275,3.368A3.253,3.253,0,0,1,398.423,404.442Zm1.821,3.38a1.841,1.841,0,1,0-3.64,0,1.838,1.838,0,1,0,3.64,0Z" />
    <path
       id="path202"
       d="M407.914,410.189a2.509,2.509,0,0,1-2,.936,3.333,3.333,0,0,1,.091-6.631,2.486,2.486,0,0,1,1.9.859v-3.588l1.469-.247v9.542h-1.456Zm-1.56-.3a1.949,1.949,0,0,0,1.547-.715v-2.743a2.017,2.017,0,0,0-1.547-.7,2.085,2.085,0,0,0,0,4.16Z" />
    <path
       id="path204"
       d="M413.868,410.032l3.731-3.9a2.442,2.442,0,0,0,.884-1.717,1.484,1.484,0,0,0-1.664-1.339,3.285,3.285,0,0,0-2.354,1.118l-.8-.974a4.6,4.6,0,0,1,3.2-1.379c1.781,0,3,1.015,3,2.483a3.473,3.473,0,0,1-1.3,2.535l-2.912,3,4.381-.025v1.222h-6.162Z" />
  </g>
  <g
     id="g292">
    <path
       id="path208"
       d="M25.161,176.788H29.2a2.773,2.773,0,0,1,3.043,2.756,2.588,2.588,0,0,1-1.794,2.5l1.911,3.848H30.634l-1.755-3.64H26.721v3.64h-1.56Zm1.56,1.313V181h2.353a1.456,1.456,0,1,0,0-2.9Z" />
    <path
       id="path210"
       d="M36.367,179.271a3.375,3.375,0,1,1-3.276,3.367A3.252,3.252,0,0,1,36.367,179.271Zm1.82,3.379a1.841,1.841,0,1,0-3.64,0,1.838,1.838,0,1,0,3.64,0Z" />
    <path
       id="path212"
       d="M42.593,183.249a1.4,1.4,0,0,0,1.431,1.56A1.64,1.64,0,0,0,45.453,184v-4.627h1.469v6.513H45.453v-1.079a2.381,2.381,0,0,1-2.08,1.183,2.185,2.185,0,0,1-2.249-2.327v-4.29h1.469Z" />
    <path
       id="path214"
       d="M49.536,180.544H48.223v-1.169h1.313v-1.794l1.469-.312v2.106h1.82v1.169h-1.82v3.3c0,.637.247.884.909.884a2.7,2.7,0,0,0,.885-.156v1.235a4.622,4.622,0,0,1-1.262.182c-1.312,0-2-.624-2-1.821Z" />
    <path
       id="path216"
       d="M57.036,186.018a3.31,3.31,0,0,1-3.314-3.38,3.207,3.207,0,0,1,3.172-3.367,3.126,3.126,0,0,1,3.081,3.354v.364H55.164a1.991,1.991,0,0,0,1.951,1.781,2.112,2.112,0,0,0,1.546-.611l.963.9A3.769,3.769,0,0,1,57.036,186.018Zm-1.845-3.927h3.393a1.784,1.784,0,0,0-1.7-1.625A1.75,1.75,0,0,0,55.191,182.091Z" />
    <path
       id="path218"
       d="M61.469,179.375h1.469v1.417a1.933,1.933,0,0,1,1.794-1.535,1.762,1.762,0,0,1,.637.13v1.287a2.071,2.071,0,0,0-.806-.155,1.786,1.786,0,0,0-1.625,1.079v4.29H61.469Z" />
    <path
       id="path220"
       d="M69.5,179.375h1.444v.936a2.452,2.452,0,0,1,2.027-.989,3.332,3.332,0,0,1-.1,6.631,2.435,2.435,0,0,1-1.9-.845v3.536H69.5Zm1.469,1.911V184a2,2,0,0,0,1.561.716,2.085,2.085,0,0,0,0-4.16A1.914,1.914,0,0,0,70.972,181.286Z" />
    <path
       id="path222"
       d="M80.461,179.271a3.375,3.375,0,1,1-3.275,3.367A3.253,3.253,0,0,1,80.461,179.271Zm1.821,3.379a1.841,1.841,0,1,0-3.64,0,1.838,1.838,0,1,0,3.64,0Z" />
    <path
       id="path224"
       d="M89.953,185.017a2.509,2.509,0,0,1-2,.936,3.333,3.333,0,0,1,.09-6.631,2.483,2.483,0,0,1,1.9.859v-3.589l1.47-.247v9.543H89.953Zm-1.561-.3A1.947,1.947,0,0,0,89.939,184v-2.743a2.02,2.02,0,0,0-1.547-.7,2.085,2.085,0,0,0,0,4.16Z" />
    <path
       id="path226"
       d="M93.331,184.146a3.759,3.759,0,0,0,2.094.741c.779,0,1.313-.351,1.313-.871,0-.4-.273-.624-.9-.742l-1.157-.194c-1.261-.234-1.885-.819-1.885-1.794,0-1.222,1-2.015,2.522-2.015a4.59,4.59,0,0,1,2.561.779l-.689.963a3.56,3.56,0,0,0-1.963-.624c-.676,0-1.118.285-1.118.767,0,.416.234.6.923.715l1.144.208c1.3.247,1.924.844,1.924,1.819a2.386,2.386,0,0,1-2.652,2.12,4.368,4.368,0,0,1-2.808-.884Z" />
    <path
       id="path228"
       d="M102.379,179.375h1.469v1.417a1.934,1.934,0,0,1,1.794-1.535,1.772,1.772,0,0,1,.638.13v1.287a2.079,2.079,0,0,0-.807-.155,1.786,1.786,0,0,0-1.625,1.079v4.29h-1.469Z" />
    <path
       id="path230"
       d="M108.866,183.249a1.4,1.4,0,0,0,1.43,1.56,1.642,1.642,0,0,0,1.43-.807v-4.627H113.2v6.513h-1.469v-1.079a2.381,2.381,0,0,1-2.08,1.183,2.185,2.185,0,0,1-2.249-2.327v-4.29h1.469Z" />
    <path
       id="path232"
       d="M115,179.375h1.469v1.065a2.363,2.363,0,0,1,2.067-1.169,2.191,2.191,0,0,1,2.249,2.327v4.29h-1.468v-3.874a1.4,1.4,0,0,0-1.431-1.56,1.672,1.672,0,0,0-1.417.779v4.655H115Z" />
    <path
       id="path234"
       d="M125.311,177.151a.917.917,0,0,1,1.833,0,.917.917,0,0,1-1.833,0Zm1.65,8.737h-1.468v-6.513h1.468Z" />
    <path
       id="path236"
       d="M128.769,179.375h1.469v1.065a2.363,2.363,0,0,1,2.067-1.169,2.191,2.191,0,0,1,2.249,2.327v4.29h-1.469v-3.874a1.4,1.4,0,0,0-1.43-1.56,1.671,1.671,0,0,0-1.417.779v4.655h-1.469Z" />
    <path
       id="path238"
       d="M139.363,184.146a3.754,3.754,0,0,0,2.093.741c.78,0,1.313-.351,1.313-.871,0-.4-.273-.624-.9-.742l-1.157-.194c-1.261-.234-1.885-.819-1.885-1.794,0-1.222,1-2.015,2.522-2.015a4.59,4.59,0,0,1,2.561.779l-.689.963a3.56,3.56,0,0,0-1.963-.624c-.676,0-1.118.285-1.118.767,0,.416.234.6.923.715l1.144.208c1.3.247,1.924.844,1.924,1.819a2.386,2.386,0,0,1-2.652,2.12,4.37,4.37,0,0,1-2.808-.884Z" />
    <path
       id="path240"
       d="M148.567,186.018a3.311,3.311,0,0,1-3.315-3.38,3.208,3.208,0,0,1,3.172-3.367,3.126,3.126,0,0,1,3.081,3.354v.364H146.7a1.989,1.989,0,0,0,1.95,1.781,2.116,2.116,0,0,0,1.547-.611l.963.9A3.769,3.769,0,0,1,148.567,186.018Zm-1.846-3.927h3.394a1.783,1.783,0,0,0-1.7-1.625A1.75,1.75,0,0,0,146.721,182.091Z" />
    <path
       id="path242"
       d="M154.469,185.888H153v-9.3l1.469-.247Z" />
    <path
       id="path244"
       d="M159.291,186.018a3.31,3.31,0,0,1-3.314-3.38,3.208,3.208,0,0,1,3.172-3.367,3.126,3.126,0,0,1,3.081,3.354v.364h-4.811a1.991,1.991,0,0,0,1.95,1.781,2.113,2.113,0,0,0,1.547-.611l.963.9A3.767,3.767,0,0,1,159.291,186.018Zm-1.845-3.927h3.393a1.783,1.783,0,0,0-1.7-1.625A1.75,1.75,0,0,0,157.446,182.091Z" />
    <path
       id="path246"
       d="M168.418,184l.884.885a3.388,3.388,0,0,1-2.548,1.131,3.368,3.368,0,0,1,0-6.734,3.506,3.506,0,0,1,2.6,1.092l-.91.949a2.149,2.149,0,0,0-1.638-.767,2.089,2.089,0,0,0,.039,4.16A2,2,0,0,0,168.418,184Z" />
    <path
       id="path248"
       d="M171.5,180.544h-1.312v-1.169H171.5v-1.794l1.47-.312v2.106h1.819v1.169h-1.819v3.3c0,.637.247.884.909.884a2.7,2.7,0,0,0,.885-.156v1.235a4.622,4.622,0,0,1-1.262.182c-1.312,0-2-.624-2-1.821Z" />
    <path
       id="path250"
       d="M179,186.018a3.31,3.31,0,0,1-3.314-3.38,3.207,3.207,0,0,1,3.172-3.367,3.126,3.126,0,0,1,3.081,3.354v.364h-4.811a1.991,1.991,0,0,0,1.951,1.781,2.112,2.112,0,0,0,1.546-.611l.963.9A3.769,3.769,0,0,1,179,186.018Zm-1.845-3.927h3.393a1.784,1.784,0,0,0-1.7-1.625A1.75,1.75,0,0,0,177.154,182.091Z" />
    <path
       id="path252"
       d="M188.126,185.017a2.506,2.506,0,0,1-2,.936,3.333,3.333,0,0,1,.091-6.631,2.483,2.483,0,0,1,1.9.859v-3.589l1.469-.247v9.543h-1.456Zm-1.56-.3a1.947,1.947,0,0,0,1.547-.716v-2.743a2.02,2.02,0,0,0-1.547-.7,2.085,2.085,0,0,0,0,4.16Z" />
    <path
       id="path254"
       d="M24.8,192.752a.917.917,0,0,1,1.833,0,.917.917,0,0,1-1.833,0Zm1.651,8.736H24.979v-6.513h1.469Z" />
    <path
       id="path256"
       d="M28.255,194.975h1.469v1.066a2.361,2.361,0,0,1,2.067-1.17A2.191,2.191,0,0,1,34.04,197.2v4.29H32.572v-3.874a1.4,1.4,0,0,0-1.431-1.56,1.671,1.671,0,0,0-1.417.78v4.654H28.255Z" />
    <path
       id="path258"
       d="M36.509,194.975v-1.158a2,2,0,0,1,2.249-2.184,3.582,3.582,0,0,1,.976.13v1.248a3.047,3.047,0,0,0-.781-.1c-.675,0-.975.3-.975.935v1.132h1.756v1.17H37.978v5.343H36.509v-5.343H35.1v-1.17Z" />
    <path
       id="path260"
       d="M40.969,194.975h1.469v1.417a1.933,1.933,0,0,1,1.794-1.535,1.763,1.763,0,0,1,.637.131v1.286a2.071,2.071,0,0,0-.806-.155,1.787,1.787,0,0,0-1.625,1.079v4.29H40.969Z" />
    <path
       id="path262"
       d="M45.532,199.616c0-1.17.949-1.911,2.483-1.911a4.028,4.028,0,0,1,1.755.4v-.715c0-.858-.494-1.3-1.5-1.3a4.514,4.514,0,0,0-1.9.507l-.519-1.066a6.25,6.25,0,0,1,2.7-.663c1.689,0,2.665.858,2.665,2.366v4.251H49.77v-.663a2.72,2.72,0,0,1-1.938.767A2.053,2.053,0,0,1,45.532,199.616Zm2.7.949a2.323,2.323,0,0,0,1.534-.533v-1.066a3.373,3.373,0,0,0-1.508-.312c-.832,0-1.352.364-1.352.936C46.91,200.188,47.43,200.565,48.236,200.565Z" />
    <path
       id="path264"
       d="M53.11,199.746a3.754,3.754,0,0,0,2.093.741c.78,0,1.313-.351,1.313-.871,0-.4-.272-.624-.9-.741l-1.157-.195c-1.26-.234-1.884-.819-1.884-1.794,0-1.222,1-2.015,2.521-2.015a4.6,4.6,0,0,1,2.562.779l-.69.963a3.56,3.56,0,0,0-1.963-.624c-.676,0-1.118.285-1.118.766,0,.416.234.6.923.716l1.144.208c1.3.247,1.924.845,1.924,1.82a2.386,2.386,0,0,1-2.652,2.119,4.37,4.37,0,0,1-2.808-.884Z" />
    <path
       id="path266"
       d="M59.909,196.145H58.6v-1.17h1.313v-1.794l1.469-.312v2.106H63.2v1.17h-1.82v3.3c0,.637.247.884.909.884a2.7,2.7,0,0,0,.885-.156v1.235a4.621,4.621,0,0,1-1.261.182c-1.313,0-2-.624-2-1.82Z" />
    <path
       id="path268"
       d="M64.485,194.975h1.468v1.417a1.934,1.934,0,0,1,1.794-1.535,1.772,1.772,0,0,1,.638.131v1.286a2.072,2.072,0,0,0-.807-.155,1.789,1.789,0,0,0-1.625,1.079v4.29H64.485Z" />
    <path
       id="path270"
       d="M70.972,198.849a1.4,1.4,0,0,0,1.431,1.56,1.641,1.641,0,0,0,1.429-.806v-4.628H75.3v6.513H73.832v-1.079a2.381,2.381,0,0,1-2.08,1.183,2.185,2.185,0,0,1-2.249-2.327v-4.29h1.469Z" />
    <path
       id="path272"
       d="M81.762,199.6l.884.884a3.388,3.388,0,0,1-2.548,1.131,3.368,3.368,0,0,1,0-6.735,3.507,3.507,0,0,1,2.6,1.093l-.911.949a2.151,2.151,0,0,0-1.637-.767,2.089,2.089,0,0,0,.039,4.16A2,2,0,0,0,81.762,199.6Z" />
    <path
       id="path274"
       d="M84.842,196.145H83.53v-1.17h1.312v-1.794l1.47-.312v2.106h1.819v1.17H86.312v3.3c0,.637.247.884.909.884a2.7,2.7,0,0,0,.885-.156v1.235a4.622,4.622,0,0,1-1.262.182c-1.312,0-2-.624-2-1.82Z" />
    <path
       id="path276"
       d="M90.848,198.849a1.4,1.4,0,0,0,1.431,1.56,1.641,1.641,0,0,0,1.429-.806v-4.628h1.469v6.513H93.708v-1.079a2.381,2.381,0,0,1-2.08,1.183,2.185,2.185,0,0,1-2.249-2.327v-4.29h1.469Z" />
    <path
       id="path278"
       d="M96.985,194.975h1.468v1.417a1.934,1.934,0,0,1,1.794-1.535,1.772,1.772,0,0,1,.638.131v1.286a2.072,2.072,0,0,0-.807-.155,1.789,1.789,0,0,0-1.625,1.079v4.29H96.985Z" />
    <path
       id="path280"
       d="M104.8,201.618a3.31,3.31,0,0,1-3.314-3.38,3.208,3.208,0,0,1,3.172-3.367,3.126,3.126,0,0,1,3.081,3.354v.364h-4.811a1.99,1.99,0,0,0,1.95,1.781,2.113,2.113,0,0,0,1.547-.611l.963.9A3.767,3.767,0,0,1,104.8,201.618Zm-1.845-3.926h3.393a1.784,1.784,0,0,0-1.7-1.626A1.75,1.75,0,0,0,102.952,197.692Z" />
    <path
       id="path282"
       d="M112.156,194.975h1.468v1.066a2.364,2.364,0,0,1,2.068-1.17,2.192,2.192,0,0,1,2.249,2.327v4.29h-1.469v-3.874a1.4,1.4,0,0,0-1.431-1.56,1.671,1.671,0,0,0-1.417.78v4.654h-1.468Z" />
    <path
       id="path284"
       d="M122.7,194.871a3.375,3.375,0,1,1-3.276,3.367A3.252,3.252,0,0,1,122.7,194.871Zm1.82,3.38a1.841,1.841,0,1,0-3.64,0,1.838,1.838,0,1,0,3.64,0Z" />
    <path
       id="path286"
       d="M132.188,200.617a2.508,2.508,0,0,1-2,.936,3.333,3.333,0,0,1,.091-6.631,2.479,2.479,0,0,1,1.9.859v-3.589l1.47-.247v9.543h-1.456Zm-1.561-.3a1.948,1.948,0,0,0,1.547-.715V196.86a2.019,2.019,0,0,0-1.547-.7,2.085,2.085,0,0,0,0,4.16Z" />
    <path
       id="path288"
       d="M138.479,201.618a3.311,3.311,0,0,1-3.315-3.38,3.208,3.208,0,0,1,3.172-3.367,3.126,3.126,0,0,1,3.081,3.354v.364h-4.81a1.989,1.989,0,0,0,1.95,1.781,2.114,2.114,0,0,0,1.547-.611l.963.9A3.767,3.767,0,0,1,138.479,201.618Zm-1.846-3.926h3.394a1.784,1.784,0,0,0-1.7-1.626A1.751,1.751,0,0,0,136.633,197.692Z" />
    <path
       id="path290"
       d="M143.081,199.746a3.759,3.759,0,0,0,2.094.741c.779,0,1.313-.351,1.313-.871,0-.4-.273-.624-.9-.741l-1.157-.195c-1.261-.234-1.885-.819-1.885-1.794,0-1.222,1-2.015,2.522-2.015a4.59,4.59,0,0,1,2.561.779l-.689.963a3.56,3.56,0,0,0-1.963-.624c-.676,0-1.118.285-1.118.766,0,.416.234.6.923.716l1.144.208c1.3.247,1.924.845,1.924,1.82a2.386,2.386,0,0,1-2.652,2.119,4.368,4.368,0,0,1-2.808-.884Z" />
  </g>
  <g
     id="g310">
    <path
       id="path294"
       d="M154.272,238.346h1.287l-.693,3.246h3.762l.694-3.246h1.287l-1.64,7.7h-1.287l.7-3.3h-3.763l-.7,3.3h-1.287Z" />
    <path
       id="path296"
       d="M161.73,238.346h6.337l-.254,1.144h-2.508l-1.4,6.557h-1.3l1.4-6.557h-2.53Z" />
    <path
       id="path298"
       d="M168.726,238.346h6.337l-.254,1.144H172.3l-1.4,6.557h-1.3l1.4-6.557h-2.53Z" />
    <path
       id="path300"
       d="M176.249,238.346h3.07a2.091,2.091,0,0,1,2.332,2.135,2.678,2.678,0,0,1-2.849,2.629h-2.277l-.627,2.937H174.61Zm1.057,1.112-.551,2.574h1.959a1.475,1.475,0,0,0,1.628-1.464c0-.692-.484-1.11-1.3-1.11Z" />
    <path
       id="path302"
       d="M181.991,244.969l-1.628,2.905h-.9l1.287-2.905Z" />
    <path
       id="path304"
       d="M186.666,238.346H193l-.253,1.144h-2.508l-1.4,6.557h-1.3l1.4-6.557h-2.532Z" />
    <path
       id="path306"
       d="M194.19,238.346h1.287l-1.4,6.557h4.028l-.242,1.144H192.55Z" />
    <path
       id="path308"
       d="M199.7,243.759a3.66,3.66,0,0,0,2.584,1.32c.947,0,1.618-.517,1.618-1.243,0-.517-.32-.792-1.21-1.045l-1.343-.352a1.929,1.929,0,0,1-1.672-1.871c0-1.408,1.1-2.332,2.783-2.332a4.582,4.582,0,0,1,3.191,1.232l-.8.913a3.492,3.492,0,0,0-2.465-1.056c-.88,0-1.452.429-1.452,1.078,0,.485.319.793,1.034.98l1.287.33c1.321.341,1.937.968,1.937,1.936,0,1.485-1.221,2.508-2.992,2.508a4.35,4.35,0,0,1-3.312-1.485Z" />
  </g>
  <g
     id="g316">
    <rect
       id="rect312"
       height="41.333"
       width="145.822"
       y="439.485"
       x="330.426"
       class="cls-5" />
    <path
       id="path314"
       d="M475.748,439.985v40.334H330.926V439.985H475.748m1-1H329.926v42.334H476.748V438.985Z"
       class="cls-7" />
  </g>
  <g
     id="g326">
    <path
       id="path318"
       d="M386.911,456.182h4.07a2.823,2.823,0,1,1,0,5.63h-2.509v3.471h-1.561Zm1.561,1.313v3.043h2.262a1.532,1.532,0,1,0,.012-3.043Z" />
    <path
       id="path320"
       d="M398.182,458.666a3.375,3.375,0,1,1-3.275,3.367A3.252,3.252,0,0,1,398.182,458.666Zm1.82,3.379a1.841,1.841,0,1,0-3.639,0,1.837,1.837,0,1,0,3.639,0Z" />
    <path
       id="path322"
       d="M407.673,464.412a2.506,2.506,0,0,1-2,.936,3.333,3.333,0,0,1,.091-6.631,2.486,2.486,0,0,1,1.9.859v-3.589l1.469-.247v9.543h-1.456Zm-1.56-.3a1.949,1.949,0,0,0,1.547-.715v-2.743a2.017,2.017,0,0,0-1.547-.7,2.085,2.085,0,0,0,0,4.16Z" />
    <path
       id="path324"
       d="M416.759,465.413a4.57,4.57,0,0,1-3.367-1.366l.962-.9a2.984,2.984,0,0,0,2.392,1.014c1.17,0,1.976-.612,1.976-1.508a1.436,1.436,0,0,0-1.611-1.365H415.98v-1.183h1.014a1.318,1.318,0,0,0,1.443-1.365,1.571,1.571,0,0,0-1.73-1.444,2.811,2.811,0,0,0-2.261,1.079l-.962-.9a4.405,4.405,0,0,1,3.275-1.443c1.808,0,3.108,1.079,3.108,2.548a2.189,2.189,0,0,1-1.769,2.081,2.254,2.254,0,0,1,2.055,2.08C420.153,464.294,418.736,465.413,416.759,465.413Z" />
  </g>
  <g
     id="g332">
    <rect
       id="rect328"
       height="41.333"
       width="145.822"
       y="493.709"
       x="330.426"
       class="cls-5" />
    <path
       id="path330"
       d="M475.748,494.208v40.333H330.926V494.208H475.748m1-1H329.926v42.333H476.748V493.208Z"
       class="cls-6" />
  </g>
  <g
     id="g350">
    <path
       id="path334"
       d="M378.039,517.022a4.553,4.553,0,0,0,3.055,1.326c1.209,0,2.041-.61,2.041-1.442,0-.741-.441-1.079-1.65-1.3l-1.678-.286c-1.573-.286-2.34-1.066-2.34-2.314,0-1.638,1.314-2.73,3.355-2.73a6.066,6.066,0,0,1,3.652,1.184l-.793,1.169a4.716,4.716,0,0,0-2.912-1.053c-1.092,0-1.807.546-1.807,1.287,0,.65.4.988,1.405,1.144l1.611.287c1.834.311,2.691,1.118,2.691,2.5,0,1.664-1.481,2.846-3.653,2.846a5.731,5.731,0,0,1-3.821-1.468Z" />
    <path
       id="path336"
       d="M389.219,519.635a3.31,3.31,0,0,1-3.314-3.38,3.207,3.207,0,0,1,3.172-3.367,3.126,3.126,0,0,1,3.081,3.355v.363h-4.811a1.99,1.99,0,0,0,1.95,1.781,2.109,2.109,0,0,0,1.547-.611l.963.9A3.769,3.769,0,0,1,389.219,519.635Zm-1.846-3.925h3.394a1.784,1.784,0,0,0-1.7-1.625A1.75,1.75,0,0,0,387.373,515.71Z" />
    <path
       id="path338"
       d="M393.652,512.992h1.468v1.418a1.932,1.932,0,0,1,1.794-1.534,1.75,1.75,0,0,1,.638.129v1.288a2.055,2.055,0,0,0-.807-.157,1.79,1.79,0,0,0-1.625,1.079v4.29h-1.468Z" />
    <path
       id="path340"
       d="M398.189,512.992h1.6l1.807,4.759,1.808-4.759h1.547l-2.678,6.513h-1.417Z" />
    <path
       id="path342"
       d="M405.82,510.769a.917.917,0,0,1,1.834,0,.917.917,0,0,1-1.834,0Zm1.651,8.736H406v-6.513h1.469Z" />
    <path
       id="path344"
       d="M413.932,517.621l.884.883a3.386,3.386,0,0,1-2.548,1.131,3.368,3.368,0,0,1,0-6.734,3.511,3.511,0,0,1,2.6,1.093l-.911.948a2.151,2.151,0,0,0-1.637-.767,2.09,2.09,0,0,0,.039,4.161A2.006,2.006,0,0,0,413.932,517.621Z" />
    <path
       id="path346"
       d="M418.9,519.635a3.31,3.31,0,0,1-3.315-3.38,3.208,3.208,0,0,1,3.172-3.367,3.126,3.126,0,0,1,3.081,3.355v.363h-4.81a1.989,1.989,0,0,0,1.95,1.781,2.11,2.11,0,0,0,1.547-.611l.963.9A3.769,3.769,0,0,1,418.9,519.635Zm-1.846-3.925h3.394a1.783,1.783,0,0,0-1.7-1.625A1.749,1.749,0,0,0,417.052,515.71Z" />
    <path
       id="path348"
       d="M428.855,519.505h-1.417v-7.618l-1.611.7v-1.261l2.131-.923h.9Z" />
  </g>
  <g
     id="g362">
    <path
       id="path352"
       d="M383.974,362.423l4.043,5.513-.039-5.513h2.106v9.1h-1.976l-4.173-5.694.039,5.694h-2.106v-9.1Z" />
    <path
       id="path354"
       d="M395.116,364.711a3.471,3.471,0,1,1-3.5,3.471A3.414,3.414,0,0,1,395.116,364.711Zm1.456,3.471a1.471,1.471,0,1,0-2.9,0,1.467,1.467,0,1,0,2.9,0Z" />
    <path
       id="path356"
       d="M404.669,370.652a2.528,2.528,0,0,1-1.975.911,3.2,3.2,0,0,1-2.964-3.407,3.235,3.235,0,0,1,3.119-3.38,2.35,2.35,0,0,1,1.8.806v-3.354l2.105-.325v9.62h-2.08Zm-1.273-.832a1.63,1.63,0,0,0,1.248-.533v-2.262a1.713,1.713,0,0,0-1.248-.52,1.659,1.659,0,0,0,0,3.315Z" />
    <path
       id="path358"
       d="M411.624,371.653a3.468,3.468,0,0,1-3.535-3.471,3.365,3.365,0,0,1,3.38-3.484,3.3,3.3,0,0,1,3.3,3.562v.455h-4.615a1.61,1.61,0,0,0,1.573,1.262,1.664,1.664,0,0,0,1.326-.559l1.391,1.156A3.91,3.91,0,0,1,411.624,371.653Zm-1.468-4.133h2.665a1.4,1.4,0,0,0-1.366-1.184A1.331,1.331,0,0,0,410.156,367.52Z" />
    <path
       id="path360"
       d="M418.722,370.093l3.848-3.809a1.7,1.7,0,0,0,.611-1.209c0-.585-.572-1.027-1.339-1.027a3.136,3.136,0,0,0-2.3,1.118l-1.118-1.365a5,5,0,0,1,3.485-1.5c1.936,0,3.223,1.053,3.223,2.639a3.182,3.182,0,0,1-1.182,2.353l-2.627,2.536,3.939-.014v1.7h-6.539Z" />
  </g>
  <g
     id="g396">
    <path
       id="path364"
       d="M219.775,38.221h1.56v4.16l3.952-4.16h1.9L222.869,42.6l4.485,4.719h-2.067l-3.952-4.277v4.277h-1.56Z"
       class="cls-8" />
    <path
       id="path366"
       d="M229.408,44.682a1.4,1.4,0,0,0,1.43,1.56,1.643,1.643,0,0,0,1.43-.806V40.808h1.469v6.513h-1.469V46.242a2.381,2.381,0,0,1-2.08,1.183,2.185,2.185,0,0,1-2.249-2.327v-4.29h1.469Z"
       class="cls-8" />
    <path
       id="path368"
       d="M238.911,47.386a2.416,2.416,0,0,1-1.923-.91v.845h-1.444V38.026l1.469-.247v3.9a2.537,2.537,0,0,1,2-.923,3.126,3.126,0,0,1,2.951,3.315A3.157,3.157,0,0,1,238.911,47.386Zm-1.9-4.667v2.717a2,2,0,0,0,1.561.715,2.085,2.085,0,0,0,0-4.16A1.914,1.914,0,0,0,237.013,42.719Z"
       class="cls-8" />
    <path
       id="path370"
       d="M246.541,47.451a3.31,3.31,0,0,1-3.314-3.38A3.207,3.207,0,0,1,246.4,40.7a3.126,3.126,0,0,1,3.081,3.354v.364h-4.811a1.991,1.991,0,0,0,1.95,1.781,2.113,2.113,0,0,0,1.547-.611l.963.9A3.769,3.769,0,0,1,246.541,47.451ZM244.7,43.525h3.393a1.784,1.784,0,0,0-1.7-1.625A1.75,1.75,0,0,0,244.7,43.525Z"
       class="cls-8" />
    <path
       id="path372"
       d="M250.975,40.808h1.469v1.417a1.931,1.931,0,0,1,1.794-1.534,1.741,1.741,0,0,1,.637.13v1.287a2.071,2.071,0,0,0-.806-.156,1.787,1.787,0,0,0-1.625,1.079v4.29h-1.469Z"
       class="cls-8" />
    <path
       id="path374"
       d="M256.083,40.808h1.469v1.066a2.364,2.364,0,0,1,2.067-1.17,2.192,2.192,0,0,1,2.25,2.327v4.29H260.4V43.447a1.4,1.4,0,0,0-1.431-1.56,1.671,1.671,0,0,0-1.417.78v4.654h-1.469Z"
       class="cls-8" />
    <path
       id="path376"
       d="M266.665,47.451a3.31,3.31,0,0,1-3.314-3.38,3.208,3.208,0,0,1,3.172-3.367,3.126,3.126,0,0,1,3.081,3.354v.364h-4.811a1.991,1.991,0,0,0,1.951,1.781,2.112,2.112,0,0,0,1.546-.611l.963.9A3.767,3.767,0,0,1,266.665,47.451Zm-1.845-3.926h3.393a1.783,1.783,0,0,0-1.7-1.625A1.75,1.75,0,0,0,264.82,43.525Z"
       class="cls-8" />
    <path
       id="path378"
       d="M271.709,41.978H270.4v-1.17h1.312V39.014l1.47-.312v2.106H275v1.17h-1.819v3.3c0,.637.246.884.909.884a2.7,2.7,0,0,0,.885-.156v1.235a4.622,4.622,0,0,1-1.262.182c-1.312,0-2-.624-2-1.819Z"
       class="cls-8" />
    <path
       id="path380"
       d="M279.21,47.451a3.31,3.31,0,0,1-3.314-3.38,3.208,3.208,0,0,1,3.172-3.367,3.126,3.126,0,0,1,3.081,3.354v.364h-4.811a1.99,1.99,0,0,0,1.95,1.781,2.113,2.113,0,0,0,1.547-.611l.963.9A3.767,3.767,0,0,1,279.21,47.451Zm-1.845-3.926h3.393a1.783,1.783,0,0,0-1.7-1.625A1.75,1.75,0,0,0,277.365,43.525Z"
       class="cls-8" />
    <path
       id="path382"
       d="M283.812,45.579a3.759,3.759,0,0,0,2.094.741c.779,0,1.312-.351,1.312-.871,0-.4-.272-.624-.9-.741l-1.158-.2c-1.26-.234-1.884-.819-1.884-1.794,0-1.222,1-2.015,2.521-2.015a4.586,4.586,0,0,1,2.562.78l-.69.962a3.56,3.56,0,0,0-1.963-.624c-.675,0-1.118.286-1.118.767,0,.416.235.6.923.715l1.145.208c1.3.247,1.923.845,1.923,1.82a2.386,2.386,0,0,1-2.652,2.119,4.37,4.37,0,0,1-2.808-.884Z"
       class="cls-8" />
    <path
       id="path384"
       d="M293.041,38.221h4.07a2.823,2.823,0,1,1,0,5.629H294.6v3.471h-1.561Zm1.561,1.313v3.042h2.262a1.531,1.531,0,1,0,.012-3.042Z"
       class="cls-8" />
    <path
       id="path386"
       d="M304.313,40.7a3.375,3.375,0,1,1-3.276,3.367A3.252,3.252,0,0,1,304.313,40.7Zm1.82,3.38a1.841,1.841,0,1,0-3.639,0,1.837,1.837,0,1,0,3.639,0Z"
       class="cls-8" />
    <path
       id="path388"
       d="M313.8,46.45a2.508,2.508,0,0,1-2,.936,3.332,3.332,0,0,1,.091-6.63,2.481,2.481,0,0,1,1.9.858V38.026l1.47-.247v9.542H313.8Zm-1.56-.3a1.946,1.946,0,0,0,1.546-.715V42.693a2.018,2.018,0,0,0-1.546-.7,2.085,2.085,0,0,0,0,4.16Z"
       class="cls-8" />
    <path
       id="path390"
       d="M320.25,44.838a4.553,4.553,0,0,0,3.055,1.326c1.209,0,2.041-.611,2.041-1.443,0-.741-.441-1.079-1.65-1.3l-1.678-.286c-1.573-.286-2.34-1.066-2.34-2.314,0-1.638,1.314-2.73,3.355-2.73a6.072,6.072,0,0,1,3.652,1.183l-.793,1.17a4.719,4.719,0,0,0-2.912-1.053c-1.092,0-1.807.546-1.807,1.287,0,.65.4.988,1.4,1.144l1.611.286c1.834.312,2.691,1.118,2.691,2.5,0,1.664-1.481,2.847-3.653,2.847a5.727,5.727,0,0,1-3.821-1.469Z"
       class="cls-8" />
    <path
       id="path392"
       d="M328.466,38.221h3.328a4.55,4.55,0,1,1,0,9.1h-3.328Zm1.561,1.352v6.4h1.806a3.212,3.212,0,0,0,0-6.4Z"
       class="cls-8" />
    <path
       id="path394"
       d="M339.633,38.221l4.745,6.6-.026-6.6h1.47v9.1H344.43l-4.875-6.786.026,6.786h-1.469v-9.1Z"
       class="cls-8" />
  </g>
  <g
     id="g420">
    <path
       id="path398"
       d="M165.265,64.579h1.56v3.836h4.524V64.579h1.56v9.1h-1.56v-3.9h-4.524v3.9h-1.56Z"
       class="cls-8" />
    <path
       id="path400"
       d="M177.823,67.063a3.375,3.375,0,1,1-3.276,3.367A3.252,3.252,0,0,1,177.823,67.063Zm1.82,3.379a1.841,1.841,0,1,0-3.64,0,1.838,1.838,0,1,0,3.64,0Z"
       class="cls-8" />
    <path
       id="path402"
       d="M182.723,71.938a3.759,3.759,0,0,0,2.094.741c.779,0,1.312-.351,1.312-.871,0-.4-.272-.624-.9-.742l-1.157-.194c-1.261-.234-1.885-.819-1.885-1.794,0-1.222,1-2.015,2.521-2.015a4.593,4.593,0,0,1,2.562.779l-.69.963a3.555,3.555,0,0,0-1.963-.624c-.675,0-1.118.285-1.118.766,0,.416.235.6.923.716l1.145.208c1.3.247,1.923.845,1.923,1.819a2.386,2.386,0,0,1-2.652,2.12,4.365,4.365,0,0,1-2.807-.884Z"
       class="cls-8" />
    <path
       id="path404"
       d="M189.522,68.336h-1.313V67.167h1.313V65.373l1.47-.312v2.106h1.819v1.169h-1.819v3.3c0,.636.247.884.909.884a2.73,2.73,0,0,0,.885-.156V73.6a4.628,4.628,0,0,1-1.262.182c-1.313,0-2-.624-2-1.82Z"
       class="cls-8" />
    <path
       id="path406"
       d="M198.726,64.579l4.745,6.605-.026-6.605h1.469v9.1h-1.391l-4.875-6.786.026,6.786H197.2v-9.1Z"
       class="cls-8" />
    <path
       id="path408"
       d="M209.932,73.81a3.31,3.31,0,0,1-3.314-3.38,3.208,3.208,0,0,1,3.171-3.367,3.126,3.126,0,0,1,3.081,3.354v.364h-4.81a1.989,1.989,0,0,0,1.95,1.781,2.114,2.114,0,0,0,1.547-.611l.963.9A3.767,3.767,0,0,1,209.932,73.81Zm-1.846-3.926h3.394a1.783,1.783,0,0,0-1.7-1.626A1.751,1.751,0,0,0,208.086,69.884Z"
       class="cls-8" />
    <path
       id="path410"
       d="M214.976,68.336h-1.313V67.167h1.313V65.373l1.47-.312v2.106h1.819v1.169h-1.819v3.3c0,.636.246.884.909.884a2.73,2.73,0,0,0,.885-.156V73.6a4.622,4.622,0,0,1-1.262.182c-1.313,0-2-.624-2-1.82Z"
       class="cls-8" />
    <path
       id="path412"
       d="M220.826,73.68l-1.755-6.513h1.4l1.144,4.6,1.339-4.6h1.248l1.339,4.615,1.131-4.615h1.378L226.3,73.68h-1.417l-1.313-4.59-1.313,4.59Z"
       class="cls-8" />
    <path
       id="path414"
       d="M232.11,67.063a3.375,3.375,0,1,1-3.276,3.367A3.252,3.252,0,0,1,232.11,67.063Zm1.82,3.379a1.841,1.841,0,1,0-3.64,0,1.838,1.838,0,1,0,3.64,0Z"
       class="cls-8" />
    <path
       id="path416"
       d="M236.907,67.167h1.468v1.417a1.934,1.934,0,0,1,1.794-1.535,1.751,1.751,0,0,1,.638.131v1.286a2.072,2.072,0,0,0-.807-.155,1.787,1.787,0,0,0-1.625,1.079v4.29h-1.468Z"
       class="cls-8" />
    <path
       id="path418"
       d="M242.016,64.384l1.469-.247v5.812l2.7-2.782h1.677l-2.977,3.016,3.159,3.5h-1.885l-2.678-3v3h-1.469Z"
       class="cls-8" />
  </g>
  <line
     id="line422"
     y2="142.405"
     x2="282.798"
     y1="142.405"
     x1="329.926"
     class="cls-1" />
  <line
     id="line424"
     y2="135.234"
     x2="230.878"
     y1="135.234"
     x1="329.926"
     class="cls-1" />
  <line
     id="line426"
     y2="244.048"
     x2="282.798"
     y1="244.048"
     x1="329.926"
     class="cls-1" />
  <line
     id="line428"
     y2="297.969"
     x2="282.798"
     y1="297.969"
     x1="329.926"
     class="cls-1" />
  <line
     id="line430"
     y2="405.929"
     x2="282.798"
     y1="405.929"
     x1="329.926"
     class="cls-1" />
  <line
     id="line432"
     y2="460.152"
     x2="282.798"
     y1="460.152"
     x1="329.926"
     class="cls-1" />
  <polyline
     id="polyline434"
     points="329.926 518.375 282.798 518.375 282.798 57.896"
     class="cls-1" />
  <g
     id="g448">
    <line
       id="line436"
       y2="142.405"
       x2="523.876"
       y1="142.405"
       x1="476.749"
       class="cls-1" />
    <line
       id="line438"
       y2="244.048"
       x2="523.876"
       y1="244.048"
       x1="476.749"
       class="cls-1" />
    <line
       id="line440"
       y2="297.969"
       x2="523.876"
       y1="297.969"
       x1="476.749"
       class="cls-1" />
    <line
       id="line442"
       y2="405.929"
       x2="523.876"
       y1="405.929"
       x1="476.749"
       class="cls-1" />
    <line
       id="line444"
       y2="460.152"
       x2="523.876"
       y1="460.152"
       x1="476.749"
       class="cls-1" />
    <polyline
       id="polyline446"
       points="476.749 518.375 523.876 518.375 523.876 57.896"
       class="cls-1" />
  </g>
  <polyline
     id="polyline450"
     points="230.605 82.263 230.605 453.414 254.169 453.414"
     class="cls-1" />
  <g
     id="g492">
    <path
       id="path452"
       d="M433.961,38.221h1.561v4.16l3.952-4.16h1.9L437.056,42.6l4.484,4.719h-2.066l-3.952-4.277v4.277h-1.561Z"
       class="cls-8" />
    <path
       id="path454"
       d="M443.594,44.682a1.4,1.4,0,0,0,1.431,1.56,1.641,1.641,0,0,0,1.429-.806V40.808h1.469v6.513h-1.469V46.242a2.381,2.381,0,0,1-2.08,1.183,2.185,2.185,0,0,1-2.249-2.327v-4.29h1.469Z"
       class="cls-8" />
    <path
       id="path456"
       d="M453.1,47.386a2.418,2.418,0,0,1-1.924-.91v.845h-1.443V38.026l1.469-.247v3.9a2.535,2.535,0,0,1,2-.923,3.126,3.126,0,0,1,2.951,3.315A3.157,3.157,0,0,1,453.1,47.386Zm-1.9-4.667v2.717a2,2,0,0,0,1.56.715,2.085,2.085,0,0,0,0-4.16A1.912,1.912,0,0,0,451.2,42.719Z"
       class="cls-8" />
    <path
       id="path458"
       d="M460.728,47.451a3.311,3.311,0,0,1-3.315-3.38,3.208,3.208,0,0,1,3.172-3.367,3.126,3.126,0,0,1,3.081,3.354v.364h-4.81a1.989,1.989,0,0,0,1.95,1.781,2.114,2.114,0,0,0,1.547-.611l.963.9A3.767,3.767,0,0,1,460.728,47.451Zm-1.846-3.926h3.394a1.783,1.783,0,0,0-1.7-1.625A1.75,1.75,0,0,0,458.882,43.525Z"
       class="cls-8" />
    <path
       id="path460"
       d="M465.161,40.808h1.469v1.417a1.933,1.933,0,0,1,1.794-1.534,1.751,1.751,0,0,1,.638.13v1.287a2.073,2.073,0,0,0-.807-.156,1.787,1.787,0,0,0-1.625,1.079v4.29h-1.469Z"
       class="cls-8" />
    <path
       id="path462"
       d="M470.27,40.808h1.469v1.066a2.364,2.364,0,0,1,2.067-1.17,2.192,2.192,0,0,1,2.249,2.327v4.29h-1.469V43.447a1.4,1.4,0,0,0-1.43-1.56,1.67,1.67,0,0,0-1.417.78v4.654H470.27Z"
       class="cls-8" />
    <path
       id="path464"
       d="M480.852,47.451a3.311,3.311,0,0,1-3.315-3.38,3.208,3.208,0,0,1,3.172-3.367,3.126,3.126,0,0,1,3.081,3.354v.364h-4.81a1.989,1.989,0,0,0,1.95,1.781,2.114,2.114,0,0,0,1.547-.611l.963.9A3.769,3.769,0,0,1,480.852,47.451Zm-1.846-3.926H482.4a1.784,1.784,0,0,0-1.7-1.625A1.75,1.75,0,0,0,479.006,43.525Z"
       class="cls-8" />
    <path
       id="path466"
       d="M485.9,41.978h-1.313v-1.17H485.9V39.014l1.47-.312v2.106h1.819v1.17h-1.819v3.3c0,.637.247.884.909.884a2.7,2.7,0,0,0,.885-.156v1.235a4.628,4.628,0,0,1-1.262.182c-1.313,0-2-.624-2-1.819Z"
       class="cls-8" />
    <path
       id="path468"
       d="M493.4,47.451a3.311,3.311,0,0,1-3.315-3.38,3.208,3.208,0,0,1,3.172-3.367,3.126,3.126,0,0,1,3.081,3.354v.364h-4.81a1.989,1.989,0,0,0,1.95,1.781,2.114,2.114,0,0,0,1.547-.611l.963.9A3.771,3.771,0,0,1,493.4,47.451Zm-1.846-3.926h3.394a1.784,1.784,0,0,0-1.7-1.625A1.75,1.75,0,0,0,491.551,43.525Z"
       class="cls-8" />
    <path
       id="path470"
       d="M498,45.579a3.759,3.759,0,0,0,2.094.741c.779,0,1.313-.351,1.313-.871,0-.4-.273-.624-.9-.741l-1.157-.2c-1.261-.234-1.885-.819-1.885-1.794,0-1.222,1-2.015,2.522-2.015a4.583,4.583,0,0,1,2.561.78l-.689.962a3.56,3.56,0,0,0-1.963-.624c-.676,0-1.118.286-1.118.767,0,.416.234.6.923.715l1.144.208c1.3.247,1.924.845,1.924,1.82a2.386,2.386,0,0,1-2.652,2.119,4.368,4.368,0,0,1-2.808-.884Z"
       class="cls-8" />
    <path
       id="path472"
       d="M507.293,44.838a4.553,4.553,0,0,0,3.055,1.326c1.209,0,2.041-.611,2.041-1.443,0-.741-.441-1.079-1.65-1.3l-1.678-.286c-1.573-.286-2.34-1.066-2.34-2.314,0-1.638,1.314-2.73,3.355-2.73a6.072,6.072,0,0,1,3.652,1.183l-.793,1.17a4.719,4.719,0,0,0-2.912-1.053c-1.092,0-1.807.546-1.807,1.287,0,.65.4.988,1.4,1.144l1.612.286c1.834.312,2.691,1.118,2.691,2.5,0,1.664-1.481,2.847-3.653,2.847a5.727,5.727,0,0,1-3.821-1.469Z"
       class="cls-8" />
    <path
       id="path474"
       d="M518.473,47.451a3.31,3.31,0,0,1-3.314-3.38A3.207,3.207,0,0,1,518.33,40.7a3.126,3.126,0,0,1,3.081,3.354v.364H516.6a1.989,1.989,0,0,0,1.95,1.781,2.114,2.114,0,0,0,1.547-.611l.963.9A3.769,3.769,0,0,1,518.473,47.451Zm-1.846-3.926h3.394a1.784,1.784,0,0,0-1.7-1.625A1.75,1.75,0,0,0,516.627,43.525Z"
       class="cls-8" />
    <path
       id="path476"
       d="M522.907,40.808h1.468v1.417a1.933,1.933,0,0,1,1.794-1.534,1.751,1.751,0,0,1,.638.13v1.287a2.073,2.073,0,0,0-.807-.156,1.789,1.789,0,0,0-1.625,1.079v4.29h-1.468Z"
       class="cls-8" />
    <path
       id="path478"
       d="M527.443,40.808h1.6l1.807,4.758,1.808-4.758H534.2l-2.677,6.513h-1.417Z"
       class="cls-8" />
    <path
       id="path480"
       d="M535.074,38.585a.917.917,0,0,1,1.834,0,.917.917,0,0,1-1.834,0Zm1.651,8.736h-1.469V40.808h1.469Z"
       class="cls-8" />
    <path
       id="path482"
       d="M543.186,45.436l.884.884a3.386,3.386,0,0,1-2.548,1.131,3.368,3.368,0,0,1,0-6.734,3.506,3.506,0,0,1,2.6,1.092l-.91.949a2.151,2.151,0,0,0-1.637-.767,2.089,2.089,0,0,0,.039,4.16A2,2,0,0,0,543.186,45.436Z"
       class="cls-8" />
    <path
       id="path484"
       d="M548.152,47.451a3.311,3.311,0,0,1-3.315-3.38,3.208,3.208,0,0,1,3.172-3.367,3.126,3.126,0,0,1,3.081,3.354v.364h-4.81a1.989,1.989,0,0,0,1.95,1.781,2.116,2.116,0,0,0,1.547-.611l.963.9A3.769,3.769,0,0,1,548.152,47.451Zm-1.846-3.926H549.7A1.783,1.783,0,0,0,548,41.9,1.75,1.75,0,0,0,546.306,43.525Z"
       class="cls-8" />
    <path
       id="path486"
       d="M555.757,44.838a4.553,4.553,0,0,0,3.055,1.326c1.209,0,2.041-.611,2.041-1.443,0-.741-.442-1.079-1.65-1.3l-1.678-.286c-1.572-.286-2.34-1.066-2.34-2.314,0-1.638,1.313-2.73,3.354-2.73a6.082,6.082,0,0,1,3.654,1.183l-.794,1.17a4.719,4.719,0,0,0-2.912-1.053c-1.092,0-1.807.546-1.807,1.287,0,.65.4.988,1.4,1.144l1.613.286c1.833.312,2.69,1.118,2.69,2.5,0,1.664-1.481,2.847-3.653,2.847a5.736,5.736,0,0,1-3.823-1.469Z"
       class="cls-8" />
    <path
       id="path488"
       d="M563.972,38.221H567.3a4.55,4.55,0,1,1,0,9.1h-3.328Zm1.561,1.352v6.4h1.806a3.212,3.212,0,0,0,0-6.4Z"
       class="cls-8" />
    <path
       id="path490"
       d="M575.14,38.221l4.745,6.6-.026-6.6h1.469v9.1h-1.391l-4.875-6.786.026,6.786h-1.469v-9.1Z"
       class="cls-8" />
  </g>
  <g
     id="g498">
    <polyline
       id="polyline494"
       points="329.926 255.187 306.732 255.187 306.732 309.449 324.544 309.449"
       class="cls-3" />
    <polygon
       id="polygon496"
       points="323.45 313.189 329.926 309.449 323.45 305.71 323.45 313.189"
       class="cls-4" />
  </g>
  <rect
     id="rect500"
     height="4.827"
     width="6.792"
     y="124.692"
     x="227.209"
     class="cls-5" />
  <rect
     id="rect502"
     height="4.827"
     width="6.792"
     y="124.692"
     x="279.805"
     class="cls-2" />
  <g
     id="g508">
    <polyline
       id="polyline504"
       points="324.544 127.106 221.321 127.106 221.321 252.306 135.89 252.306"
       class="cls-3" />
    <polygon
       id="polygon506"
       points="323.45 123.366 329.926 127.106 323.45 130.845 323.45 123.366"
       class="cls-4" />
  </g>
  <g
     id="g514">
    <polyline
       id="polyline510"
       points="476.28 127.106 535.436 127.106 535.436 529.616 481.662 529.616"
       class="cls-3" />
    <polygon
       id="polygon512"
       points="482.757 525.876 476.28 529.616 482.757 533.355 482.757 525.876"
       class="cls-4" />
  </g>
  <g
     id="g520">
    <rect
       id="rect516"
       height="41.333"
       width="145.822"
       y="223.381"
       x="330.426"
       class="cls-5" />
    <path
       id="path518"
       d="M475.748,223.881v40.333H330.926V223.881H475.748m1-1H329.926v42.333H476.748V222.881Z"
       class="cls-6" />
  </g>
  <g
     id="g526">
    <rect
       id="rect522"
       height="41.333"
       width="145.822"
       y="277.302"
       x="330.426"
       class="cls-5" />
    <path
       id="path524"
       d="M475.748,277.8v40.333H330.926V277.8H475.748m1-1H329.926v42.333H476.748V276.8Z"
       class="cls-7" />
  </g>
  <g
     id="g544">
    <path
       id="path528"
       d="M378.038,245.165a4.553,4.553,0,0,0,3.055,1.326c1.209,0,2.041-.611,2.041-1.443,0-.741-.441-1.079-1.65-1.3l-1.678-.286c-1.573-.286-2.34-1.066-2.34-2.314,0-1.638,1.314-2.73,3.355-2.73a6.072,6.072,0,0,1,3.652,1.183l-.793,1.17a4.716,4.716,0,0,0-2.912-1.053c-1.092,0-1.807.546-1.807,1.287,0,.65.4.988,1.4,1.144l1.611.286c1.834.312,2.691,1.118,2.691,2.5,0,1.664-1.481,2.847-3.653,2.847a5.727,5.727,0,0,1-3.821-1.469Z" />
    <path
       id="path530"
       d="M389.218,247.778a3.31,3.31,0,0,1-3.314-3.38,3.207,3.207,0,0,1,3.172-3.367,3.126,3.126,0,0,1,3.081,3.354v.364h-4.811a1.99,1.99,0,0,0,1.95,1.781,2.113,2.113,0,0,0,1.547-.611l.963.9A3.769,3.769,0,0,1,389.218,247.778Zm-1.846-3.926h3.394a1.784,1.784,0,0,0-1.7-1.625A1.75,1.75,0,0,0,387.372,243.852Z" />
    <path
       id="path532"
       d="M393.651,241.135h1.468v1.417a1.933,1.933,0,0,1,1.794-1.534,1.746,1.746,0,0,1,.638.13v1.287a2.073,2.073,0,0,0-.807-.156,1.789,1.789,0,0,0-1.625,1.079v4.29h-1.468Z" />
    <path
       id="path534"
       d="M398.188,241.135h1.6l1.807,4.758,1.808-4.758h1.547l-2.678,6.513h-1.417Z" />
    <path
       id="path536"
       d="M405.819,238.912a.917.917,0,0,1,1.834,0,.917.917,0,0,1-1.834,0Zm1.651,8.736H406v-6.513h1.469Z" />
    <path
       id="path538"
       d="M413.931,245.763l.884.884a3.389,3.389,0,0,1-2.548,1.131,3.368,3.368,0,0,1,0-6.734,3.51,3.51,0,0,1,2.6,1.092l-.911.949a2.151,2.151,0,0,0-1.637-.767,2.089,2.089,0,0,0,.039,4.16A2,2,0,0,0,413.931,245.763Z" />
    <path
       id="path540"
       d="M418.9,247.778a3.311,3.311,0,0,1-3.315-3.38,3.208,3.208,0,0,1,3.172-3.367,3.126,3.126,0,0,1,3.081,3.354v.364h-4.81a1.989,1.989,0,0,0,1.95,1.781,2.114,2.114,0,0,0,1.547-.611l.963.9A3.769,3.769,0,0,1,418.9,247.778Zm-1.846-3.926h3.394a1.783,1.783,0,0,0-1.7-1.625A1.75,1.75,0,0,0,417.051,243.852Z" />
    <path
       id="path542"
       d="M428.854,247.648h-1.417V240.03l-1.611.7v-1.261l2.131-.924h.9Z" />
  </g>
  <rect
     id="rect546"
     height="6.792"
     width="4.827"
     y="294.573"
     x="304.319"
     class="cls-2" />
  <rect
     id="rect548"
     height="6.792"
     width="4.827"
     y="402.533"
     x="497.544"
     class="cls-2" />
  <rect
     id="rect550"
     height="6.792"
     width="4.827"
     y="456.756"
     x="497.544"
     class="cls-2" />
  <rect
     id="rect552"
     height="4.827"
     width="6.792"
     y="252.413"
     x="520.48"
     class="cls-2" />
  <rect
     id="rect554"
     height="4.827"
     width="6.792"
     y="124.693"
     x="520.48"
     class="cls-2" />
  <g
     id="g560">
    <polyline
       id="polyline556"
       points="329.926 255.187 306.732 255.187 306.732 394.24 324.544 394.24"
       class="cls-3" />
    <polygon
       id="polygon558"
       points="323.45 397.98 329.926 394.24 323.45 390.5 323.45 397.98"
       class="cls-4" />
  </g>
  <g
     id="g566">
    <polyline
       id="polyline562"
       points="476.748 309.449 499.943 309.449 499.943 418.057 482.131 418.057"
       class="cls-3" />
    <polygon
       id="polygon564"
       points="483.225 414.318 476.748 418.057 483.225 421.797 483.225 414.318"
       class="cls-4" />
  </g>
  <g
     id="g572">
    <polyline
       id="polyline568"
       points="482.145 309.449 499.957 309.449 499.957 507.202 476.763 507.202"
       class="cls-3" />
    <polygon
       id="polygon570"
       points="483.239 313.189 476.763 309.449 483.239 305.71 483.239 313.189"
       class="cls-4" />
  </g>
  <g
     id="g582">
    <path
       id="path574"
       d="M388.634,292.469H392.7a2.823,2.823,0,1,1,0,5.63H390.2v3.471h-1.561Zm1.561,1.314v3.042h2.261a1.531,1.531,0,1,0,.013-3.042Z" />
    <path
       id="path576"
       d="M399.905,294.953a3.375,3.375,0,1,1-3.276,3.367A3.252,3.252,0,0,1,399.905,294.953Zm1.82,3.38a1.841,1.841,0,1,0-3.64,0,1.838,1.838,0,1,0,3.64,0Z" />
    <path
       id="path578"
       d="M409.4,300.7a2.508,2.508,0,0,1-2,.936,3.333,3.333,0,0,1,.091-6.631,2.482,2.482,0,0,1,1.9.859v-3.588l1.47-.247v9.542H409.4Zm-1.561-.3a1.948,1.948,0,0,0,1.547-.715v-2.743a2.019,2.019,0,0,0-1.547-.7,2.085,2.085,0,0,0,0,4.16Z" />
    <path
       id="path580"
       d="M418.2,301.57h-1.417v-7.618l-1.612.7v-1.262l2.132-.923h.9Z" />
  </g>
  <g
     id="g588">
    <polyline
       id="polyline584"
       points="476.28 127.106 535.436 127.106 535.436 255.187 481.662 255.187"
       class="cls-3" />
    <polygon
       id="polygon586"
       points="482.757 251.447 476.28 255.187 482.757 258.927 482.757 251.447"
       class="cls-4" />
  </g>
</svg>
