<svg xmlns="http://www.w3.org/2000/svg" width="210mm" height="161.29mm" viewBox="0 0 595.276 457.201">
  <defs>
    <style>
      .cls-1, .cls-11, .cls-7 {
        fill: none;
        stroke-miterlimit: 10;
      }

      .cls-1 {
        stroke: #06c;
      }

      .cls-2 {
        fill: #06c;
      }

      .cls-3 {
        fill: #fff;
      }

      .cls-4 {
        fill: #151515;
      }

      .cls-5 {
        fill: #e8e8e8;
      }

      .cls-6 {
        fill: #5b5b5b;
      }

      .cls-7 {
        stroke: #d0d0d0;
      }

      .cls-8 {
        fill: #da212e;
      }

      .cls-9 {
        fill: #fdfdff;
      }

      .cls-10 {
        fill: #0d6ece;
      }

      .cls-11 {
        stroke: #151515;
      }
    </style>
  </defs>
  <g id="Blue_Connectors" data-name="Blue Connectors">
    <g>
      <polyline class="cls-1" points="116.756 151.222 116.756 100.935 231.864 100.935 231.864 82.924"/>
      <polygon class="cls-2" points="120.496 150.128 116.756 156.604 113.016 150.128 120.496 150.128"/>
    </g>
    <g>
      <polyline class="cls-1" points="380.02 151.222 380.02 100.935 262.829 100.935 262.829 82.924"/>
      <polygon class="cls-2" points="383.76 150.128 380.02 156.604 376.281 150.128 383.76 150.128"/>
    </g>
    <g>
      <polyline class="cls-1" points="58.392 178.627 49.507 178.627 49.507 426.009 459.551 426.009 459.551 336.553 446.67 336.553"/>
      <polygon class="cls-2" points="57.298 174.887 63.774 178.627 57.298 182.367 57.298 174.887"/>
    </g>
    <g>
      <line class="cls-1" x1="380.02" y1="255.777" x2="380.02" y2="202.151"/>
      <polygon class="cls-2" points="383.76 254.683 380.02 261.159 376.281 254.683 383.76 254.683"/>
    </g>
    <g>
      <line class="cls-1" x1="115.435" y1="255.777" x2="115.435" y2="202.151"/>
      <polygon class="cls-2" points="119.174 254.683 115.435 261.159 111.695 254.683 119.174 254.683"/>
    </g>
    <g>
      <line class="cls-1" x1="380.02" y1="360.678" x2="380.02" y2="306.93"/>
      <polygon class="cls-2" points="383.76 359.584 380.02 366.06 376.281 359.584 383.76 359.584"/>
    </g>
    <polyline class="cls-1" points="432.467 389.004 445.992 389.004 445.992 283.995 432.467 283.995"/>
    <rect class="cls-3" x="47.343" y="334.951" width="4.294" height="5.098"/>
  </g>
  <g id="Manifests_referencing_image" data-name="Manifests referencing image">
    <g>
      <rect class="cls-3" x="186.404" y="417.008" width="121.173" height="17.31"/>
      <g>
        <path class="cls-4" d="M190.126,423.528l-1.054,4.97h-1l1.341-6.3h1.342l1.008,3.826,2.593-3.826h1.422l-1.341,6.3h-.981l1.035-4.9-3.115,4.447Z"/>
        <path class="cls-4" d="M195.885,427.31c0-.883.693-1.45,1.774-1.45a2.921,2.921,0,0,1,1.332.315l.081-.378c.153-.693-.171-1.035-.963-1.035a3.412,3.412,0,0,0-1.225.279l-.243-.747a4.9,4.9,0,0,1,1.711-.369c1.314,0,1.963.7,1.719,1.836l-.6,2.737h-.99l.09-.4a1.968,1.968,0,0,1-1.233.459C196.452,428.552,195.885,428.066,195.885,427.31Zm1.81.531a1.655,1.655,0,0,0,1-.324l.171-.766a2.2,2.2,0,0,0-1.08-.233c-.586,0-.964.278-.964.7C196.821,427.616,197.136,427.841,197.7,427.841Z"/>
        <path class="cls-4" d="M201.645,423.988h1.009l-.145.675a1.862,1.862,0,0,1,1.441-.729,1.261,1.261,0,0,1,1.26,1.71L204.6,428.5h-1l.567-2.62c.153-.675-.162-1.143-.783-1.143a1.332,1.332,0,0,0-1,.486l-.711,3.277h-1.008Z"/>
        <path class="cls-4" d="M206.811,428.5H205.8l.981-4.51h1.009Zm.126-5.977a.72.72,0,0,1,.694-.7.555.555,0,0,1,.558.558.708.708,0,0,1-.7.693A.535.535,0,0,1,206.937,422.521Z"/>
        <path class="cls-4" d="M209.583,423.988l.189-.909a1.6,1.6,0,0,1,1.657-1.405,2.3,2.3,0,0,1,.81.135l-.18.864a1.728,1.728,0,0,0-.594-.108.642.642,0,0,0-.7.6l-.171.82h1.225l-.189.81h-1.206l-.784,3.7h-1l.774-3.7h-.927l.189-.81Z"/>
        <path class="cls-4" d="M214.066,428.588a2.026,2.026,0,0,1-2.125-2.1,2.489,2.489,0,0,1,2.377-2.565,1.849,1.849,0,0,1,1.881,1.989,3.717,3.717,0,0,1-.036.576h-3.25a1.218,1.218,0,0,0,1.234,1.252,1.511,1.511,0,0,0,1.026-.369l.549.666A2.71,2.71,0,0,1,214.066,428.588Zm-1.072-2.719H215.3a1.07,1.07,0,0,0-1.035-1.107A1.366,1.366,0,0,0,212.994,425.869Z"/>
        <path class="cls-4" d="M217.125,427.193a2.188,2.188,0,0,0,1.458.621c.477,0,.837-.27.837-.621,0-.234-.153-.379-.531-.478l-.765-.207c-.7-.189-1.054-.585-1.054-1.17,0-.873.658-1.422,1.693-1.422a2.851,2.851,0,0,1,1.837.666l-.558.63a2.279,2.279,0,0,0-1.342-.531c-.459,0-.738.207-.738.531,0,.261.135.387.522.5l.765.207c.747.207,1.108.567,1.108,1.135a1.644,1.644,0,0,1-1.792,1.548,2.875,2.875,0,0,1-2-.756Z"/>
        <path class="cls-4" d="M222.309,424.8h-.882l.18-.81h.873l.261-1.243,1.054-.216-.315,1.459h1.233l-.18.81h-1.225l-.486,2.26c-.108.468.054.648.567.648a1.934,1.934,0,0,0,.514-.072l-.181.846a3.3,3.3,0,0,1-.765.09c-.936,0-1.359-.477-1.17-1.332Z"/>
        <path class="cls-4" d="M225.018,427.193a2.188,2.188,0,0,0,1.458.621c.477,0,.837-.27.837-.621,0-.234-.153-.379-.531-.478l-.765-.207c-.7-.189-1.053-.585-1.053-1.17,0-.873.657-1.422,1.692-1.422a2.851,2.851,0,0,1,1.837.666l-.558.63a2.279,2.279,0,0,0-1.342-.531c-.459,0-.738.207-.738.531,0,.261.135.387.522.5l.765.207c.747.207,1.108.567,1.108,1.135a1.643,1.643,0,0,1-1.792,1.548,2.875,2.875,0,0,1-2-.756Z"/>
        <path class="cls-4" d="M231.848,423.988h1.009l-.2.9a1.6,1.6,0,0,1,1.341-.972,1.122,1.122,0,0,1,.5.108l-.2.891a1.208,1.208,0,0,0-.594-.135,1.482,1.482,0,0,0-1.179.684l-.657,3.034h-1.009Z"/>
        <path class="cls-4" d="M236.736,428.588a2.025,2.025,0,0,1-2.124-2.1,2.489,2.489,0,0,1,2.376-2.565,1.849,1.849,0,0,1,1.881,1.989,3.6,3.6,0,0,1-.036.576h-3.249a1.217,1.217,0,0,0,1.233,1.252,1.511,1.511,0,0,0,1.026-.369l.55.666A2.714,2.714,0,0,1,236.736,428.588Zm-1.071-2.719h2.3a1.07,1.07,0,0,0-1.035-1.107A1.365,1.365,0,0,0,235.665,425.869Z"/>
        <path class="cls-4" d="M240.929,423.988l.189-.909a1.6,1.6,0,0,1,1.657-1.405,2.3,2.3,0,0,1,.81.135l-.18.864a1.728,1.728,0,0,0-.594-.108.64.64,0,0,0-.7.6l-.171.82h1.224l-.189.81h-1.206l-.783,3.7h-1l.773-3.7h-.927l.189-.81Z"/>
        <path class="cls-4" d="M245.411,428.588a2.025,2.025,0,0,1-2.124-2.1,2.49,2.49,0,0,1,2.377-2.565,1.849,1.849,0,0,1,1.881,1.989,3.717,3.717,0,0,1-.036.576h-3.25a1.218,1.218,0,0,0,1.233,1.252,1.511,1.511,0,0,0,1.027-.369l.55.666A2.715,2.715,0,0,1,245.411,428.588Zm-1.071-2.719h2.305a1.07,1.07,0,0,0-1.035-1.107A1.367,1.367,0,0,0,244.34,425.869Z"/>
        <path class="cls-4" d="M249.038,423.988h1.008l-.2.9a1.6,1.6,0,0,1,1.342-.972,1.125,1.125,0,0,1,.5.108l-.2.891a1.2,1.2,0,0,0-.593-.135,1.484,1.484,0,0,0-1.18.684l-.657,3.034h-1.008Z"/>
        <path class="cls-4" d="M253.925,428.588a2.025,2.025,0,0,1-2.124-2.1,2.489,2.489,0,0,1,2.377-2.565,1.849,1.849,0,0,1,1.881,1.989,3.717,3.717,0,0,1-.036.576h-3.25a1.217,1.217,0,0,0,1.233,1.252,1.507,1.507,0,0,0,1.026-.369l.55.666A2.712,2.712,0,0,1,253.925,428.588Zm-1.071-2.719h2.3a1.07,1.07,0,0,0-1.035-1.107A1.366,1.366,0,0,0,252.854,425.869Z"/>
        <path class="cls-4" d="M257.562,423.988h1.008l-.144.675a1.858,1.858,0,0,1,1.44-.729,1.261,1.261,0,0,1,1.261,1.71l-.612,2.854h-1l.567-2.62c.154-.675-.162-1.143-.783-1.143a1.332,1.332,0,0,0-1,.486l-.711,3.277H256.58Z"/>
        <path class="cls-4" d="M265.2,427.292l.487.639a2.49,2.49,0,0,1-1.694.657,1.961,1.961,0,0,1-2-2.044,2.551,2.551,0,0,1,2.458-2.619,2.108,2.108,0,0,1,1.782.909l-.72.594a1.211,1.211,0,0,0-1.089-.6A1.56,1.56,0,0,0,263,426.463a1.151,1.151,0,0,0,1.161,1.234A1.524,1.524,0,0,0,265.2,427.292Z"/>
        <path class="cls-4" d="M267.326,428.5h-1.008l.981-4.51h1.008Zm.126-5.977a.72.72,0,0,1,.693-.7.555.555,0,0,1,.558.558.707.707,0,0,1-.7.693A.534.534,0,0,1,267.452,422.521Z"/>
        <path class="cls-4" d="M269.54,423.988h1.008l-.144.675a1.862,1.862,0,0,1,1.441-.729,1.262,1.262,0,0,1,1.261,1.71l-.613,2.854h-1l.568-2.62c.153-.675-.162-1.143-.783-1.143a1.329,1.329,0,0,0-1,.486l-.711,3.277h-1.009Z"/>
        <path class="cls-4" d="M273.994,426.481a2.427,2.427,0,0,1,2.3-2.529,1.581,1.581,0,0,1,1.368.693l.145-.657h.981l-1.017,4.9a1.9,1.9,0,0,1-2.026,1.594,3.54,3.54,0,0,1-2.016-.658l.459-.711a2.6,2.6,0,0,0,1.512.549,1.024,1.024,0,0,0,1.1-.882l.153-.729a1.74,1.74,0,0,1-1.206.477A1.87,1.87,0,0,1,273.994,426.481Zm2.161,1.207a1.377,1.377,0,0,0,.946-.378l.414-1.972a1.311,1.311,0,0,0-1.071-.522,1.5,1.5,0,0,0-1.459,1.584A1.178,1.178,0,0,0,276.155,427.688Z"/>
        <path class="cls-4" d="M282.069,428.5H281.06l.981-4.51h1.008Zm.126-5.977a.719.719,0,0,1,.692-.7.554.554,0,0,1,.558.558.707.707,0,0,1-.7.693A.534.534,0,0,1,282.2,422.521Z"/>
        <path class="cls-4" d="M284.281,423.988h1.008l-.162.765a1.781,1.781,0,0,1,1.4-.819,1.128,1.128,0,0,1,1.162.936,2.055,2.055,0,0,1,1.62-.936c.864,0,1.342.72,1.125,1.7l-.6,2.863h-1.008l.585-2.719c.125-.612-.153-1.044-.693-1.044a1.31,1.31,0,0,0-.991.576,2,2,0,0,1-.045.324l-.612,2.863h-1l.576-2.683c.136-.648-.144-1.08-.694-1.08a1.229,1.229,0,0,0-.926.5l-.711,3.259H283.3Z"/>
        <path class="cls-4" d="M291.112,427.31c0-.883.694-1.45,1.774-1.45a2.925,2.925,0,0,1,1.333.315l.081-.378c.152-.693-.171-1.035-.964-1.035a3.4,3.4,0,0,0-1.224.279l-.243-.747a4.894,4.894,0,0,1,1.71-.369c1.315,0,1.963.7,1.72,1.836l-.6,2.737h-.99l.09-.4a1.966,1.966,0,0,1-1.233.459C291.68,428.552,291.112,428.066,291.112,427.31Zm1.81.531a1.658,1.658,0,0,0,1-.324l.171-.766a2.205,2.205,0,0,0-1.081-.233c-.585,0-.963.278-.963.7C292.049,427.616,292.364,427.841,292.922,427.841Z"/>
        <path class="cls-4" d="M296.188,426.481a2.427,2.427,0,0,1,2.3-2.529,1.583,1.583,0,0,1,1.368.693l.144-.657h.982l-1.018,4.9a1.9,1.9,0,0,1-2.025,1.594,3.54,3.54,0,0,1-2.017-.658l.459-.711a2.6,2.6,0,0,0,1.513.549,1.023,1.023,0,0,0,1.1-.882l.154-.729a1.74,1.74,0,0,1-1.206.477A1.87,1.87,0,0,1,296.188,426.481Zm2.161,1.207a1.375,1.375,0,0,0,.945-.378l.414-1.972a1.31,1.31,0,0,0-1.071-.522,1.5,1.5,0,0,0-1.459,1.584A1.178,1.178,0,0,0,298.349,427.688Z"/>
        <path class="cls-4" d="M303.631,428.588a2.025,2.025,0,0,1-2.124-2.1,2.489,2.489,0,0,1,2.377-2.565,1.849,1.849,0,0,1,1.881,1.989,3.717,3.717,0,0,1-.036.576h-3.25a1.217,1.217,0,0,0,1.233,1.252,1.507,1.507,0,0,0,1.026-.369l.55.666A2.712,2.712,0,0,1,303.631,428.588Zm-1.071-2.719h2.3a1.069,1.069,0,0,0-1.035-1.107A1.366,1.366,0,0,0,302.56,425.869Z"/>
      </g>
    </g>
  </g>
  <g id="Container_Registry" data-name="Container Registry">
    <g>
      <rect class="cls-5" x="327.574" y="366.186" width="104.892" height="45.634"/>
      <g>
        <path class="cls-4" d="M341.619,390.1l.789.76a3.591,3.591,0,1,1,.031-4.737l-.81.8a2.461,2.461,0,1,0-1.879,4.088A2.371,2.371,0,0,0,341.619,390.1Z"/>
        <path class="cls-4" d="M345.8,386.9a2.595,2.595,0,1,1-2.519,2.589A2.5,2.5,0,0,1,345.8,386.9Zm1.4,2.6a1.415,1.415,0,1,0-2.8,0,1.413,1.413,0,1,0,2.8,0Z"/>
        <path class="cls-4" d="M349.491,386.981h1.13v.82a1.817,1.817,0,0,1,1.589-.9,1.686,1.686,0,0,1,1.73,1.789v3.3h-1.13V389.01a1.078,1.078,0,0,0-1.1-1.2,1.285,1.285,0,0,0-1.089.6v3.578h-1.13Z"/>
        <path class="cls-4" d="M355.931,387.88h-1.01v-.9h1.01V385.6l1.129-.24v1.619h1.4v.9h-1.4v2.539c0,.49.19.68.7.68a2.08,2.08,0,0,0,.68-.12v.949a3.554,3.554,0,0,1-.97.14c-1.01,0-1.539-.48-1.539-1.4Z"/>
        <path class="cls-4" d="M359.2,390.549c0-.9.73-1.469,1.909-1.469a3.1,3.1,0,0,1,1.349.31v-.55c0-.66-.38-1-1.149-1a3.459,3.459,0,0,0-1.459.39l-.4-.819a4.809,4.809,0,0,1,2.079-.51c1.3,0,2.049.66,2.049,1.819v3.268H362.46v-.509a2.094,2.094,0,0,1-1.489.589A1.578,1.578,0,0,1,359.2,390.549Zm2.078.73a1.785,1.785,0,0,0,1.18-.41v-.82a2.588,2.588,0,0,0-1.159-.239c-.64,0-1.04.279-1.04.719C360.261,390.989,360.661,391.279,361.28,391.279Z"/>
        <path class="cls-4" d="M364.812,385.272a.7.7,0,0,1,1.409,0,.7.7,0,0,1-1.409,0Zm1.269,6.716h-1.13v-5.007h1.13Z"/>
        <path class="cls-4" d="M367.471,386.981h1.13v.82a1.817,1.817,0,0,1,1.589-.9,1.685,1.685,0,0,1,1.729,1.789v3.3h-1.13V389.01a1.077,1.077,0,0,0-1.1-1.2,1.283,1.283,0,0,0-1.089.6v3.578h-1.13Z"/>
        <path class="cls-4" d="M375.611,392.088a2.545,2.545,0,0,1-2.549-2.6A2.467,2.467,0,0,1,375.5,386.9a2.4,2.4,0,0,1,2.369,2.579v.279h-3.7a1.53,1.53,0,0,0,1.5,1.37,1.628,1.628,0,0,0,1.19-.47l.739.69A2.9,2.9,0,0,1,375.611,392.088Zm-1.419-3.018H376.8a1.37,1.37,0,0,0-1.31-1.249A1.343,1.343,0,0,0,374.192,389.07Z"/>
        <path class="cls-4" d="M379.021,386.981h1.13v1.089a1.484,1.484,0,0,1,1.378-1.179,1.34,1.34,0,0,1,.491.1v.989a1.593,1.593,0,0,0-.62-.12,1.375,1.375,0,0,0-1.249.83v3.3h-1.13Z"/>
        <path class="cls-4" d="M385.341,384.992h3.108a2.132,2.132,0,0,1,2.338,2.119,1.988,1.988,0,0,1-1.379,1.919l1.47,2.958h-1.33l-1.349-2.8H386.54v2.8h-1.2Zm1.2,1.009v2.229h1.809a1.12,1.12,0,1,0,0-2.229Z"/>
        <path class="cls-4" d="M394.239,392.088a2.545,2.545,0,0,1-2.548-2.6,2.466,2.466,0,0,1,2.438-2.589,2.4,2.4,0,0,1,2.369,2.579v.279h-3.7a1.529,1.529,0,0,0,1.5,1.37,1.624,1.624,0,0,0,1.189-.47l.74.69A2.9,2.9,0,0,1,394.239,392.088Zm-1.419-3.018h2.609a1.37,1.37,0,0,0-1.31-1.249A1.345,1.345,0,0,0,392.82,389.07Z"/>
        <path class="cls-4" d="M397.421,389.48a2.416,2.416,0,0,1,2.339-2.539,1.883,1.883,0,0,1,1.469.68v-.64h1.12v5.177c0,1.289-.84,2-2.36,2a4.344,4.344,0,0,1-2.008-.48l.4-.839a3.416,3.416,0,0,0,1.559.43c.839,0,1.279-.38,1.279-1.11v-.849a1.942,1.942,0,0,1-1.529.709A2.4,2.4,0,0,1,397.421,389.48Zm2.608,1.6a1.5,1.5,0,0,0,1.19-.55v-2.1a1.553,1.553,0,0,0-1.19-.539,1.493,1.493,0,0,0-1.489,1.589A1.514,1.514,0,0,0,400.029,391.079Z"/>
        <path class="cls-4" d="M403.6,385.272a.7.7,0,0,1,1.409,0,.7.7,0,0,1-1.409,0Zm1.269,6.716h-1.13v-5.007h1.13Z"/>
        <path class="cls-4" d="M406.34,390.649a2.887,2.887,0,0,0,1.609.57c.6,0,1.01-.27,1.01-.67,0-.31-.21-.48-.689-.569l-.89-.15c-.97-.181-1.449-.63-1.449-1.38,0-.939.769-1.549,1.938-1.549a3.52,3.52,0,0,1,1.969.6l-.529.739a2.745,2.745,0,0,0-1.51-.479c-.52,0-.859.219-.859.589,0,.32.18.46.71.55l.879.16c1,.19,1.479.649,1.479,1.4a1.835,1.835,0,0,1-2.039,1.629,3.361,3.361,0,0,1-2.158-.679Z"/>
        <path class="cls-4" d="M411.67,387.88h-1.01v-.9h1.01V385.6l1.129-.24v1.619h1.4v.9h-1.4v2.539c0,.49.19.68.7.68a2.076,2.076,0,0,0,.68-.12v.949a3.554,3.554,0,0,1-.97.14c-1.01,0-1.539-.48-1.539-1.4Z"/>
        <path class="cls-4" d="M415.19,386.981h1.13v1.089a1.484,1.484,0,0,1,1.378-1.179,1.34,1.34,0,0,1,.491.1v.989a1.6,1.6,0,0,0-.62-.12,1.374,1.374,0,0,0-1.249.83v3.3h-1.13Z"/>
        <path class="cls-4" d="M420.4,392.018l-1.889-5.037h1.26l1.268,3.718,1.4-3.718h1.229l-2.379,5.827a1.692,1.692,0,0,1-1.778,1.319,2.4,2.4,0,0,1-.57-.07v-.969a3.984,3.984,0,0,0,.44.039.8.8,0,0,0,.809-.579Z"/>
      </g>
    </g>
  </g>
  <g id="mvn_oc:push" data-name="mvn oc:push">
    <g>
      <rect class="cls-3" x="343.423" y="327.211" width="73.196" height="17.31"/>
      <g>
        <path class="cls-4" d="M353.827,334.057h1.432l-.189.855a1.888,1.888,0,0,1,1.476-.909,1.1,1.1,0,0,1,1.134.981,2.093,2.093,0,0,1,1.666-.981c.837,0,1.287.72,1.08,1.71l-.63,2.989h-1.432l.577-2.764c.1-.477-.118-.81-.54-.81a.955.955,0,0,0-.721.414,1.519,1.519,0,0,1-.026.171l-.631,2.989h-1.431l.576-2.764c.1-.5-.108-.81-.54-.81a.935.935,0,0,0-.684.369l-.694,3.2h-1.431Z"/>
        <path class="cls-4" d="M361.387,334.057h1.5L363.3,337l1.666-2.943h1.522l-2.872,4.645h-1.387Z"/>
        <path class="cls-4" d="M367.1,334.057h1.431l-.153.72A1.994,1.994,0,0,1,369.9,334c.936,0,1.431.675,1.214,1.665l-.647,3.034h-1.432l.576-2.674c.118-.531-.134-.9-.621-.9a1.042,1.042,0,0,0-.765.351l-.7,3.223h-1.432Z"/>
        <path class="cls-4" d="M376.382,333.985a2.1,2.1,0,0,1,2.179,2.161,2.634,2.634,0,0,1-2.593,2.646,2.112,2.112,0,0,1-2.179-2.169A2.609,2.609,0,0,1,376.382,333.985Zm.774,2.2a.863.863,0,0,0-.864-.982,1.233,1.233,0,0,0-1.1,1.35c0,.622.333,1.009.855,1.009A1.227,1.227,0,0,0,377.156,336.182Z"/>
        <path class="cls-4" d="M382.5,337.154l.7.909a2.543,2.543,0,0,1-1.809.738,2.064,2.064,0,0,1-2.134-2.124,2.6,2.6,0,0,1,2.548-2.692,2.217,2.217,0,0,1,1.935.99l-1.007.828a1.011,1.011,0,0,0-.955-.567,1.215,1.215,0,0,0-1.1,1.314.9.9,0,0,0,.936.991A1.175,1.175,0,0,0,382.5,337.154Z"/>
        <path class="cls-4" d="M385.335,337.847a.956.956,0,0,1-.89.954.718.718,0,0,1-.721-.747.948.948,0,0,1,.919-.954A.707.707,0,0,1,385.335,337.847Zm.694-3.133a.956.956,0,0,1-.891.954.718.718,0,0,1-.721-.747.948.948,0,0,1,.918-.954A.707.707,0,0,1,386.029,334.714Z"/>
        <path class="cls-4" d="M387.208,334.057h1.413l-.09.468a1.679,1.679,0,0,1,1.189-.5,1.942,1.942,0,0,1,1.746,2.124,2.47,2.47,0,0,1-2.35,2.575,1.451,1.451,0,0,1-1.323-.729l-.567,2.638h-1.432Zm1.116,1.476-.333,1.549a1.116,1.116,0,0,0,.9.441,1.19,1.19,0,0,0,1.178-1.252.977.977,0,0,0-.98-1.044A1.109,1.109,0,0,0,388.324,335.533Z"/>
        <path class="cls-4" d="M393.706,336.73c-.117.532.135.9.621.9a1.039,1.039,0,0,0,.765-.351l.7-3.223h1.432l-1.008,4.645h-1.432l.154-.72a2,2,0,0,1-1.522.774,1.235,1.235,0,0,1-1.216-1.665l.649-3.034h1.431Z"/>
        <path class="cls-4" d="M397.953,337.145a2.624,2.624,0,0,0,1.487.585c.341,0,.585-.162.585-.387,0-.162-.109-.261-.361-.324l-.855-.216a1.281,1.281,0,0,1-1.1-1.234c0-1,.693-1.593,1.863-1.593a3.2,3.2,0,0,1,1.99.675l-.765.873a2.327,2.327,0,0,0-1.306-.5c-.342,0-.522.117-.522.333,0,.171.1.252.4.333l.837.216c.739.19,1.153.622,1.153,1.207A1.789,1.789,0,0,1,399.4,338.8a3.44,3.44,0,0,1-2.207-.729Z"/>
        <path class="cls-4" d="M403.219,332.265l1.494-.225-.585,2.773a2.01,2.01,0,0,1,1.558-.81c.936,0,1.431.675,1.215,1.665l-.648,3.034h-1.432l.577-2.674c.117-.531-.135-.9-.621-.9a1.064,1.064,0,0,0-.792.378l-.676,3.2h-1.432Z"/>
      </g>
    </g>
  </g>
  <g id="Container_Image" data-name="Container Image">
    <g>
      <rect class="cls-5" x="327.574" y="261.178" width="104.892" height="45.634"/>
      <g>
        <path class="cls-4" d="M347.172,285.091l.789.76a3.59,3.59,0,1,1,.03-4.737l-.809.8A2.461,2.461,0,1,0,345.3,286,2.372,2.372,0,0,0,347.172,285.091Z"/>
        <path class="cls-4" d="M351.353,281.893a2.6,2.6,0,1,1-2.519,2.589A2.5,2.5,0,0,1,351.353,281.893Zm1.4,2.6a1.416,1.416,0,1,0-2.8,0,1.413,1.413,0,1,0,2.8,0Z"/>
        <path class="cls-4" d="M355.044,281.973h1.13v.82a1.817,1.817,0,0,1,1.589-.9,1.685,1.685,0,0,1,1.729,1.789v3.3h-1.13V284a1.077,1.077,0,0,0-1.1-1.2,1.285,1.285,0,0,0-1.089.6v3.578h-1.13Z"/>
        <path class="cls-4" d="M361.484,282.873h-1.01v-.9h1.01v-1.379l1.128-.24v1.619h1.4v.9h-1.4v2.538c0,.49.191.68.7.68a2.07,2.07,0,0,0,.679-.12v.949a3.554,3.554,0,0,1-.969.141c-1.01,0-1.539-.48-1.539-1.4Z"/>
        <path class="cls-4" d="M364.755,285.541c0-.9.73-1.469,1.908-1.469a3.1,3.1,0,0,1,1.35.31v-.55c0-.66-.38-1-1.15-1a3.466,3.466,0,0,0-1.459.39l-.4-.82a4.806,4.806,0,0,1,2.079-.51c1.3,0,2.049.66,2.049,1.819v3.268h-1.119v-.509a2.1,2.1,0,0,1-1.489.59A1.579,1.579,0,0,1,364.755,285.541Zm2.078.73a1.787,1.787,0,0,0,1.18-.41v-.819a2.588,2.588,0,0,0-1.159-.24c-.64,0-1.04.28-1.04.719C365.814,285.981,366.214,286.271,366.833,286.271Z"/>
        <path class="cls-4" d="M370.364,280.264a.705.705,0,0,1,1.41,0,.705.705,0,0,1-1.41,0Zm1.27,6.716H370.5v-5.007h1.13Z"/>
        <path class="cls-4" d="M373.024,281.973h1.13v.82a1.814,1.814,0,0,1,1.588-.9,1.686,1.686,0,0,1,1.73,1.789v3.3h-1.13V284a1.078,1.078,0,0,0-1.1-1.2,1.282,1.282,0,0,0-1.088.6v3.578h-1.13Z"/>
        <path class="cls-4" d="M381.163,287.081a2.546,2.546,0,0,1-2.549-2.6,2.467,2.467,0,0,1,2.439-2.589,2.4,2.4,0,0,1,2.369,2.579v.279h-3.7a1.529,1.529,0,0,0,1.5,1.37,1.624,1.624,0,0,0,1.189-.47l.74.69A2.9,2.9,0,0,1,381.163,287.081Zm-1.419-3.019h2.609a1.37,1.37,0,0,0-1.31-1.249A1.345,1.345,0,0,0,379.744,284.062Z"/>
        <path class="cls-4" d="M384.573,281.973h1.13v1.09a1.485,1.485,0,0,1,1.379-1.18,1.331,1.331,0,0,1,.49.1v.99a1.59,1.59,0,0,0-.62-.12,1.375,1.375,0,0,0-1.249.829v3.3h-1.13Z"/>
        <path class="cls-4" d="M390.833,279.984h1.2v7h-1.2Z"/>
        <path class="cls-4" d="M393.524,281.973h1.13v.8a1.707,1.707,0,0,1,1.489-.88,1.573,1.573,0,0,1,1.469.97,1.847,1.847,0,0,1,1.659-.97,1.659,1.659,0,0,1,1.639,1.819v3.268h-1.13v-3.028a1.012,1.012,0,0,0-1.009-1.149,1.19,1.19,0,0,0-1.009.59c.01.109.019.21.019.319v3.268h-1.128v-3.028a1.013,1.013,0,0,0-1.01-1.149,1.16,1.16,0,0,0-.989.57v3.607h-1.13Z"/>
        <path class="cls-4" d="M402.034,285.541c0-.9.73-1.469,1.909-1.469a3.1,3.1,0,0,1,1.349.31v-.55c0-.66-.38-1-1.149-1a3.459,3.459,0,0,0-1.459.39l-.4-.82a4.809,4.809,0,0,1,2.079-.51c1.3,0,2.049.66,2.049,1.819v3.268h-1.119v-.509a2.1,2.1,0,0,1-1.489.59A1.579,1.579,0,0,1,402.034,285.541Zm2.078.73a1.785,1.785,0,0,0,1.18-.41v-.819a2.588,2.588,0,0,0-1.159-.24c-.64,0-1.04.28-1.04.719C403.093,285.981,403.493,286.271,404.112,286.271Z"/>
        <path class="cls-4" d="M407.554,284.472a2.416,2.416,0,0,1,2.339-2.539,1.885,1.885,0,0,1,1.469.68v-.64h1.12v5.177c0,1.289-.84,2-2.36,2a4.338,4.338,0,0,1-2.009-.48l.4-.839a3.4,3.4,0,0,0,1.558.43c.84,0,1.28-.38,1.28-1.11V286.3a1.942,1.942,0,0,1-1.53.709A2.4,2.4,0,0,1,407.554,284.472Zm2.608,1.6a1.5,1.5,0,0,0,1.19-.55v-2.1a1.557,1.557,0,0,0-1.19-.539,1.493,1.493,0,0,0-1.489,1.589A1.514,1.514,0,0,0,410.162,286.071Z"/>
        <path class="cls-4" d="M416.193,287.081a2.546,2.546,0,0,1-2.549-2.6,2.467,2.467,0,0,1,2.438-2.589,2.4,2.4,0,0,1,2.369,2.579v.279h-3.7a1.53,1.53,0,0,0,1.5,1.37,1.628,1.628,0,0,0,1.19-.47l.739.69A2.894,2.894,0,0,1,416.193,287.081Zm-1.419-3.019h2.608a1.37,1.37,0,0,0-1.31-1.249A1.345,1.345,0,0,0,414.774,284.062Z"/>
      </g>
    </g>
  </g>
  <g id="Red_Hat_Openshift_Container_Platform" data-name="Red Hat Openshift Container Platform">
    <rect class="cls-5" x="63.62" y="261.178" width="104.451" height="150.642"/>
    <rect class="cls-3" x="81.051" y="312.971" width="69.708" height="80.975"/>
    <g>
      <path class="cls-4" d="M92.771,330.808h3.108a2.132,2.132,0,0,1,2.339,2.118,1.989,1.989,0,0,1-1.379,1.919l1.469,2.959H96.979l-1.35-2.8H93.97v2.8h-1.2Zm1.2,1.009v2.229h1.809a1.12,1.12,0,1,0,0-2.229Z"/>
      <path class="cls-4" d="M101.67,337.9a2.546,2.546,0,0,1-2.549-2.6,2.467,2.467,0,0,1,2.439-2.589,2.4,2.4,0,0,1,2.369,2.579v.28h-3.7a1.529,1.529,0,0,0,1.5,1.369,1.63,1.63,0,0,0,1.189-.469l.74.689A2.9,2.9,0,0,1,101.67,337.9Zm-1.419-3.019h2.608a1.371,1.371,0,0,0-1.309-1.249A1.345,1.345,0,0,0,100.251,334.885Z"/>
      <path class="cls-4" d="M108.659,337.134a1.928,1.928,0,0,1-1.54.72,2.562,2.562,0,0,1,.071-5.1,1.914,1.914,0,0,1,1.459.66v-2.758l1.129-.19V337.8h-1.119Zm-1.2-.23a1.5,1.5,0,0,0,1.19-.549v-2.109a1.554,1.554,0,0,0-1.19-.54,1.6,1.6,0,0,0,0,3.2Z"/>
      <path class="cls-4" d="M113.521,330.808h1.2v2.948H118.2v-2.948h1.2v7h-1.2v-3H114.72v3h-1.2Z"/>
      <path class="cls-4" d="M120.641,336.364c0-.9.729-1.468,1.909-1.468a3.091,3.091,0,0,1,1.349.309v-.55c0-.659-.38-1-1.149-1a3.459,3.459,0,0,0-1.459.39l-.4-.82a4.8,4.8,0,0,1,2.078-.51c1.3,0,2.049.66,2.049,1.82V337.8H123.9v-.51a2.089,2.089,0,0,1-1.489.59A1.579,1.579,0,0,1,120.641,336.364Zm2.079.73a1.789,1.789,0,0,0,1.179-.409v-.82a2.591,2.591,0,0,0-1.159-.24c-.64,0-1.04.28-1.04.72C121.7,336.8,122.1,337.094,122.72,337.094Z"/>
      <path class="cls-4" d="M127.01,333.7H126v-.9h1.009v-1.379l1.129-.24V332.8h1.4v.9h-1.4v2.538c0,.49.19.68.7.68a2.08,2.08,0,0,0,.68-.12v.95a3.554,3.554,0,0,1-.97.14c-1.009,0-1.539-.48-1.539-1.4Z"/>
      <path class="cls-4" d="M95.989,349.914a3.609,3.609,0,1,1,3.538-3.608A3.541,3.541,0,0,1,95.989,349.914Zm.01-6.147a2.543,2.543,0,0,0,0,5.067,2.545,2.545,0,0,0,0-5.067Z"/>
      <path class="cls-4" d="M100.741,344.8h1.109v.72a1.887,1.887,0,0,1,1.559-.76,2.4,2.4,0,0,1,2.269,2.549,2.427,2.427,0,0,1-2.349,2.549,1.872,1.872,0,0,1-1.459-.65v2.718h-1.129Zm1.129,1.47v2.089a1.538,1.538,0,0,0,1.2.549,1.6,1.6,0,0,0,0-3.2A1.471,1.471,0,0,0,101.87,346.266Z"/>
      <path class="cls-4" d="M109.17,349.9a2.546,2.546,0,0,1-2.549-2.6,2.466,2.466,0,0,1,2.438-2.589,2.4,2.4,0,0,1,2.369,2.579v.28h-3.7a1.53,1.53,0,0,0,1.5,1.369,1.631,1.631,0,0,0,1.19-.469l.739.689A2.892,2.892,0,0,1,109.17,349.9Zm-1.42-3.019h2.609a1.371,1.371,0,0,0-1.309-1.249A1.346,1.346,0,0,0,107.75,346.885Z"/>
      <path class="cls-4" d="M112.581,344.8h1.129v.82a1.818,1.818,0,0,1,1.589-.9,1.685,1.685,0,0,1,1.729,1.789v3.3H115.9v-2.979a1.078,1.078,0,0,0-1.1-1.2,1.284,1.284,0,0,0-1.09.6V349.8h-1.129Z"/>
      <path class="cls-4" d="M118.591,347.9a3.5,3.5,0,0,0,2.348,1.019c.929,0,1.569-.47,1.569-1.109,0-.57-.339-.83-1.269-1l-1.29-.22c-1.209-.219-1.8-.819-1.8-1.778,0-1.26,1.009-2.1,2.578-2.1a4.671,4.671,0,0,1,2.809.909l-.61.9a3.629,3.629,0,0,0-2.239-.81c-.839,0-1.389.42-1.389.989,0,.5.31.76,1.08.88l1.239.22c1.409.24,2.069.859,2.069,1.919,0,1.279-1.14,2.189-2.809,2.189a4.4,4.4,0,0,1-2.938-1.13Z"/>
      <path class="cls-4" d="M124.771,342.658l1.129-.19v3.148a1.818,1.818,0,0,1,1.589-.9,1.685,1.685,0,0,1,1.729,1.789v3.3h-1.129v-2.979a1.079,1.079,0,0,0-1.1-1.2,1.284,1.284,0,0,0-1.089.6V349.8h-1.129Z"/>
      <path class="cls-4" d="M130.45,343.087a.705.705,0,0,1,1.41,0,.705.705,0,0,1-1.41,0Zm1.27,6.717h-1.129V344.8h1.129Z"/>
      <path class="cls-4" d="M133.79,344.8v-.889a1.537,1.537,0,0,1,1.729-1.679,2.724,2.724,0,0,1,.75.1v.959a2.347,2.347,0,0,0-.6-.079c-.52,0-.749.229-.749.719v.869h1.349v.9H134.92V349.8h-1.13V345.7h-1.079v-.9Z"/>
      <path class="cls-4" d="M137.84,345.7h-1.009v-.9h1.009v-1.379l1.129-.24V344.8h1.4v.9h-1.4v2.538c0,.49.19.68.7.68a2.076,2.076,0,0,0,.68-.12v.95a3.554,3.554,0,0,1-.97.14c-1.009,0-1.539-.48-1.539-1.4Z"/>
      <path class="cls-4" d="M97.968,359.915l.79.759a3.59,3.59,0,1,1,.03-4.737l-.81.8a2.461,2.461,0,1,0-1.879,4.088A2.373,2.373,0,0,0,97.968,359.915Z"/>
      <path class="cls-4" d="M102.15,356.716a2.6,2.6,0,1,1-2.519,2.589A2.5,2.5,0,0,1,102.15,356.716Zm1.4,2.6a1.415,1.415,0,1,0-2.8,0,1.413,1.413,0,1,0,2.8,0Z"/>
      <path class="cls-4" d="M105.841,356.8h1.129v.82a1.818,1.818,0,0,1,1.589-.9,1.685,1.685,0,0,1,1.729,1.789v3.3h-1.129v-2.979a1.078,1.078,0,0,0-1.1-1.2,1.284,1.284,0,0,0-1.09.6V361.8h-1.129Z"/>
      <path class="cls-4" d="M112.28,357.7h-1.009v-.9h1.009v-1.379l1.13-.24V356.8h1.4v.9h-1.4v2.538c0,.49.19.68.7.68a2.074,2.074,0,0,0,.679-.12v.95a3.553,3.553,0,0,1-.969.14c-1.01,0-1.54-.48-1.54-1.4Z"/>
      <path class="cls-4" d="M115.55,360.364c0-.9.73-1.468,1.91-1.468a3.094,3.094,0,0,1,1.349.309v-.55c0-.659-.38-1-1.15-1a3.462,3.462,0,0,0-1.459.39l-.4-.82a4.809,4.809,0,0,1,2.079-.51c1.3,0,2.049.66,2.049,1.82V361.8h-1.119v-.51a2.091,2.091,0,0,1-1.489.59A1.58,1.58,0,0,1,115.55,360.364Zm2.08.73a1.79,1.79,0,0,0,1.179-.409v-.82a2.591,2.591,0,0,0-1.159-.24c-.64,0-1.04.28-1.04.72C116.61,360.8,117.01,361.094,117.63,361.094Z"/>
      <path class="cls-4" d="M121.16,355.087a.705.705,0,0,1,1.41,0,.705.705,0,0,1-1.41,0Zm1.27,6.717H121.3V356.8h1.13Z"/>
      <path class="cls-4" d="M123.82,356.8h1.13v.82a1.817,1.817,0,0,1,1.589-.9,1.685,1.685,0,0,1,1.729,1.789v3.3h-1.13v-2.979a1.078,1.078,0,0,0-1.1-1.2,1.283,1.283,0,0,0-1.089.6V361.8h-1.13Z"/>
      <path class="cls-4" d="M131.959,361.9a2.546,2.546,0,0,1-2.549-2.6,2.467,2.467,0,0,1,2.439-2.589,2.4,2.4,0,0,1,2.369,2.579v.28h-3.7a1.529,1.529,0,0,0,1.5,1.369,1.63,1.63,0,0,0,1.189-.469l.74.689A2.9,2.9,0,0,1,131.959,361.9Zm-1.419-3.019h2.608a1.371,1.371,0,0,0-1.309-1.249A1.345,1.345,0,0,0,130.54,358.885Z"/>
      <path class="cls-4" d="M135.37,356.8h1.13v1.09a1.483,1.483,0,0,1,1.379-1.179,1.294,1.294,0,0,1,.489.1v.989a1.585,1.585,0,0,0-.619-.12,1.373,1.373,0,0,0-1.249.829v3.3h-1.13Z"/>
      <path class="cls-4" d="M92.771,366.808H95.9a2.17,2.17,0,1,1,0,4.327H93.97V373.8h-1.2Zm1.2,1.009v2.339h1.739a1.178,1.178,0,1,0,.01-2.339Z"/>
      <path class="cls-4" d="M100.55,373.8H99.421v-7.146l1.129-.19Z"/>
      <path class="cls-4" d="M101.691,372.364c0-.9.73-1.468,1.909-1.468a3.088,3.088,0,0,1,1.349.309v-.55c0-.659-.379-1-1.149-1a3.462,3.462,0,0,0-1.459.39l-.4-.82a4.806,4.806,0,0,1,2.079-.51c1.3,0,2.049.66,2.049,1.82V373.8h-1.12v-.51a2.088,2.088,0,0,1-1.489.59A1.579,1.579,0,0,1,101.691,372.364Zm2.079.73a1.787,1.787,0,0,0,1.179-.409v-.82a2.585,2.585,0,0,0-1.159-.24c-.639,0-1.039.28-1.039.72C102.751,372.8,103.151,373.094,103.77,373.094Z"/>
      <path class="cls-4" d="M108.06,369.7h-1.009v-.9h1.009v-1.379l1.13-.24V368.8h1.4v.9h-1.4v2.538c0,.49.19.68.7.68a2.076,2.076,0,0,0,.68-.12v.95a3.554,3.554,0,0,1-.97.14c-1.009,0-1.539-.48-1.539-1.4Z"/>
      <path class="cls-4" d="M112.26,368.8v-.889a1.537,1.537,0,0,1,1.729-1.679,2.724,2.724,0,0,1,.75.1v.959a2.347,2.347,0,0,0-.6-.079c-.52,0-.749.229-.749.719v.869h1.349v.9H113.39V373.8h-1.13V369.7h-1.079v-.9Z"/>
      <path class="cls-4" d="M117.979,368.716a2.6,2.6,0,1,1-2.518,2.589A2.5,2.5,0,0,1,117.979,368.716Zm1.4,2.6a1.416,1.416,0,1,0-2.8,0,1.413,1.413,0,1,0,2.8,0Z"/>
      <path class="cls-4" d="M121.671,368.8H122.8v1.09a1.485,1.485,0,0,1,1.379-1.179,1.3,1.3,0,0,1,.49.1v.989a1.593,1.593,0,0,0-.62-.12,1.374,1.374,0,0,0-1.249.829v3.3h-1.129Z"/>
      <path class="cls-4" d="M125.6,368.8h1.13v.8a1.706,1.706,0,0,1,1.489-.88,1.574,1.574,0,0,1,1.469.97,1.847,1.847,0,0,1,1.659-.97,1.659,1.659,0,0,1,1.639,1.82V373.8h-1.129v-3.029a1.013,1.013,0,0,0-1.01-1.149,1.193,1.193,0,0,0-1.009.59c.01.11.02.21.02.32V373.8h-1.129v-3.029a1.013,1.013,0,0,0-1.01-1.149,1.16,1.16,0,0,0-.989.57V373.8H125.6Z"/>
    </g>
  </g>
  <g id="mvn_oc:apply" data-name="mvn oc:apply">
    <g>
      <rect class="cls-3" x="81.45" y="219.017" width="69.242" height="17.31"/>
      <g>
        <path class="cls-4" d="M88.353,225.863h1.431l-.189.855a1.891,1.891,0,0,1,1.477-.909,1.1,1.1,0,0,1,1.134.981,2.093,2.093,0,0,1,1.666-.981c.837,0,1.287.72,1.08,1.711l-.63,2.988H92.89l.576-2.763c.1-.477-.117-.811-.54-.811a.954.954,0,0,0-.72.414,1.347,1.347,0,0,1-.027.172l-.63,2.988H90.117l.577-2.763c.1-.5-.108-.811-.54-.811a.939.939,0,0,0-.685.369l-.693,3.205H87.345Z"/>
        <path class="cls-4" d="M95.913,225.863h1.5l.405,2.944,1.666-2.944h1.521l-2.872,4.645H96.75Z"/>
        <path class="cls-4" d="M101.628,225.863h1.431l-.153.72a2,2,0,0,1,1.522-.774c.936,0,1.431.675,1.215,1.666L105,230.508h-1.431l.576-2.674c.117-.531-.135-.9-.621-.9a1.042,1.042,0,0,0-.766.351l-.7,3.223H100.62Z"/>
        <path class="cls-4" d="M110.907,225.791a2.1,2.1,0,0,1,2.179,2.161,2.634,2.634,0,0,1-2.593,2.646,2.112,2.112,0,0,1-2.178-2.169A2.609,2.609,0,0,1,110.907,225.791Zm.774,2.2a.863.863,0,0,0-.864-.981,1.234,1.234,0,0,0-1.1,1.35c0,.622.333,1.009.855,1.009C111.213,229.365,111.681,228.78,111.681,227.987Z"/>
        <path class="cls-4" d="M117.027,228.96l.7.909a2.545,2.545,0,0,1-1.809.738,2.064,2.064,0,0,1-2.134-2.124,2.6,2.6,0,0,1,2.548-2.692,2.222,2.222,0,0,1,1.936.99l-1.009.828a1.01,1.01,0,0,0-.954-.567,1.215,1.215,0,0,0-1.1,1.314.9.9,0,0,0,.936.991A1.175,1.175,0,0,0,117.027,228.96Z"/>
        <path class="cls-4" d="M119.862,229.653a.957.957,0,0,1-.892.954.717.717,0,0,1-.72-.747.948.948,0,0,1,.918-.954A.707.707,0,0,1,119.862,229.653Zm.693-3.133a.957.957,0,0,1-.892.955.718.718,0,0,1-.72-.748.948.948,0,0,1,.919-.954A.707.707,0,0,1,120.555,226.52Z"/>
        <path class="cls-4" d="M120.833,229.293c0-.927.711-1.485,1.882-1.5a3.481,3.481,0,0,1,1.179.217l.045-.225c.117-.55-.18-.81-.909-.81a3.9,3.9,0,0,0-1.18.233l-.323-1.026a5.647,5.647,0,0,1,1.89-.387c1.476,0,2.215.747,1.945,1.98l-.595,2.728h-1.413l.09-.4a1.914,1.914,0,0,1-1.18.432C121.383,230.544,120.833,230.067,120.833,229.293Zm2.008.315a1.451,1.451,0,0,0,.747-.2l.144-.657a3.315,3.315,0,0,0-.828-.1c-.5,0-.766.189-.766.522C122.138,229.446,122.391,229.608,122.841,229.608Z"/>
        <path class="cls-4" d="M126.863,225.863h1.414l-.09.468a1.675,1.675,0,0,1,1.188-.495,1.943,1.943,0,0,1,1.747,2.124,2.471,2.471,0,0,1-2.35,2.575,1.453,1.453,0,0,1-1.324-.729l-.567,2.638H125.45Zm1.117,1.476-.333,1.549a1.111,1.111,0,0,0,.9.441,1.189,1.189,0,0,0,1.179-1.251.978.978,0,0,0-.981-1.045A1.105,1.105,0,0,0,127.98,227.339Z"/>
        <path class="cls-4" d="M132.543,225.863h1.413l-.09.468a1.675,1.675,0,0,1,1.188-.495,1.943,1.943,0,0,1,1.747,2.124,2.471,2.471,0,0,1-2.35,2.575,1.451,1.451,0,0,1-1.323-.729l-.567,2.638h-1.432Zm1.116,1.476-.333,1.549a1.113,1.113,0,0,0,.9.441,1.189,1.189,0,0,0,1.179-1.251.978.978,0,0,0-.981-1.045A1.105,1.105,0,0,0,133.659,227.339Z"/>
        <path class="cls-4" d="M138.644,230.508h-1.431l1.368-6.437,1.468-.225Z"/>
        <path class="cls-4" d="M140.894,230.589l-.666-4.726H141.7l.3,3.124,1.764-3.124h1.557l-3.177,5.284a2.331,2.331,0,0,1-2.089,1.324,3.074,3.074,0,0,1-.8-.117l.261-1.215a2.155,2.155,0,0,0,.441.053.837.837,0,0,0,.828-.414Z"/>
      </g>
    </g>
  </g>
  <g id="mvn_oc:build" data-name="mvn oc:build">
    <g>
      <rect class="cls-3" x="343.423" y="116.024" width="73.196" height="17.31"/>
      <g>
        <path class="cls-4" d="M353.445,122.87h1.431l-.189.855a1.888,1.888,0,0,1,1.476-.909,1.1,1.1,0,0,1,1.134.981,2.093,2.093,0,0,1,1.666-.981c.837,0,1.287.72,1.08,1.71l-.63,2.989h-1.431l.576-2.764c.1-.477-.117-.81-.54-.81a.957.957,0,0,0-.721.414,1.519,1.519,0,0,1-.026.171l-.631,2.989h-1.431l.576-2.764c.1-.5-.108-.81-.54-.81a.937.937,0,0,0-.684.369l-.694,3.2h-1.431Z"/>
        <path class="cls-4" d="M361,122.87h1.5l.4,2.943,1.666-2.943H366.1l-2.872,4.645h-1.387Z"/>
        <path class="cls-4" d="M366.719,122.87h1.432l-.154.72a1.994,1.994,0,0,1,1.522-.774c.936,0,1.431.675,1.215,1.665l-.648,3.034h-1.432l.577-2.674c.117-.531-.135-.9-.621-.9a1.042,1.042,0,0,0-.766.351l-.7,3.223H365.71Z"/>
        <path class="cls-4" d="M376,122.8a2.1,2.1,0,0,1,2.179,2.161,2.634,2.634,0,0,1-2.593,2.646,2.112,2.112,0,0,1-2.179-2.169A2.609,2.609,0,0,1,376,122.8Zm.775,2.2a.863.863,0,0,0-.865-.981,1.233,1.233,0,0,0-1.1,1.35c0,.622.333,1.009.855,1.009A1.228,1.228,0,0,0,376.774,124.994Z"/>
        <path class="cls-4" d="M382.118,125.967l.7.909a2.543,2.543,0,0,1-1.809.738,2.065,2.065,0,0,1-2.134-2.124,2.6,2.6,0,0,1,2.548-2.692,2.22,2.22,0,0,1,1.936.99l-1.008.828a1.011,1.011,0,0,0-.954-.567,1.215,1.215,0,0,0-1.1,1.314.9.9,0,0,0,.937.991A1.175,1.175,0,0,0,382.118,125.967Z"/>
        <path class="cls-4" d="M384.952,126.66a.956.956,0,0,1-.89.954.718.718,0,0,1-.721-.747.948.948,0,0,1,.919-.954A.707.707,0,0,1,384.952,126.66Zm.694-3.133a.956.956,0,0,1-.891.954.718.718,0,0,1-.721-.747.948.948,0,0,1,.918-.954A.707.707,0,0,1,385.646,123.527Z"/>
        <path class="cls-4" d="M388.734,127.542a1.467,1.467,0,0,1-1.341-.783l-.162.756h-1.414l1.369-6.437,1.467-.225-.522,2.476a1.73,1.73,0,0,1,1.206-.486,1.942,1.942,0,0,1,1.746,2.124A2.47,2.47,0,0,1,388.734,127.542Zm-.82-3.169-.314,1.5a1.1,1.1,0,0,0,.909.46,1.19,1.19,0,0,0,1.179-1.252.977.977,0,0,0-.981-1.044A1.093,1.093,0,0,0,387.914,124.373Z"/>
        <path class="cls-4" d="M393.323,125.543c-.117.532.135.9.622.9a1.038,1.038,0,0,0,.764-.351l.7-3.223h1.432l-1.008,4.645H394.4l.153-.72a2,2,0,0,1-1.522.774,1.234,1.234,0,0,1-1.215-1.665l.648-3.034H393.9Z"/>
        <path class="cls-4" d="M398.381,127.515h-1.432l1.009-4.645h1.432Zm-.252-6.077a.937.937,0,0,1,.9-.918.719.719,0,0,1,.73.72.919.919,0,0,1-.91.909A.7.7,0,0,1,398.129,121.438Z"/>
        <path class="cls-4" d="M400.928,127.515H399.5l1.369-6.437,1.467-.225Z"/>
        <path class="cls-4" d="M405.276,127.083a1.706,1.706,0,0,1-1.171.459,1.943,1.943,0,0,1-1.746-2.125,2.47,2.47,0,0,1,2.349-2.574,1.517,1.517,0,0,1,1.315.675l.512-2.44,1.468-.225-1.4,6.662h-1.413Zm-.54-.738a1.041,1.041,0,0,0,.747-.3l.341-1.612a1.16,1.16,0,0,0-.89-.387,1.188,1.188,0,0,0-1.171,1.251A.976.976,0,0,0,404.736,126.345Z"/>
      </g>
    </g>
  </g>
  <g id="mvn_oc:resource" data-name="mvn oc:resource">
    <g>
      <rect class="cls-3" x="73.48" y="116.024" width="86.552" height="17.31"/>
      <g>
        <path class="cls-4" d="M81.864,122.869H83.3l-.189.855a1.888,1.888,0,0,1,1.477-.909,1.1,1.1,0,0,1,1.134.981,2.09,2.09,0,0,1,1.666-.981c.837,0,1.287.72,1.08,1.71l-.63,2.989H86.4l.576-2.764c.1-.477-.117-.81-.54-.81a.954.954,0,0,0-.72.414,1.333,1.333,0,0,1-.027.171l-.63,2.989H83.628l.576-2.764c.1-.5-.108-.81-.54-.81a.937.937,0,0,0-.684.369l-.693,3.2H80.856Z"/>
        <path class="cls-4" d="M89.424,122.869h1.5l.4,2.944L93,122.869h1.522l-2.872,4.645H90.26Z"/>
        <path class="cls-4" d="M95.139,122.869H96.57l-.153.72a1.994,1.994,0,0,1,1.522-.774c.936,0,1.431.675,1.215,1.665l-.648,3.034H97.074l.577-2.674c.116-.531-.136-.9-.622-.9a1.042,1.042,0,0,0-.765.351l-.7,3.223H94.131Z"/>
        <path class="cls-4" d="M104.418,122.8a2.1,2.1,0,0,1,2.178,2.161A2.634,2.634,0,0,1,104,127.6a2.113,2.113,0,0,1-2.179-2.169A2.609,2.609,0,0,1,104.418,122.8Zm.774,2.2a.863.863,0,0,0-.864-.981,1.233,1.233,0,0,0-1.1,1.35c0,.622.333,1.009.855,1.009C104.724,126.371,105.192,125.786,105.192,124.993Z"/>
        <path class="cls-4" d="M110.538,125.966l.7.909a2.546,2.546,0,0,1-1.81.738,2.064,2.064,0,0,1-2.133-2.124,2.6,2.6,0,0,1,2.547-2.692,2.219,2.219,0,0,1,1.936.99l-1.008.828a1.01,1.01,0,0,0-.954-.567,1.215,1.215,0,0,0-1.1,1.314.9.9,0,0,0,.936.991A1.176,1.176,0,0,0,110.538,125.966Z"/>
        <path class="cls-4" d="M113.372,126.659a.956.956,0,0,1-.891.954.717.717,0,0,1-.72-.747.948.948,0,0,1,.918-.954A.707.707,0,0,1,113.372,126.659Zm.694-3.133a.957.957,0,0,1-.892.954.717.717,0,0,1-.72-.747.948.948,0,0,1,.918-.954A.708.708,0,0,1,114.066,123.526Z"/>
        <path class="cls-4" d="M115.244,122.869h1.431l-.215,1c.432-.729.864-1.071,1.359-1.071a1.014,1.014,0,0,1,.558.153l-.261,1.242a1.408,1.408,0,0,0-.72-.18,1.461,1.461,0,0,0-1.08.5l-.649,3h-1.431Z"/>
        <path class="cls-4" d="M120.69,127.613a2.147,2.147,0,0,1-2.269-2.2,2.6,2.6,0,0,1,2.521-2.62,1.951,1.951,0,0,1,2.025,2.079,3.639,3.639,0,0,1-.054.685H119.8a1.012,1.012,0,0,0,1.043.9,1.181,1.181,0,0,0,.874-.342l.783.882A2.874,2.874,0,0,1,120.69,127.613Zm-.8-2.872h1.819a.84.84,0,0,0-.846-.8A1.068,1.068,0,0,0,119.888,124.741Z"/>
        <path class="cls-4" d="M124,125.957a2.621,2.621,0,0,0,1.486.585c.342,0,.584-.162.584-.387,0-.162-.107-.261-.359-.324l-.856-.216a1.281,1.281,0,0,1-1.1-1.234c0-1,.693-1.593,1.864-1.593a3.2,3.2,0,0,1,1.989.675l-.765.873a2.324,2.324,0,0,0-1.305-.5c-.343,0-.523.117-.523.333,0,.171.1.252.4.333l.838.216c.738.19,1.152.622,1.152,1.207a1.789,1.789,0,0,1-1.954,1.683,3.434,3.434,0,0,1-2.2-.729Z"/>
        <path class="cls-4" d="M130.823,122.8A2.1,2.1,0,0,1,133,124.958a2.634,2.634,0,0,1-2.593,2.646,2.112,2.112,0,0,1-2.178-2.169A2.609,2.609,0,0,1,130.823,122.8Zm.775,2.2a.863.863,0,0,0-.864-.981,1.233,1.233,0,0,0-1.1,1.35c0,.622.333,1.009.855,1.009C131.13,126.371,131.6,125.786,131.6,124.993Z"/>
        <path class="cls-4" d="M135.242,125.542c-.117.532.135.9.621.9a1.046,1.046,0,0,0,.766-.351l.7-3.223h1.431l-1.008,4.645h-1.432l.153-.72a1.994,1.994,0,0,1-1.521.774,1.236,1.236,0,0,1-1.216-1.665l.649-3.034h1.431Z"/>
        <path class="cls-4" d="M139.877,122.869h1.431l-.216,1c.433-.729.865-1.071,1.36-1.071a1.014,1.014,0,0,1,.558.153l-.261,1.242a1.408,1.408,0,0,0-.72-.18,1.463,1.463,0,0,0-1.081.5l-.648,3h-1.431Z"/>
        <path class="cls-4" d="M146.295,125.966l.7.909a2.546,2.546,0,0,1-1.81.738,2.064,2.064,0,0,1-2.133-2.124A2.6,2.6,0,0,1,145.6,122.8a2.219,2.219,0,0,1,1.936.99l-1.008.828a1.01,1.01,0,0,0-.955-.567,1.215,1.215,0,0,0-1.1,1.314.9.9,0,0,0,.936.991A1.176,1.176,0,0,0,146.295,125.966Z"/>
        <path class="cls-4" d="M150.074,127.613a2.146,2.146,0,0,1-2.268-2.2,2.6,2.6,0,0,1,2.52-2.62,1.952,1.952,0,0,1,2.026,2.079,3.639,3.639,0,0,1-.054.685h-3.115a1.014,1.014,0,0,0,1.044.9,1.184,1.184,0,0,0,.874-.342l.783.882A2.874,2.874,0,0,1,150.074,127.613Zm-.8-2.872h1.818a.839.839,0,0,0-.846-.8A1.067,1.067,0,0,0,149.273,124.741Z"/>
      </g>
    </g>
  </g>
  <g id="VCS">
    <g>
      <rect class="cls-5" x="459.551" y="156.516" width="104.892" height="45.634"/>
      <g>
        <path class="cls-4" d="M501.773,175.322h1.29l2.148,5.787,2.169-5.787h1.239l-2.738,7h-1.39Z"/>
        <path class="cls-4" d="M514.72,180.429l.789.76a3.591,3.591,0,1,1,.03-4.737l-.809.8a2.461,2.461,0,1,0-1.879,4.088A2.374,2.374,0,0,0,514.72,180.429Z"/>
        <path class="cls-4" d="M516.8,180.409a3.5,3.5,0,0,0,2.349,1.02c.929,0,1.569-.47,1.569-1.11,0-.569-.34-.829-1.27-1l-1.289-.22c-1.21-.22-1.8-.819-1.8-1.779,0-1.259,1.009-2.1,2.579-2.1a4.671,4.671,0,0,1,2.808.91l-.609.9a3.636,3.636,0,0,0-2.239-.809c-.84,0-1.39.42-1.39.989,0,.5.31.76,1.08.88l1.239.22c1.409.239,2.069.859,2.069,1.919,0,1.279-1.139,2.188-2.808,2.188a4.4,4.4,0,0,1-2.938-1.129Z"/>
      </g>
    </g>
  </g>
  <g id="Dockerfile">
    <g>
      <rect class="cls-5" x="327.574" y="156.516" width="104.892" height="45.634"/>
      <g>
        <path class="cls-4" d="M356.57,175.322h2.559a3.5,3.5,0,1,1,0,7H356.57Zm1.2,1.04v4.917h1.388a2.469,2.469,0,0,0,0-4.917Z"/>
        <path class="cls-4" d="M366.139,177.231a2.595,2.595,0,1,1-2.519,2.589A2.5,2.5,0,0,1,366.139,177.231Zm1.4,2.6a1.416,1.416,0,1,0-2.8,0,1.413,1.413,0,1,0,2.8,0Z"/>
        <path class="cls-4" d="M373.407,180.869l.68.68a2.606,2.606,0,0,1-1.959.869,2.589,2.589,0,0,1,0-5.177,2.7,2.7,0,0,1,2,.84l-.7.729a1.653,1.653,0,0,0-1.26-.589,1.606,1.606,0,0,0,.03,3.2A1.536,1.536,0,0,0,373.407,180.869Z"/>
        <path class="cls-4" d="M375.06,175.172l1.13-.19v4.468l2.079-2.139h1.289l-2.289,2.319,2.428,2.688h-1.449l-2.058-2.308v2.308h-1.13Z"/>
        <path class="cls-4" d="M382.789,182.418a2.545,2.545,0,0,1-2.549-2.6,2.467,2.467,0,0,1,2.439-2.589,2.4,2.4,0,0,1,2.369,2.579v.279h-3.7a1.529,1.529,0,0,0,1.5,1.37,1.624,1.624,0,0,0,1.189-.47l.74.69A2.9,2.9,0,0,1,382.789,182.418Zm-1.42-3.018h2.61a1.37,1.37,0,0,0-1.31-1.249A1.346,1.346,0,0,0,381.369,179.4Z"/>
        <path class="cls-4" d="M386.2,177.311h1.13V178.4a1.485,1.485,0,0,1,1.379-1.179,1.331,1.331,0,0,1,.49.1v.99a1.576,1.576,0,0,0-.62-.121,1.375,1.375,0,0,0-1.249.83v3.3H386.2Z"/>
        <path class="cls-4" d="M390.809,177.311v-.89a1.537,1.537,0,0,1,1.729-1.678,2.752,2.752,0,0,1,.749.1v.96a2.3,2.3,0,0,0-.6-.08c-.52,0-.749.23-.749.719v.87h1.348v.9h-1.348v4.108h-1.13V178.21H389.73v-.9Z"/>
        <path class="cls-4" d="M394.1,175.6a.7.7,0,0,1,1.409,0,.7.7,0,0,1-1.409,0Zm1.269,6.716h-1.13v-5.007h1.13Z"/>
        <path class="cls-4" d="M397.889,182.318h-1.13v-7.146l1.13-.19Z"/>
        <path class="cls-4" d="M401.6,182.418a2.545,2.545,0,0,1-2.549-2.6,2.467,2.467,0,0,1,2.438-2.589,2.4,2.4,0,0,1,2.37,2.579v.279h-3.7a1.531,1.531,0,0,0,1.5,1.37,1.626,1.626,0,0,0,1.19-.47l.739.69A2.9,2.9,0,0,1,401.6,182.418ZM400.18,179.4h2.608a1.37,1.37,0,0,0-1.309-1.249A1.345,1.345,0,0,0,400.18,179.4Z"/>
      </g>
    </g>
  </g>
  <g id="Jar">
    <g>
      <rect class="cls-5" x="195.597" y="156.516" width="104.892" height="45.634"/>
      <g>
        <path class="cls-4" d="M243.047,182.418a2.625,2.625,0,0,1-2.659-1.938l1.1-.41a1.606,1.606,0,0,0,1.57,1.289,1.552,1.552,0,0,0,1.529-1.749v-4.288h1.2v4.318A2.587,2.587,0,0,1,243.047,182.418Z"/>
        <path class="cls-4" d="M246.939,180.879c0-.9.729-1.469,1.908-1.469a3.092,3.092,0,0,1,1.349.31v-.55c0-.66-.379-1-1.149-1a3.462,3.462,0,0,0-1.459.391l-.4-.82a4.806,4.806,0,0,1,2.079-.51c1.3,0,2.049.66,2.049,1.819v3.268H250.2v-.509a2.093,2.093,0,0,1-1.489.589A1.577,1.577,0,0,1,246.939,180.879Zm2.078.73a1.782,1.782,0,0,0,1.179-.41v-.82a2.585,2.585,0,0,0-1.159-.239c-.639,0-1.04.279-1.04.719C248,181.319,248.4,181.609,249.017,181.609Z"/>
        <path class="cls-4" d="M252.687,177.311h1.13V178.4a1.484,1.484,0,0,1,1.378-1.179,1.34,1.34,0,0,1,.491.1v.99a1.576,1.576,0,0,0-.62-.121,1.375,1.375,0,0,0-1.249.83v3.3h-1.13Z"/>
      </g>
    </g>
  </g>
  <g id="File">
    <g>
      <rect class="cls-5" x="63.62" y="156.516" width="104.892" height="45.634"/>
      <g>
        <path class="cls-3" d="M127.313,165.133v27.51a.669.669,0,0,1-.666.656H105.485a.66.66,0,0,1-.656-.656V169.365a.845.845,0,0,1,.032-.169.782.782,0,0,1,.159-.307l4.232-4.232a.879.879,0,0,1,.466-.191h16.929A.671.671,0,0,1,127.313,165.133Z"/>
        <path class="cls-6" d="M126.647,164.466H109.718a.879.879,0,0,0-.466.191l-4.232,4.232a.782.782,0,0,0-.159.307.845.845,0,0,0-.032.169v23.278a.66.66,0,0,0,.656.656h21.162a.669.669,0,0,0,.666-.656v-27.51A.671.671,0,0,0,126.647,164.466Zm-17.585,2.265V168.7h-1.979Zm16.929,25.245H106.152V170.021h3.566a.668.668,0,0,0,.666-.656v-3.576h15.607Z"/>
      </g>
    </g>
  </g>
  <g id="Developer">
    <g>
      <g>
        <path class="cls-4" d="M224.741,66.234H227.3a3.5,3.5,0,1,1,0,7h-2.559Zm1.2,1.04v4.917h1.389a2.469,2.469,0,0,0,0-4.917Z"/>
        <path class="cls-4" d="M234.34,73.331a2.546,2.546,0,0,1-2.549-2.6,2.467,2.467,0,0,1,2.439-2.589,2.4,2.4,0,0,1,2.369,2.579V71h-3.7a1.528,1.528,0,0,0,1.5,1.37,1.627,1.627,0,0,0,1.189-.47l.74.69A2.9,2.9,0,0,1,234.34,73.331Zm-1.419-3.019h2.608a1.37,1.37,0,0,0-1.309-1.249A1.344,1.344,0,0,0,232.921,70.312Z"/>
        <path class="cls-4" d="M237.161,68.223h1.23l1.388,3.658,1.39-3.658h1.19L240.3,73.23h-1.09Z"/>
        <path class="cls-4" d="M245.489,73.331a2.545,2.545,0,0,1-2.548-2.6,2.466,2.466,0,0,1,2.438-2.589,2.4,2.4,0,0,1,2.369,2.579V71h-3.7a1.529,1.529,0,0,0,1.5,1.37,1.624,1.624,0,0,0,1.189-.47l.74.69A2.9,2.9,0,0,1,245.489,73.331Zm-1.419-3.019h2.609a1.37,1.37,0,0,0-1.31-1.249A1.345,1.345,0,0,0,244.07,70.312Z"/>
        <path class="cls-4" d="M250.03,73.23H248.9V66.084l1.129-.189Z"/>
        <path class="cls-4" d="M253.709,68.143a2.6,2.6,0,1,1-2.518,2.589A2.5,2.5,0,0,1,253.709,68.143Zm1.4,2.6a1.416,1.416,0,1,0-2.8,0,1.413,1.413,0,1,0,2.8,0Z"/>
        <path class="cls-4" d="M257.4,68.223h1.109v.72a1.889,1.889,0,0,1,1.56-.76,2.561,2.561,0,0,1-.081,5.1,1.871,1.871,0,0,1-1.459-.649v2.718H257.4Zm1.129,1.469v2.089a1.536,1.536,0,0,0,1.2.55,1.6,1.6,0,0,0,0-3.2A1.473,1.473,0,0,0,258.53,69.692Z"/>
        <path class="cls-4" d="M265.829,73.331a2.546,2.546,0,0,1-2.549-2.6,2.467,2.467,0,0,1,2.439-2.589,2.4,2.4,0,0,1,2.369,2.579V71h-3.7a1.529,1.529,0,0,0,1.5,1.37,1.624,1.624,0,0,0,1.189-.47l.74.69A2.9,2.9,0,0,1,265.829,73.331Zm-1.419-3.019h2.609a1.37,1.37,0,0,0-1.31-1.249A1.345,1.345,0,0,0,264.41,70.312Z"/>
        <path class="cls-4" d="M269.24,68.223h1.13v1.09a1.485,1.485,0,0,1,1.379-1.18,1.331,1.331,0,0,1,.49.1v.99a1.593,1.593,0,0,0-.62-.12,1.375,1.375,0,0,0-1.249.829v3.3h-1.13Z"/>
      </g>
      <g>
        <path class="cls-6" d="M234.36,54.893H260.9a.691.691,0,0,0,.691-.691V37.615a.691.691,0,0,0-.691-.691h-9.952a.691.691,0,0,0,0,1.382h9.261v15.2H235.051v-15.2h9.261a.691.691,0,0,0,0-1.382H234.36a.691.691,0,0,0-.691.691V54.2A.691.691,0,0,0,234.36,54.893Z"/>
        <path class="cls-6" d="M263.11,56.828H232.148a.691.691,0,0,0,0,1.382H263.11A.691.691,0,0,0,263.11,56.828Z"/>
        <path class="cls-6" d="M246.785,49.818a.693.693,0,0,0,.82-.532l1.374-6.468a.691.691,0,1,0-1.352-.288L246.253,49A.689.689,0,0,0,246.785,49.818Z"/>
        <path class="cls-6" d="M250.941,49.223a.69.69,0,0,0,.977,0l2.834-2.833a.694.694,0,0,0,0-.977l-2.834-2.835c-.625-.643-1.62.353-.977.978l2.345,2.345-2.345,2.345A.69.69,0,0,0,250.941,49.223Z"/>
        <path class="cls-6" d="M244.317,42.578a.69.69,0,0,0-.977,0l-2.834,2.835a.694.694,0,0,0,0,.977l2.834,2.833a.691.691,0,0,0,.977-.977L241.972,45.9l2.345-2.345A.692.692,0,0,0,244.317,42.578Z"/>
      </g>
    </g>
    <rect class="cls-7" x="195.597" y="25.465" width="104.892" height="57.46"/>
  </g>
  <g id="Docker_logo" data-name="Docker logo">
    <g id="AkASKv.tif">
      <path class="cls-8" d="M136.673,275.269a1.4,1.4,0,0,0,.529.068,11.073,11.073,0,0,1,7.97,4.478c.094.123.162.157.312.1.419-.166.849-.305,1.269-.469.134-.052.207-.042.289.084.277.426.528.866.766,1.314.072.137.053.188-.1.241-1.044.372-2.084.755-3.128,1.13-.12.043-.177.071-.108.218a11.1,11.1,0,0,1,1.013,3.72c.014.145.054.145.169.1.5-.186,1-.365,1.5-.546.063-.023.125-.043.194-.066a8.239,8.239,0,0,1,.013,1.712,11.209,11.209,0,0,1-7.93,9.872,10.754,10.754,0,0,1-4.8.386,11.14,11.14,0,0,1-6.834-3.66,7.2,7.2,0,0,1-.634-.793.188.188,0,0,0-.267-.078c-.5.19-1,.364-1.5.553-.125.047-.191.046-.277-.079a11.539,11.539,0,0,1-1.607-3.484c-.038-.137-.006-.188.122-.234,1.05-.376,2.1-.761,3.148-1.136.13-.047.173-.088.134-.236a11.086,11.086,0,0,1-.287-1.681l-1.379.5a.915.915,0,0,0-.114.042c-.113.059-.131.008-.139-.1a11.209,11.209,0,0,1,1.526-6.422,11.078,11.078,0,0,1,7.96-5.376,9.308,9.308,0,0,1,1.13-.118c.043,0,.1.021.124-.039Zm7.483,7.1a7.318,7.318,0,0,0-1.1-1.489c-.064-.068-.12-.031-.183-.008-.445.162-.891.319-1.333.487a.229.229,0,0,1-.281-.056,7.137,7.137,0,0,0-6-2.01,7.235,7.235,0,0,0-6.136,5.45,5.148,5.148,0,0,0-.178,1.189l1.631-.592a8.04,8.04,0,0,0,.035,1.51c.061.434.056.434-.366.587q-1.448.526-2.9,1.054c-.064.024-.166.012-.136.148a7.308,7.308,0,0,0,1.83,3.543.179.179,0,0,0,.229.04c.5-.185,1-.362,1.5-.555a.319.319,0,0,1,.387.085,7.276,7.276,0,0,0,12.059-3.361,5.389,5.389,0,0,0,.216-1.317l-1.823.659c0-.151,0-.278,0-.405a7.091,7.091,0,0,0-.826-3.5c-.091-.174-.052-.211.112-.27C141.977,283.168,143.06,282.767,144.156,282.366Z"/>
    </g>
    <g>
      <path class="cls-9" d="M96.5,298.669q-2.355,0-4.709,0a1.747,1.747,0,0,1-1.245-.469,6.247,6.247,0,0,1-.568-.674c-.468-.583-.928-1.173-1.407-1.748-.365-.44-.716-.892-1.073-1.337l-.98-1.219q-.552-.689-1.1-1.376-.489-.609-.981-1.217a1.823,1.823,0,0,1-.444-1.181,2.216,2.216,0,0,1,.084-.471c.237-1.023.481-2.046.716-3.07.312-1.36.616-2.722.927-4.082q.24-1.044.49-2.087a1.517,1.517,0,0,1,.815-1.04c.6-.3,1.217-.581,1.826-.87l.091-.044c.66-.321,1.317-.649,1.98-.961.763-.358,1.522-.726,2.283-1.089.722-.345,1.446-.687,2.169-1.033a4.215,4.215,0,0,1,.839-.344,1.706,1.706,0,0,1,1.1.16c.3.133.593.282.891.421.665.311,1.318.646,1.982.958.762.359,1.521.727,2.282,1.09.723.344,1.445.691,2.169,1.032.435.2.865.419,1.3.629a1.682,1.682,0,0,1,.967,1.217c.148.681.318,1.358.474,2.038q.414,1.808.823,3.615c.275,1.2.556,2.408.825,3.614a1.534,1.534,0,0,1-.252,1.3c-.281.378-.576.745-.87,1.112-.32.4-.646.8-.967,1.2-.369.459-.733.921-1.1,1.38q-.7.876-1.406,1.749-.57.707-1.144,1.409c-.234.286-.45.587-.7.859a1.693,1.693,0,0,1-1.292.531C99.686,298.673,98.091,298.669,96.5,298.669Zm.03-.662v0c1.476,0,2.953-.007,4.43,0a1.772,1.772,0,0,0,1.486-.715q2.759-3.45,5.535-6.886a1.67,1.67,0,0,0,.357-1.512q-1.01-4.349-2.008-8.7a1.594,1.594,0,0,0-.913-1.141q-4.075-1.944-8.152-3.891a1.61,1.61,0,0,0-1.462,0q-4.074,1.948-8.15,3.893a1.616,1.616,0,0,0-.928,1.159q-.994,4.339-1.993,8.678a1.673,1.673,0,0,0,.347,1.515q2.793,3.456,5.57,6.922a1.713,1.713,0,0,0,1.425.681C93.555,298,95.041,298.007,96.526,298.007Z"/>
      <path class="cls-10" d="M96.526,298.007c-1.485,0-2.971,0-4.456,0a1.713,1.713,0,0,1-1.425-.681q-2.776-3.466-5.57-6.922a1.673,1.673,0,0,1-.347-1.515q1-4.338,1.993-8.678a1.616,1.616,0,0,1,.928-1.159q4.077-1.944,8.15-3.893a1.61,1.61,0,0,1,1.462,0q4.076,1.947,8.152,3.891a1.594,1.594,0,0,1,.913,1.141q1,4.35,2.008,8.7a1.67,1.67,0,0,1-.357,1.512q-2.775,3.438-5.535,6.886a1.772,1.772,0,0,1-1.486.715c-1.477-.011-2.954,0-4.43,0Zm-.379-18.377a.932.932,0,0,1-.134.662.154.154,0,0,0-.022.072c.011.145-.083.158-.192.17a6.291,6.291,0,0,0-3.714,1.735c-.118.112-.218.282-.411.107-.014-.013-.05-.006-.074,0a.447.447,0,0,1-.342-.137,5.588,5.588,0,0,1-.651-.636,1.573,1.573,0,0,0-.4-.349.487.487,0,0,0-.609.757,1.566,1.566,0,0,0,.384.287c.19.11.37.238.566.335a1.542,1.542,0,0,1,.589.692.085.085,0,0,1-.006.093c-.02.037-.042.072-.064.108a6.31,6.31,0,0,0-.916,4.07c.014.127.02.236-.146.261a.14.14,0,0,0-.078.061.577.577,0,0,1-.436.223,6.475,6.475,0,0,1-.879.1,1.185,1.185,0,0,0-.467.1.483.483,0,0,0,.211.936,1.332,1.332,0,0,0,.442-.1c.188-.074.375-.153.568-.214.277-.087.553-.227.849-.06.216-.06.245.1.3.244a6.365,6.365,0,0,0,2.461,3.1c.152.1.341.17.219.413a.071.071,0,0,0,0,.049.483.483,0,0,1-.076.432,6.127,6.127,0,0,1-.466.753,1.449,1.449,0,0,0-.246.468.494.494,0,0,0,.149.53.449.449,0,0,0,.5.068.557.557,0,0,0,.272-.255,4.048,4.048,0,0,0,.176-.446c.176-.422.17-.948.661-1.2.069-.174.187-.115.311-.073a6.347,6.347,0,0,0,3.956.058c.2-.062.362-.129.551.069a1.253,1.253,0,0,1,.281.339,6.577,6.577,0,0,1,.3.858,1.444,1.444,0,0,0,.19.439.511.511,0,0,0,.621.2.5.5,0,0,0,.263-.6,1.35,1.35,0,0,0-.214-.427c-.1-.155-.216-.3-.307-.465-.146-.258-.371-.5-.258-.835-.109-.185.035-.246.156-.325a6.374,6.374,0,0,0,2.51-3.123c.061-.159.089-.353.339-.3.013,0,.031-.013.045-.022a.45.45,0,0,1,.389-.027,6.236,6.236,0,0,1,.885.3,1.336,1.336,0,0,0,.512.127.5.5,0,0,0,.519-.391.5.5,0,0,0-.319-.546,1.106,1.106,0,0,0-.368-.087c-.185-.013-.372-.018-.554-.048-.325-.053-.688-.014-.916-.335-.183-.025-.162-.154-.15-.286a6.386,6.386,0,0,0-.919-4c-.079-.13-.16-.241.009-.36a.137.137,0,0,0,.036-.092.456.456,0,0,1,.225-.32,5.7,5.7,0,0,1,.767-.491,1.581,1.581,0,0,0,.391-.276.518.518,0,0,0,.072-.689.513.513,0,0,0-.688-.076,1.834,1.834,0,0,0-.339.3c-.144.154-.308.292-.436.458a1.668,1.668,0,0,1-.824.437.086.086,0,0,1-.092-.026c-.044-.039-.084-.083-.127-.123a6.463,6.463,0,0,0-3.576-1.756c-.185-.027-.38-.011-.381-.279,0-.013-.019-.028-.031-.039a.446.446,0,0,1-.106-.352,7.462,7.462,0,0,1,.113-1.055,1.137,1.137,0,0,0,0-.4A.491.491,0,0,0,96.5,278a.5.5,0,0,0-.456.465,1.641,1.641,0,0,0,.022.479A4.69,4.69,0,0,1,96.147,279.63Z"/>
      <path class="cls-9" d="M96.147,279.63a4.69,4.69,0,0,0-.086-.686,1.641,1.641,0,0,1-.022-.479A.5.5,0,0,1,96.5,278a.491.491,0,0,1,.515.426,1.137,1.137,0,0,1,0,.4,7.462,7.462,0,0,0-.113,1.055.446.446,0,0,0,.106.352c.012.011.031.026.031.039,0,.268.2.252.381.279a6.463,6.463,0,0,1,3.576,1.756c.043.04.083.084.127.123a.086.086,0,0,0,.092.026,1.668,1.668,0,0,0,.824-.437c.128-.166.292-.3.436-.458a1.834,1.834,0,0,1,.339-.3.513.513,0,0,1,.688.076.518.518,0,0,1-.072.689,1.581,1.581,0,0,1-.391.276,5.7,5.7,0,0,0-.767.491.456.456,0,0,0-.225.32.137.137,0,0,1-.036.092c-.169.119-.088.23-.009.36a6.386,6.386,0,0,1,.919,4c-.012.132-.033.261.15.286.228.321.591.282.916.335.182.03.369.035.554.048a1.106,1.106,0,0,1,.368.087.5.5,0,0,1,.319.546.5.5,0,0,1-.519.391,1.336,1.336,0,0,1-.512-.127,6.236,6.236,0,0,0-.885-.3.45.45,0,0,0-.389.027c-.014.009-.032.025-.045.022-.25-.054-.278.14-.339.3a6.374,6.374,0,0,1-2.51,3.123c-.121.079-.265.14-.156.325-.113.34.112.577.258.835.091.161.2.31.307.465a1.35,1.35,0,0,1,.214.427.5.5,0,0,1-.263.6.511.511,0,0,1-.621-.2,1.444,1.444,0,0,1-.19-.439,6.577,6.577,0,0,0-.3-.858,1.253,1.253,0,0,0-.281-.339c-.189-.2-.348-.131-.551-.069a6.347,6.347,0,0,1-3.956-.058c-.124-.042-.242-.1-.311.073-.491.248-.485.774-.661,1.2a4.048,4.048,0,0,1-.176.446.557.557,0,0,1-.272.255.449.449,0,0,1-.5-.068.494.494,0,0,1-.149-.53,1.449,1.449,0,0,1,.246-.468,6.127,6.127,0,0,0,.466-.753.483.483,0,0,0,.076-.432.071.071,0,0,1,0-.049c.122-.243-.067-.311-.219-.413a6.365,6.365,0,0,1-2.461-3.1c-.054-.143-.083-.3-.3-.244-.3-.167-.572-.027-.849.06-.193.061-.38.14-.568.214a1.332,1.332,0,0,1-.442.1.483.483,0,0,1-.211-.936,1.185,1.185,0,0,1,.467-.1,6.475,6.475,0,0,0,.879-.1.577.577,0,0,0,.436-.223.14.14,0,0,1,.078-.061c.166-.025.16-.134.146-.261a6.31,6.31,0,0,1,.916-4.07c.022-.036.044-.071.064-.108a.085.085,0,0,0,.006-.093,1.542,1.542,0,0,0-.589-.692c-.2-.1-.376-.225-.566-.335a1.566,1.566,0,0,1-.384-.287.487.487,0,0,1,.609-.757,1.573,1.573,0,0,1,.4.349,5.588,5.588,0,0,0,.651.636.447.447,0,0,0,.342.137c.024,0,.06-.01.074,0,.193.175.293,0,.411-.107a6.291,6.291,0,0,1,3.714-1.735c.109-.012.2-.025.192-.17a.154.154,0,0,1,.022-.072A.932.932,0,0,0,96.147,279.63Zm5.168,9.031a.466.466,0,0,0-.211-.065l-1.146-.194c-.382-.064-.763-.131-1.146-.189a.442.442,0,0,0-.543.392.626.626,0,0,0,.066.293q.44,1.063.881,2.124c.083.2.088.2.261.077a5.079,5.079,0,0,0,1.8-2.263A.355.355,0,0,0,101.315,288.661Zm-8.344-5.4a1.048,1.048,0,0,0,.093.082L94.98,284.7a.932.932,0,0,0,.151.091.426.426,0,0,0,.594-.252,1.173,1.173,0,0,0,.052-.323c.008-.21.021-.421.032-.631.028-.521.058-1.042.082-1.564.009-.179,0-.182-.184-.163l-.076.01a5.122,5.122,0,0,0-2.476,1.183A.508.508,0,0,0,92.971,283.259Zm-1.529,4.134a.156.156,0,0,0,.14,0q1.118-.321,2.235-.644a.87.87,0,0,0,.187-.075.42.42,0,0,0,.149-.644,1.338,1.338,0,0,0-.192-.2q-.81-.728-1.622-1.451c-.053-.048-.1-.117-.2-.116A5.019,5.019,0,0,0,91.442,287.393Zm6.718,4.353c-.031-.063-.056-.116-.084-.166q-.543-.984-1.087-1.966c-.025-.044-.05-.088-.079-.129a.434.434,0,0,0-.767.009c-.023.035-.042.073-.062.11l-1.075,1.944-.061.11c-.039.07-.013.109.059.129.049.013.1.031.145.045a4.967,4.967,0,0,0,2.124.138A3.41,3.41,0,0,0,98.16,291.746Zm2.717-7.484a.258.258,0,0,0-.125.079q-.868.775-1.736,1.552a.875.875,0,0,0-.122.129.428.428,0,0,0,.137.633.983.983,0,0,0,.21.085q1.093.318,2.188.632c.185.053.195.043.213-.149a.844.844,0,0,0,0-.1,5.219,5.219,0,0,0-.614-2.631A.594.594,0,0,0,100.877,284.262Zm-.8-1.025c-.071-.067-.13-.127-.193-.181a5.073,5.073,0,0,0-2.3-1.151c-.106-.023-.215-.039-.323-.054-.071-.011-.113.018-.111.1,0,.05,0,.1.006.151q.067,1.122.135,2.243a.445.445,0,0,0,.743.374c.043-.027.083-.058.124-.087q.855-.606,1.709-1.213A.663.663,0,0,0,100.082,283.237Zm-8.341,5.428a1.018,1.018,0,0,0,.03.106,5.063,5.063,0,0,0,1.853,2.341c.139.1.147.095.213-.065q.447-1.073.887-2.147a.72.72,0,0,0,.051-.22.409.409,0,0,0-.422-.458,1.518,1.518,0,0,0-.277.025c-.506.084-1.013.165-1.517.259A5.7,5.7,0,0,0,91.741,288.665Zm4.829-2.571c-.442,0-.442,0-.691.31-.053.066-.1.135-.159.2a.239.239,0,0,0-.054.229c.121.654.12.654.722.921a.282.282,0,0,0,.285,0,.739.739,0,0,1,.182-.086.663.663,0,0,0,.49-.588.688.688,0,0,0-.152-.661C97.007,286.193,96.839,286.007,96.57,286.094Z"/>
      <path class="cls-10" d="M101.315,288.661a.355.355,0,0,1-.039.175,5.079,5.079,0,0,1-1.8,2.263c-.173.122-.178.121-.261-.077q-.442-1.06-.881-2.124a.626.626,0,0,1-.066-.293.442.442,0,0,1,.543-.392c.383.058.764.125,1.146.189l1.146.194A.466.466,0,0,1,101.315,288.661Z"/>
      <path class="cls-10" d="M92.971,283.259a.508.508,0,0,1,.184-.209,5.122,5.122,0,0,1,2.476-1.183l.076-.01c.183-.019.193-.016.184.163-.024.522-.054,1.043-.082,1.564-.011.21-.024.421-.032.631a1.173,1.173,0,0,1-.052.323.426.426,0,0,1-.594.252.932.932,0,0,1-.151-.091l-1.916-1.358A1.048,1.048,0,0,1,92.971,283.259Z"/>
      <path class="cls-10" d="M91.442,287.393a5.019,5.019,0,0,1,.7-3.127c.1,0,.149.068.2.116q.813.723,1.622,1.451a1.338,1.338,0,0,1,.192.2.42.42,0,0,1-.149.644.87.87,0,0,1-.187.075q-1.116.324-2.235.644A.156.156,0,0,1,91.442,287.393Z"/>
      <path class="cls-10" d="M98.16,291.746a3.41,3.41,0,0,1-.887.224,4.967,4.967,0,0,1-2.124-.138c-.049-.014-.1-.032-.145-.045-.072-.02-.1-.059-.059-.129l.061-.11,1.075-1.944c.02-.037.039-.075.062-.11a.434.434,0,0,1,.767-.009c.029.041.054.085.079.129q.543.983,1.087,1.966C98.1,291.63,98.129,291.683,98.16,291.746Z"/>
      <path class="cls-10" d="M100.877,284.262a.594.594,0,0,1,.155.229,5.219,5.219,0,0,1,.614,2.631.844.844,0,0,1,0,.1c-.018.192-.028.2-.213.149q-1.095-.314-2.188-.632a.983.983,0,0,1-.21-.085.428.428,0,0,1-.137-.633.875.875,0,0,1,.122-.129q.867-.777,1.736-1.552A.258.258,0,0,1,100.877,284.262Z"/>
      <path class="cls-10" d="M100.082,283.237a.663.663,0,0,1-.21.178q-.854.607-1.709,1.213c-.041.029-.081.06-.124.087a.445.445,0,0,1-.743-.374q-.069-1.12-.135-2.243c0-.05,0-.1-.006-.151,0-.078.04-.107.111-.1.108.015.217.031.323.054a5.073,5.073,0,0,1,2.3,1.151C99.952,283.11,100.011,283.17,100.082,283.237Z"/>
      <path class="cls-10" d="M91.741,288.665a5.7,5.7,0,0,1,.818-.159c.5-.094,1.011-.175,1.517-.259a1.518,1.518,0,0,1,.277-.025.409.409,0,0,1,.422.458.72.72,0,0,1-.051.22q-.441,1.076-.887,2.147c-.066.16-.074.162-.213.065a5.063,5.063,0,0,1-1.853-2.341A1.018,1.018,0,0,1,91.741,288.665Z"/>
      <path class="cls-10" d="M96.57,286.094c.269-.087.437.1.623.318a.688.688,0,0,1,.152.661.663.663,0,0,1-.49.588.739.739,0,0,0-.182.086.282.282,0,0,1-.285,0c-.6-.267-.6-.267-.722-.921a.239.239,0,0,1,.054-.229c.057-.062.106-.131.159-.2C96.128,286.094,96.128,286.094,96.57,286.094Z"/>
    </g>
  </g>
  <g id="Black_Connectors" data-name="Black Connectors">
    <g>
      <line class="cls-11" x1="247.742" y1="82.924" x2="247.742" y2="151.222"/>
      <polygon class="cls-4" points="244.002 150.128 247.742 156.604 251.481 150.128 244.002 150.128"/>
    </g>
    <g>
      <polyline class="cls-11" points="189.597 54.893 34.753 54.893 34.753 337.258 63.62 337.258"/>
      <polygon class="cls-4" points="188.503 51.153 194.979 54.893 188.503 58.632 188.503 51.153"/>
    </g>
  </g>
  <g id="Test_Verify_application" data-name="Test/Verify application">
    <g>
      <rect class="cls-3" x="69.248" y="46.237" width="100.401" height="17.31"/>
      <g>
        <path class="cls-4" d="M74.766,51.748h4.922l-.2.888H77.543l-1.085,5.093H75.449l1.086-5.093H74.57Z"/>
        <path class="cls-4" d="M81.5,57.814a1.922,1.922,0,0,1-2.016-1.991,2.363,2.363,0,0,1,2.255-2.435,1.756,1.756,0,0,1,1.787,1.888,3.485,3.485,0,0,1-.035.547H80.408a1.156,1.156,0,0,0,1.171,1.188,1.432,1.432,0,0,0,.974-.35l.521.632A2.566,2.566,0,0,1,81.5,57.814Zm-1.016-2.58h2.187a1.016,1.016,0,0,0-.982-1.051A1.3,1.3,0,0,0,80.486,55.234Z"/>
        <path class="cls-4" d="M84.41,56.49a2.076,2.076,0,0,0,1.384.59c.453,0,.8-.257.8-.59,0-.222-.145-.359-.5-.453l-.726-.2c-.667-.18-1-.556-1-1.111,0-.829.624-1.35,1.606-1.35a2.7,2.7,0,0,1,1.743.632l-.529.6a2.159,2.159,0,0,0-1.274-.5c-.435,0-.7.2-.7.5,0,.248.128.368.5.47l.727.2c.709.2,1.051.539,1.051,1.078a1.56,1.56,0,0,1-1.7,1.469,2.731,2.731,0,0,1-1.9-.718Z"/>
        <path class="cls-4" d="M89.334,54.217H88.5l.171-.769H89.5l.248-1.179,1-.206-.3,1.385h1.17l-.17.769H90.282l-.462,2.145c-.1.444.052.615.539.615a1.815,1.815,0,0,0,.487-.068l-.171.8a3.152,3.152,0,0,1-.726.085c-.889,0-1.291-.452-1.111-1.264Z"/>
        <path class="cls-4" d="M95.138,51.748h.974l-5,7.758H90.13Z"/>
        <path class="cls-4" d="M96.473,51.748h1.034l.777,4.964,2.837-4.964h1.094l-3.538,5.981h-1.17Z"/>
        <path class="cls-4" d="M103.859,57.814a1.923,1.923,0,0,1-2.017-1.991,2.363,2.363,0,0,1,2.256-2.435,1.756,1.756,0,0,1,1.786,1.888,3.619,3.619,0,0,1-.034.547h-3.085a1.155,1.155,0,0,0,1.171,1.188,1.433,1.433,0,0,0,.974-.35l.521.632A2.569,2.569,0,0,1,103.859,57.814Zm-1.017-2.58h2.187a1.014,1.014,0,0,0-.982-1.051A1.3,1.3,0,0,0,102.842,55.234Z"/>
        <path class="cls-4" d="M107.305,53.448h.957l-.188.855a1.522,1.522,0,0,1,1.273-.923,1.067,1.067,0,0,1,.478.1l-.187.846a1.149,1.149,0,0,0-.565-.128,1.407,1.407,0,0,0-1.119.65l-.624,2.879h-.957Z"/>
        <path class="cls-4" d="M110.622,57.729h-.957l.931-4.281h.957Zm.119-5.674a.683.683,0,0,1,.659-.666.526.526,0,0,1,.529.529.671.671,0,0,1-.666.658A.507.507,0,0,1,110.741,52.055Z"/>
        <path class="cls-4" d="M113.255,53.448l.179-.863a1.521,1.521,0,0,1,1.573-1.333,2.191,2.191,0,0,1,.769.128l-.171.82a1.653,1.653,0,0,0-.564-.1.609.609,0,0,0-.667.572l-.162.778h1.162l-.179.769H114.05l-.744,3.512h-.948l.734-3.512h-.88l.18-.769Z"/>
        <path class="cls-4" d="M116.332,57.789l-.683-4.341h.991l.428,3.247,1.871-3.247h1.042l-3.016,5.05a1.79,1.79,0,0,1-1.624,1.043,2.165,2.165,0,0,1-.6-.095l.171-.82a2,2,0,0,0,.385.052.817.817,0,0,0,.777-.445Z"/>
        <path class="cls-4" d="M121.745,56.6c0-.837.658-1.375,1.683-1.375a2.761,2.761,0,0,1,1.265.3l.077-.358c.145-.658-.162-.983-.914-.983a3.223,3.223,0,0,0-1.162.265l-.231-.71a4.653,4.653,0,0,1,1.623-.35c1.248,0,1.863.667,1.632,1.743l-.572,2.6h-.94l.085-.384a1.87,1.87,0,0,1-1.171.435C122.283,57.78,121.745,57.319,121.745,56.6Zm1.717.5a1.576,1.576,0,0,0,.949-.307l.162-.727a2.089,2.089,0,0,0-1.025-.222c-.556,0-.915.265-.915.667C122.633,56.892,122.933,57.105,123.462,57.105Z"/>
        <path class="cls-4" d="M127.216,53.448h.939l-.093.453a1.64,1.64,0,0,1,1.162-.479,1.786,1.786,0,0,1,1.658,1.94,2.315,2.315,0,0,1-2.188,2.418,1.457,1.457,0,0,1-1.307-.7l-.53,2.461h-.949Zm.709,1.145-.393,1.82a1.2,1.2,0,0,0,1.017.547,1.441,1.441,0,0,0,1.4-1.513,1.124,1.124,0,0,0-1.119-1.221A1.279,1.279,0,0,0,127.925,54.593Z"/>
        <path class="cls-4" d="M132.328,53.448h.941l-.094.453a1.638,1.638,0,0,1,1.162-.479,1.786,1.786,0,0,1,1.657,1.94,2.315,2.315,0,0,1-2.187,2.418,1.461,1.461,0,0,1-1.308-.7l-.529,2.461h-.949Zm.71,1.145-.393,1.82a1.2,1.2,0,0,0,1.016.547,1.441,1.441,0,0,0,1.4-1.513,1.124,1.124,0,0,0-1.119-1.221A1.279,1.279,0,0,0,133.038,54.593Z"/>
        <path class="cls-4" d="M137.466,57.729h-.957l1.291-6.11.974-.162Z"/>
        <path class="cls-4" d="M139.6,57.729h-.957l.932-4.281h.957Zm.12-5.674a.683.683,0,0,1,.658-.666.527.527,0,0,1,.53.529.671.671,0,0,1-.666.658A.507.507,0,0,1,139.715,52.055Z"/>
        <path class="cls-4" d="M144.073,56.584l.462.606a2.353,2.353,0,0,1-1.606.624,1.862,1.862,0,0,1-1.9-1.939,2.423,2.423,0,0,1,2.333-2.487,2,2,0,0,1,1.692.863l-.683.564a1.152,1.152,0,0,0-1.034-.572A1.48,1.48,0,0,0,141.98,55.8a1.092,1.092,0,0,0,1.1,1.171A1.445,1.445,0,0,0,144.073,56.584Z"/>
        <path class="cls-4" d="M145.221,56.6c0-.837.658-1.375,1.683-1.375a2.764,2.764,0,0,1,1.265.3l.077-.358c.145-.658-.163-.983-.915-.983a3.231,3.231,0,0,0-1.162.265l-.23-.71a4.653,4.653,0,0,1,1.623-.35c1.248,0,1.863.667,1.633,1.743l-.573,2.6h-.94l.085-.384a1.87,1.87,0,0,1-1.17.435C145.759,57.78,145.221,57.319,145.221,56.6Zm1.718.5a1.575,1.575,0,0,0,.948-.307l.162-.727a2.089,2.089,0,0,0-1.025-.222c-.556,0-.914.265-.914.667C146.11,56.892,146.408,57.105,146.939,57.105Z"/>
        <path class="cls-4" d="M151.042,54.217h-.837l.171-.769h.828l.248-1.179,1-.206-.3,1.385h1.17l-.17.769H151.99l-.461,2.145c-.1.444.051.615.539.615a1.824,1.824,0,0,0,.487-.068l-.171.8a3.154,3.154,0,0,1-.727.085c-.888,0-1.29-.452-1.11-1.264Z"/>
        <path class="cls-4" d="M154.189,57.729h-.957l.931-4.281h.957Zm.119-5.674a.683.683,0,0,1,.658-.666.526.526,0,0,1,.53.529.671.671,0,0,1-.667.658A.507.507,0,0,1,154.308,52.055Z"/>
        <path class="cls-4" d="M157.949,53.38a1.879,1.879,0,0,1,1.914,1.991,2.389,2.389,0,0,1-2.306,2.443,1.9,1.9,0,0,1-1.923-2A2.378,2.378,0,0,1,157.949,53.38Zm.983,2.008A1.058,1.058,0,0,0,157.89,54.2a1.456,1.456,0,0,0-1.316,1.581,1.059,1.059,0,0,0,1.034,1.2A1.455,1.455,0,0,0,158.932,55.388Z"/>
        <path class="cls-4" d="M161.319,53.448h.957l-.137.641a1.763,1.763,0,0,1,1.367-.693,1.2,1.2,0,0,1,1.2,1.625l-.581,2.708h-.948l.538-2.487c.146-.64-.153-1.085-.743-1.085a1.26,1.26,0,0,0-.948.462l-.676,3.11h-.957Z"/>
      </g>
    </g>
  </g>
  <g id="Writes_Code_package" data-name="Writes Code + package">
    <g>
      <rect class="cls-3" x="190.72" y="116.024" width="114.249" height="17.31"/>
      <g>
        <path class="cls-4" d="M202.558,127.386l-.018-6.3h1.045l-.063,4.637,2.3-4.637h1.009l.341,4.619,1.9-4.619h1.08l-2.691,6.3h-1.108l-.342-4.78-2.359,4.78Z"/>
        <path class="cls-4" d="M210.73,122.876h1.008l-.2.9a1.6,1.6,0,0,1,1.341-.972,1.122,1.122,0,0,1,.5.108l-.2.891a1.208,1.208,0,0,0-.594-.135,1.481,1.481,0,0,0-1.179.685l-.657,3.033h-1.009Z"/>
        <path class="cls-4" d="M214.222,127.386h-1.008l.981-4.51H215.2Zm.126-5.978a.72.72,0,0,1,.693-.7.555.555,0,0,1,.558.559.707.707,0,0,1-.7.693A.535.535,0,0,1,214.348,121.408Z"/>
        <path class="cls-4" d="M216.805,123.686h-.882l.18-.81h.873l.261-1.243,1.054-.216-.315,1.459h1.233l-.18.81H217.8l-.485,2.26c-.109.468.053.648.566.648a1.934,1.934,0,0,0,.514-.072l-.181.846a3.3,3.3,0,0,1-.765.09c-.936,0-1.359-.477-1.17-1.332Z"/>
        <path class="cls-4" d="M221.512,127.476a2.025,2.025,0,0,1-2.124-2.1,2.489,2.489,0,0,1,2.376-2.565,1.849,1.849,0,0,1,1.882,1.989,3.717,3.717,0,0,1-.036.576h-3.25a1.217,1.217,0,0,0,1.233,1.252,1.511,1.511,0,0,0,1.027-.369l.549.666A2.712,2.712,0,0,1,221.512,127.476Zm-1.071-2.719h2.305a1.07,1.07,0,0,0-1.035-1.107A1.365,1.365,0,0,0,220.441,124.757Z"/>
        <path class="cls-4" d="M224.572,126.081a2.188,2.188,0,0,0,1.458.621c.478,0,.837-.27.837-.621,0-.234-.152-.378-.53-.477l-.766-.208c-.7-.188-1.053-.584-1.053-1.17,0-.873.657-1.422,1.692-1.422a2.849,2.849,0,0,1,1.837.666l-.558.63a2.276,2.276,0,0,0-1.342-.531c-.459,0-.738.207-.738.531,0,.261.135.387.522.5l.765.207c.748.208,1.108.568,1.108,1.135a1.643,1.643,0,0,1-1.792,1.548,2.875,2.875,0,0,1-2-.756Z"/>
        <path class="cls-4" d="M233.914,126.18l.487.639a2.487,2.487,0,0,1-1.693.657,1.961,1.961,0,0,1-2-2.043,2.551,2.551,0,0,1,2.457-2.62,2.11,2.11,0,0,1,1.783.909l-.72.594a1.212,1.212,0,0,0-1.09-.6,1.559,1.559,0,0,0-1.431,1.639,1.15,1.15,0,0,0,1.161,1.233A1.524,1.524,0,0,0,233.914,126.18Z"/>
        <path class="cls-4" d="M237.757,122.8a1.98,1.98,0,0,1,2.017,2.1,2.518,2.518,0,0,1-2.431,2.575,2,2,0,0,1-2.026-2.106A2.505,2.505,0,0,1,237.757,122.8Zm1.035,2.115a1.114,1.114,0,0,0-1.1-1.251,1.535,1.535,0,0,0-1.387,1.666,1.116,1.116,0,0,0,1.09,1.26A1.533,1.533,0,0,0,238.792,124.919Z"/>
        <path class="cls-4" d="M243.563,126.954a1.707,1.707,0,0,1-1.2.477,1.884,1.884,0,0,1-1.755-2.053,2.436,2.436,0,0,1,2.3-2.538,1.559,1.559,0,0,1,1.36.693l.54-2.584,1.035-.171-1.386,6.608h-.99Zm-.792-.369a1.375,1.375,0,0,0,.945-.378l.414-1.981a1.3,1.3,0,0,0-1.062-.522A1.511,1.511,0,0,0,241.6,125.3,1.183,1.183,0,0,0,242.771,126.585Z"/>
        <path class="cls-4" d="M248.107,127.476a2.025,2.025,0,0,1-2.124-2.1,2.489,2.489,0,0,1,2.377-2.565,1.849,1.849,0,0,1,1.88,1.989,3.6,3.6,0,0,1-.036.576h-3.25a1.218,1.218,0,0,0,1.234,1.252,1.511,1.511,0,0,0,1.026-.369l.55.666A2.714,2.714,0,0,1,248.107,127.476Zm-1.072-2.719h2.305a1.07,1.07,0,0,0-1.035-1.107A1.367,1.367,0,0,0,247.035,124.757Z"/>
        <path class="cls-4" d="M254.443,126.171l.342-1.6h-1.467l.17-.81h1.468l.342-1.575h.766l-.343,1.575h1.468l-.171.81H255.55l-.342,1.6Z"/>
        <path class="cls-4" d="M260.589,122.876h.99l-.1.477a1.729,1.729,0,0,1,1.223-.5,1.881,1.881,0,0,1,1.747,2.044,2.439,2.439,0,0,1-2.3,2.547,1.536,1.536,0,0,1-1.378-.738l-.558,2.593h-1Zm.747,1.206L260.922,126a1.263,1.263,0,0,0,1.071.576,1.518,1.518,0,0,0,1.477-1.594,1.185,1.185,0,0,0-1.18-1.287A1.348,1.348,0,0,0,261.336,124.082Z"/>
        <path class="cls-4" d="M265.079,126.2c0-.883.694-1.449,1.774-1.449a2.912,2.912,0,0,1,1.333.314l.081-.377c.152-.694-.171-1.036-.964-1.036a3.4,3.4,0,0,0-1.224.279l-.243-.747a4.889,4.889,0,0,1,1.71-.369c1.315,0,1.963.7,1.72,1.836l-.6,2.737h-.99l.09-.405a1.968,1.968,0,0,1-1.233.459C265.647,127.44,265.079,126.954,265.079,126.2Zm1.81.531a1.66,1.66,0,0,0,1-.324l.171-.765a2.205,2.205,0,0,0-1.081-.234c-.585,0-.963.279-.963.7C266.016,126.5,266.331,126.729,266.889,126.729Z"/>
        <path class="cls-4" d="M273.343,126.18l.486.639a2.484,2.484,0,0,1-1.693.657,1.961,1.961,0,0,1-2-2.043,2.551,2.551,0,0,1,2.458-2.62,2.108,2.108,0,0,1,1.782.909l-.721.594a1.211,1.211,0,0,0-1.088-.6,1.559,1.559,0,0,0-1.432,1.639,1.15,1.15,0,0,0,1.161,1.233A1.526,1.526,0,0,0,273.343,126.18Z"/>
        <path class="cls-4" d="M275.817,120.949l1.026-.171-.847,4.06,2.189-1.962h1.26l-2.593,2.242,1.692,2.268h-1.188l-1.458-2.052-.432,2.052h-1.009Z"/>
        <path class="cls-4" d="M279.273,126.2c0-.883.693-1.449,1.773-1.449a2.912,2.912,0,0,1,1.333.314l.081-.377c.152-.694-.171-1.036-.964-1.036a3.394,3.394,0,0,0-1.223.279l-.244-.747a4.894,4.894,0,0,1,1.71-.369c1.315,0,1.963.7,1.72,1.836l-.6,2.737h-.991l.09-.405a1.964,1.964,0,0,1-1.233.459C279.84,127.44,279.273,126.954,279.273,126.2Zm1.809.531a1.656,1.656,0,0,0,1-.324l.171-.765a2.205,2.205,0,0,0-1.081-.234c-.585,0-.963.279-.963.7C280.209,126.5,280.525,126.729,281.082,126.729Z"/>
        <path class="cls-4" d="M284.348,125.37a2.427,2.427,0,0,1,2.3-2.53,1.583,1.583,0,0,1,1.368.693l.144-.657h.982l-1.018,4.9a1.894,1.894,0,0,1-2.025,1.594,3.543,3.543,0,0,1-2.017-.658l.459-.71a2.607,2.607,0,0,0,1.513.548,1.024,1.024,0,0,0,1.1-.881l.153-.73a1.74,1.74,0,0,1-1.206.477A1.87,1.87,0,0,1,284.348,125.37Zm2.161,1.206a1.373,1.373,0,0,0,.945-.378l.414-1.972a1.31,1.31,0,0,0-1.071-.522,1.5,1.5,0,0,0-1.459,1.585A1.179,1.179,0,0,0,286.509,126.576Z"/>
        <path class="cls-4" d="M291.791,127.476a2.025,2.025,0,0,1-2.124-2.1,2.489,2.489,0,0,1,2.377-2.565,1.849,1.849,0,0,1,1.881,1.989,3.717,3.717,0,0,1-.036.576h-3.25a1.217,1.217,0,0,0,1.233,1.252,1.511,1.511,0,0,0,1.027-.369l.549.666A2.71,2.71,0,0,1,291.791,127.476Zm-1.071-2.719h2.3a1.07,1.07,0,0,0-1.036-1.107A1.367,1.367,0,0,0,290.72,124.757Z"/>
      </g>
    </g>
  </g>
</svg>
